<svg version="1.1" xmlns="http://www.w3.org/2000/svg" viewBox="0 0 540 420" width="540" height="420" filter="invert(93%) hue-rotate(180deg)">
  <!-- svg-source:excalidraw -->
  
  <defs>
    <style class="style-fonts">
      @font-face {
        font-family: "Virgil";
        src: url("https://excalidraw.com/Virgil.woff2");
      }
      @font-face {
        font-family: "Cascadia";
        src: url("https://excalidraw.com/Cascadia.woff2");
      }
      @font-face {
        font-family: "Assistant";
        src: url("https://excalidraw.com/Assistant-Regular.woff2");
      }
    </style>
    
  </defs>
  <rect x="0" y="0" width="540" height="420" fill="#f8f9fa"></rect><g stroke-linecap="round" transform="translate(190 230) rotate(0 30 30)"><path d="M32.08 -0.56 C38.03 -0.12, 45.96 4.93, 50.46 9.65 C54.96 14.36, 58.56 21.4, 59.09 27.73 C59.61 34.07, 57.19 42.52, 53.62 47.64 C50.05 52.77, 43.78 57, 37.66 58.49 C31.54 59.98, 22.73 59.38, 16.9 56.56 C11.07 53.74, 5.35 47.33, 2.68 41.56 C0.01 35.79, -0.68 27.97, 0.89 21.91 C2.46 15.86, 5.57 8.67, 12.09 5.22 C18.61 1.76, 34.15 1.03, 40.01 1.17 C45.87 1.32, 47.21 5.52, 47.25 6.08 M40.32 1.22 C46.24 3.1, 52.57 10.67, 55.53 16.52 C58.49 22.38, 59 30.39, 58.06 36.33 C57.13 42.26, 54.61 48.3, 49.95 52.13 C45.29 55.97, 36.84 59.03, 30.11 59.36 C23.39 59.69, 14.48 58.4, 9.61 54.14 C4.74 49.88, 1.8 40.29, 0.89 33.78 C-0.02 27.27, 1.02 20.31, 4.16 15.09 C7.29 9.88, 13.84 4.42, 19.7 2.48 C25.55 0.54, 35.98 3.38, 39.27 3.45 C42.56 3.52, 39.59 2.69, 39.43 2.89" stroke="#2f9e44" stroke-width="1" fill="none"></path></g><g transform="translate(217.07679747993097 247.28679656440357) rotate(0 2.7099990844726562 12.5)"><text x="2.7099990844726562" y="17.52" font-family="Virgil, Segoe UI Emoji" font-size="20px" fill="#2f9e44" text-anchor="middle" style="white-space: pre;" direction="ltr" dominant-baseline="alphabetic">1</text></g><g stroke-linecap="round" transform="translate(50 190) rotate(0 30 24.5)"><path d="M24.19 0.51 C30.37 -0.53, 40.31 1.58, 46 4.14 C51.7 6.69, 56.38 11.03, 58.37 15.83 C60.37 20.64, 60.33 27.87, 57.99 32.97 C55.66 38.07, 49.81 43.98, 44.37 46.43 C38.94 48.88, 31.46 48.57, 25.4 47.67 C19.33 46.78, 12.34 45.03, 7.99 41.05 C3.63 37.07, -0.44 29.02, -0.74 23.8 C-1.04 18.57, 1.45 13.53, 6.18 9.7 C10.91 5.87, 23.8 2.46, 27.65 0.83 C31.49 -0.81, 29.44 -0.29, 29.27 -0.11 M15.88 3.05 C21.36 0.2, 31.03 -1.15, 37.42 -0.25 C43.81 0.66, 50.55 4.28, 54.23 8.48 C57.91 12.67, 59.92 19.27, 59.49 24.9 C59.07 30.54, 56.26 38.39, 51.68 42.28 C47.11 46.18, 38.33 47.72, 32.02 48.3 C25.72 48.88, 18.72 48.38, 13.84 45.77 C8.96 43.16, 4.48 37.69, 2.72 32.65 C0.96 27.6, 1.13 20.45, 3.29 15.5 C5.45 10.55, 13.25 4.92, 15.68 2.94 C18.11 0.97, 17.6 3.12, 17.86 3.65" stroke="#2f9e44" stroke-width="1" fill="none"></path></g><g transform="translate(72.66680144721613 202.1758838609296) rotate(0 7.1199951171875 12.5)"><text x="7.1199951171875" y="17.52" font-family="Virgil, Segoe UI Emoji" font-size="20px" fill="#2f9e44" text-anchor="middle" style="white-space: pre;" direction="ltr" dominant-baseline="alphabetic">2</text></g><g stroke-linecap="round" transform="translate(230 110) rotate(0 30 30)"><path d="M33.93 0.09 C40 0.67, 47.61 5.6, 52.06 10.37 C56.52 15.13, 60.51 22.21, 60.64 28.69 C60.77 35.17, 56.94 43.94, 52.85 49.24 C48.76 54.53, 42.22 59.21, 36.09 60.46 C29.96 61.7, 21.67 60.11, 16.06 56.71 C10.45 53.3, 4.77 46, 2.41 40.01 C0.05 34.02, -0.2 26.81, 1.92 20.77 C4.04 14.72, 8.78 6.87, 15.1 3.76 C21.42 0.65, 35.17 2.18, 39.84 2.11 C44.51 2.04, 43.31 3.15, 43.13 3.34 M17 4.35 C22.09 1.06, 29.96 -0.51, 35.97 0.9 C41.98 2.32, 49.12 7.75, 53.06 12.84 C57 17.92, 60 25.34, 59.63 31.42 C59.25 37.49, 55.42 44.34, 50.83 49.29 C46.25 54.23, 38.33 60.14, 32.1 61.09 C25.86 62.03, 18.51 58.83, 13.43 54.96 C8.34 51.08, 3.17 43.87, 1.57 37.85 C-0.03 31.83, 1.51 24.83, 3.82 18.84 C6.13 12.84, 13.24 4.26, 15.45 1.86 C17.66 -0.54, 16.77 3.73, 17.08 4.43" stroke="#2f9e44" stroke-width="1" fill="none"></path></g><g transform="translate(252.9768066352044 127.28679656440357) rotate(0 6.809989929199219 12.5)"><text x="6.809989929199219" y="17.52" font-family="Virgil, Segoe UI Emoji" font-size="20px" fill="#2f9e44" text-anchor="middle" style="white-space: pre;" direction="ltr" dominant-baseline="alphabetic">3</text></g><g stroke-linecap="round" transform="translate(470 190) rotate(0 30 30)"><path d="M5.72 12.92 C5.72 12.92, 5.72 12.92, 5.72 12.92 M5.72 12.92 C5.72 12.92, 5.72 12.92, 5.72 12.92 M2.83 22.33 C9.04 15.76, 16.75 4.57, 21.2 1.2 M2.83 22.33 C8.13 14.09, 16.31 7.66, 21.2 1.2 M0.6 31 C7.15 26.36, 13.05 18.69, 24.87 3.07 M0.6 31 C6.25 23.34, 11.12 17.13, 24.87 3.07 M2.31 35.13 C11.41 25.41, 16.2 19.26, 29.21 4.19 M2.31 35.13 C11.09 25.17, 18.29 15.2, 29.21 4.19 M4.67 38.51 C10.52 29.52, 20.06 23, 34.19 4.55 M4.67 38.51 C11.43 30.16, 20.3 20.04, 34.19 4.55 M6.38 42.64 C15.92 29.73, 28.94 17.44, 39.18 4.91 M6.38 42.64 C15.7 32.82, 22.57 23.76, 39.18 4.91 M8.74 46.02 C17.03 35.55, 25.8 24.67, 44.82 4.51 M8.74 46.02 C21.91 30.1, 36.16 14.04, 44.82 4.51 M10.45 50.16 C23.32 36.03, 35.58 18.85, 47.84 7.14 M10.45 50.16 C19.82 40.94, 29.14 29.04, 47.84 7.14 M12.81 53.53 C20.66 42.94, 27.32 35.33, 50.2 10.52 M12.81 53.53 C26.01 39.08, 38.06 23.94, 50.2 10.52 M16.48 55.4 C27.96 43.36, 39.22 29.6, 53.22 13.14 M16.48 55.4 C28.36 40.68, 40.29 26.64, 53.22 13.14 M20.16 57.27 C33.43 43.52, 43.62 30.01, 56.24 15.76 M20.16 57.27 C35.1 40.56, 48.86 24.42, 56.24 15.76 M23.83 59.14 C30.87 50.79, 40.15 40.67, 59.26 18.39 M23.83 59.14 C33.31 48.81, 42.31 38.73, 59.26 18.39 M27.51 61.01 C38.62 49.44, 48.63 35.09, 60.31 23.28 M27.51 61.01 C38.57 47.87, 51.14 32.95, 60.31 23.28 M31.84 62.13 C40.92 52.83, 49.01 43.27, 60.71 28.92 M31.84 62.13 C42.5 50.77, 52.4 40, 60.71 28.92 M38.79 60.22 C45.98 49.59, 55.24 43.64, 61.76 33.81 M38.79 60.22 C47.86 50.42, 56.59 40.5, 61.76 33.81" stroke="#a5d8ff" stroke-width="0.5" fill="none"></path><path d="M21.86 0.81 C27.71 -1.29, 36.89 0.61, 42.8 3.22 C48.71 5.83, 54.47 11, 57.31 16.47 C60.16 21.93, 61.59 29.73, 59.86 36.02 C58.14 42.31, 52.07 50.19, 46.94 54.22 C41.82 58.25, 35.26 60.72, 29.13 60.2 C23 59.68, 14.98 55.68, 10.17 51.1 C5.35 46.52, 1.04 39.03, 0.25 32.73 C-0.54 26.42, 0.79 18.81, 5.42 13.26 C10.05 7.71, 23.23 1.61, 28.04 -0.57 C32.84 -2.75, 34.03 -0.41, 34.25 0.19 M30.72 0.8 C36.57 0.19, 42.83 1.31, 47.65 5.33 C52.47 9.36, 58.3 18.36, 59.63 24.93 C60.97 31.49, 58.77 39.28, 55.65 44.73 C52.54 50.18, 46.81 55.24, 40.92 57.62 C35.03 60.01, 26.61 60.94, 20.33 59.04 C14.05 57.14, 6.44 51.62, 3.24 46.24 C0.03 40.85, -0.21 32.97, 1.12 26.74 C2.46 20.51, 6.44 13.38, 11.25 8.86 C16.05 4.35, 27.07 1.09, 29.95 -0.33 C32.83 -1.76, 28.57 -0.37, 28.53 0.31" stroke="#2f9e44" stroke-width="1" fill="none"></path></g><g transform="translate(493.6068038886224 207.28679656440357) rotate(0 6.17999267578125 12.5)"><text x="6.17999267578125" y="17.52" font-family="Virgil, Segoe UI Emoji" font-size="20px" fill="#2f9e44" text-anchor="middle" style="white-space: pre;" direction="ltr" dominant-baseline="alphabetic">5</text></g><g stroke-linecap="round" transform="translate(350 190) rotate(0 30 30)"><path d="M30.54 -0.26 C36.66 -0.72, 44.52 2.16, 49.23 6.6 C53.94 11.04, 57.74 19.88, 58.8 26.38 C59.86 32.88, 58.76 40.33, 55.59 45.6 C52.42 50.87, 45.72 55.84, 39.78 57.99 C33.84 60.13, 26.08 60.87, 19.93 58.46 C13.78 56.04, 6.08 49.14, 2.88 43.49 C-0.32 37.83, -0.6 30.68, 0.73 24.55 C2.06 18.42, 5.46 10.82, 10.88 6.72 C16.29 2.62, 29.13 0.8, 33.23 -0.07 C37.34 -0.93, 35.67 0.93, 35.48 1.55 M39.01 1.53 C44.74 2.39, 50.68 6.57, 54.12 11.76 C57.55 16.94, 59.95 25.86, 59.61 32.66 C59.27 39.46, 56.61 48.09, 52.09 52.55 C47.57 57.02, 39.09 59.33, 32.49 59.46 C25.89 59.59, 17.76 56.89, 12.5 53.36 C7.24 49.82, 2.74 44.28, 0.92 38.25 C-0.89 32.23, -0.95 23.11, 1.6 17.22 C4.15 11.32, 10.15 5.72, 16.21 2.86 C22.26 -0.01, 34.47 0.06, 37.92 0.03 C41.37 0, 36.86 1.95, 36.91 2.69" stroke="#2f9e44" stroke-width="1" fill="none"></path></g><g transform="translate(373.38680266791926 207.28679656440357) rotate(0 6.399993896484375 12.5)"><text x="6.399993896484375" y="17.52" font-family="Virgil, Segoe UI Emoji" font-size="20px" fill="#2f9e44" text-anchor="middle" style="white-space: pre;" direction="ltr" dominant-baseline="alphabetic">4</text></g><g stroke-linecap="round" transform="translate(130 350) rotate(0 30 30)"><path d="M12.6 6.98 C12.6 6.98, 12.6 6.98, 12.6 6.98 M12.6 6.98 C12.6 6.98, 12.6 6.98, 12.6 6.98 M2.5 24.7 C9.36 18.03, 15.19 7.98, 20.22 4.32 M2.5 24.7 C6.67 18.89, 11.24 14.92, 20.22 4.32 M2.9 30.34 C9.51 19.87, 19.17 13.23, 27.83 1.66 M2.9 30.34 C9.02 22.92, 14.3 17.27, 27.83 1.66 M3.95 35.23 C11.94 25.83, 22.61 11.54, 33.47 1.27 M3.95 35.23 C14.07 23.33, 24.05 11.68, 33.47 1.27 M4.34 40.87 C14.35 28.88, 23.01 18.99, 37.14 3.14 M4.34 40.87 C13.49 29.27, 24.47 17.37, 37.14 3.14 M6.05 45.01 C12.85 36.7, 23.3 28.72, 40.82 5.01 M6.05 45.01 C12.92 37.02, 19.53 28.42, 40.82 5.01 M9.07 47.63 C18.87 37.68, 28.05 25.73, 45.15 6.12 M9.07 47.63 C18.09 37.36, 27.63 26.96, 45.15 6.12 M11.43 51.01 C22.55 38.27, 31.34 25.56, 48.83 7.99 M11.43 51.01 C19.92 41.85, 28.53 31.17, 48.83 7.99 M14.45 53.64 C22.26 43.7, 31.88 31.8, 52.5 9.86 M14.45 53.64 C26.57 40.78, 37.28 28.9, 52.5 9.86 M17.47 56.26 C27.89 46.12, 36.64 35.43, 54.21 14 M17.47 56.26 C29.09 42.13, 42.67 27.27, 54.21 14 M20.49 58.88 C31.93 46.33, 41.45 36.46, 56.57 17.38 M20.49 58.88 C29.19 47.59, 40.15 35.99, 56.57 17.38 M25.47 59.24 C37.75 45.91, 51.26 30.94, 58.28 21.51 M25.47 59.24 C37.36 45.85, 47.55 33.33, 58.28 21.51 M30.46 59.6 C42.2 47.57, 53.12 34.99, 60.64 24.89 M30.46 59.6 C38.44 51, 45.37 42.61, 60.64 24.89 M35.45 59.96 C42.03 48.16, 51.65 41.56, 63 28.27 M35.45 59.96 C41.91 53.08, 47.1 44.83, 63 28.27 M40.43 60.32 C47.06 54.56, 50.24 46.11, 60.77 36.93 M40.43 60.32 C47.5 51.79, 54.97 44.62, 60.77 36.93" stroke="#a5d8ff" stroke-width="0.5" fill="none"></path><path d="M32.19 0.12 C38.18 0.22, 45.87 4.05, 50.55 8.37 C55.23 12.69, 59.45 19.58, 60.26 26.05 C61.07 32.53, 58.89 41.65, 55.39 47.22 C51.89 52.79, 45.33 57.71, 39.24 59.48 C33.15 61.25, 24.9 60.62, 18.84 57.81 C12.77 55.01, 5.87 48.45, 2.84 42.64 C-0.18 36.84, -0.98 28.97, 0.68 22.99 C2.33 17.01, 7.39 10.61, 12.79 6.77 C18.2 2.92, 29.53 1.03, 33.1 -0.09 C36.67 -1.2, 34.26 -0.51, 34.22 0.06 M18.98 2.44 C24.41 -0.08, 32.3 -1.17, 38.59 1.05 C44.88 3.27, 53.11 10.1, 56.72 15.77 C60.33 21.44, 61.52 28.72, 60.26 35.07 C59 41.42, 54.12 49.84, 49.14 53.87 C44.16 57.9, 36.55 59.11, 30.37 59.26 C24.19 59.42, 16.89 58.93, 12.06 54.81 C7.23 50.7, 2.99 40.87, 1.4 34.55 C-0.2 28.23, -0.48 22.46, 2.51 16.89 C5.5 11.32, 16.41 3.53, 19.34 1.12 C22.27 -1.29, 19.85 1.56, 20.1 2.42" stroke="#e03131" stroke-width="1" fill="none"></path></g><g transform="translate(150.196800226513 367.2867965644036) rotate(0 9.589996337890625 12.5)"><text x="9.589996337890625" y="17.52" font-family="Virgil, Segoe UI Emoji" font-size="20px" fill="#e03131" text-anchor="middle" style="white-space: pre;" direction="ltr" dominant-baseline="alphabetic">10</text></g><g stroke-linecap="round" transform="translate(10 310) rotate(0 30 30)"><path d="M5.7 11.58 C5.7 11.58, 5.7 11.58, 5.7 11.58 M5.7 11.58 C5.7 11.58, 5.7 11.58, 5.7 11.58 M2.82 21 C6.56 16.12, 11.7 11.67, 17.25 4.39 M2.82 21 C5.31 17.58, 9.66 13.91, 17.25 4.39 M0.59 29.66 C6.66 22.37, 11.6 15.04, 24.86 1.74 M0.59 29.66 C10.3 18.75, 19.44 8.59, 24.86 1.74 M1.64 34.55 C8.74 27.83, 16.67 18.62, 29.85 2.1 M1.64 34.55 C8.3 27.42, 15.1 18.58, 29.85 2.1 M3.34 38.68 C10.97 26.88, 20.16 16.26, 34.83 2.46 M3.34 38.68 C12.07 26.06, 22.82 14.99, 34.83 2.46 M5.05 42.82 C15.28 31.5, 25.46 19.09, 39.82 2.82 M5.05 42.82 C16.07 29.63, 27.97 16.23, 39.82 2.82 M6.76 46.95 C18.13 33.87, 30.58 20.25, 44.15 3.93 M6.76 46.95 C16.77 35.32, 27.89 23, 44.15 3.93 M8.46 51.08 C22.8 35.34, 37.4 14.71, 47.17 6.55 M8.46 51.08 C21.14 35.87, 32.96 22.93, 47.17 6.55 M12.14 52.95 C20.76 40.75, 29.48 31.46, 49.53 9.93 M12.14 52.95 C24.16 39.81, 34.57 25.31, 49.53 9.93 M15.81 54.82 C25.43 44.35, 38.19 33.06, 52.55 12.56 M15.81 54.82 C24.2 44.48, 34.61 33, 52.55 12.56 M19.49 56.69 C32.32 44.95, 42.15 30.75, 54.92 15.94 M19.49 56.69 C33.87 40.87, 46.42 25.08, 54.92 15.94 M23.16 58.56 C33.83 49.75, 39.64 38.84, 57.28 19.32 M23.16 58.56 C34.9 44, 47.05 30.58, 57.28 19.32 M27.49 59.68 C36.76 50.48, 47.05 37.17, 57.67 24.96 M27.49 59.68 C32.99 52.73, 38.83 45.61, 57.67 24.96 M33.79 58.53 C41.26 48.71, 51.36 41.69, 58.72 29.85 M33.79 58.53 C42.6 49.98, 50.61 40.07, 58.72 29.85 M40.75 56.62 C45.25 51.18, 52.23 43.98, 59.12 35.49 M40.75 56.62 C47.28 48.01, 53.67 40.43, 59.12 35.49 M47.05 55.47 C47.13 54.99, 47.61 54.84, 48.36 53.96 M47.05 55.47 C47.38 55.06, 47.75 54.67, 48.36 53.96" stroke="#a5d8ff" stroke-width="0.5" fill="none"></path><path d="M43.35 2.73 C48.82 4.83, 54.13 11.45, 56.75 17.43 C59.36 23.4, 60.52 32.39, 59.05 38.58 C57.58 44.76, 53.3 51.05, 47.92 54.54 C42.55 58.04, 33.49 60.16, 26.78 59.55 C20.07 58.94, 12.08 55.55, 7.67 50.88 C3.25 46.21, 0.66 38.03, 0.28 31.53 C-0.09 25.04, 1.72 16.96, 5.42 11.9 C9.13 6.84, 15.4 2.11, 22.53 1.18 C29.66 0.24, 42.95 4.35, 48.19 6.3 C53.42 8.25, 54.08 12.36, 53.94 12.87 M22.05 1.63 C27.87 -0.01, 38.86 1.33, 44.52 3.85 C50.18 6.36, 53.42 10.9, 56 16.7 C58.59 22.49, 61.75 32.11, 60.05 38.62 C58.34 45.13, 51.36 52.09, 45.79 55.75 C40.22 59.41, 32.6 61.25, 26.61 60.57 C20.62 59.89, 14.15 56.6, 9.83 51.69 C5.51 46.77, 1.22 37.48, 0.69 31.09 C0.16 24.69, 2.95 18.57, 6.66 13.3 C10.37 8.03, 20.41 1.59, 22.94 -0.53 C25.47 -2.65, 21.8 -0.18, 21.84 0.59" stroke="#e03131" stroke-width="1" fill="none"></path></g><g transform="translate(34.36679839545832 327.2867965644036) rotate(0 5.4199981689453125 12.5)"><text x="5.4199981689453125" y="17.52" font-family="Virgil, Segoe UI Emoji" font-size="20px" fill="#e03131" text-anchor="middle" style="white-space: pre;" direction="ltr" dominant-baseline="alphabetic">11</text></g><g stroke-linecap="round" transform="translate(310 10) rotate(0 30 30)"><path d="M8.28 8.52 C8.28 8.52, 8.28 8.52, 8.28 8.52 M8.28 8.52 C8.28 8.52, 8.28 8.52, 8.28 8.52 M3.42 20.2 C7.5 15.08, 9.74 13.34, 17.2 4.35 M3.42 20.2 C7.1 15.87, 12.11 9.09, 17.2 4.35 M-0.12 30.37 C8.88 19.38, 17.77 8.82, 26.12 0.18 M-0.12 30.37 C7.58 21.15, 14.7 13, 26.12 0.18 M1.59 34.51 C8.88 24.23, 19.65 13.33, 30.46 1.3 M1.59 34.51 C7.63 27.5, 15.42 20.57, 30.46 1.3 M3.3 38.64 C8.92 31.47, 14.42 23.13, 34.79 2.41 M3.3 38.64 C11.64 29.71, 19.74 19.7, 34.79 2.41 M4.35 43.53 C13.11 33.6, 22.92 23.48, 39.77 2.77 M4.35 43.53 C14.6 31.66, 23.76 19.82, 39.77 2.77 M6.05 47.66 C14.5 39.27, 23.11 27.79, 44.1 3.89 M6.05 47.66 C14.42 37.47, 23.92 26.15, 44.1 3.89 M9.07 50.29 C22.03 36.79, 32.56 25.57, 47.78 5.76 M9.07 50.29 C19.56 39.46, 29.11 28.17, 47.78 5.76 M12.75 52.16 C23.94 37.61, 38.88 21.96, 50.14 9.14 M12.75 52.16 C23.55 39.7, 33.53 28.76, 50.14 9.14 M15.77 54.78 C23.8 43.4, 36.27 31.06, 52.5 12.52 M15.77 54.78 C29.91 38.72, 44.76 21.92, 52.5 12.52 M18.78 57.4 C32.37 42.26, 42.42 29.12, 54.87 15.9 M18.78 57.4 C32.57 42.23, 46.1 26.66, 54.87 15.9 M22.46 59.27 C31.9 49.36, 39.33 39.97, 57.23 19.27 M22.46 59.27 C32 45.86, 43.21 35.2, 57.23 19.27 M27.45 59.63 C34.98 51.91, 39.91 41.69, 58.94 23.41 M27.45 59.63 C36.5 50.12, 43.72 39.42, 58.94 23.41 M33.75 58.48 C42.51 47.78, 51.96 39.75, 58.68 29.81 M33.75 58.48 C40.19 50.72, 47.13 41.87, 58.68 29.81 M40.04 57.34 C43.46 49.84, 49.96 47.26, 58.41 36.2 M40.04 57.34 C43.97 52.61, 47.85 49.66, 58.41 36.2" stroke="#a5d8ff" stroke-width="0.5" fill="none"></path><path d="M25.83 0.08 C31.94 -1.04, 41.39 0.82, 46.85 4.3 C52.31 7.78, 56.84 14.64, 58.6 20.97 C60.37 27.31, 60.1 36.38, 57.44 42.31 C54.78 48.24, 48.29 53.6, 42.65 56.57 C37.02 59.53, 29.71 61.5, 23.64 60.1 C17.56 58.7, 10.22 53.35, 6.21 48.17 C2.2 42.98, -0.73 35.54, -0.42 28.98 C-0.12 22.42, 1.98 13.37, 8.05 8.78 C14.13 4.18, 30.01 2.38, 36.01 1.41 C42.02 0.44, 44.39 2.49, 44.09 2.97 M33 0.91 C39.51 1.19, 48.48 5.74, 53.08 10.09 C57.67 14.44, 60.21 20.59, 60.56 27.02 C60.9 33.45, 59 43.55, 55.13 48.66 C51.26 53.78, 43.92 56.48, 37.34 57.72 C30.77 58.95, 21.54 58.6, 15.69 56.05 C9.84 53.49, 4.6 47.89, 2.22 42.37 C-0.15 36.85, -0.27 29.25, 1.44 22.91 C3.15 16.57, 7.02 8.09, 12.49 4.33 C17.95 0.58, 30.69 0.94, 34.24 0.4 C37.8 -0.15, 33.92 0.63, 33.81 1.05" stroke="#2f9e44" stroke-width="1" fill="none"></path></g><g transform="translate(334.40679931098566 27.286796564403573) rotate(0 5.379997253417969 12.5)"><text x="5.379997253417969" y="17.52" font-family="Virgil, Segoe UI Emoji" font-size="20px" fill="#2f9e44" text-anchor="middle" style="white-space: pre;" direction="ltr" dominant-baseline="alphabetic">7</text></g><g stroke-linecap="round" transform="translate(370 310) rotate(0 30 30)"><path d="M34.3 1.17 C40.58 1.63, 48.06 5.2, 52.26 9.88 C56.45 14.56, 59.22 22.98, 59.47 29.25 C59.72 35.52, 57.44 42.34, 53.76 47.48 C50.07 52.62, 43.48 58.71, 37.36 60.1 C31.23 61.49, 22.96 58.75, 17.01 55.84 C11.06 52.93, 4.26 48.49, 1.68 42.64 C-0.91 36.78, -0.58 27.01, 1.49 20.7 C3.57 14.38, 8.2 7.92, 14.14 4.75 C20.09 1.59, 32.83 2.07, 37.15 1.71 C41.47 1.34, 40.38 2.16, 40.08 2.59 M38.35 0.64 C44.19 2.48, 51.6 8.67, 55.2 14.49 C58.8 20.32, 60.94 29.41, 59.93 35.61 C58.92 41.8, 53.81 47.56, 49.14 51.66 C44.46 55.76, 38.08 59.85, 31.9 60.21 C25.72 60.57, 17.14 57.87, 12.04 53.81 C6.94 49.75, 2.91 42.26, 1.3 35.82 C-0.31 29.38, -0.4 20.87, 2.37 15.17 C5.13 9.48, 11.88 4.07, 17.91 1.65 C23.94 -0.76, 35.16 0.41, 38.56 0.68 C41.96 0.94, 38.3 2.73, 38.3 3.25" stroke="#2f9e44" stroke-width="1" fill="none"></path></g><g transform="translate(393.38680266791926 327.2867965644036) rotate(0 6.399993896484375 12.5)"><text x="6.399993896484375" y="17.52" font-family="Virgil, Segoe UI Emoji" font-size="20px" fill="#2f9e44" text-anchor="middle" style="white-space: pre;" direction="ltr" dominant-baseline="alphabetic">6</text></g><g stroke-linecap="round" transform="translate(150 10) rotate(0 30 30)"><path d="M4.55 11.91 C4.55 11.91, 4.55 11.91, 4.55 11.91 M4.55 11.91 C4.55 11.91, 4.55 11.91, 4.55 11.91 M2.98 19.81 C6.55 16.83, 8.48 12.31, 16.76 3.97 M2.98 19.81 C6.96 14.68, 10.56 11.27, 16.76 3.97 M1.4 27.72 C6.01 19.72, 14.02 15.47, 25.02 0.55 M1.4 27.72 C10.06 17.52, 18.89 7.2, 25.02 0.55 M1.8 33.36 C7.74 25.71, 16.65 17.39, 29.35 1.67 M1.8 33.36 C9.44 24.51, 17.34 16.18, 29.35 1.67 M2.85 38.25 C13.24 27.24, 22.5 13.88, 33.68 2.78 M2.85 38.25 C10.99 28.98, 19.72 19.8, 33.68 2.78 M4.56 42.39 C14.39 27.85, 27.99 15.04, 38.67 3.14 M4.56 42.39 C12.91 32.79, 22.49 21.88, 38.67 3.14 M6.26 46.52 C17.31 32.97, 32.12 17.77, 43 4.26 M6.26 46.52 C16.79 32.38, 29.15 20.17, 43 4.26 M7.97 50.65 C18.56 42.35, 24.5 32.09, 46.02 6.88 M7.97 50.65 C21.03 36, 32.13 23.6, 46.02 6.88 M10.99 53.28 C21.15 41.16, 32.08 30.26, 49.04 9.5 M10.99 53.28 C24.96 36.44, 40.29 17.92, 49.04 9.5 M14.66 55.15 C25.21 41.35, 39.63 26.74, 52.06 12.13 M14.66 55.15 C29.15 38.57, 44.37 20.93, 52.06 12.13 M18.99 56.26 C32.36 40.58, 41.08 27.95, 55.08 14.75 M18.99 56.26 C31.17 41.56, 45.16 25.6, 55.08 14.75 M22.67 58.13 C32.23 50.31, 39.26 38.99, 58.1 17.38 M22.67 58.13 C30.38 49.31, 37.33 40.96, 58.1 17.38 M26.34 60 C39.91 45.22, 51.16 31.38, 58.49 23.02 M26.34 60 C35.32 48.59, 44.35 38.51, 58.49 23.02 M32.64 58.85 C42.75 47.99, 51.42 37.16, 58.89 28.66 M32.64 58.85 C43.28 46.8, 53.56 35.01, 58.89 28.66 M38.94 57.7 C44.59 51.34, 48.31 44.59, 59.28 34.31 M38.94 57.7 C45.02 51, 52.72 42.36, 59.28 34.31 M45.24 56.55 C47.1 54.98, 48.89 51.03, 54.43 45.99 M45.24 56.55 C47.36 53.56, 50.64 50.21, 54.43 45.99" stroke="#a5d8ff" stroke-width="0.5" fill="none"></path><path d="M23.34 -0.07 C28.96 -1.92, 36.74 1, 42.46 3.88 C48.18 6.76, 54.82 11.5, 57.65 17.22 C60.47 22.93, 61.13 31.74, 59.4 38.18 C57.66 44.63, 52.55 52.19, 47.21 55.86 C41.88 59.54, 33.96 60.99, 27.38 60.24 C20.8 59.5, 12.17 56.08, 7.72 51.4 C3.28 46.72, 1.19 38.78, 0.71 32.14 C0.23 25.51, 0.51 16.96, 4.82 11.59 C9.13 6.22, 22.09 1.71, 26.57 -0.09 C31.05 -1.89, 31.41 0.36, 31.7 0.81 M23.25 1.2 C29.02 -0.75, 38.22 0.08, 43.7 2.73 C49.18 5.37, 53.76 11.25, 56.12 17.07 C58.48 22.89, 59.55 31.52, 57.87 37.66 C56.18 43.81, 51.32 50.05, 46.02 53.95 C40.72 57.84, 32.3 61.6, 26.06 61.01 C19.83 60.42, 12.72 55.34, 8.61 50.41 C4.5 45.47, 2.07 37.6, 1.39 31.39 C0.71 25.19, 0.92 18.41, 4.54 13.16 C8.16 7.91, 19.97 1.73, 23.1 -0.11 C26.23 -1.96, 23.17 1.61, 23.33 2.09" stroke="#e03131" stroke-width="1" fill="none"></path></g><g transform="translate(172.13680266791926 27.286796564403573) rotate(0 7.649993896484375 12.5)"><text x="7.649993896484375" y="17.52" font-family="Virgil, Segoe UI Emoji" font-size="20px" fill="#e03131" text-anchor="middle" style="white-space: pre;" direction="ltr" dominant-baseline="alphabetic">8</text></g><g stroke-linecap="round" transform="translate(270 350) rotate(0 30 30)"><path d="M28.38 0.5 C34.25 -0.39, 41.67 2.56, 46.89 6.27 C52.12 9.98, 58.19 16.74, 59.72 22.75 C61.25 28.76, 59.07 36.6, 56.07 42.33 C53.07 48.06, 47.4 54.35, 41.72 57.14 C36.04 59.92, 27.95 60.84, 22 59.04 C16.06 57.23, 9.76 51.56, 6.03 46.33 C2.31 41.1, -0.88 33.89, -0.35 27.66 C0.19 21.43, 3.77 13.45, 9.23 8.93 C14.68 4.41, 27.88 1.94, 32.39 0.53 C36.89 -0.87, 36.4 0.18, 36.27 0.49 M24.41 1.52 C30.55 0.25, 39.71 0.79, 45.59 3.77 C51.47 6.76, 57.81 13.15, 59.69 19.44 C61.57 25.72, 59.33 35.51, 56.88 41.48 C54.44 47.44, 50.35 52.13, 45 55.22 C39.65 58.32, 31.07 61.26, 24.8 60.02 C18.53 58.78, 11.5 52.82, 7.37 47.78 C3.24 42.75, -0.05 36.16, 0.02 29.81 C0.08 23.46, 3.56 14.79, 7.77 9.66 C11.98 4.54, 22.11 0.59, 25.26 -0.95 C28.41 -2.48, 26.77 -0.36, 26.66 0.45" stroke="#2f9e44" stroke-width="1" fill="none"></path></g><g transform="translate(293.696800226513 367.2867965644036) rotate(0 6.089996337890625 12.5)"><text x="6.089996337890625" y="17.52" font-family="Virgil, Segoe UI Emoji" font-size="20px" fill="#2f9e44" text-anchor="middle" style="white-space: pre;" direction="ltr" dominant-baseline="alphabetic">9</text></g><g mask="url(#mask-BGHX608srF6EGKP7pXBio)" stroke-linecap="round"><g transform="translate(189.99999999999682 250.00000000000963) rotate(0 -40.009805697373054 -10.002451424346972)"><path d="M0.98 1.19 C-12.27 -2.18, -65.75 -16.24, -79.19 -19.94 M0.04 0.77 C-13.32 -2.41, -66.33 -14.87, -79.7 -18.36" stroke="#2f9e44" stroke-width="1" fill="none"></path></g></g><mask id="mask-BGHX608srF6EGKP7pXBio"><rect x="0" y="0" fill="#fff" width="370.0196113947429" height="370.0049028487036"></rect><rect x="145.11818502528013" y="229.99754857566265" fill="#000" width="9.7440185546875" height="20" opacity="1"></rect></mask><g transform="translate(145.11818502528013 229.99754857566268) rotate(0 5.520708235534698 10.630502704530958)"><text x="4.87200927734375" y="14.016" font-family="Virgil, Segoe UI Emoji" font-size="16px" fill="#2f9e44" text-anchor="middle" style="white-space: pre;" direction="ltr" dominant-baseline="alphabetic">9</text></g><g mask="url(#mask-DWGDDSWJE2LHdWlKubhm6)" stroke-linecap="round"><g transform="translate(230 230) rotate(0 10 -30)"><path d="M0.7 0.19 C3.8 -10.07, 15.67 -50.49, 18.99 -60.61 M-0.39 -0.76 C3.04 -10.95, 17.74 -49.6, 21.17 -59.39" stroke="#2f9e44" stroke-width="1" fill="none"></path></g></g><mask id="mask-DWGDDSWJE2LHdWlKubhm6"><rect x="0" y="0" fill="#fff" width="350" height="390"></rect><rect x="231.71198272705078" y="190" fill="#000" width="16.576034545898438" height="20" opacity="1"></rect></mask><g transform="translate(231.71198272705078 190) rotate(0 8.676868425076805 9.788887671381232)"><text x="8.288017272949219" y="14.016" font-family="Virgil, Segoe UI Emoji" font-size="16px" fill="#2f9e44" text-anchor="middle" style="white-space: pre;" direction="ltr" dominant-baseline="alphabetic">18</text></g><g mask="url(#mask-XkNBB0Juz8Ffc5cpbwSNF)" stroke-linecap="round"><g transform="translate(250 250) rotate(0 50 -10)"><path d="M0.11 0.8 C16.7 -2.57, 82.5 -17.29, 99.17 -20.95 M-1.29 0.18 C15.71 -3.01, 84.66 -16.48, 101.44 -19.92" stroke="#2f9e44" stroke-width="1" fill="none"></path></g></g><mask id="mask-XkNBB0Juz8Ffc5cpbwSNF"><rect x="0" y="0" fill="#fff" width="450" height="370"></rect><rect x="289.9999771118164" y="230" fill="#000" width="20.000045776367188" height="20" opacity="1"></rect></mask><g transform="translate(289.9999771118164 230) rotate(0 10.074217345518946 9.924419268220664)"><text x="10.000022888183594" y="14.016" font-family="Virgil, Segoe UI Emoji" font-size="16px" fill="#2f9e44" text-anchor="middle" style="white-space: pre;" direction="ltr" dominant-baseline="alphabetic">27</text></g><g mask="url(#mask-b0G0h7uHnlTZQ9R3gw032)" stroke-linecap="round"><g transform="translate(250 270) rotate(0 60 30)"><path d="M0.44 0.85 C20.51 10.85, 100.43 51.04, 120.21 61.06 M-0.79 0.25 C19.17 10.46, 98.99 49.68, 119.38 59.49" stroke="#2f9e44" stroke-width="1" fill="none"></path></g></g><mask id="mask-b0G0h7uHnlTZQ9R3gw032"><rect x="0" y="0" fill="#fff" width="470" height="430"></rect><rect x="298.7999725341797" y="290" fill="#000" width="22.400054931640625" height="20" opacity="1"></rect></mask><g transform="translate(298.7999725341797 290) rotate(0 10.909808969083315 10.652944004875607)"><text x="11.200027465820312" y="14.016" font-family="Virgil, Segoe UI Emoji" font-size="16px" fill="#2f9e44" text-anchor="middle" style="white-space: pre;" direction="ltr" dominant-baseline="alphabetic">20</text></g><g mask="url(#mask-fbku9dWAd11aqGjOiLHS5)" stroke-linecap="round"><g transform="translate(89.99879409946345 190.00180885080482) rotate(0 40.000602950268274 -60.00090442540241)"><path d="M0.63 0.35 C13.66 -19.79, 65.83 -100.89, 79.06 -121.12 M-0.5 -0.51 C12.82 -20.52, 67.99 -100.22, 81.28 -120.16" stroke="#e03131" stroke-width="1" fill="none"></path></g></g><mask id="mask-fbku9dWAd11aqGjOiLHS5"><rect x="0" y="0" fill="#fff" width="270" height="410.00361770160964"></rect><rect x="119.60737587053234" y="120.00090442540241" fill="#000" width="20.784042358398438" height="20" opacity="1"></rect></mask><g transform="translate(119.60737587053245 120.00090442540241) rotate(0 10.777985730832484 9.618990973383191)"><text x="10.392021179199219" y="14.016" font-family="Virgil, Segoe UI Emoji" font-size="16px" fill="#e03131" text-anchor="middle" style="white-space: pre;" direction="ltr" dominant-baseline="alphabetic">35</text></g><g mask="url(#mask-BclGRCJPSRou4HQAIH0vy)" stroke-linecap="round"><g transform="translate(49.99999999642819 309.9999999988094) rotate(0 10.001309780110091 -30.003929336574828)"><path d="M0.91 -0.65 C4.32 -10.7, 17.66 -50.98, 20.99 -60.68 M-0.08 1.62 C3.23 -8.25, 17.12 -49.12, 20.56 -59.49" stroke="#e03131" stroke-width="1" fill="none"></path></g></g><mask id="mask-BclGRCJPSRou4HQAIH0vy"><rect x="0" y="0" fill="#fff" width="170.00261955664837" height="470.00785867195907"></rect><rect x="49.68128719353058" y="269.99607066223456" fill="#000" width="20.640045166015625" height="20" opacity="1"></rect></mask><g transform="translate(49.681287193530466 269.99607066223456) rotate(0 10.776909849527271 10.475242161792707)"><text x="10.320022583007812" y="14.016" font-family="Virgil, Segoe UI Emoji" font-size="16px" fill="#e03131" text-anchor="middle" style="white-space: pre;" direction="ltr" dominant-baseline="alphabetic">39</text></g><g mask="url(#mask-7dw5S2dVhzMXbMDiHHLdA)" stroke-linecap="round"><g transform="translate(70 350) rotate(0 30 10)"><path d="M0.19 -1.15 C9.94 2.36, 49.38 16.84, 59.54 20.39 M-1.18 0.86 C8.29 4.05, 48 15.03, 58.35 18.46" stroke="#e03131" stroke-width="1" fill="none"></path></g></g><mask id="mask-7dw5S2dVhzMXbMDiHHLdA"><rect x="0" y="0" fill="#fff" width="230" height="470"></rect><rect x="89.18397521972656" y="350" fill="#000" width="21.632049560546875" height="20" opacity="1"></rect></mask><g transform="translate(89.18397521972656 350) rotate(0 9.996422600927701 9.617764738947155)"><text x="10.816024780273438" y="14.016" font-family="Virgil, Segoe UI Emoji" font-size="16px" fill="#e03131" text-anchor="middle" style="white-space: pre;" direction="ltr" dominant-baseline="alphabetic">24</text></g><g mask="url(#mask-i3KyeA4KZubfKhsWthQ9t)" stroke-linecap="round"><g transform="translate(190 390) rotate(0 40 0)"><path d="M-0.22 -0.88 C13.05 -0.58, 66.65 0.33, 80.09 0.59 M-1.79 1.28 C11.28 1.32, 65.58 -0.79, 79.19 -1.22" stroke="#e03131" stroke-width="1" fill="none"></path></g></g><mask id="mask-i3KyeA4KZubfKhsWthQ9t"><rect x="0" y="0" fill="#fff" width="370" height="490"></rect><rect x="222.3279800415039" y="380" fill="#000" width="15.344039916992188" height="20" opacity="1"></rect></mask><g transform="translate(222.3279800415039 380) rotate(0 6.821514373603236 10.028938703661737)"><text x="7.672019958496094" y="14.016" font-family="Virgil, Segoe UI Emoji" font-size="16px" fill="#e03131" text-anchor="middle" style="white-space: pre;" direction="ltr" dominant-baseline="alphabetic">10</text></g><g mask="url(#mask-QGlfr22Xe3zoAwtFNeBVy)" stroke-linecap="round"><g transform="translate(331.5135395372308 382.6261808459051) rotate(0 23.738722572531515 -9.49550527009248)"><path d="M1.03 0.52 C9.1 -2.74, 40.33 -16.66, 47.9 -19.96 M0.12 -0.25 C8.11 -3.36, 39.06 -15.95, 47.17 -18.93" stroke="#2f9e44" stroke-width="1" fill="none"></path></g></g><mask id="mask-QGlfr22Xe3zoAwtFNeBVy"><rect x="0" y="0" fill="#fff" width="478.99098468229386" height="501.61719138609004"></rect><rect x="346.9642448368131" y="363.1306755758126" fill="#000" width="16.576034545898438" height="20" opacity="1"></rect></mask><g transform="translate(346.9642448368131 363.1306755758126) rotate(0 8.557721185586502 9.774019511789085)"><text x="8.288017272949219" y="14.016" font-family="Virgil, Segoe UI Emoji" font-size="16px" fill="#2f9e44" text-anchor="middle" style="white-space: pre;" direction="ltr" dominant-baseline="alphabetic">18</text></g><g mask="url(#mask-0xuq8V9GK93XrM1hvAlaG)" stroke-linecap="round"><g transform="translate(430 330) rotate(0 40 -40)"><path d="M0.86 -1.15 C14.37 -14.41, 66.8 -66.85, 79.96 -80 M-0.14 0.86 C13.3 -12.16, 65.8 -65.19, 78.99 -78.47" stroke="#2f9e44" stroke-width="1" fill="none"></path></g></g><mask id="mask-0xuq8V9GK93XrM1hvAlaG"><rect x="0" y="0" fill="#fff" width="610" height="510"></rect><rect x="462.13597869873047" y="280" fill="#000" width="15.728042602539062" height="20" opacity="1"></rect></mask><g transform="translate(462.13597869873047 280) rotate(0 7.77080026944634 10.427572862529196)"><text x="7.864021301269531" y="14.016" font-family="Virgil, Segoe UI Emoji" font-size="16px" fill="#2f9e44" text-anchor="middle" style="white-space: pre;" direction="ltr" dominant-baseline="alphabetic">12</text></g><g mask="url(#mask-0N32Hn6V2D5ISMoqblKCS)" stroke-linecap="round"><g transform="translate(410 210) rotate(0 30 0)"><path d="M0.78 -0.63 C10.51 -0.55, 49.3 -0.17, 59.27 -0.11 M-0.27 1.65 C9.77 1.99, 51.53 1.49, 61.59 1.37" stroke="#2f9e44" stroke-width="1" fill="none"></path></g></g><mask id="mask-0N32Hn6V2D5ISMoqblKCS"><rect x="0" y="0" fill="#fff" width="570" height="310"></rect><rect x="432.3839797973633" y="200" fill="#000" width="15.232040405273438" height="20" opacity="1"></rect></mask><g transform="translate(432.3839797973633 200) rotate(0 8.27975875086156 10.568004564987966)"><text x="7.616020202636719" y="14.016" font-family="Virgil, Segoe UI Emoji" font-size="16px" fill="#2f9e44" text-anchor="middle" style="white-space: pre;" direction="ltr" dominant-baseline="alphabetic">13</text></g><g mask="url(#mask-mEHrsfl8ofNADx5rv9FZH)" stroke-linecap="round"><g transform="translate(370.94541495089425 190.7360785998404) rotate(0 -10 -60)"><path d="M-0.57 0.95 C-3.85 -19.09, -16.89 -100.51, -20 -120.74 M1.32 0.4 C-2.08 -19.45, -17.45 -99.63, -20.95 -119.59" stroke="#2f9e44" stroke-width="1" fill="none"></path></g></g><mask id="mask-mEHrsfl8ofNADx5rv9FZH"><rect x="0" y="0" fill="#fff" width="490.94541495089425" height="410.7360785998404"></rect><rect x="356.6414064670075" y="120.7360785998404" fill="#000" width="8.608016967773438" height="20" opacity="1"></rect></mask><g transform="translate(356.6414064670075 120.7360785998404) rotate(0 4.493420120878113 10.1070285640657)"><text x="4.304008483886719" y="14.016" font-family="Virgil, Segoe UI Emoji" font-size="16px" fill="#2f9e44" text-anchor="middle" style="white-space: pre;" direction="ltr" dominant-baseline="alphabetic">7</text></g><g mask="url(#mask-qWzbuFo08tnpj1159PxKz)" stroke-linecap="round"><g transform="translate(271.0704597987235 110.4081064544618) rotate(0 30 -20)"><path d="M-1.07 -0.16 C9.28 -6.71, 51.09 -33.58, 61.18 -40.41 M0.57 -1.3 C10.94 -7.58, 51.2 -32.56, 60.85 -39.08" stroke="#2f9e44" stroke-width="1" fill="none"></path></g></g><mask id="mask-qWzbuFo08tnpj1159PxKz"><rect x="0" y="0" fill="#fff" width="431.0704597987235" height="250.4081064544618"></rect><rect x="293.7824425257743" y="80.4081064544618" fill="#000" width="14.576034545898438" height="20" opacity="1"></rect></mask><g transform="translate(293.7824425257743 80.4081064544618) rotate(0 7.342528542131163 9.713474682718527)"><text x="7.288017272949219" y="14.016" font-family="Virgil, Segoe UI Emoji" font-size="16px" fill="#2f9e44" text-anchor="middle" style="white-space: pre;" direction="ltr" dominant-baseline="alphabetic">14</text></g><g mask="url(#mask-tZeDDwCfM305bngfLqB6C)" stroke-linecap="round"><g transform="translate(250 110) rotate(0 -30 -20)"><path d="M1.15 -0.69 C-8.67 -7.63, -49.73 -34.47, -59.88 -41.19 M0.29 1.56 C-9.59 -5.31, -50.64 -33.31, -60.77 -40.28" stroke="#e03131" stroke-width="1" fill="none"></path></g></g><mask id="mask-tZeDDwCfM305bngfLqB6C"><rect x="0" y="0" fill="#fff" width="410" height="250"></rect><rect x="209.35997772216797" y="80" fill="#000" width="21.280044555664062" height="20" opacity="1"></rect></mask><g transform="translate(209.35997772216797 80) rotate(0 10.831336999270206 10.182425561887214)"><text x="10.640022277832031" y="14.016" font-family="Virgil, Segoe UI Emoji" font-size="16px" fill="#e03131" text-anchor="middle" style="white-space: pre;" direction="ltr" dominant-baseline="alphabetic">25</text></g></svg>