<svg version="1.1" xmlns="http://www.w3.org/2000/svg" viewBox="0 0 558.8165893554688 385" width="558.8165893554688" height="385" filter="invert(93%) hue-rotate(180deg)">
  <!-- svg-source:excalidraw -->
  
  <defs>
    <style class="style-fonts">
      @font-face {
        font-family: "Virgil";
        src: url("https://excalidraw.com/Virgil.woff2");
      }
      @font-face {
        font-family: "Cascadia";
        src: url("https://excalidraw.com/Cascadia.woff2");
      }
      @font-face {
        font-family: "Assistant";
        src: url("https://excalidraw.com/Assistant-Regular.woff2");
      }
    </style>
    
  </defs>
  <rect x="0" y="0" width="558.8165893554688" height="385" fill="#f8f9fa"></rect><g transform="translate(10 10) rotate(0 220.86976623535156 12.5)"><text x="0" y="17.52" font-family="Virgil, Segoe UI Emoji" font-size="20px" fill="#1e1e1e" text-anchor="start" style="white-space: pre;" direction="ltr" dominant-baseline="alphabetic">e) 935, 278, 347, 621, 299, 392, 358, 363</text></g><g transform="translate(210 70) rotate(0 19.079978942871094 12.5)"><text x="0" y="17.52" font-family="Virgil, Segoe UI Emoji" font-size="20px" fill="#1e1e1e" text-anchor="start" style="white-space: pre;" direction="ltr" dominant-baseline="alphabetic">935</text></g><g transform="translate(50 110) rotate(0 20.149986267089844 12.5)"><text x="0" y="17.52" font-family="Virgil, Segoe UI Emoji" font-size="20px" fill="#1e1e1e" text-anchor="start" style="white-space: pre;" direction="ltr" dominant-baseline="alphabetic">278</text></g><g transform="translate(110 150) rotate(0 18.589981079101562 12.5)"><text x="0" y="17.52" font-family="Virgil, Segoe UI Emoji" font-size="20px" fill="#1971c2" text-anchor="start" style="white-space: pre;" direction="ltr" dominant-baseline="alphabetic">347</text></g><g transform="translate(190 190) rotate(0 16.22998809814453 12.5)"><text x="0" y="17.52" font-family="Virgil, Segoe UI Emoji" font-size="20px" fill="#1e1e1e" text-anchor="start" style="white-space: pre;" direction="ltr" dominant-baseline="alphabetic">621</text></g><g transform="translate(110 230) rotate(0 19.29998779296875 12.5)"><text x="0" y="17.52" font-family="Virgil, Segoe UI Emoji" font-size="20px" fill="#e03131" text-anchor="start" style="white-space: pre;" direction="ltr" dominant-baseline="alphabetic">299</text></g><g transform="translate(150 270) rotate(0 20.019981384277344 12.5)"><text x="0" y="17.52" font-family="Virgil, Segoe UI Emoji" font-size="20px" fill="#1e1e1e" text-anchor="start" style="white-space: pre;" direction="ltr" dominant-baseline="alphabetic">392</text></g><g transform="translate(110 310) rotate(0 20.639976501464844 12.5)"><text x="0" y="17.52" font-family="Virgil, Segoe UI Emoji" font-size="20px" fill="#1e1e1e" text-anchor="start" style="white-space: pre;" direction="ltr" dominant-baseline="alphabetic">358</text></g><g transform="translate(250 130) rotate(0 149.40829467773438 40)"><text x="0" y="14.016" font-family="Virgil, Segoe UI Emoji" font-size="16px" fill="#e03131" text-anchor="start" style="white-space: pre;" direction="ltr" dominant-baseline="alphabetic">el error está en el valor 299</text><text x="0" y="34.016" font-family="Virgil, Segoe UI Emoji" font-size="16px" fill="#e03131" text-anchor="start" style="white-space: pre;" direction="ltr" dominant-baseline="alphabetic">pues está en el subarbol derecho</text><text x="0" y="54.016" font-family="Virgil, Segoe UI Emoji" font-size="16px" fill="#e03131" text-anchor="start" style="white-space: pre;" direction="ltr" dominant-baseline="alphabetic">de 347, y en éste sólo pueden existir</text><text x="0" y="74.016" font-family="Virgil, Segoe UI Emoji" font-size="16px" fill="#e03131" text-anchor="start" style="white-space: pre;" direction="ltr" dominant-baseline="alphabetic">valores mayores a esa raiz (347)</text></g><g transform="translate(150 350) rotate(0 20.019973754882812 12.5)"><text x="0" y="17.52" font-family="Virgil, Segoe UI Emoji" font-size="20px" fill="#1e1e1e" text-anchor="start" style="white-space: pre;" direction="ltr" dominant-baseline="alphabetic">363</text></g><g stroke-linecap="round"><g transform="translate(210 90) rotate(0 -60 10)"><path d="M0.07 -1.18 C-19.63 1.85, -98.79 15.38, -118.82 19.11 M-1.35 0.82 C-21.05 3.89, -99.21 17.07, -119.15 20.17" stroke="#1e1e1e" stroke-width="1" fill="none"></path></g></g><mask></mask><g stroke-linecap="round"><g transform="translate(90 130) rotate(0 10 10)"><path d="M-0.06 0.98 C3.52 4.36, 17.86 17.02, 21.19 20.08 M-1.55 0.45 C2 4.06, 17.42 18.34, 20.86 21.67" stroke="#1e1e1e" stroke-width="1" fill="none"></path></g></g><mask></mask><g stroke-linecap="round"><g transform="translate(130 170) rotate(0 30 10)"><path d="M1.08 0.36 C10.92 3.54, 49.96 16.79, 59.81 20.09 M0.19 -0.5 C9.79 3.42, 48.88 18, 58.76 21.68" stroke="#1e1e1e" stroke-width="1" fill="none"></path></g></g><mask></mask><g stroke-linecap="round"><g transform="translate(190 210) rotate(0 -20 10)"><path d="M0.83 -0.02 C-6.09 3.27, -34.15 15.76, -41.11 19.03 M-0.19 -1.08 C-6.8 2.4, -32.59 16.43, -38.98 20.05" stroke="#1e1e1e" stroke-width="1" fill="none"></path></g></g><mask></mask><g stroke-linecap="round"><g transform="translate(130 250) rotate(0 10 10)"><path d="M1.17 0.94 C4.8 4.11, 17.66 16.73, 20.95 19.81 M0.32 0.39 C3.96 3.67, 17.12 17.91, 20.5 21.24" stroke="#1e1e1e" stroke-width="1" fill="none"></path></g></g><mask></mask><g stroke-linecap="round"><g transform="translate(151.7910294156801 290.5605127515364) rotate(0 -10 10)"><path d="M-0.02 0.32 C-3.55 3.71, -17.03 17.01, -20.55 20.13 M-1.49 -0.56 C-5.28 3.07, -18.9 18.33, -21.79 21.74" stroke="#1e1e1e" stroke-width="1" fill="none"></path></g></g><mask></mask><g stroke-linecap="round"><g transform="translate(150 330) rotate(0 10 10)"><path d="M-0.93 1.16 C2.46 4.49, 16 16.15, 19.48 19.3 M0.79 0.72 C4.05 4.26, 15.19 17.02, 18.26 20.46" stroke="#1e1e1e" stroke-width="1" fill="none"></path></g></g><mask></mask></svg>