<svg version="1.1" xmlns="http://www.w3.org/2000/svg" viewBox="0 0 494.8966369628906 360" width="494.8966369628906" height="360" filter="invert(93%) hue-rotate(180deg)">
  <!-- svg-source:excalidraw -->
  
  <defs>
    <style class="style-fonts">
      @font-face {
        font-family: "Virgil";
        src: url("https://excalidraw.com/Virgil.woff2");
      }
      @font-face {
        font-family: "Cascadia";
        src: url("https://excalidraw.com/Cascadia.woff2");
      }
      @font-face {
        font-family: "Assistant";
        src: url("https://excalidraw.com/Assistant-Regular.woff2");
      }
    </style>
    
  </defs>
  <rect x="0" y="0" width="494.8966369628906" height="360" fill="#f8f9fa"></rect><g transform="translate(10 10) rotate(0 186.56983947753906 12.5)"><text x="0" y="17.52" font-family="Virgil, Segoe UI Emoji" font-size="20px" fill="#1e1e1e" text-anchor="start" style="white-space: pre;" direction="ltr" dominant-baseline="alphabetic">c) 925, 202, 911, 240, 913, 245, 363</text></g><g transform="translate(170 70) rotate(0 19.389984130859375 12.5)"><text x="0" y="17.52" font-family="Virgil, Segoe UI Emoji" font-size="20px" fill="#1e1e1e" text-anchor="start" style="white-space: pre;" direction="ltr" dominant-baseline="alphabetic">925</text></g><g transform="translate(10 110) rotate(0 21.11998748779297 12.5)"><text x="0" y="17.52" font-family="Virgil, Segoe UI Emoji" font-size="20px" fill="#1e1e1e" text-anchor="start" style="white-space: pre;" direction="ltr" dominant-baseline="alphabetic">202</text></g><g transform="translate(170 150) rotate(0 11.509994506835938 12.5)"><text x="0" y="17.52" font-family="Virgil, Segoe UI Emoji" font-size="20px" fill="#1971c2" text-anchor="start" style="white-space: pre;" direction="ltr" dominant-baseline="alphabetic">911</text></g><g transform="translate(30 190) rotate(0 20.399986267089844 12.5)"><text x="0" y="17.52" font-family="Virgil, Segoe UI Emoji" font-size="20px" fill="#1e1e1e" text-anchor="start" style="white-space: pre;" direction="ltr" dominant-baseline="alphabetic">240</text></g><g transform="translate(130 230) rotate(0 15.6099853515625 12.5)"><text x="0" y="17.52" font-family="Virgil, Segoe UI Emoji" font-size="20px" fill="#e03131" text-anchor="start" style="white-space: pre;" direction="ltr" dominant-baseline="alphabetic">913</text></g><g transform="translate(50 270) rotate(0 19.699981689453125 12.5)"><text x="0" y="17.52" font-family="Virgil, Segoe UI Emoji" font-size="20px" fill="#1e1e1e" text-anchor="start" style="white-space: pre;" direction="ltr" dominant-baseline="alphabetic">245</text></g><g transform="translate(110 310) rotate(0 20.019973754882812 12.5)"><text x="0" y="17.52" font-family="Virgil, Segoe UI Emoji" font-size="20px" fill="#1e1e1e" text-anchor="start" style="white-space: pre;" direction="ltr" dominant-baseline="alphabetic">363</text></g><g stroke-linecap="round"><g transform="translate(170 90) rotate(0 -60 10)"><path d="M0.46 -0.39 C-19.55 2.99, -100.23 16.06, -120.4 19.51 M-0.75 -1.64 C-20.93 1.97, -101.41 16.88, -121.55 20.79" stroke="#1e1e1e" stroke-width="1" fill="none"></path></g></g><mask></mask><g stroke-linecap="round"><g transform="translate(51.16865174919366 131.02819656987674) rotate(0 59.41567412540317 9.485901715061626)"><path d="M-1.17 0.01 C18.35 3.26, 98 15.61, 117.83 18.68 M0.42 -1.03 C20.24 2.47, 100.06 16.65, 120.01 20.07" stroke="#1e1e1e" stroke-width="1" fill="none"></path></g></g><mask></mask><g stroke-linecap="round"><g transform="translate(170 170) rotate(0 -50 10)"><path d="M-0.19 -0.6 C-16.79 2.52, -82.54 15.82, -99.04 19.44 M-1.76 1.7 C-18.47 4.91, -83.18 17.74, -99.49 20.68" stroke="#1e1e1e" stroke-width="1" fill="none"></path></g></g><mask></mask><g stroke-linecap="round"><g transform="translate(70 210) rotate(0 30 10)"><path d="M-0.75 -1.1 C9.21 2.3, 50.64 16.41, 60.67 19.81 M1.06 0.94 C10.84 4.57, 50.52 18.03, 60.08 21.25" stroke="#1e1e1e" stroke-width="1" fill="none"></path></g></g><mask></mask><g stroke-linecap="round"><g transform="translate(130 250) rotate(0 -20 10)"><path d="M-0.15 -1.02 C-6.93 2.58, -34.21 17.35, -40.97 20.9 M-1.69 1.06 C-8.07 4.39, -32.69 15.8, -38.77 19.25" stroke="#1e1e1e" stroke-width="1" fill="none"></path></g></g><mask></mask><g stroke-linecap="round"><g transform="translate(90 290) rotate(0 10 10)"><path d="M0.5 0.64 C3.99 4.01, 16.78 16.07, 20.06 19.13 M-0.69 -0.07 C2.71 3.52, 15.78 16.9, 19.14 20.2" stroke="#1e1e1e" stroke-width="1" fill="none"></path></g></g><mask></mask><g transform="translate(190 190) rotate(0 143.74429321289062 40)"><text x="0" y="14.016" font-family="Virgil, Segoe UI Emoji" font-size="16px" fill="#e03131" text-anchor="start" style="white-space: pre;" direction="ltr" dominant-baseline="alphabetic">el error está en el valor 913</text><text x="0" y="34.016" font-family="Virgil, Segoe UI Emoji" font-size="16px" fill="#e03131" text-anchor="start" style="white-space: pre;" direction="ltr" dominant-baseline="alphabetic">pues está en el subarbol izquierdo</text><text x="0" y="54.016" font-family="Virgil, Segoe UI Emoji" font-size="16px" fill="#e03131" text-anchor="start" style="white-space: pre;" direction="ltr" dominant-baseline="alphabetic">de 911, y en éste sólo pueden existir</text><text x="0" y="74.016" font-family="Virgil, Segoe UI Emoji" font-size="16px" fill="#e03131" text-anchor="start" style="white-space: pre;" direction="ltr" dominant-baseline="alphabetic">valores menores a esa raiz (911)</text></g><g transform="translate(190 290) rotate(0 147.4483184814453 30)"><text x="0" y="14.016" font-family="Virgil, Segoe UI Emoji" font-size="16px" fill="#ced4da" text-anchor="start" style="white-space: pre;" direction="ltr" dominant-baseline="alphabetic">nota:</text><text x="0" y="34.016" font-family="Virgil, Segoe UI Emoji" font-size="16px" fill="#ced4da" text-anchor="start" style="white-space: pre;" direction="ltr" dominant-baseline="alphabetic">el valor original es 913-1, pero fue </text><text x="0" y="54.016" font-family="Virgil, Segoe UI Emoji" font-size="16px" fill="#ced4da" text-anchor="start" style="white-space: pre;" direction="ltr" dominant-baseline="alphabetic">reemplazado por razones fubolísticas</text></g></svg>