<svg version="1.1" xmlns="http://www.w3.org/2000/svg" viewBox="0 0 559.7760314941406 240" width="559.7760314941406" height="240" filter="invert(93%) hue-rotate(180deg)">
  <!-- svg-source:excalidraw -->
  
  <defs>
    <style class="style-fonts">
      @font-face {
        font-family: "Virgil";
        src: url("https://excalidraw.com/Virgil.woff2");
      }
      @font-face {
        font-family: "Cascadia";
        src: url("https://excalidraw.com/Cascadia.woff2");
      }
      @font-face {
        font-family: "Assistant";
        src: url("https://excalidraw.com/Assistant-Regular.woff2");
      }
    </style>
    
  </defs>
  <rect x="0" y="0" width="559.7760314941406" height="240" fill="#f8f9fa"></rect><g transform="translate(10 50) rotate(0 7.1120147705078125 10)"><text x="0" y="14.016" font-family="Virgil, Segoe UI Emoji" font-size="16px" fill="#1e1e1e" text-anchor="start" style="white-space: pre;" direction="ltr" dominant-baseline="alphabetic">15</text></g><g transform="translate(290 50) rotate(0 10.392021179199219 10)"><text x="0" y="14.016" font-family="Virgil, Segoe UI Emoji" font-size="16px" fill="#1e1e1e" text-anchor="start" style="white-space: pre;" direction="ltr" dominant-baseline="alphabetic">35</text></g><g transform="translate(150 10) rotate(0 11.144027709960938 10)"><text x="0" y="14.016" font-family="Virgil, Segoe UI Emoji" font-size="16px" fill="#1e1e1e" text-anchor="start" style="white-space: pre;" direction="ltr" dominant-baseline="alphabetic">23</text></g><g transform="translate(170 90) rotate(0 10.640022277832031 10)"><text x="0" y="14.016" font-family="Virgil, Segoe UI Emoji" font-size="16px" fill="#1e1e1e" text-anchor="start" style="white-space: pre;" direction="ltr" dominant-baseline="alphabetic">25</text></g><g transform="translate(410 90) rotate(0 9.992019653320312 10)"><text x="0" y="14.016" font-family="Virgil, Segoe UI Emoji" font-size="16px" fill="#1e1e1e" text-anchor="start" style="white-space: pre;" direction="ltr" dominant-baseline="alphabetic">49</text></g><g transform="translate(370 170) rotate(0 10.568023681640625 10)"><text x="0" y="14.016" font-family="Virgil, Segoe UI Emoji" font-size="16px" fill="#1e1e1e" text-anchor="start" style="white-space: pre;" direction="ltr" dominant-baseline="alphabetic">43</text></g><g transform="translate(490 130) rotate(0 7.1120147705078125 10)"><text x="0" y="14.016" font-family="Virgil, Segoe UI Emoji" font-size="16px" fill="#1e1e1e" text-anchor="start" style="white-space: pre;" direction="ltr" dominant-baseline="alphabetic">51</text></g><g transform="translate(450 170) rotate(0 10.448020935058594 10)"><text x="0" y="14.016" font-family="Virgil, Segoe UI Emoji" font-size="16px" fill="#1e1e1e" text-anchor="start" style="white-space: pre;" direction="ltr" dominant-baseline="alphabetic">50</text></g><g transform="translate(410 210) rotate(0 9.424018859863281 10)"><text x="0" y="14.016" font-family="Virgil, Segoe UI Emoji" font-size="16px" fill="#1e1e1e" text-anchor="start" style="white-space: pre;" direction="ltr" dominant-baseline="alphabetic">47</text></g><g transform="translate(530 170) rotate(0 9.888015747070312 10)"><text x="0" y="14.016" font-family="Virgil, Segoe UI Emoji" font-size="16px" fill="#1e1e1e" text-anchor="start" style="white-space: pre;" direction="ltr" dominant-baseline="alphabetic">55</text></g><g transform="translate(290 170) rotate(0 9.752021789550781 10)"><text x="0" y="14.016" font-family="Virgil, Segoe UI Emoji" font-size="16px" fill="#1e1e1e" text-anchor="start" style="white-space: pre;" direction="ltr" dominant-baseline="alphabetic">37</text></g><g transform="translate(330 130) rotate(0 7.288017272949219 10)"><text x="0" y="14.016" font-family="Virgil, Segoe UI Emoji" font-size="16px" fill="#1e1e1e" text-anchor="start" style="white-space: pre;" direction="ltr" dominant-baseline="alphabetic">41</text></g><g stroke-linecap="round"><g transform="translate(150 30) rotate(0 -60 10)"><path d="M0.13 0 C-19.78 3.3, -99.29 17.45, -119.32 20.82 M-1.26 -1.04 C-21.28 2.44, -99.98 15.35, -119.9 19.12" stroke="#1e1e1e" stroke-width="1" fill="none"></path></g></g><mask></mask><g stroke-linecap="round"><g transform="translate(170 30) rotate(0 60 10)"><path d="M0.9 0.97 C21.06 4.26, 99.87 15.67, 119.81 18.96 M-0.08 0.43 C19.99 3.9, 98.74 16.9, 118.77 19.95" stroke="#1e1e1e" stroke-width="1" fill="none"></path></g></g><mask></mask><g stroke-linecap="round"><g transform="translate(290 70) rotate(0 -50 10)"><path d="M-0.88 -0.55 C-17.45 2.63, -82.72 16.21, -99.38 19.57 M0.87 1.78 C-15.81 5.08, -83.46 17.73, -100 20.88" stroke="#1e1e1e" stroke-width="1" fill="none"></path></g></g><mask></mask><g stroke-linecap="round"><g transform="translate(310 70) rotate(0 50 10)"><path d="M0.23 0.56 C17.13 3.92, 84.24 16.4, 100.67 19.69 M-1.11 -0.19 C15.75 3.39, 83.04 17.4, 100.08 21.07" stroke="#1e1e1e" stroke-width="1" fill="none"></path></g></g><mask></mask><g stroke-linecap="round"><g transform="translate(410 110) rotate(0 -30 10)"><path d="M0.6 -0.27 C-9.25 3.15, -49.01 17.13, -59.29 20.35 M-0.55 -1.45 C-10.48 1.61, -50.16 14.86, -59.87 18.41" stroke="#1e1e1e" stroke-width="1" fill="none"></path></g></g><mask></mask><g stroke-linecap="round"><g transform="translate(430 110) rotate(0 30 10)"><path d="M-0.68 1.19 C9.24 4.37, 50.43 15.86, 60.54 18.97 M1.17 0.76 C10.89 4.07, 50.19 16.57, 59.88 19.97" stroke="#1e1e1e" stroke-width="1" fill="none"></path></g></g><mask></mask><g stroke-linecap="round"><g transform="translate(330 150) rotate(0 -10 10)"><path d="M-0.16 0.81 C-3.3 4.31, -16.61 17.21, -19.97 20.34 M-1.71 0.2 C-4.9 3.37, -17.64 14.98, -20.9 18.4" stroke="#1e1e1e" stroke-width="1" fill="none"></path></g></g><mask></mask><g stroke-linecap="round"><g transform="translate(350 150) rotate(0 10 10)"><path d="M-1.04 -0.09 C2.24 3.21, 16.09 16.21, 19.48 19.43 M0.61 -1.18 C3.7 2.3, 14.72 17.11, 18.25 20.66" stroke="#1e1e1e" stroke-width="1" fill="none"></path></g></g><mask></mask><g stroke-linecap="round"><g transform="translate(490 150) rotate(0 -10 10)"><path d="M-0.34 -0.02 C-3.67 3, -17.23 15.83, -20.35 19.05 M1.68 -1.07 C-1.8 1.98, -17.97 16.53, -21.48 20.09" stroke="#1e1e1e" stroke-width="1" fill="none"></path></g></g><mask></mask><g stroke-linecap="round"><g transform="translate(510 150) rotate(0 10 10)"><path d="M-0.13 -0.14 C3.44 2.85, 17.54 15.55, 20.72 18.8 M-1.66 -1.26 C1.88 1.75, 16.33 16.1, 20.15 19.71" stroke="#1e1e1e" stroke-width="1" fill="none"></path></g></g><mask></mask><g stroke-linecap="round"><g transform="translate(390 190) rotate(0 10 10)"><path d="M0.46 1.01 C3.86 4.19, 17.33 16.72, 20.68 19.94 M-0.76 0.5 C2.52 3.8, 16.62 18.5, 20.09 21.45" stroke="#1e1e1e" stroke-width="1" fill="none"></path></g></g><mask></mask></svg>