<svg version="1.1" xmlns="http://www.w3.org/2000/svg" viewBox="0 0 1634.7589285714294 316.2455027263851" width="1634.7589285714294" height="316.2455027263851" filter="invert(93%) hue-rotate(180deg)">
  <!-- svg-source:excalidraw -->
  
  <defs>
    <style class="style-fonts">
      @font-face {
        font-family: "Virgil";
        src: url("https://excalidraw.com/Virgil.woff2");
      }
      @font-face {
        font-family: "Cascadia";
        src: url("https://excalidraw.com/Cascadia.woff2");
      }
      @font-face {
        font-family: "Assistant";
        src: url("https://excalidraw.com/Assistant-Regular.woff2");
      }
    </style>
    
  </defs>
  <g stroke-linecap="round" transform="translate(10 157.6095900279721) rotate(0 64.66666666666669 40)"><path d="M2.85 7.77 C2.85 7.77, 2.85 7.77, 2.85 7.77 M2.85 7.77 C2.85 7.77, 2.85 7.77, 2.85 7.77 M4.29 18.31 C9.3 12.46, 14.16 6.05, 20.04 0.19 M4.29 18.31 C9.27 11.33, 14.33 6.01, 20.04 0.19 M3.77 31.1 C12.29 20.65, 23.5 7.54, 30.67 0.16 M3.77 31.1 C14.69 20.17, 23.9 8.57, 30.67 0.16 M3.9 43.14 C12.6 32.55, 21.32 22.36, 41.3 0.12 M3.9 43.14 C19.72 26.19, 33.22 8.98, 41.3 0.12 M4.03 55.18 C19.02 40.18, 30.42 24.89, 51.93 0.09 M4.03 55.18 C13.99 43.04, 22.67 33.13, 51.93 0.09 M3.51 67.98 C22.59 44.81, 39.52 23.92, 62.56 0.05 M3.51 67.98 C20.06 48.38, 35.69 30.91, 62.56 0.05 M6.93 76.25 C33.58 48.69, 56.47 17.91, 73.19 0.02 M6.93 76.25 C23.31 57.23, 40.46 36.63, 73.19 0.02 M12.96 81.49 C38.5 53.43, 62.92 23.01, 83.82 -0.01 M12.96 81.49 C37.25 54.61, 59.94 26.33, 83.82 -0.01 M22.94 82.21 C43.64 57.97, 65.3 35.52, 94.45 -0.05 M22.94 82.21 C46.54 53.11, 71.57 25.3, 94.45 -0.05 M33.57 82.18 C50.8 66.28, 64.06 48.84, 105.08 -0.08 M33.57 82.18 C55.88 56.61, 77.84 33.46, 105.08 -0.08 M44.2 82.15 C63.56 62.04, 82.55 39.34, 113.08 2.9 M44.2 82.15 C66.27 55.85, 88.78 30.9, 113.08 2.9 M54.83 82.11 C73.82 59.62, 91.09 40.99, 123.06 3.62 M54.83 82.11 C69.63 64.81, 83.86 48.26, 123.06 3.62 M65.46 82.08 C87.69 55.15, 111.29 31.64, 128.44 9.62 M65.46 82.08 C84.09 61.08, 103.5 39.2, 128.44 9.62 M76.09 82.04 C86.84 67.45, 98.94 54.78, 131.85 17.89 M76.09 82.04 C91.59 64.46, 106.95 47.59, 131.85 17.89 M86.06 82.76 C96.12 69.51, 106.72 58.47, 131.99 29.93 M86.06 82.76 C95.72 71.83, 105.23 59.38, 131.99 29.93 M96.69 82.73 C105.72 72.48, 113.2 62.8, 132.12 41.97 M96.69 82.73 C103.36 72.6, 111.6 65.22, 132.12 41.97 M109.29 80.43 C118.36 72.22, 124.26 62.58, 132.25 54.01 M109.29 80.43 C115.37 73.84, 120.23 66.8, 132.25 54.01" stroke="#ffc9c9" stroke-width="1" fill="none"></path><path d="M20 0 C56.16 -0.08, 91.95 1.91, 109.33 0 M20 0 C48.79 0.94, 75.41 0.79, 109.33 0 M109.33 0 C122.54 0.4, 130.44 6.68, 129.33 20 M109.33 0 C121.16 -1.54, 129.99 7.85, 129.33 20 M129.33 20 C128.53 33.81, 131.5 45.06, 129.33 60 M129.33 20 C130.11 29.35, 128.68 38.67, 129.33 60 M129.33 60 C129.48 72.58, 122.09 80.13, 109.33 80 M129.33 60 C131 74.44, 123.34 78.21, 109.33 80 M109.33 80 C87.01 82.49, 63.6 80.09, 20 80 M109.33 80 C75.25 79.76, 43.37 79.16, 20 80 M20 80 C7.61 81.75, 0.99 74.88, 0 60 M20 80 C8.73 79.28, -0.51 71.67, 0 60 M0 60 C0.3 48.49, -1.74 35.62, 0 20 M0 60 C-0.25 48.72, 0.45 37.61, 0 20 M0 20 C1.37 5.99, 5.26 0.9, 20 0 M0 20 C-0.71 7.39, 7.94 -1.04, 20 0" stroke="#1e1e1e" stroke-width="2" fill="none"></path></g><g transform="translate(25.47046915690106 180.1095900279721) rotate(0 49.196197509765625 17.5)"><text x="49.196197509765625" y="24.528" font-family="Virgil, Segoe UI Emoji" font-size="28px" fill="#1e1e1e" text-anchor="middle" style="white-space: pre;" direction="ltr" dominant-baseline="alphabetic">piv_val</text></g><g stroke-linecap="round" transform="translate(147.5277777777784 157.3278439962263) rotate(0 64.66666666666669 40)"><path d="M2.85 7.77 C2.85 7.77, 2.85 7.77, 2.85 7.77 M2.85 7.77 C2.85 7.77, 2.85 7.77, 2.85 7.77 M4.29 18.31 C9.54 13.71, 13.44 7.51, 20.04 0.19 M4.29 18.31 C9.89 10.99, 15.96 4.71, 20.04 0.19 M3.77 31.1 C10.89 24.49, 16.74 12.69, 30.67 0.16 M3.77 31.1 C12.59 21.09, 22.39 8.47, 30.67 0.16 M3.9 43.14 C16.85 31.57, 28.51 15.67, 41.3 0.12 M3.9 43.14 C12.62 32.47, 21.85 22.54, 41.3 0.12 M4.03 55.18 C22.16 35.46, 37.67 16.77, 51.93 0.09 M4.03 55.18 C16.32 40.81, 31.4 23.92, 51.93 0.09 M3.51 67.98 C16.05 53.79, 29.78 39.19, 62.56 0.05 M3.51 67.98 C20.64 48.96, 36.9 31.96, 62.56 0.05 M6.93 76.25 C30.64 51.97, 50.35 25.55, 73.19 0.02 M6.93 76.25 C19.83 58.57, 34.76 41.99, 73.19 0.02 M12.96 81.49 C32.05 59.18, 55.91 34.69, 83.82 -0.01 M12.96 81.49 C35.1 55.13, 58.06 29.84, 83.82 -0.01 M22.94 82.21 C38.5 64.11, 55.98 44.88, 94.45 -0.05 M22.94 82.21 C40.6 62, 58.55 42.16, 94.45 -0.05 M33.57 82.18 C58.03 52.31, 83.64 22.39, 105.08 -0.08 M33.57 82.18 C59.35 54.15, 83.45 24.31, 105.08 -0.08 M44.2 82.15 C56.68 64.58, 70.61 49.57, 113.08 2.9 M44.2 82.15 C63.31 57.89, 84.65 35.75, 113.08 2.9 M54.83 82.11 C74.66 56.2, 97.21 32.03, 123.06 3.62 M54.83 82.11 C72.95 58.93, 93.39 37.36, 123.06 3.62 M65.46 82.08 C82.54 63.77, 96.13 46.89, 128.44 9.62 M65.46 82.08 C85.83 58.93, 106.32 35.59, 128.44 9.62 M76.09 82.04 C97.11 59.55, 115.97 35.59, 131.85 17.89 M76.09 82.04 C96.37 57.18, 119.62 32.39, 131.85 17.89 M86.06 82.76 C101.14 62.72, 118.95 42.68, 131.99 29.93 M86.06 82.76 C100.64 64.74, 116.13 48.78, 131.99 29.93 M96.69 82.73 C107.07 73.84, 116.11 61.75, 132.12 41.97 M96.69 82.73 C104.37 72.59, 113.52 63.01, 132.12 41.97 M109.29 80.43 C118.39 72.7, 123.91 60.13, 132.25 54.01 M109.29 80.43 C117.47 71.51, 126.48 61.63, 132.25 54.01" stroke="#228be6" stroke-width="1" fill="none"></path><path d="M20 0 C46.52 -0.32, 73.74 1.04, 109.33 0 M20 0 C40.34 1.25, 60.73 0.88, 109.33 0 M109.33 0 C123.64 0.88, 128 6.65, 129.33 20 M109.33 0 C122.89 1.39, 128.9 7.41, 129.33 20 M129.33 20 C129.88 37.54, 127.81 52.2, 129.33 60 M129.33 20 C128.98 32.58, 129.2 46.57, 129.33 60 M129.33 60 C127.39 73.01, 123.09 80.29, 109.33 80 M129.33 60 C128.24 71.49, 124.3 78.98, 109.33 80 M109.33 80 C81.16 81.13, 55.8 79.4, 20 80 M109.33 80 C84.1 80.01, 57.9 79.57, 20 80 M20 80 C5.93 81.48, 0.35 72.73, 0 60 M20 80 C5.25 78.12, -1.39 72.32, 0 60 M0 60 C2.1 47.89, 1.34 38.35, 0 20 M0 60 C0.31 48.14, -0.26 36.6, 0 20 M0 20 C-0.55 5.12, 4.7 -0.3, 20 0 M0 20 C0.88 5.05, 6.81 -2.17, 20 0" stroke="#1e1e1e" stroke-width="2" fill="none"></path></g><g stroke-linecap="round" transform="translate(382.5138888888892 158.7187170120991) rotate(0 64.66666666666669 40)"><path d="M2.85 7.77 C2.85 7.77, 2.85 7.77, 2.85 7.77 M2.85 7.77 C2.85 7.77, 2.85 7.77, 2.85 7.77 M1.01 22.08 C6.44 14.61, 12.27 8.32, 20.04 0.19 M1.01 22.08 C5.99 16.43, 11.97 10.74, 20.04 0.19 M1.14 34.12 C10.03 24.01, 18.07 13.54, 30.67 0.16 M1.14 34.12 C10.06 24.33, 18.49 13.7, 30.67 0.16 M1.28 46.16 C13.48 33.51, 26.57 20.6, 41.3 0.12 M1.28 46.16 C11.94 33.66, 22.14 21.49, 41.3 0.12 M0.75 58.96 C15.18 42.47, 25.38 26.98, 51.93 0.09 M0.75 58.96 C11.28 46.39, 21.64 33.06, 51.93 0.09 M2.2 69.49 C25.42 40.66, 51.31 15.16, 62.56 0.05 M2.2 69.49 C18.83 50.38, 33.64 32.63, 62.56 0.05 M6.93 76.25 C22.2 59.32, 39.55 38.01, 73.19 0.02 M6.93 76.25 C24 54.32, 42.04 33.57, 73.19 0.02 M14.93 79.23 C41.84 52.5, 63.48 20.28, 83.82 -0.01 M14.93 79.23 C38.62 51.25, 62.97 24.82, 83.82 -0.01 M24.25 80.7 C46.92 57.85, 67.82 32.61, 94.45 -0.05 M24.25 80.7 C42.1 61.87, 59.55 41.63, 94.45 -0.05 M34.88 80.67 C52.21 62.58, 67.68 40.64, 105.08 -0.08 M34.88 80.67 C59.67 51.15, 84.42 22.97, 105.08 -0.08 M45.51 80.64 C67.05 58.82, 84.31 34.56, 114.4 1.39 M45.51 80.64 C60.84 61.8, 78.17 42.93, 114.4 1.39 M56.14 80.6 C71.47 65.79, 85.15 49.15, 123.06 3.62 M56.14 80.6 C80.38 50.87, 106.62 21.56, 123.06 3.62 M66.77 80.57 C87.23 54.71, 106.26 33.03, 127.78 10.38 M66.77 80.57 C82 63.79, 96.28 47.27, 127.78 10.38 M77.4 80.53 C97.68 57.89, 119.92 33.43, 129.88 20.16 M77.4 80.53 C92.91 63.41, 108.39 45.09, 129.88 20.16 M88.03 80.5 C96.62 68.58, 106.75 55.9, 130.02 32.2 M88.03 80.5 C103.42 63.11, 120.33 45.55, 130.02 32.2 M98.66 80.46 C106.25 71.67, 114.53 61.96, 130.15 44.24 M98.66 80.46 C106.24 73.59, 112.18 64.08, 130.15 44.24 M109.29 80.43 C117.79 71.46, 125.64 60.29, 129.63 57.03 M109.29 80.43 C114.34 75.09, 119.83 67.75, 129.63 57.03" stroke="#15aabf" stroke-width="1" fill="none"></path><path d="M20 0 C40.24 0.56, 61.26 0.7, 109.33 0 M20 0 C55.11 -0.31, 88.8 0.48, 109.33 0 M109.33 0 C124.58 1.59, 130.32 7.17, 129.33 20 M109.33 0 C122.65 1.95, 130.49 8.61, 129.33 20 M129.33 20 C129.77 29.84, 128.7 37.86, 129.33 60 M129.33 20 C128.22 28.92, 129.54 37.48, 129.33 60 M129.33 60 C129.1 71.67, 123.63 80.7, 109.33 80 M129.33 60 C128.15 71.33, 123.56 81.4, 109.33 80 M109.33 80 C75.29 80.54, 43.37 78.06, 20 80 M109.33 80 C84.6 79.32, 58.26 80.57, 20 80 M20 80 C8.18 78.11, -1.7 74.48, 0 60 M20 80 C6.18 79.63, -0.19 74.45, 0 60 M0 60 C-1.75 44.59, 1.29 30.93, 0 20 M0 60 C-0.95 43.97, 0.16 27.38, 0 20 M0 20 C-1.97 8.51, 5.64 1.73, 20 0 M0 20 C-0.29 8.9, 7.8 -2.12, 20 0" stroke="#1e1e1e" stroke-width="2" fill="none"></path></g><g stroke-linecap="round" transform="translate(520.0416666666677 158.4369709803533) rotate(0 64.66666666666669 40)"><path d="M2.85 7.77 C2.85 7.77, 2.85 7.77, 2.85 7.77 M2.85 7.77 C2.85 7.77, 2.85 7.77, 2.85 7.77 M1.01 22.08 C6.61 15.85, 12.29 8.01, 20.04 0.19 M1.01 22.08 C6.79 15.2, 14.05 8.24, 20.04 0.19 M1.14 34.12 C9.23 26.11, 17.12 16.29, 30.67 0.16 M1.14 34.12 C9.29 23.88, 18.82 15.07, 30.67 0.16 M1.28 46.16 C14.46 30.49, 29.16 13.79, 41.3 0.12 M1.28 46.16 C10.72 35.65, 21.09 24.34, 41.3 0.12 M0.75 58.96 C12.4 45.82, 26.89 29.43, 51.93 0.09 M0.75 58.96 C18.93 39.43, 34.59 20.3, 51.93 0.09 M2.2 69.49 C15.5 52.24, 32.16 37.16, 62.56 0.05 M2.2 69.49 C19.74 49.82, 36.8 28.64, 62.56 0.05 M6.93 76.25 C32.06 48.56, 58.52 16.37, 73.19 0.02 M6.93 76.25 C23.31 59.52, 36.75 42.86, 73.19 0.02 M14.93 79.23 C42.96 48.23, 68.9 18.28, 83.82 -0.01 M14.93 79.23 C29.43 61.6, 44.99 45.56, 83.82 -0.01 M24.25 80.7 C48.96 51.05, 74.99 21.2, 94.45 -0.05 M24.25 80.7 C51.04 48.08, 79.33 16.41, 94.45 -0.05 M34.88 80.67 C63.22 48.36, 89.05 17.91, 105.08 -0.08 M34.88 80.67 C50.73 63.32, 66.11 46.82, 105.08 -0.08 M45.51 80.64 C67.84 55.82, 94 26.7, 114.4 1.39 M45.51 80.64 C67.29 53.11, 90.69 27.22, 114.4 1.39 M56.14 80.6 C80.22 56.24, 102.13 27.38, 123.06 3.62 M56.14 80.6 C74.87 60.41, 93.76 38.15, 123.06 3.62 M66.77 80.57 C80.99 63.93, 96.51 48.08, 127.78 10.38 M66.77 80.57 C84.32 60.32, 99.65 40.88, 127.78 10.38 M77.4 80.53 C93.89 63.31, 109.97 42.38, 129.88 20.16 M77.4 80.53 C97.94 55.8, 118.93 30.93, 129.88 20.16 M88.03 80.5 C101.96 65.33, 112.26 51.87, 130.02 32.2 M88.03 80.5 C101.9 62.48, 118.07 46, 130.02 32.2 M98.66 80.46 C107.18 70.05, 118.3 58.98, 130.15 44.24 M98.66 80.46 C111.99 66.36, 123.53 52.44, 130.15 44.24 M109.29 80.43 C114.9 73.51, 123.37 65.39, 129.63 57.03 M109.29 80.43 C118.07 70.94, 125.17 62.73, 129.63 57.03" stroke="#b2f2bb" stroke-width="1" fill="none"></path><path d="M20 0 C49.25 0.85, 75.96 1.86, 109.33 0 M20 0 C47.94 0.07, 74.46 -0.47, 109.33 0 M109.33 0 C122.65 1.69, 130.34 8.36, 129.33 20 M109.33 0 C120.73 0.65, 131.54 7.04, 129.33 20 M129.33 20 C127.52 33.55, 128.78 46.95, 129.33 60 M129.33 20 C129.37 32.14, 129.97 46.3, 129.33 60 M129.33 60 C128.3 71.59, 123.44 81.22, 109.33 80 M129.33 60 C130.91 75, 122 78.73, 109.33 80 M109.33 80 C78.61 78.52, 49.03 80.34, 20 80 M109.33 80 C91.25 79.38, 70.81 80.9, 20 80 M20 80 C6.24 79.68, -0.17 74.31, 0 60 M20 80 C8.33 80.1, -1.93 71.34, 0 60 M0 60 C1.66 49.26, -2.14 36.24, 0 20 M0 60 C-1.07 49.7, -0.6 38.43, 0 20 M0 20 C-0.25 8.61, 7.65 -1.84, 20 0 M0 20 C-1.08 6.69, 8.69 1.66, 20 0" stroke="#1e1e1e" stroke-width="2" fill="none"></path></g><g transform="translate(297.1944444444451 179.8278439962262) rotate(0 36.344146728515625 17.5)"><text x="0" y="24.528" font-family="Virgil, Segoe UI Emoji" font-size="28px" fill="#1e1e1e" text-anchor="start" style="white-space: pre;" direction="ltr" dominant-baseline="alphabetic">. . . .</text></g><g stroke-linecap="round" transform="translate(756.4236111111113 157.4687170120991) rotate(0 64.66666666666669 40)"><path d="M2.85 7.77 C2.85 7.77, 2.85 7.77, 2.85 7.77 M2.85 7.77 C2.85 7.77, 2.85 7.77, 2.85 7.77 M1.01 22.08 C6.62 18.54, 6.83 12.72, 20.04 0.19 M1.01 22.08 C7.1 16, 13.64 8.93, 20.04 0.19 M1.14 34.12 C11.25 22.18, 21.72 11.99, 30.67 0.16 M1.14 34.12 C7.67 25.37, 15.55 18.52, 30.67 0.16 M1.28 46.16 C12.09 33.77, 24.55 18.66, 41.3 0.12 M1.28 46.16 C15.79 31.54, 27.92 15.34, 41.3 0.12 M0.75 58.96 C11.25 45.17, 24.89 33.67, 51.93 0.09 M0.75 58.96 C18.78 39.85, 35.72 19.39, 51.93 0.09 M2.2 69.49 C23.6 40.85, 46.23 17.45, 62.56 0.05 M2.2 69.49 C22.25 45.44, 43.62 22.43, 62.56 0.05 M6.93 76.25 C20.86 56.84, 37.54 42.38, 73.19 0.02 M6.93 76.25 C26.2 52.77, 47.24 29.04, 73.19 0.02 M14.93 79.23 C30.75 62.73, 46.38 44.94, 83.82 -0.01 M14.93 79.23 C32.6 57.31, 50.32 36.56, 83.82 -0.01 M24.25 80.7 C41.79 60.79, 59.5 42.94, 94.45 -0.05 M24.25 80.7 C41.09 59.71, 59.14 39.76, 94.45 -0.05 M34.88 80.67 C50.34 62.29, 65.8 42.39, 105.08 -0.08 M34.88 80.67 C56.7 53.44, 80.99 27.19, 105.08 -0.08 M45.51 80.64 C62.19 60.13, 81.98 41.66, 114.4 1.39 M45.51 80.64 C65.6 60.24, 83.16 38.86, 114.4 1.39 M56.14 80.6 C73.24 60.95, 93.5 40.87, 123.06 3.62 M56.14 80.6 C74.25 60.85, 91.52 40.47, 123.06 3.62 M66.77 80.57 C80.91 66.82, 91.65 49.78, 127.78 10.38 M66.77 80.57 C84.22 60.48, 102.27 39.7, 127.78 10.38 M77.4 80.53 C86.66 67.78, 100.88 57.01, 129.88 20.16 M77.4 80.53 C93.28 62.99, 109 45.33, 129.88 20.16 M88.03 80.5 C97.74 70.83, 107.08 60.22, 130.02 32.2 M88.03 80.5 C97.32 69.49, 106.15 59.44, 130.02 32.2 M98.66 80.46 C109.82 65.93, 122.39 50.73, 130.15 44.24 M98.66 80.46 C105.34 73.27, 112.41 66.32, 130.15 44.24 M109.29 80.43 C112.6 75.02, 120.73 69.66, 129.63 57.03 M109.29 80.43 C116.21 71.6, 123.72 63.37, 129.63 57.03" stroke="#b2f2bb" stroke-width="1" fill="none"></path><path d="M20 0 C50.3 0.64, 79.84 0.61, 109.33 0 M20 0 C50.92 -0.09, 79.97 -0.81, 109.33 0 M109.33 0 C123.58 0.58, 128.14 5.44, 129.33 20 M109.33 0 C120.76 1.87, 127.41 8.57, 129.33 20 M129.33 20 C130.48 31.95, 128.24 42.14, 129.33 60 M129.33 20 C129.64 30.58, 128.94 40.43, 129.33 60 M129.33 60 C129.34 71.6, 124.19 79.35, 109.33 80 M129.33 60 C127.77 71.62, 123.72 77.77, 109.33 80 M109.33 80 C84.8 80.2, 59.03 77.87, 20 80 M109.33 80 C82.41 79.26, 52.95 80.62, 20 80 M20 80 C6.24 80.79, 1.05 71.66, 0 60 M20 80 C6.07 80.12, 2.1 75.22, 0 60 M0 60 C1.49 45.11, 0.91 32.06, 0 20 M0 60 C-0.96 48.9, -1.01 38.19, 0 20 M0 20 C0.29 7.02, 6.67 1.98, 20 0 M0 20 C-1.89 6.57, 4.69 -2.04, 20 0" stroke="#1e1e1e" stroke-width="2" fill="none"></path></g><g stroke-linecap="round" transform="translate(893.9513888888896 157.1869709803533) rotate(0 64.66666666666669 40)"><path d="M20 0 C43.57 0.07, 65.13 -0.83, 109.33 0 M20 0 C55.46 -0.64, 91.4 -0.4, 109.33 0 M109.33 0 C121.48 -1.23, 127.68 8.29, 129.33 20 M109.33 0 C120.74 1.9, 128.57 5.86, 129.33 20 M129.33 20 C128.64 31.46, 128.62 43.07, 129.33 60 M129.33 20 C128.57 34.56, 129.32 47.65, 129.33 60 M129.33 60 C130.86 72.69, 121.31 78.51, 109.33 80 M129.33 60 C130.38 71.11, 122.15 78.13, 109.33 80 M109.33 80 C86.23 78.6, 64.81 78.31, 20 80 M109.33 80 C84.27 80.48, 61 79.98, 20 80 M20 80 C7.71 78.32, -0.52 73.44, 0 60 M20 80 C8.77 81.88, 0.62 71.72, 0 60 M0 60 C0.39 43.81, -0.92 31.24, 0 20 M0 60 C-0.62 44.65, 0.52 30.57, 0 20 M0 20 C0.01 8.64, 5.02 -0.09, 20 0 M0 20 C-1.98 4.63, 6.8 -0.83, 20 0" stroke="#1e1e1e" stroke-width="2" fill="none"></path></g><g transform="translate(671.1041666666672 178.5778439962263) rotate(0 36.344146728515625 17.5)"><text x="0" y="24.528" font-family="Virgil, Segoe UI Emoji" font-size="28px" fill="#1e1e1e" text-anchor="start" style="white-space: pre;" direction="ltr" dominant-baseline="alphabetic">. . . .</text></g><g stroke-linecap="round" transform="translate(1130.1736111111113 158.7187170120991) rotate(0 64.66666666666669 40)"><path d="M20 0 C46.45 -1.7, 67.87 0.55, 109.33 0 M20 0 C51.42 -1.53, 83.87 0.33, 109.33 0 M109.33 0 C124.02 1.79, 128.45 6.35, 129.33 20 M109.33 0 C122.34 1.15, 130.5 7.53, 129.33 20 M129.33 20 C127.93 33.37, 129.4 44.51, 129.33 60 M129.33 20 C129.61 31.85, 130.16 43.77, 129.33 60 M129.33 60 C130.66 74.38, 124.54 78.09, 109.33 80 M129.33 60 C129.39 71.38, 123.97 79.83, 109.33 80 M109.33 80 C75.16 79.97, 40.33 77.83, 20 80 M109.33 80 C75.24 81.64, 42.23 80.81, 20 80 M20 80 C5.3 79.01, -1.94 71.36, 0 60 M20 80 C6.94 79.81, 0.48 74.7, 0 60 M0 60 C1.56 43.64, 0.91 32.06, 0 20 M0 60 C0.52 44.61, -0.1 29.66, 0 20 M0 20 C1.7 8.47, 8.4 -1.92, 20 0 M0 20 C0.89 8.74, 5.19 -0.4, 20 0" stroke="#1e1e1e" stroke-width="2" fill="none"></path></g><g stroke-linecap="round" transform="translate(1267.7013888888896 158.4369709803533) rotate(0 64.66666666666674 40)"><path d="M2.85 7.77 C2.85 7.77, 2.85 7.77, 2.85 7.77 M2.85 7.77 C2.85 7.77, 2.85 7.77, 2.85 7.77 M1.01 22.08 C5.46 13.53, 11.47 7.63, 20.04 0.19 M1.01 22.08 C7.54 15.75, 12.44 8.47, 20.04 0.19 M1.14 34.12 C11.93 22.5, 25.1 10.05, 30.67 0.16 M1.14 34.12 C6.13 26.51, 12.99 19.9, 30.67 0.16 M1.28 46.16 C7.91 36.4, 18.63 28.01, 41.3 0.12 M1.28 46.16 C11.33 35.3, 20.4 24.08, 41.3 0.12 M0.75 58.96 C10.42 47.88, 21.95 36.19, 51.93 0.09 M0.75 58.96 C13.75 44.14, 25.02 31.09, 51.93 0.09 M2.2 69.49 C14.16 57.59, 25.42 43.08, 62.56 0.05 M2.2 69.49 C17.55 52.7, 32.39 35.01, 62.56 0.05 M6.93 76.25 C32.43 47.59, 56.15 20.22, 73.19 0.02 M6.93 76.25 C25.45 54.26, 44.3 33.37, 73.19 0.02 M14.93 79.23 C42.9 50.41, 70.34 19.53, 83.82 -0.01 M14.93 79.23 C32.98 59.2, 48.77 38.59, 83.82 -0.01 M24.25 80.7 C45.56 59.77, 64.74 34.48, 94.45 -0.05 M24.25 80.7 C37.98 65.06, 53.32 47.58, 94.45 -0.05 M34.88 80.67 C56.52 56, 78.06 31.23, 105.08 -0.08 M34.88 80.67 C52.29 61.19, 68.79 41.38, 105.08 -0.08 M45.51 80.64 C66.81 58.13, 85.1 39.39, 114.4 1.39 M45.51 80.64 C65.14 58.04, 85.66 35.21, 114.4 1.39 M56.14 80.6 C79.36 54.81, 97.85 32.3, 123.06 3.62 M56.14 80.6 C77.06 56.36, 97.04 31.63, 123.06 3.62 M66.77 80.57 C78.43 65.24, 95.04 49.69, 127.78 10.38 M66.77 80.57 C79.61 65.28, 92.91 51.51, 127.78 10.38 M77.4 80.53 C89.98 65.11, 107.24 46.55, 129.88 20.16 M77.4 80.53 C91.14 63.88, 105.14 47.7, 129.88 20.16 M88.03 80.5 C101.28 63.88, 115.86 48.58, 130.02 32.2 M88.03 80.5 C98.94 67.28, 110.31 55.34, 130.02 32.2 M98.66 80.46 C103.78 72.89, 111.42 63.65, 130.15 44.24 M98.66 80.46 C106.58 71.36, 114.82 62.74, 130.15 44.24 M109.29 80.43 C115.63 70.6, 126.17 62.77, 129.63 57.03 M109.29 80.43 C115.57 72.38, 123.95 65.26, 129.63 57.03" stroke="#a18072" stroke-width="1" fill="none"></path><path d="M20 0 C53.6 1.75, 90.76 1.11, 109.33 0 M20 0 C53.7 1.77, 87.52 1.67, 109.33 0 M109.33 0 C121.79 -0.32, 129.05 7.67, 129.33 20 M109.33 0 C123.84 0.86, 129.96 8.96, 129.33 20 M129.33 20 C128.64 28.48, 128.82 41.83, 129.33 60 M129.33 20 C129.85 35.89, 129.98 51.53, 129.33 60 M129.33 60 C131.2 71.43, 122.72 78.3, 109.33 80 M129.33 60 C130.64 73.17, 124.83 79, 109.33 80 M109.33 80 C91.97 78.97, 73.18 79.19, 20 80 M109.33 80 C73.43 80.7, 38.4 80.22, 20 80 M20 80 C4.73 78.03, 0.24 73.17, 0 60 M20 80 C7.15 81.37, 1.44 72.33, 0 60 M0 60 C0.46 48.27, 1.1 36.02, 0 20 M0 60 C-0.12 44.54, 0.52 31.65, 0 20 M0 20 C1.73 4.75, 7.44 1.8, 20 0 M0 20 C-1.48 6.26, 5.18 0.84, 20 0" stroke="#1e1e1e" stroke-width="2" fill="none"></path></g><g transform="translate(1044.8541666666672 179.8278439962263) rotate(0 36.344146728515625 17.5)"><text x="0" y="24.528" font-family="Virgil, Segoe UI Emoji" font-size="28px" fill="#1e1e1e" text-anchor="start" style="white-space: pre;" direction="ltr" dominant-baseline="alphabetic">. . . .</text></g><g transform="translate(48.44444444444508 263.5778439962262) rotate(0 18.396080017089844 17.5)"><text x="0" y="24.528" font-family="Virgil, Segoe UI Emoji" font-size="28px" fill="#1e1e1e" text-anchor="start" style="white-space: pre;" direction="ltr" dominant-baseline="alphabetic">lft</text></g><g transform="translate(179.69444444444508 263.5778439962262) rotate(0 30.94013214111328 17.5)"><text x="0" y="24.528" font-family="Virgil, Segoe UI Emoji" font-size="28px" fill="#1e1e1e" text-anchor="start" style="white-space: pre;" direction="ltr" dominant-baseline="alphabetic">lft+1</text></g><g transform="translate(439.6944444444451 266.0778439962262) rotate(0 12.614044189453125 17.5)"><text x="0" y="24.528" font-family="Virgil, Segoe UI Emoji" font-size="28px" fill="#1e1e1e" text-anchor="start" style="white-space: pre;" direction="ltr" dominant-baseline="alphabetic">i-1</text></g><g transform="translate(585.944444444445 264.8278439962262) rotate(0 3.066009521484375 17.5)"><text x="0" y="24.528" font-family="Virgil, Segoe UI Emoji" font-size="28px" fill="#1e1e1e" text-anchor="start" style="white-space: pre;" direction="ltr" dominant-baseline="alphabetic">i</text></g><g transform="translate(818.444444444445 266.0778439962262) rotate(0 6.818031311035156 17.5)"><text x="0" y="24.528" font-family="Virgil, Segoe UI Emoji" font-size="28px" fill="#1e1e1e" text-anchor="start" style="white-space: pre;" direction="ltr" dominant-baseline="alphabetic">k</text></g><g transform="translate(943.444444444445 266.0778439962262) rotate(0 19.362083435058594 17.5)"><text x="0" y="24.528" font-family="Virgil, Segoe UI Emoji" font-size="28px" fill="#1e1e1e" text-anchor="start" style="white-space: pre;" direction="ltr" dominant-baseline="alphabetic">k+1</text></g><g transform="translate(1198.444444444445 266.0778439962262) rotate(0 4.592018127441406 17.5)"><text x="0" y="24.528" font-family="Virgil, Segoe UI Emoji" font-size="28px" fill="#1e1e1e" text-anchor="start" style="white-space: pre;" direction="ltr" dominant-baseline="alphabetic">j</text></g><g transform="translate(1319.694444444445 266.0778439962262) rotate(0 17.136070251464844 17.5)"><text x="0" y="24.528" font-family="Virgil, Segoe UI Emoji" font-size="28px" fill="#1e1e1e" text-anchor="start" style="white-space: pre;" direction="ltr" dominant-baseline="alphabetic">j+1</text></g><g stroke-linecap="round" transform="translate(1495.4255952380959 162.63637574225788) rotate(0 64.66666666666674 40)"><path d="M2.85 7.77 C2.85 7.77, 2.85 7.77, 2.85 7.77 M2.85 7.77 C2.85 7.77, 2.85 7.77, 2.85 7.77 M4.29 18.31 C6.88 12.55, 11.75 8.48, 20.04 0.19 M4.29 18.31 C8.77 13.55, 12.29 9.56, 20.04 0.19 M3.77 31.1 C13.44 19.4, 19.59 9.16, 30.67 0.16 M3.77 31.1 C9.84 24.4, 16.52 16.88, 30.67 0.16 M3.9 43.14 C18.71 27.87, 32.62 9.93, 41.3 0.12 M3.9 43.14 C11.3 33.78, 20.54 23.7, 41.3 0.12 M4.03 55.18 C15.39 42.1, 30.5 27.59, 51.93 0.09 M4.03 55.18 C17.27 40.46, 30.17 25.89, 51.93 0.09 M3.51 67.98 C19.37 51.68, 34.03 32.93, 62.56 0.05 M3.51 67.98 C19.1 51.23, 35.1 33.14, 62.56 0.05 M6.93 76.25 C22.35 62.13, 35.76 46.64, 73.19 0.02 M6.93 76.25 C25.19 54.6, 43.56 35.18, 73.19 0.02 M12.96 81.49 C33.1 56.07, 57.82 31.54, 83.82 -0.01 M12.96 81.49 C30.47 62.94, 45.28 44.65, 83.82 -0.01 M22.94 82.21 C36.27 65.31, 53.02 45.33, 94.45 -0.05 M22.94 82.21 C46.84 53.54, 69.31 26.99, 94.45 -0.05 M33.57 82.18 C60.26 49.2, 91.41 16.94, 105.08 -0.08 M33.57 82.18 C55.73 56.82, 76.48 32.59, 105.08 -0.08 M44.2 82.15 C69.37 53.58, 95.71 20.82, 113.08 2.9 M44.2 82.15 C71.3 51.22, 96.92 20.72, 113.08 2.9 M54.83 82.11 C78.66 55.21, 97.27 31.96, 123.06 3.62 M54.83 82.11 C81.97 49.64, 108.74 18.64, 123.06 3.62 M65.46 82.08 C89.39 56.02, 113.74 28.75, 128.44 9.62 M65.46 82.08 C89.13 54.52, 113.24 26.33, 128.44 9.62 M76.09 82.04 C87.86 68.56, 97.95 52.32, 131.85 17.89 M76.09 82.04 C98.59 56.26, 119.48 32.64, 131.85 17.89 M86.06 82.76 C98.34 67.34, 112.71 52.87, 131.99 29.93 M86.06 82.76 C102.08 65.35, 116.88 46.39, 131.99 29.93 M96.69 82.73 C106.6 69.22, 117.18 56.67, 132.12 41.97 M96.69 82.73 C107.53 72.3, 116.24 59.15, 132.12 41.97 M109.29 80.43 C114.68 74.73, 120.49 67.04, 132.25 54.01 M109.29 80.43 C116.85 71.96, 125.33 62.74, 132.25 54.01" stroke="#a18072" stroke-width="1" fill="none"></path><path d="M20 0 C45.45 -2.69, 66.04 -0.24, 109.33 0 M20 0 C45.88 0.64, 73.55 1.09, 109.33 0 M109.33 0 C124.49 1.38, 129.39 6.86, 129.33 20 M109.33 0 C120.85 -0.88, 130.82 6.65, 129.33 20 M129.33 20 C129.64 33.65, 130.74 45.08, 129.33 60 M129.33 20 C129.32 28.35, 130.51 37.65, 129.33 60 M129.33 60 C127.45 74.89, 122.94 79.1, 109.33 80 M129.33 60 C129.8 73.39, 124.81 81.61, 109.33 80 M109.33 80 C76.57 79.04, 44.98 79.31, 20 80 M109.33 80 C87.55 80.15, 65.24 79.79, 20 80 M20 80 C8.21 79.55, 0.14 72.23, 0 60 M20 80 C6.37 80.56, 2.28 72.71, 0 60 M0 60 C0.73 48.43, -1.67 36.23, 0 20 M0 60 C0.92 49.15, -0.88 38.75, 0 20 M0 20 C1.8 6.61, 6.26 0.87, 20 0 M0 20 C-0.38 6.02, 8.23 -0.55, 20 0" stroke="#1e1e1e" stroke-width="2" fill="none"></path></g><g transform="translate(1410.1061507936515 183.7455027263851) rotate(0 36.344146728515625 17.5)"><text x="0" y="24.528" font-family="Virgil, Segoe UI Emoji" font-size="28px" fill="#1e1e1e" text-anchor="start" style="white-space: pre;" direction="ltr" dominant-baseline="alphabetic">. . . .</text></g><g transform="translate(1546.1964285714296 271.2455027263851) rotate(0 21.64409637451172 17.5)"><text x="0" y="24.528" font-family="Virgil, Segoe UI Emoji" font-size="28px" fill="#1e1e1e" text-anchor="start" style="white-space: pre;" direction="ltr" dominant-baseline="alphabetic">der</text></g><g stroke-linecap="round"><g transform="translate(205.76587301587375 156.482605900988) rotate(0 121.875 -30.625)"><path d="M-1.15 -1.15 C19.58 -11.55, 83.55 -62.98, 124.42 -62.5 C165.29 -62.02, 224.29 -8.71, 244.08 1.72 M0.45 0.86 C21.07 -9.33, 83.31 -60.76, 123.82 -60.97 C164.33 -61.17, 223.6 -10.63, 243.49 -0.38" stroke="#1e1e1e" stroke-width="2" fill="none"></path></g></g><mask></mask><g stroke-linecap="round"><g transform="translate(327.01587301587375 95.232605900988) rotate(0 0.6954018952818615 -21.875)"><path d="M-0.13 -0.52 C0.14 -7.87, 1.21 -36.6, 1.45 -43.88 M0.81 0.4 C1.03 -6.88, 1.03 -35.88, 1.05 -43.25" stroke="#1e1e1e" stroke-width="2" fill="none"></path></g><g transform="translate(327.01587301587375 95.232605900988) rotate(0 0.6954018952818615 -21.875)"><path d="M8.5 -22.67 C5.53 -28.05, 4.25 -33.76, 1.05 -43.25 M8.5 -22.67 C6.85 -27.33, 5.06 -31.48, 1.05 -43.25" stroke="#1e1e1e" stroke-width="2" fill="none"></path></g><g transform="translate(327.01587301587375 95.232605900988) rotate(0 0.6954018952818615 -21.875)"><path d="M-6.47 -22.7 C-5.45 -28.06, -2.74 -33.76, 1.05 -43.25 M-6.47 -22.7 C-4.85 -27.35, -3.37 -31.49, 1.05 -43.25" stroke="#1e1e1e" stroke-width="2" fill="none"></path></g></g><mask></mask><g transform="translate(277.01587301587375 10.232605900988005) rotate(0 52.09422302246094 17.5)"><text x="0" y="24.528" font-family="Virgil, Segoe UI Emoji" font-size="28px" fill="#1e1e1e" text-anchor="start" style="white-space: pre;" direction="ltr" dominant-baseline="alphabetic">menores</text></g><g stroke-linecap="round"><g transform="translate(576.7986777844062 156.2499999999999) rotate(0 121.875 -30.625)"><path d="M0 0.94 C20.7 -9.56, 83.88 -62.15, 124.68 -61.91 C165.48 -61.68, 225.06 -8.31, 244.79 2.34 M-1.46 0.39 C19.13 -9.95, 83.22 -63.76, 124.22 -63.73 C165.23 -63.7, 224.79 -10.02, 244.56 0.57" stroke="#1e1e1e" stroke-width="2" fill="none"></path></g></g><mask></mask><g stroke-linecap="round"><g transform="translate(698.0486777844062 95) rotate(0 -1.5851086040817393 -21.875)"><path d="M0.43 0.27 C-0.02 -7.01, -2.04 -35.97, -2.7 -43.25 M-0.02 -0.07 C-0.5 -7.53, -2.49 -36.59, -2.88 -43.96" stroke="#1e1e1e" stroke-width="2" fill="none"></path></g><g transform="translate(698.0486777844062 95) rotate(0 -1.5851086040817393 -21.875)"><path d="M5.88 -23.85 C3.66 -28.98, 1.45 -36.49, -2.88 -43.96 M5.88 -23.85 C2.84 -31.37, -0.32 -38.07, -2.88 -43.96" stroke="#1e1e1e" stroke-width="2" fill="none"></path></g><g transform="translate(698.0486777844062 95) rotate(0 -1.5851086040817393 -21.875)"><path d="M-9.1 -22.93 C-6.83 -28.39, -4.54 -36.18, -2.88 -43.96 M-9.1 -22.93 C-6.73 -30.76, -4.47 -37.79, -2.88 -43.96" stroke="#1e1e1e" stroke-width="2" fill="none"></path></g></g><mask></mask><g transform="translate(646.7986777844062 10) rotate(0 46.31218719482422 17.5)"><text x="0" y="24.528" font-family="Virgil, Segoe UI Emoji" font-size="28px" fill="#1e1e1e" text-anchor="start" style="white-space: pre;" direction="ltr" dominant-baseline="alphabetic">iguales</text></g><g stroke-linecap="round"><g transform="translate(955.353503402976 155.93778952285652) rotate(0 121.875 -30.625)"><path d="M-0.64 -0.35 C19.72 -10.76, 82.75 -62.74, 123.32 -62.38 C163.9 -62.02, 222.83 -8.81, 242.81 1.8 M1.23 -1.58 C21.29 -11.78, 81.49 -61, 122.15 -60.78 C162.81 -60.56, 225.05 -10.79, 245.21 -0.26" stroke="#1e1e1e" stroke-width="2" fill="none"></path></g></g><mask></mask><g stroke-linecap="round"><g transform="translate(1076.603503402976 94.68778952285652) rotate(0 -1.2782729571904383 -21.24999999999997)"><path d="M-0.2 0.05 C-0.64 -6.96, -2.55 -35.16, -2.99 -42.25 M0.71 -0.39 C0.45 -7.56, -1.31 -36.17, -1.97 -43.08" stroke="#1e1e1e" stroke-width="2" fill="none"></path></g><g transform="translate(1076.603503402976 94.68778952285652) rotate(0 -1.2782729571904383 -21.24999999999997)"><path d="M6.79 -23.68 C4.75 -29.27, 2.95 -33.74, -1.97 -43.08 M6.79 -23.68 C3.68 -29.2, 1.53 -35.09, -1.97 -43.08" stroke="#1e1e1e" stroke-width="2" fill="none"></path></g><g transform="translate(1076.603503402976 94.68778952285652) rotate(0 -1.2782729571904383 -21.24999999999997)"><path d="M-7.73 -22.59 C-6.18 -28.42, -4.4 -33.16, -1.97 -43.08 M-7.73 -22.59 C-6.44 -28.43, -4.18 -34.65, -1.97 -43.08" stroke="#1e1e1e" stroke-width="2" fill="none"></path></g></g><mask></mask><g transform="translate(985.353503402976 10.93778952285652) rotate(0 87.1783447265625 17.5)"><text x="0" y="24.528" font-family="Virgil, Segoe UI Emoji" font-size="28px" fill="#1e1e1e" text-anchor="start" style="white-space: pre;" direction="ltr" dominant-baseline="alphabetic">sin clasificar</text></g><g stroke-linecap="round"><g transform="translate(1325.97604752293 160.58328533098097) rotate(0 121.875 -30.625)"><path d="M-0.45 0.42 C19.98 -10.13, 82.13 -63.07, 122.84 -63.06 C163.56 -63.05, 223.87 -10.3, 243.86 0.46 M1.52 -0.41 C22.29 -10.82, 84.81 -62.11, 125.08 -61.81 C165.35 -61.52, 223.58 -9.39, 243.15 1.37" stroke="#1e1e1e" stroke-width="2" fill="none"></path></g></g><mask></mask><g stroke-linecap="round"><g transform="translate(1447.22604752293 99.33328533098097) rotate(0 -1.1926312083426183 -22.49999999999997)"><path d="M-0.42 -0.26 C-0.77 -7.85, -1.93 -37.92, -2.34 -45.36 M0.37 0.8 C-0.03 -6.74, -2.39 -37.34, -2.74 -44.85" stroke="#1e1e1e" stroke-width="2" fill="none"></path></g><g transform="translate(1447.22604752293 99.33328533098097) rotate(0 -1.1926312083426183 -22.49999999999997)"><path d="M6.3 -24.21 C3.42 -29.58, 0.86 -35.93, -2.74 -44.85 M6.3 -24.21 C3.92 -30.71, 0.52 -37.89, -2.74 -44.85" stroke="#1e1e1e" stroke-width="2" fill="none"></path></g><g transform="translate(1447.22604752293 99.33328533098097) rotate(0 -1.1926312083426183 -22.49999999999997)"><path d="M-9.08 -23.22 C-7.92 -28.79, -6.44 -35.4, -2.74 -44.85 M-9.08 -23.22 C-6.51 -30.08, -4.97 -37.59, -2.74 -44.85" stroke="#1e1e1e" stroke-width="2" fill="none"></path></g></g><mask></mask><g transform="translate(1389.72604752293 13.08328533098097) rotate(0 53.802223205566406 17.5)"><text x="0" y="24.528" font-family="Virgil, Segoe UI Emoji" font-size="28px" fill="#1e1e1e" text-anchor="start" style="white-space: pre;" direction="ltr" dominant-baseline="alphabetic">mayores</text></g></svg>