<svg version="1.1" xmlns="http://www.w3.org/2000/svg" viewBox="0 0 580 1320" width="580" height="1320" filter="invert(93%) hue-rotate(180deg)">
  <!-- svg-source:excalidraw -->
  
  <defs>
    <style class="style-fonts">
      @font-face {
        font-family: "Virgil";
        src: url("https://excalidraw.com/Virgil.woff2");
      }
      @font-face {
        font-family: "Cascadia";
        src: url("https://excalidraw.com/Cascadia.woff2");
      }
      @font-face {
        font-family: "Assistant";
        src: url("https://excalidraw.com/Assistant-Regular.woff2");
      }
    </style>
    
  </defs>
  <g transform="translate(30 39) rotate(0 3.6820144653320312 17.5)"><text x="3.6820144653320312" y="24.528" font-family="Virgil, Segoe UI Emoji" font-size="28px" fill="#1e1e1e" text-anchor="middle" style="white-space: pre;" direction="ltr" dominant-baseline="alphabetic">l</text></g><g stroke-linecap="round"><g transform="translate(46.68201446533203 53) rotate(0 31 0.5)"><path d="M-0.42 -1.13 C10.19 -1.28, 52.43 -0.52, 63.02 -0.17 M1.55 0.89 C12.16 0.79, 52.37 0.52, 62.6 0.75" stroke="#1e1e1e" stroke-width="1" fill="none"></path></g><g transform="translate(46.68201446533203 53) rotate(0 31 0.5)"><path d="M60.68 2.28 L49.83 6.45 L48.48 -5.64 L62.87 -0.02" stroke="none" stroke-width="0" fill="#1e1e1e" fill-rule="evenodd"></path><path d="M62.6 0.75 C57.9 3.5, 54.53 5.16, 48.97 7.01 M62.6 0.75 C58.43 2.69, 54.57 4.49, 48.97 7.01 M48.97 7.01 C48.08 2.83, 48.96 -0.9, 49.04 -5.67 M48.97 7.01 C49.56 3.25, 48.82 -1.92, 49.04 -5.67 M49.04 -5.67 C53.42 -3.35, 55.92 -0.49, 62.6 0.75 M49.04 -5.67 C52.8 -4.72, 55.91 -1.81, 62.6 0.75 M62.6 0.75 C62.6 0.75, 62.6 0.75, 62.6 0.75 M62.6 0.75 C62.6 0.75, 62.6 0.75, 62.6 0.75" stroke="#1e1e1e" stroke-width="1" fill="none"></path></g></g><mask></mask><g stroke-linecap="round" transform="translate(112.68201446533203 33) rotate(0 51.5 19.5)"><path d="M9.75 0 C41.8 -0.74, 73.67 -1.14, 93.25 0 M9.75 0 C35.95 -0.55, 62.68 -0.83, 93.25 0 M93.25 0 C98.98 -0.18, 102.15 3.8, 103 9.75 M93.25 0 C97.79 0.36, 104.65 4.66, 103 9.75 M103 9.75 C101.07 13.76, 103.16 19.95, 103 29.25 M103 9.75 C104.1 13.13, 103.82 17.03, 103 29.25 M103 29.25 C104.14 37.73, 98.56 39.2, 93.25 39 M103 29.25 C104.07 37.65, 101.96 38.51, 93.25 39 M93.25 39 C64.04 38.08, 37.96 38.08, 9.75 39 M93.25 39 C67.09 39.36, 39.78 39.66, 9.75 39 M9.75 39 C3.52 38.23, 0.97 34.92, 0 29.25 M9.75 39 C4.57 37.08, -0.95 35.47, 0 29.25 M0 29.25 C-0.63 23.45, 0.21 19.96, 0 9.75 M0 29.25 C0.04 24.26, -0.69 19.74, 0 9.75 M0 9.75 C-0.57 1.29, 4.72 -0.56, 9.75 0 M0 9.75 C-0.87 2.57, 2.57 -0.61, 9.75 0" stroke="#1e1e1e" stroke-width="1" fill="none"></path></g><g stroke-linecap="round"><g transform="translate(164.68201446533203 33) rotate(0 0 18.5)"><path d="M0.01 0.18 C-0.07 6.44, -0.12 31.26, -0.17 37.36 M-0.65 -0.2 C-0.85 5.92, -0.66 30.33, -0.68 36.59" stroke="#1e1e1e" stroke-width="1" fill="none"></path></g></g><mask></mask><g transform="translate(125.22996520996094 35) rotate(0 11.452049255371094 17.5)"><text x="11.452049255371094" y="24.528" font-family="Virgil, Segoe UI Emoji" font-size="28px" fill="#1e1e1e" text-anchor="middle" style="white-space: pre;" direction="ltr" dominant-baseline="alphabetic">e1</text></g><g stroke-linecap="round"><g transform="translate(190 50) rotate(0 29.5 0)"><path d="M-0.19 -0.54 C9.48 -0.76, 48.74 -0.83, 58.76 -0.79 M-1.75 1.79 C7.68 1.66, 47.46 0.48, 57.69 0.33" stroke="#1e1e1e" stroke-width="1" fill="none"></path></g><g transform="translate(190 50) rotate(0 29.5 0)"><path d="M55.98 0.62 L43.92 6.83 L43.85 -5.58 L57.38 0.78" stroke="none" stroke-width="0" fill="#1e1e1e" fill-rule="evenodd"></path><path d="M57.69 0.33 C52.2 2.41, 47.04 6.26, 44.25 6.98 M57.69 0.33 C54.19 1.88, 50.4 4.43, 44.25 6.98 M44.25 6.98 C44.46 4.92, 44.65 -0.02, 43.95 -5.7 M44.25 6.98 C43.93 2.28, 44.16 -1.52, 43.95 -5.7 M43.95 -5.7 C49.94 -3.69, 51.77 -1.54, 57.69 0.33 M43.95 -5.7 C47.22 -4.48, 49.86 -2.56, 57.69 0.33 M57.69 0.33 C57.69 0.33, 57.69 0.33, 57.69 0.33 M57.69 0.33 C57.69 0.33, 57.69 0.33, 57.69 0.33" stroke="#1e1e1e" stroke-width="1" fill="none"></path></g></g><mask></mask><g transform="translate(250 30) rotate(0 25.508102416992188 17.5)"><text x="25.508102416992188" y="24.528" font-family="Virgil, Segoe UI Emoji" font-size="28px" fill="#1e1e1e" text-anchor="middle" style="white-space: pre;" direction="ltr" dominant-baseline="alphabetic">. . .</text></g><g stroke-linecap="round"><g transform="translate(310.7117883954197 51.56601871536765) rotate(0 29.5 0)"><path d="M-0.71 -0.34 C9.28 -0.54, 49.38 -1.24, 59.41 -1.04 M1.12 -1.56 C11.03 -1.67, 49.04 -0.14, 58.67 -0.05" stroke="#1e1e1e" stroke-width="1" fill="none"></path></g><g transform="translate(310.7117883954197 51.56601871536765) rotate(0 29.5 0)"><path d="M58 1.42 L46.66 6.16 L43.87 -6.21 L57.66 0.37" stroke="none" stroke-width="0" fill="#1e1e1e" fill-rule="evenodd"></path><path d="M58.67 -0.05 C54.76 1.9, 50.39 3.46, 44.92 5.93 M58.67 -0.05 C53.45 1.79, 48.1 4.04, 44.92 5.93 M44.92 5.93 C45.53 1.02, 45.25 -0.65, 45.25 -6.74 M44.92 5.93 C45.04 1.61, 45.65 -0.94, 45.25 -6.74 M45.25 -6.74 C48.63 -4.9, 55.24 -1.75, 58.67 -0.05 M45.25 -6.74 C50.15 -4.93, 54.41 -2.73, 58.67 -0.05 M58.67 -0.05 C58.67 -0.05, 58.67 -0.05, 58.67 -0.05 M58.67 -0.05 C58.67 -0.05, 58.67 -0.05, 58.67 -0.05" stroke="#1e1e1e" stroke-width="1" fill="none"></path></g></g><mask></mask><g stroke-linecap="round" transform="translate(370 30.721911886171426) rotate(0 51.5 19.5)"><path d="M9.75 0 C41.63 1.87, 74.16 0.17, 93.25 0 M9.75 0 C30.57 -1.08, 52.61 0.13, 93.25 0 M93.25 0 C99.03 1.84, 101.39 4.19, 103 9.75 M93.25 0 C100.94 1.72, 101.43 3.53, 103 9.75 M103 9.75 C103.52 14.25, 102.73 20.75, 103 29.25 M103 9.75 C103.69 13.75, 102.29 17.81, 103 29.25 M103 29.25 C105 33.75, 100.94 39.25, 93.25 39 M103 29.25 C104.37 36.35, 101.15 37.35, 93.25 39 M93.25 39 C68.89 41.06, 47.7 40.23, 9.75 39 M93.25 39 C59.47 38.22, 26.1 38.54, 9.75 39 M9.75 39 C4.69 38.65, -0.48 34.31, 0 29.25 M9.75 39 C4.24 37.27, -1.4 36.74, 0 29.25 M0 29.25 C-1.42 24.36, -0.53 20.88, 0 9.75 M0 29.25 C-0.45 23.47, 0.92 16.48, 0 9.75 M0 9.75 C-1.22 3.09, 3.95 1.33, 9.75 0 M0 9.75 C1.09 4.17, 2.38 -2.23, 9.75 0" stroke="#1e1e1e" stroke-width="1" fill="none"></path></g><g stroke-linecap="round"><g transform="translate(422 30.721911886171426) rotate(0 0 18.5)"><path d="M0.34 -0.16 C0.39 5.99, -0.13 30.47, -0.13 36.74 M-0.15 -0.72 C-0.15 5.51, -0.68 31.09, -0.62 37.3" stroke="#1e1e1e" stroke-width="1" fill="none"></path></g></g><mask></mask><g transform="translate(379.80393981933594 32.721911886171426) rotate(0 14.196060180664062 17.5)"><text x="14.196060180664062" y="24.528" font-family="Virgil, Segoe UI Emoji" font-size="28px" fill="#1e1e1e" text-anchor="middle" style="white-space: pre;" direction="ltr" dominant-baseline="alphabetic">en</text></g><g stroke-linecap="round"><g transform="translate(449.7738736511394 51.04306101859828) rotate(0 30.113063174430295 18.95693898140172)"><path d="M1.11 -0.91 C11.46 -1.41, 51.27 -8.4, 61.07 -1.89 C70.86 4.61, 59.95 31.42, 59.9 38.1 M0.23 1.22 C10.59 1.37, 50.77 -7.09, 60.56 -0.8 C70.35 5.49, 58.84 32.35, 58.96 38.97" stroke="#1e1e1e" stroke-width="1" fill="none"></path></g><g transform="translate(449.7738736511394 51.04306101859828) rotate(0 30.113063174430295 18.95693898140172)"><path d="M58.35 37.37 L56.83 25.05 L66.84 28.52 L57.18 39.42" stroke="none" stroke-width="0" fill="#1e1e1e" fill-rule="evenodd"></path><path d="M58.96 38.97 C56.96 36.97, 56.31 32.43, 55.51 24.37 M58.96 38.97 C57.72 35.63, 57.26 31.86, 55.51 24.37 M55.51 24.37 C58.98 26.13, 63.57 27.25, 67.93 26.95 M55.51 24.37 C59.59 24.96, 64.82 25.96, 67.93 26.95 M67.93 26.95 C63.8 31.64, 61.91 34.07, 58.96 38.97 M67.93 26.95 C65.41 28.92, 64.02 31.81, 58.96 38.97 M58.96 38.97 C58.96 38.97, 58.96 38.97, 58.96 38.97 M58.96 38.97 C58.96 38.97, 58.96 38.97, 58.96 38.97" stroke="#1e1e1e" stroke-width="1" fill="none"></path></g></g><mask></mask><g transform="translate(20.367958068847656 139) rotate(0 13.314056396484375 17.5)"><text x="13.314056396484375" y="24.528" font-family="Virgil, Segoe UI Emoji" font-size="28px" fill="#1e1e1e" text-anchor="middle" style="white-space: pre;" direction="ltr" dominant-baseline="alphabetic">l0</text></g><g stroke-linecap="round"><g transform="translate(56.314056396484375 153.13154554540642) rotate(0 26.183979034423828 0.428446361531428)"><path d="M-0.19 -0.91 C8.61 -0.79, 43.98 -0.4, 52.86 -0.19 M-1.75 1.23 C6.93 1.55, 43.1 0.77, 52.17 0.8" stroke="#1e1e1e" stroke-width="1" fill="none"></path></g><g transform="translate(56.314056396484375 153.13154554540642) rotate(0 26.183979034423828 0.428446361531428)"><path d="M53.21 -0.56 L38.53 6.31 L38.54 -3.67 L52.44 -0.58" stroke="none" stroke-width="0" fill="#1e1e1e" fill-rule="evenodd"></path><path d="M52.17 0.8 C46.85 3.37, 42.54 5.61, 38.63 7.27 M52.17 0.8 C48.94 3.11, 45.36 4.65, 38.63 7.27 M38.63 7.27 C39.31 3.96, 38.21 -1.57, 38.51 -5.4 M38.63 7.27 C38.72 3.57, 39.05 0.48, 38.51 -5.4 M38.51 -5.4 C42.13 -4.09, 47.46 -2.75, 52.17 0.8 M38.51 -5.4 C43.12 -3.15, 47.79 -1.46, 52.17 0.8 M52.17 0.8 C52.17 0.8, 52.17 0.8, 52.17 0.8 M52.17 0.8 C52.17 0.8, 52.17 0.8, 52.17 0.8" stroke="#1e1e1e" stroke-width="1" fill="none"></path></g></g><mask></mask><g stroke-linecap="round" transform="translate(112.68201446533203 133) rotate(0 51.5 19.5)"><path d="M9.75 0 C31.75 0.82, 56.45 -1.16, 93.25 0 M9.75 0 C40.89 -0.09, 71.5 -0.13, 93.25 0 M93.25 0 C101.6 1.23, 104.3 2.8, 103 9.75 M93.25 0 C98.74 -1.03, 100.72 2.15, 103 9.75 M103 9.75 C101.89 16, 103.18 20.07, 103 29.25 M103 9.75 C101.97 14.78, 102.31 18.9, 103 29.25 M103 29.25 C103.79 36.28, 101.39 38.76, 93.25 39 M103 29.25 C102.4 34.25, 101.89 38.29, 93.25 39 M93.25 39 C66.96 37.16, 38.06 37.9, 9.75 39 M93.25 39 C64.09 38.43, 33.83 38.63, 9.75 39 M9.75 39 C3.28 40.73, 0.28 34.37, 0 29.25 M9.75 39 C2.1 40.58, 1.04 35.41, 0 29.25 M0 29.25 C-1.24 20.72, 0.59 12.23, 0 9.75 M0 29.25 C-0.33 25.4, -0.31 19.6, 0 9.75 M0 9.75 C-1.29 2.64, 2.31 -0.52, 9.75 0 M0 9.75 C-0.38 4.31, 4.08 -0.34, 9.75 0" stroke="#1e1e1e" stroke-width="1" fill="none"></path></g><g stroke-linecap="round"><g transform="translate(164.68201446533203 133) rotate(0 0 18.5)"><path d="M0.32 -0.21 C0.24 6.1, -0.21 31.11, -0.23 37.37 M-0.18 -0.8 C-0.37 5.4, -0.81 30.38, -0.77 36.6" stroke="#1e1e1e" stroke-width="1" fill="none"></path></g></g><mask></mask><g transform="translate(115.5979232788086 135) rotate(0 21.084091186523438 17.5)"><text x="21.084091186523438" y="24.528" font-family="Virgil, Segoe UI Emoji" font-size="28px" fill="#1e1e1e" text-anchor="middle" style="white-space: pre;" direction="ltr" dominant-baseline="alphabetic">e01</text></g><g stroke-linecap="round"><g transform="translate(190 150) rotate(0 29.5 0)"><path d="M0.54 0.84 C10.53 0.8, 49.68 0.64, 59.47 0.59 M-0.64 0.23 C9.29 -0.23, 48.88 -0.93, 58.78 -1.22" stroke="#1e1e1e" stroke-width="1" fill="none"></path></g><g transform="translate(190 150) rotate(0 29.5 0)"><path d="M57.78 0.16 L46.23 5.13 L46.9 -5.79 L58.49 -2.35" stroke="none" stroke-width="0" fill="#1e1e1e" fill-rule="evenodd"></path><path d="M58.78 -1.22 C56.39 1.15, 52.6 2.68, 45.33 5.43 M58.78 -1.22 C54.69 0.99, 49.23 3.12, 45.33 5.43 M45.33 5.43 C44.41 3.59, 44.65 0.6, 45.04 -7.24 M45.33 5.43 C45 1.49, 44.63 -2.48, 45.04 -7.24 M45.04 -7.24 C48.69 -4.62, 51.41 -4.8, 58.78 -1.22 M45.04 -7.24 C48.53 -6.53, 51.69 -3.97, 58.78 -1.22 M58.78 -1.22 C58.78 -1.22, 58.78 -1.22, 58.78 -1.22 M58.78 -1.22 C58.78 -1.22, 58.78 -1.22, 58.78 -1.22" stroke="#1e1e1e" stroke-width="1" fill="none"></path></g></g><mask></mask><g transform="translate(250 130) rotate(0 25.508102416992188 17.5)"><text x="25.508102416992188" y="24.528" font-family="Virgil, Segoe UI Emoji" font-size="28px" fill="#1e1e1e" text-anchor="middle" style="white-space: pre;" direction="ltr" dominant-baseline="alphabetic">. . .</text></g><g stroke-linecap="round"><g transform="translate(310.7117883954197 151.5660187153676) rotate(0 24.683979034423828 0)"><path d="M0.15 0.25 C8.42 0.26, 41.61 0.4, 49.88 0.34 M-0.44 -0.1 C7.79 -0.27, 41.37 -0.54, 49.71 -0.45" stroke="#1e1e1e" stroke-width="1" fill="none"></path></g><g transform="translate(310.7117883954197 151.5660187153676) rotate(0 24.683979034423828 0)"><path d="M50.63 0.27 L35.97 5.33 L35.66 -6.41 L48.84 -1.14" stroke="none" stroke-width="0" fill="#1e1e1e" fill-rule="evenodd"></path><path d="M49.71 -0.45 C45.44 2.41, 40.95 4.36, 36.11 5.89 M49.71 -0.45 C45.55 1.1, 42.15 2.76, 36.11 5.89 M36.11 5.89 C36.25 0.94, 35.82 -3.46, 36.11 -6.79 M36.11 5.89 C35.98 1.76, 36.3 -1.92, 36.11 -6.79 M36.11 -6.79 C40.81 -3.65, 46.27 -1.72, 49.71 -0.45 M36.11 -6.79 C38.47 -5.63, 41.34 -4.07, 49.71 -0.45 M49.71 -0.45 C49.71 -0.45, 49.71 -0.45, 49.71 -0.45 M49.71 -0.45 C49.71 -0.45, 49.71 -0.45, 49.71 -0.45" stroke="#1e1e1e" stroke-width="1" fill="none"></path></g></g><mask></mask><g stroke-linecap="round" transform="translate(370 130.72191188617148) rotate(0 51.5 19.5)"><path d="M9.75 0 C38.26 0.53, 63.85 -1.65, 93.25 0 M9.75 0 C31.07 -0.33, 52.96 -0.09, 93.25 0 M93.25 0 C100.17 0.33, 101.61 2.23, 103 9.75 M93.25 0 C98.56 0.26, 100.82 3.68, 103 9.75 M103 9.75 C103.4 16.02, 102.66 18.59, 103 29.25 M103 9.75 C103.45 13.36, 103.37 19.43, 103 29.25 M103 29.25 C101 35.31, 98.49 40.11, 93.25 39 M103 29.25 C102.3 36.06, 100.95 37.43, 93.25 39 M93.25 39 C70.38 39.29, 42.65 38.01, 9.75 39 M93.25 39 C63.38 39.6, 31.51 38.31, 9.75 39 M9.75 39 C2.35 39.75, -1.74 34.38, 0 29.25 M9.75 39 C5.36 37.82, -0.36 37.32, 0 29.25 M0 29.25 C-0.46 22.76, -0.38 17.77, 0 9.75 M0 29.25 C-0.81 22.53, -0.96 15.11, 0 9.75 M0 9.75 C0.67 2.11, 2.71 -1.32, 9.75 0 M0 9.75 C-0.76 4.67, 4.7 -1.38, 9.75 0" stroke="#1e1e1e" stroke-width="1" fill="none"></path></g><g stroke-linecap="round"><g transform="translate(422 130.72191188617148) rotate(0 0 18.5)"><path d="M0.36 -0.12 C0.23 5.94, -0.09 30.61, -0.24 36.75 M-0.12 -0.66 C-0.38 5.45, -0.9 31.02, -0.8 37.33" stroke="#1e1e1e" stroke-width="1" fill="none"></path></g></g><mask></mask><g transform="translate(370.1718978881836 132.72191188617148) rotate(0 23.828102111816406 17.5)"><text x="23.828102111816406" y="24.528" font-family="Virgil, Segoe UI Emoji" font-size="28px" fill="#1e1e1e" text-anchor="middle" style="white-space: pre;" direction="ltr" dominant-baseline="alphabetic">e0n</text></g><g stroke-linecap="round"><g transform="translate(449.7738736511394 151.04306101859834) rotate(0 30.113063174430295 18.956938981401663)"><path d="M-1.19 -0.57 C8.94 -0.81, 49.87 -8.41, 60.22 -1.92 C70.57 4.57, 60.85 31.52, 60.9 38.36 M0.39 1.74 C10.4 1.68, 49.25 -7.12, 59.27 -0.85 C69.28 5.43, 60.22 32.5, 60.48 39.37" stroke="#1e1e1e" stroke-width="1" fill="none"></path></g><g transform="translate(449.7738736511394 151.04306101859834) rotate(0 30.113063174430295 18.956938981401663)"><path d="M62.32 38.34 L55.83 26.38 L68.42 25.53 L59.2 38.76" stroke="none" stroke-width="0" fill="#1e1e1e" fill-rule="evenodd"></path><path d="M60.48 39.37 C58.72 35.64, 57.23 32.81, 56.14 25.01 M60.48 39.37 C58.85 35.4, 57.89 32.27, 56.14 25.01 M56.14 25.01 C58 25.96, 61.63 26.87, 68.69 26.82 M56.14 25.01 C60.34 25.42, 63.55 25.51, 68.69 26.82 M68.69 26.82 C65.81 29.79, 64.35 34.29, 60.48 39.37 M68.69 26.82 C66.14 30.34, 63.62 35.28, 60.48 39.37 M60.48 39.37 C60.48 39.37, 60.48 39.37, 60.48 39.37 M60.48 39.37 C60.48 39.37, 60.48 39.37, 60.48 39.37" stroke="#1e1e1e" stroke-width="1" fill="none"></path></g></g><mask></mask><g stroke-linecap="round" transform="translate(10 10) rotate(0 280 110)"><path d="M32 0 C222.52 -1.15, 413.82 -1.48, 528 0 M32 0 C209.85 -1.4, 388.09 -1.13, 528 0 M528 0 C549.84 1.3, 561.78 12.41, 560 32 M528 0 C549.58 1.8, 559.74 9.98, 560 32 M560 32 C557.27 90.31, 558.12 150.45, 560 188 M560 32 C561.48 89.32, 560.99 148.04, 560 188 M560 188 C560.67 208.24, 550.63 219.68, 528 220 M560 188 C562.08 208.76, 549.46 219.79, 528 220 M528 220 C347.86 221.04, 169.42 221.75, 32 220 M528 220 C356.86 218.65, 186.29 218.91, 32 220 M32 220 C10.6 219.2, 0.73 207.9, 0 188 M32 220 C11.67 218.68, 1.03 207.68, 0 188 M0 188 C-0.84 137.64, 0.18 88.17, 0 32 M0 188 C1.15 144.47, 1.6 100.43, 0 32 M0 32 C0.86 11.17, 9.14 1.88, 32 0 M0 32 C1.38 10.26, 9.35 1.99, 32 0" stroke="#1e1e1e" stroke-width="1" fill="none"></path></g><g transform="translate(50 270) rotate(0 29.610130310058594 17.5)"><text x="0" y="24.528" font-family="Virgil, Segoe UI Emoji" font-size="28px" fill="#1e1e1e" text-anchor="start" style="white-space: pre;" direction="ltr" dominant-baseline="alphabetic">p:= l</text></g><g transform="translate(30 339) rotate(0 3.6820144653320312 17.5)"><text x="3.6820144653320312" y="24.528" font-family="Virgil, Segoe UI Emoji" font-size="28px" fill="#1e1e1e" text-anchor="middle" style="white-space: pre;" direction="ltr" dominant-baseline="alphabetic">l</text></g><g stroke-linecap="round"><g transform="translate(46.68201446533203 353) rotate(0 31 0.5)"><path d="M0.32 -0.82 C10.83 -0.57, 52.54 0.56, 62.99 0.97 M-0.97 1.36 C9.47 1.86, 51.94 2.78, 62.56 2.49" stroke="#1e1e1e" stroke-width="1" fill="none"></path></g><g transform="translate(46.68201446533203 353) rotate(0 31 0.5)"><path d="M63.93 4.06 L47.04 10.32 L50.64 -2.72 L63.84 0.61" stroke="none" stroke-width="0" fill="#1e1e1e" fill-rule="evenodd"></path><path d="M62.56 2.49 C57.5 5.62, 54.48 7.51, 48.96 8.81 M62.56 2.49 C57.23 4.99, 53.32 7.15, 48.96 8.81 M48.96 8.81 C47.81 4.49, 49.59 0.95, 48.97 -3.87 M48.96 8.81 C48.82 5.45, 48.51 1.47, 48.97 -3.87 M48.97 -3.87 C52.97 -3.55, 56.06 0.21, 62.56 2.49 M48.97 -3.87 C52.51 -1.57, 55.11 -0.68, 62.56 2.49 M62.56 2.49 C62.56 2.49, 62.56 2.49, 62.56 2.49 M62.56 2.49 C62.56 2.49, 62.56 2.49, 62.56 2.49" stroke="#1e1e1e" stroke-width="1" fill="none"></path></g></g><mask></mask><g stroke-linecap="round" transform="translate(112.68201446533203 333) rotate(0 51.5 19.5)"><path d="M9.75 0 C36.97 0.99, 65.33 0.38, 93.25 0 M9.75 0 C30.96 -0.01, 51.2 0.58, 93.25 0 M93.25 0 C100.88 -1.62, 101.73 4.42, 103 9.75 M93.25 0 C98.22 -0.59, 103.69 2.49, 103 9.75 M103 9.75 C101.86 13.61, 103 22.08, 103 29.25 M103 9.75 C103.81 16.42, 103.33 24.04, 103 29.25 M103 29.25 C103.65 37.73, 98.64 39.29, 93.25 39 M103 29.25 C101.49 35.38, 97.93 40.29, 93.25 39 M93.25 39 C67.92 40.36, 44.24 39.74, 9.75 39 M93.25 39 C64.57 40.14, 33.56 40.1, 9.75 39 M9.75 39 C4.92 40.15, 1.28 33.88, 0 29.25 M9.75 39 C4.76 38.96, 1.84 34.53, 0 29.25 M0 29.25 C-0.26 25.43, -0.89 18.78, 0 9.75 M0 29.25 C-0.73 24.74, -0.3 21.45, 0 9.75 M0 9.75 C1.3 4.52, 4.41 -0.12, 9.75 0 M0 9.75 C-0.53 1.91, 1.41 -0.03, 9.75 0" stroke="#1e1e1e" stroke-width="1" fill="none"></path></g><g stroke-linecap="round"><g transform="translate(164.68201446533203 333) rotate(0 0 18.5)"><path d="M0.46 0.28 C0.44 6.4, 0.44 30.56, 0.29 36.72 M0.04 -0.05 C-0.08 6.14, -0.09 31.22, 0.01 37.28" stroke="#1e1e1e" stroke-width="1" fill="none"></path></g></g><mask></mask><g transform="translate(125.22996520996094 335) rotate(0 11.452049255371094 17.5)"><text x="11.452049255371094" y="24.528" font-family="Virgil, Segoe UI Emoji" font-size="28px" fill="#1e1e1e" text-anchor="middle" style="white-space: pre;" direction="ltr" dominant-baseline="alphabetic">e1</text></g><g stroke-linecap="round"><g transform="translate(190 350) rotate(0 29.5 0)"><path d="M-0.95 0.57 C8.85 0.75, 49.49 0.36, 59.44 0.46 M0.76 -0.18 C10.38 -0.31, 49.21 -1.35, 58.72 -1.42" stroke="#1e1e1e" stroke-width="1" fill="none"></path></g><g transform="translate(190 350) rotate(0 29.5 0)"><path d="M60.03 -1.45 L46.85 4.11 L44.6 -6.67 L57.25 -1.6" stroke="none" stroke-width="0" fill="#1e1e1e" fill-rule="evenodd"></path><path d="M58.72 -1.42 C54.63 1.35, 49.74 2.78, 45.24 5.17 M58.72 -1.42 C52.92 1.53, 47.55 3.52, 45.24 5.17 M45.24 5.17 C45.46 0.13, 44.37 -4.28, 45.01 -7.51 M45.24 5.17 C44.69 1.92, 45.63 -2.77, 45.01 -7.51 M45.01 -7.51 C51.24 -6.27, 54.73 -4.31, 58.72 -1.42 M45.01 -7.51 C48.87 -5.78, 52.47 -4.17, 58.72 -1.42 M58.72 -1.42 C58.72 -1.42, 58.72 -1.42, 58.72 -1.42 M58.72 -1.42 C58.72 -1.42, 58.72 -1.42, 58.72 -1.42" stroke="#1e1e1e" stroke-width="1" fill="none"></path></g></g><mask></mask><g transform="translate(250 330) rotate(0 25.508102416992188 17.5)"><text x="25.508102416992188" y="24.528" font-family="Virgil, Segoe UI Emoji" font-size="28px" fill="#1e1e1e" text-anchor="middle" style="white-space: pre;" direction="ltr" dominant-baseline="alphabetic">. . .</text></g><g stroke-linecap="round"><g transform="translate(310.7117883954197 351.5660187153676) rotate(0 29.5 0)"><path d="M-0.28 1.17 C9.6 0.93, 49.93 -0.9, 59.68 -0.97 M1.78 0.74 C11.52 0.58, 49.26 0.39, 59.09 0.05" stroke="#1e1e1e" stroke-width="1" fill="none"></path></g><g transform="translate(310.7117883954197 351.5660187153676) rotate(0 29.5 0)"><path d="M58.68 0.89 L44.14 6.45 L47.05 -6.87 L59.53 -1.75" stroke="none" stroke-width="0" fill="#1e1e1e" fill-rule="evenodd"></path><path d="M59.09 0.05 C56.04 3.08, 48.82 3.5, 45.61 6.63 M59.09 0.05 C54.44 2.13, 49.25 4.88, 45.61 6.63 M45.61 6.63 C45.61 4.52, 46.49 -0.09, 45.38 -6.04 M45.61 6.63 C45.7 1.63, 45.52 -2.45, 45.38 -6.04 M45.38 -6.04 C48.5 -5.65, 52.94 -2.94, 59.09 0.05 M45.38 -6.04 C50.23 -3.62, 54.24 -1.87, 59.09 0.05 M59.09 0.05 C59.09 0.05, 59.09 0.05, 59.09 0.05 M59.09 0.05 C59.09 0.05, 59.09 0.05, 59.09 0.05" stroke="#1e1e1e" stroke-width="1" fill="none"></path></g></g><mask></mask><g stroke-linecap="round" transform="translate(370 330.7219118861715) rotate(0 51.5 19.5)"><path d="M9.75 0 C31.25 -1.74, 57.17 -1.8, 93.25 0 M9.75 0 C32.5 0.47, 54.93 -0.33, 93.25 0 M93.25 0 C98.05 -0.04, 104.32 4.69, 103 9.75 M93.25 0 C98.28 1.91, 105.2 1.87, 103 9.75 M103 9.75 C104.88 15.44, 103.24 22, 103 29.25 M103 9.75 C102.86 15.38, 102.48 20.77, 103 29.25 M103 29.25 C104.67 37.17, 100.8 40.03, 93.25 39 M103 29.25 C102.35 36.71, 101.32 40.82, 93.25 39 M93.25 39 C77.37 40.97, 57.32 41.01, 9.75 39 M93.25 39 C68.12 38.98, 42.67 38.47, 9.75 39 M9.75 39 C4.92 38.17, 0.44 33.95, 0 29.25 M9.75 39 C3.99 40.11, -1.57 34.76, 0 29.25 M0 29.25 C1.16 25.01, -0.19 18.06, 0 9.75 M0 29.25 C0.82 24.37, 0.13 20.54, 0 9.75 M0 9.75 C1.7 2.39, 3.67 1.3, 9.75 0 M0 9.75 C0.41 1.31, 1.35 -1.08, 9.75 0" stroke="#1e1e1e" stroke-width="1" fill="none"></path></g><g stroke-linecap="round"><g transform="translate(422 330.7219118861715) rotate(0 0 18.5)"><path d="M-0.35 0.32 C-0.46 6.54, -0.45 30.78, -0.36 36.86 M0.47 0.01 C0.51 6.35, 0.78 31.27, 0.68 37.49" stroke="#1e1e1e" stroke-width="1" fill="none"></path></g></g><mask></mask><g transform="translate(379.80393981933594 332.7219118861715) rotate(0 14.196060180664062 17.5)"><text x="14.196060180664062" y="24.528" font-family="Virgil, Segoe UI Emoji" font-size="28px" fill="#1e1e1e" text-anchor="middle" style="white-space: pre;" direction="ltr" dominant-baseline="alphabetic">en</text></g><g stroke-linecap="round"><g transform="translate(449.7738736511394 351.04306101859834) rotate(0 30.113063174430295 18.956938981401663)"><path d="M0.36 -0.39 C10.5 -0.48, 50.18 -7.24, 60.02 -0.81 C69.86 5.63, 59.56 31.61, 59.42 38.23 M-0.91 -1.65 C9.12 -2.09, 48.5 -9.61, 58.97 -2.8 C69.43 4, 61.9 32.03, 61.9 39.17" stroke="#1e1e1e" stroke-width="1" fill="none"></path></g><g transform="translate(449.7738736511394 351.04306101859834) rotate(0 30.113063174430295 18.956938981401663)"><path d="M62.54 40.13 L55.9 24.04 L69.36 27.26 L63.19 40.44" stroke="none" stroke-width="0" fill="#1e1e1e" fill-rule="evenodd"></path><path d="M61.9 39.17 C60.36 35.59, 60.07 31.51, 57.27 24.9 M61.9 39.17 C61.41 36.29, 59.32 32.95, 57.27 24.9 M57.27 24.9 C61.95 25.87, 68.47 25.37, 69.85 26.45 M57.27 24.9 C60.71 25.76, 65.18 25.96, 69.85 26.45 M69.85 26.45 C68.82 30.64, 66.44 32.77, 61.9 39.17 M69.85 26.45 C66.5 31.43, 65.13 35.64, 61.9 39.17 M61.9 39.17 C61.9 39.17, 61.9 39.17, 61.9 39.17 M61.9 39.17 C61.9 39.17, 61.9 39.17, 61.9 39.17" stroke="#1e1e1e" stroke-width="1" fill="none"></path></g></g><mask></mask><g transform="translate(30 479) rotate(0 13.314056396484375 17.5)"><text x="13.314056396484375" y="24.528" font-family="Virgil, Segoe UI Emoji" font-size="28px" fill="#1e1e1e" text-anchor="middle" style="white-space: pre;" direction="ltr" dominant-baseline="alphabetic">l0</text></g><g stroke-linecap="round"><g transform="translate(65.94609832763672 493.1315455454064) rotate(0 26.183979034423828 0.428446361531428)"><path d="M-0.8 -0.73 C7.79 -0.63, 42.35 0.43, 51.35 0.83 M0.98 1.51 C9.95 1.79, 44.89 2.64, 53.53 2.36" stroke="#1e1e1e" stroke-width="1" fill="none"></path></g><g transform="translate(65.94609832763672 493.1315455454064) rotate(0 26.183979034423828 0.428446361531428)"><path d="M53.03 3.16 L41.23 9.96 L41.09 -4.1 L53.07 1.19" stroke="none" stroke-width="0" fill="#1e1e1e" fill-rule="evenodd"></path><path d="M53.53 2.36 C48.78 2.79, 45.82 6.85, 39.93 8.69 M53.53 2.36 C49.15 4.38, 43.72 7.01, 39.93 8.69 M39.93 8.69 C39.99 3.64, 39.6 -0.75, 39.93 -3.99 M39.93 8.69 C39.69 4.14, 40.46 0.11, 39.93 -3.99 M39.93 -3.99 C45.38 -0.69, 50.73 -0.92, 53.53 2.36 M39.93 -3.99 C45.57 -2.38, 50.69 0.69, 53.53 2.36 M53.53 2.36 C53.53 2.36, 53.53 2.36, 53.53 2.36 M53.53 2.36 C53.53 2.36, 53.53 2.36, 53.53 2.36" stroke="#1e1e1e" stroke-width="1" fill="none"></path></g></g><mask></mask><g stroke-linecap="round" transform="translate(122.31405639648438 473) rotate(0 51.5 19.5)"><path d="M9.75 0 C29.18 2.03, 50.11 -0.57, 93.25 0 M9.75 0 C42.21 0.28, 74.05 1.49, 93.25 0 M93.25 0 C98.64 0.29, 101.68 2.93, 103 9.75 M93.25 0 C97.93 1.29, 103.05 3.47, 103 9.75 M103 9.75 C104.37 15.89, 104 19.43, 103 29.25 M103 9.75 C102.2 17.15, 103.94 23.63, 103 29.25 M103 29.25 C104.28 33.88, 101.06 38.97, 93.25 39 M103 29.25 C104.84 34.53, 99.28 39.97, 93.25 39 M93.25 39 C73.51 40.14, 53.63 40.34, 9.75 39 M93.25 39 C63.93 39.04, 35.76 39.28, 9.75 39 M9.75 39 C4.41 38.88, -0.46 34.58, 0 29.25 M9.75 39 C1.41 38.97, 1.57 35.34, 0 29.25 M0 29.25 C-0.99 23.86, 1.13 17.99, 0 9.75 M0 29.25 C0.19 25.92, -0.74 20.3, 0 9.75 M0 9.75 C0.45 3.01, 3.42 -0.45, 9.75 0 M0 9.75 C0.08 0.98, 1.7 0.42, 9.75 0" stroke="#1e1e1e" stroke-width="1" fill="none"></path></g><g stroke-linecap="round"><g transform="translate(174.31405639648438 473) rotate(0 0 18.5)"><path d="M0.36 0.4 C0.38 6.64, -0.38 31.41, -0.35 37.46 M-0.11 0.12 C0.12 6.22, 0.61 30.56, 0.7 36.73" stroke="#1e1e1e" stroke-width="1" fill="none"></path></g></g><mask></mask><g transform="translate(125.22996520996094 475) rotate(0 21.084091186523438 17.5)"><text x="21.084091186523438" y="24.528" font-family="Virgil, Segoe UI Emoji" font-size="28px" fill="#1e1e1e" text-anchor="middle" style="white-space: pre;" direction="ltr" dominant-baseline="alphabetic">e01</text></g><g stroke-linecap="round"><g transform="translate(199.63204193115234 490) rotate(0 29.5 0)"><path d="M1.15 -0.72 C11.2 -0.93, 49.86 -0.59, 59.56 -0.27 M0.29 1.51 C10.3 2.01, 49.16 1.47, 58.91 1.13" stroke="#1e1e1e" stroke-width="1" fill="none"></path></g><g transform="translate(199.63204193115234 490) rotate(0 29.5 0)"><path d="M57.31 1.1 L46.83 7.41 L45.13 -3.46 L60.61 0.26" stroke="none" stroke-width="0" fill="#1e1e1e" fill-rule="evenodd"></path><path d="M58.91 1.13 C54.89 3.53, 52.28 4.88, 45.46 7.76 M58.91 1.13 C53.02 3.67, 47.55 6.86, 45.46 7.76 M45.46 7.76 C45.29 4.99, 46.18 0.77, 45.18 -4.92 M45.46 7.76 C45.83 3.8, 44.69 -0.67, 45.18 -4.92 M45.18 -4.92 C49.07 -1.7, 55.72 0.83, 58.91 1.13 M45.18 -4.92 C48.01 -3.55, 52.58 -2.3, 58.91 1.13 M58.91 1.13 C58.91 1.13, 58.91 1.13, 58.91 1.13 M58.91 1.13 C58.91 1.13, 58.91 1.13, 58.91 1.13" stroke="#1e1e1e" stroke-width="1" fill="none"></path></g></g><mask></mask><g transform="translate(259.63204193115234 470) rotate(0 25.508102416992188 17.5)"><text x="25.508102416992188" y="24.528" font-family="Virgil, Segoe UI Emoji" font-size="28px" fill="#1e1e1e" text-anchor="middle" style="white-space: pre;" direction="ltr" dominant-baseline="alphabetic">. . .</text></g><g stroke-linecap="round"><g transform="translate(320.34383032657206 491.5660187153676) rotate(0 24.683979034423828 0)"><path d="M0.18 0.54 C8.31 0.58, 40.93 0.18, 49.06 0.08 M-0.39 0.35 C7.9 0.49, 41.72 0.8, 50.14 0.82" stroke="#1e1e1e" stroke-width="1" fill="none"></path></g><g transform="translate(320.34383032657206 491.5660187153676) rotate(0 24.683979034423828 0)"><path d="M50.12 1.55 L37.36 6.64 L36.8 -4.96 L50.32 -0.02" stroke="none" stroke-width="0" fill="#1e1e1e" fill-rule="evenodd"></path><path d="M50.14 0.82 C46.14 2.6, 40.78 4.69, 36.51 7.07 M50.14 0.82 C46.25 2.67, 42.23 4.39, 36.51 7.07 M36.51 7.07 C36.82 2.03, 36.79 -2.22, 36.59 -5.61 M36.51 7.07 C36.86 2.45, 36.83 -2.83, 36.59 -5.61 M36.59 -5.61 C41.15 -3.46, 46.82 -1.51, 50.14 0.82 M36.59 -5.61 C40.64 -4.05, 44.62 -1.66, 50.14 0.82 M50.14 0.82 C50.14 0.82, 50.14 0.82, 50.14 0.82 M50.14 0.82 C50.14 0.82, 50.14 0.82, 50.14 0.82" stroke="#1e1e1e" stroke-width="1" fill="none"></path></g></g><mask></mask><g stroke-linecap="round" transform="translate(379.63204193115234 470.7219118861715) rotate(0 51.5 19.5)"><path d="M9.75 0 C37.82 -0.86, 64.99 -1.12, 93.25 0 M9.75 0 C39.1 -0.14, 70.04 0.63, 93.25 0 M93.25 0 C100.8 1.03, 102.43 4.08, 103 9.75 M93.25 0 C101.32 1.82, 100.79 4.99, 103 9.75 M103 9.75 C101.29 18.51, 103.08 26.26, 103 29.25 M103 9.75 C102.24 14.48, 103.77 18.98, 103 29.25 M103 29.25 C103.44 33.95, 100.4 39.96, 93.25 39 M103 29.25 C101.43 34.76, 99.18 39.92, 93.25 39 M93.25 39 C62.66 39.02, 31.14 37.88, 9.75 39 M93.25 39 C68.27 39.58, 44.2 38.42, 9.75 39 M9.75 39 C3.67 40.3, 0.35 34.06, 0 29.25 M9.75 39 C1.35 37.92, 0.07 37.81, 0 29.25 M0 29.25 C-0.13 25.37, -0.33 21.23, 0 9.75 M0 29.25 C-0.67 25.31, 0.01 21.05, 0 9.75 M0 9.75 C1.68 3.84, 2.76 -1.16, 9.75 0 M0 9.75 C1.47 3.76, 5.44 0.16, 9.75 0" stroke="#1e1e1e" stroke-width="1" fill="none"></path></g><g stroke-linecap="round"><g transform="translate(431.63204193115234 470.7219118861715) rotate(0 0 18.5)"><path d="M-0.36 -0.09 C-0.38 6.12, -0.5 31.12, -0.44 37.31 M0.45 -0.61 C0.63 5.43, 0.7 30.12, 0.57 36.5" stroke="#1e1e1e" stroke-width="1" fill="none"></path></g></g><mask></mask><g transform="translate(379.80393981933594 472.7219118861715) rotate(0 23.828102111816406 17.5)"><text x="23.828102111816406" y="24.528" font-family="Virgil, Segoe UI Emoji" font-size="28px" fill="#1e1e1e" text-anchor="middle" style="white-space: pre;" direction="ltr" dominant-baseline="alphabetic">e0n</text></g><g stroke-linecap="round"><g transform="translate(459.40591558229175 491.04306101859834) rotate(0 30.113063174430295 18.956938981401663)"><path d="M0.02 0.12 C10.15 -0.18, 49.58 -7.72, 59.78 -1.11 C69.98 5.51, 61.05 33.03, 61.23 39.81 M-1.42 -0.87 C8.58 -1.02, 48.19 -6.07, 58.59 0.39 C68.99 6.86, 60.52 31.75, 60.99 37.91" stroke="#1e1e1e" stroke-width="1" fill="none"></path></g><g transform="translate(459.40591558229175 491.04306101859834) rotate(0 30.113063174430295 18.956938981401663)"><path d="M59.34 36.97 L56.5 25.41 L67.17 24.14 L61.44 37.67" stroke="none" stroke-width="0" fill="#1e1e1e" fill-rule="evenodd"></path><path d="M60.99 37.91 C60.05 34.2, 58.82 32.86, 56.44 23.62 M60.99 37.91 C59.02 32.95, 58.05 27.92, 56.44 23.62 M56.44 23.62 C59.75 24.66, 60.4 25.01, 69.02 25.24 M56.44 23.62 C60.08 24.44, 63.5 24.6, 69.02 25.24 M69.02 25.24 C64.54 30.6, 63.53 33.95, 60.99 37.91 M69.02 25.24 C67.41 29.01, 65.3 31.74, 60.99 37.91 M60.99 37.91 C60.99 37.91, 60.99 37.91, 60.99 37.91 M60.99 37.91 C60.99 37.91, 60.99 37.91, 60.99 37.91" stroke="#1e1e1e" stroke-width="1" fill="none"></path></g></g><mask></mask><g transform="translate(50 410) rotate(0 6.902030944824219 17.5)"><text x="0" y="24.528" font-family="Virgil, Segoe UI Emoji" font-size="28px" fill="#1e1e1e" text-anchor="start" style="white-space: pre;" direction="ltr" dominant-baseline="alphabetic">p</text></g><g stroke-linecap="round"><g transform="translate(70 430) rotate(0 30 -30)"><path d="M0.35 0.49 C6.86 -2.71, 29.78 -8.84, 39.77 -19.08 C49.77 -29.32, 57.01 -53.92, 60.33 -60.93 M-0.92 -0.29 C5.35 -3.84, 28.6 -10.75, 38.71 -20.72 C48.82 -30.69, 56.23 -53.45, 59.74 -60.11" stroke="#1e1e1e" stroke-width="1" fill="none"></path></g><g transform="translate(70 430) rotate(0 30 -30)"><path d="M59.08 -59.87 L58.99 -43.17 L48.49 -49.95 L59.61 -60.19" stroke="none" stroke-width="0" fill="#1e1e1e" fill-rule="evenodd"></path><path d="M59.74 -60.11 C60.51 -54.99, 61.17 -48.89, 60.1 -45.11 M59.74 -60.11 C59.48 -56.13, 59.81 -53.67, 60.1 -45.11 M60.1 -45.11 C57.11 -47.03, 53.54 -49.22, 48.49 -50.19 M60.1 -45.11 C55.97 -47.36, 51.85 -49.53, 48.49 -50.19 M48.49 -50.19 C52.12 -52.63, 56.04 -56.76, 59.74 -60.11 M48.49 -50.19 C51.78 -53.2, 55.01 -56.51, 59.74 -60.11 M59.74 -60.11 C59.74 -60.11, 59.74 -60.11, 59.74 -60.11 M59.74 -60.11 C59.74 -60.11, 59.74 -60.11, 59.74 -60.11" stroke="#1e1e1e" stroke-width="1" fill="none"></path></g></g><mask></mask><g stroke-linecap="round" transform="translate(10 310) rotate(0 280 130)"><path d="M32 0 C152.06 -0.97, 272.18 -1.66, 528 0 M32 0 C200.88 -1.85, 369.78 -1.54, 528 0 M528 0 C548.04 -1.86, 561.65 8.87, 560 32 M528 0 C550.89 -1.93, 560.99 9.54, 560 32 M560 32 C563.24 107.95, 562.4 185.19, 560 228 M560 32 C559.06 75.49, 560.61 118.72, 560 228 M560 228 C558.57 248.86, 548.83 258.66, 528 260 M560 228 C561.94 250.96, 550.84 258.75, 528 260 M528 260 C348.2 261.94, 169.4 260.93, 32 260 M528 260 C334.13 258.46, 140.05 258.23, 32 260 M32 260 C8.77 260.35, -1.33 248.55, 0 228 M32 260 C9.3 259.27, -1.73 248.01, 0 228 M0 228 C0.76 185.25, -1.29 140.95, 0 32 M0 228 C-0.35 182.8, 0.71 138.82, 0 32 M0 32 C1.58 10.33, 11.65 1.35, 32 0 M0 32 C-0.46 12.45, 12.88 -0.52, 32 0" stroke="#1e1e1e" stroke-width="1" fill="none"></path></g><g transform="translate(50 610) rotate(0 156.07022094726562 52.5)"><text x="0" y="24.528" font-family="Virgil, Segoe UI Emoji" font-size="28px" fill="#1e1e1e" text-anchor="start" style="white-space: pre;" direction="ltr" dominant-baseline="alphabetic">while(p-&gt;next ≠ null) do</text><text x="0" y="59.528" font-family="Virgil, Segoe UI Emoji" font-size="28px" fill="#1e1e1e" text-anchor="start" style="white-space: pre;" direction="ltr" dominant-baseline="alphabetic">    p:= p-&gt;next</text><text x="0" y="94.52799999999999" font-family="Virgil, Segoe UI Emoji" font-size="28px" fill="#1e1e1e" text-anchor="start" style="white-space: pre;" direction="ltr" dominant-baseline="alphabetic">od</text></g><g transform="translate(30 739) rotate(0 3.6820144653320312 17.5)"><text x="3.6820144653320312" y="24.528" font-family="Virgil, Segoe UI Emoji" font-size="28px" fill="#1e1e1e" text-anchor="middle" style="white-space: pre;" direction="ltr" dominant-baseline="alphabetic">l</text></g><g stroke-linecap="round"><g transform="translate(46.68201446533203 753) rotate(0 31 0.5)"><path d="M-0.19 -0.68 C9.83 -0.23, 51.04 1.33, 61.28 1.81 M-1.75 1.58 C8.56 1.76, 52.69 0.29, 63.61 0.11" stroke="#1e1e1e" stroke-width="1" fill="none"></path></g><g transform="translate(46.68201446533203 753) rotate(0 31 0.5)"><path d="M64.81 -0.63 L51.84 7.7 L48.98 -4 L64.85 1.71" stroke="none" stroke-width="0" fill="#1e1e1e" fill-rule="evenodd"></path><path d="M63.61 0.11 C57.38 1.84, 53.91 4.46, 50.18 6.79 M63.61 0.11 C58.37 2.02, 52.98 5.04, 50.18 6.79 M50.18 6.79 C49.07 1.63, 50.96 -2.25, 49.85 -5.88 M50.18 6.79 C50.51 1.43, 49.47 -2.62, 49.85 -5.88 M49.85 -5.88 C52.62 -5.54, 55.44 -2.44, 63.61 0.11 M49.85 -5.88 C53.19 -3.48, 57.39 -2.95, 63.61 0.11 M63.61 0.11 C63.61 0.11, 63.61 0.11, 63.61 0.11 M63.61 0.11 C63.61 0.11, 63.61 0.11, 63.61 0.11" stroke="#1e1e1e" stroke-width="1" fill="none"></path></g></g><mask></mask><g stroke-linecap="round" transform="translate(112.68201446533203 733) rotate(0 51.5 19.5)"><path d="M9.75 0 C34.84 -0.74, 59.21 1.61, 93.25 0 M9.75 0 C26.79 0.32, 44.37 0.27, 93.25 0 M93.25 0 C101.59 -1.64, 102.29 4.77, 103 9.75 M93.25 0 C100.44 1.93, 103.35 1.53, 103 9.75 M103 9.75 C103.83 15.31, 101.69 26.19, 103 29.25 M103 9.75 C103.58 15.41, 103.19 20.89, 103 29.25 M103 29.25 C101.1 37.35, 98.31 37.32, 93.25 39 M103 29.25 C103.51 35.36, 100.77 37.26, 93.25 39 M93.25 39 C74.95 40.19, 56.15 39.94, 9.75 39 M93.25 39 C60.75 38.58, 27.89 39.41, 9.75 39 M9.75 39 C2.37 40.88, 1.24 37.35, 0 29.25 M9.75 39 C3.78 36.78, 0.95 38.04, 0 29.25 M0 29.25 C1.81 22.94, -1.21 18.11, 0 9.75 M0 29.25 C0.01 23.96, -0.64 17.95, 0 9.75 M0 9.75 C1.93 2.21, 2.06 0.24, 9.75 0 M0 9.75 C0.03 3.7, 1.91 -1.47, 9.75 0" stroke="#1e1e1e" stroke-width="1" fill="none"></path></g><g stroke-linecap="round"><g transform="translate(164.68201446533203 733) rotate(0 0 18.5)"><path d="M-0.34 0.55 C-0.24 6.56, 0.24 30.47, 0.3 36.47 M0.48 0.35 C0.57 6.38, 0.15 30.8, 0.03 36.89" stroke="#1e1e1e" stroke-width="1" fill="none"></path></g></g><mask></mask><g transform="translate(125.22996520996094 735) rotate(0 11.452049255371094 17.5)"><text x="11.452049255371094" y="24.528" font-family="Virgil, Segoe UI Emoji" font-size="28px" fill="#1e1e1e" text-anchor="middle" style="white-space: pre;" direction="ltr" dominant-baseline="alphabetic">e1</text></g><g stroke-linecap="round"><g transform="translate(190 750) rotate(0 29.5 0)"><path d="M0.14 -1 C9.88 -0.88, 49.14 -0.52, 59.1 -0.44 M-1.25 1.09 C8.28 1.48, 48.07 0.95, 58.2 0.86" stroke="#1e1e1e" stroke-width="1" fill="none"></path></g><g transform="translate(190 750) rotate(0 29.5 0)"><path d="M58.66 -1.07 L45.5 9.33 L43.34 -4.31 L56.26 2.82" stroke="none" stroke-width="0" fill="#1e1e1e" fill-rule="evenodd"></path><path d="M58.2 0.86 C52.09 3.3, 47.97 6.56, 44.68 7.34 M58.2 0.86 C54.52 2.99, 51.53 4.71, 44.68 7.34 M44.68 7.34 C43.75 2.46, 45.32 -1.79, 44.54 -5.33 M44.68 7.34 C44.19 4.23, 44.94 1.2, 44.54 -5.33 M44.54 -5.33 C50.23 -4.24, 52.27 -0.79, 58.2 0.86 M44.54 -5.33 C47.88 -3.29, 51.63 -1.54, 58.2 0.86 M58.2 0.86 C58.2 0.86, 58.2 0.86, 58.2 0.86 M58.2 0.86 C58.2 0.86, 58.2 0.86, 58.2 0.86" stroke="#1e1e1e" stroke-width="1" fill="none"></path></g></g><mask></mask><g transform="translate(250 730) rotate(0 25.508102416992188 17.5)"><text x="25.508102416992188" y="24.528" font-family="Virgil, Segoe UI Emoji" font-size="28px" fill="#1e1e1e" text-anchor="middle" style="white-space: pre;" direction="ltr" dominant-baseline="alphabetic">. . .</text></g><g stroke-linecap="round"><g transform="translate(310.7117883954197 751.5660187153676) rotate(0 29.5 0)"><path d="M0.86 -0.51 C10.86 -0.6, 50.48 -1.22, 60.1 -0.98 M-0.15 -1.83 C9.78 -1.76, 50.11 -0.11, 59.73 0.04" stroke="#1e1e1e" stroke-width="1" fill="none"></path></g><g transform="translate(310.7117883954197 751.5660187153676) rotate(0 29.5 0)"><path d="M58.53 1.06 L44.01 7.93 L44.66 -7.84 L57.9 -0.65" stroke="none" stroke-width="0" fill="#1e1e1e" fill-rule="evenodd"></path><path d="M59.73 0.04 C54.82 3.34, 49.99 3.26, 45.96 5.97 M59.73 0.04 C54.68 1.82, 49.95 4.03, 45.96 5.97 M45.96 5.97 C45.22 4.24, 45.99 -0.52, 46.33 -6.7 M45.96 5.97 C46.17 2.09, 45.48 -0.86, 46.33 -6.7 M46.33 -6.7 C49.08 -4.53, 51.25 -4.78, 59.73 0.04 M46.33 -6.7 C51.36 -4.36, 55.62 -1.63, 59.73 0.04 M59.73 0.04 C59.73 0.04, 59.73 0.04, 59.73 0.04 M59.73 0.04 C59.73 0.04, 59.73 0.04, 59.73 0.04" stroke="#1e1e1e" stroke-width="1" fill="none"></path></g></g><mask></mask><g stroke-linecap="round" transform="translate(370 730.7219118861715) rotate(0 51.5 19.5)"><path d="M9.75 0 C39.14 -1.48, 73.33 -0.17, 93.25 0 M9.75 0 C42.57 -0.15, 73.19 1.13, 93.25 0 M93.25 0 C97.95 -1.19, 104.87 3.13, 103 9.75 M93.25 0 C98.55 -0.24, 104.62 3.09, 103 9.75 M103 9.75 C104.5 14.78, 101.3 23.04, 103 29.25 M103 9.75 C102.36 15.52, 102.2 21.04, 103 29.25 M103 29.25 C104.95 36.24, 101.44 40.93, 93.25 39 M103 29.25 C100.76 35.63, 101.13 38.15, 93.25 39 M93.25 39 C63.13 39.87, 30.87 39.09, 9.75 39 M93.25 39 C75.67 40.34, 58.33 40.81, 9.75 39 M9.75 39 C1.57 37.86, -1.83 35.07, 0 29.25 M9.75 39 C3.04 39.67, -0.02 35.5, 0 29.25 M0 29.25 C-0.83 23.55, 0.41 20.18, 0 9.75 M0 29.25 C1.02 23.75, 1.03 15.9, 0 9.75 M0 9.75 C0.65 2.87, 4.96 -1.82, 9.75 0 M0 9.75 C1.36 0.95, 3.99 -0.98, 9.75 0" stroke="#1e1e1e" stroke-width="1" fill="none"></path></g><g stroke-linecap="round"><g transform="translate(422 730.7219118861715) rotate(0 0 18.5)"><path d="M-0.2 0.42 C-0.25 6.74, 0.12 31.43, 0.16 37.46 M0.7 0.16 C0.55 6.37, -0.03 30.6, -0.18 36.73" stroke="#1e1e1e" stroke-width="1" fill="none"></path></g></g><mask></mask><g transform="translate(379.80393981933594 732.7219118861715) rotate(0 14.196060180664062 17.5)"><text x="14.196060180664062" y="24.528" font-family="Virgil, Segoe UI Emoji" font-size="28px" fill="#1e1e1e" text-anchor="middle" style="white-space: pre;" direction="ltr" dominant-baseline="alphabetic">en</text></g><g stroke-linecap="round"><g transform="translate(449.7738736511394 751.0430610185983) rotate(0 30.113063174430295 18.956938981401663)"><path d="M0.18 -0.9 C10.31 -1.4, 51.26 -8.71, 61.13 -1.97 C70.99 4.77, 59.72 32.86, 59.39 39.56 M-1.18 1.24 C8.84 1.39, 50.15 -6.97, 60.65 -0.92 C71.15 5.13, 62.14 30.89, 61.84 37.54" stroke="#1e1e1e" stroke-width="1" fill="none"></path></g><g transform="translate(449.7738736511394 751.0430610185983) rotate(0 30.113063174430295 18.956938981401663)"><path d="M61.66 38.12 L58.06 22.8 L69.2 23.41 L63.77 36.5" stroke="none" stroke-width="0" fill="#1e1e1e" fill-rule="evenodd"></path><path d="M61.84 37.54 C59.35 33.88, 58.07 26.91, 58.07 23.02 M61.84 37.54 C61.35 32.38, 58.94 27.26, 58.07 23.02 M58.07 23.02 C62.27 22.63, 68.32 23.77, 70.54 25.32 M58.07 23.02 C61.05 23.05, 62.99 24.19, 70.54 25.32 M70.54 25.32 C69.11 29.23, 68.37 29.06, 61.84 37.54 M70.54 25.32 C68.67 29.22, 65.16 33.19, 61.84 37.54 M61.84 37.54 C61.84 37.54, 61.84 37.54, 61.84 37.54 M61.84 37.54 C61.84 37.54, 61.84 37.54, 61.84 37.54" stroke="#1e1e1e" stroke-width="1" fill="none"></path></g></g><mask></mask><g transform="translate(30 879) rotate(0 13.314056396484375 17.5)"><text x="13.314056396484375" y="24.528" font-family="Virgil, Segoe UI Emoji" font-size="28px" fill="#1e1e1e" text-anchor="middle" style="white-space: pre;" direction="ltr" dominant-baseline="alphabetic">l0</text></g><g stroke-linecap="round"><g transform="translate(65.94609832763672 893.1315455454064) rotate(0 26.183979034423828 0.428446361531428)"><path d="M-0.84 0.6 C7.56 0.78, 42.23 0.11, 51.29 0.14 M0.92 -0.12 C9.6 0.28, 44.7 0.94, 53.43 1.3" stroke="#1e1e1e" stroke-width="1" fill="none"></path></g><g transform="translate(65.94609832763672 893.1315455454064) rotate(0 26.183979034423828 0.428446361531428)"><path d="M52.09 -0.6 L41.59 6.21 L38.84 -5.19 L53.46 1.7" stroke="none" stroke-width="0" fill="#1e1e1e" fill-rule="evenodd"></path><path d="M53.43 1.3 C48.98 2.09, 42.17 7.07, 39.66 7.25 M53.43 1.3 C49.88 2.99, 45.53 4.54, 39.66 7.25 M39.66 7.25 C38.57 4.93, 39.5 2.61, 40.03 -5.43 M39.66 7.25 C39.27 4.56, 40.54 1.72, 40.03 -5.43 M40.03 -5.43 C45.17 -1.81, 49.85 1.13, 53.43 1.3 M40.03 -5.43 C45.09 -2.63, 49.42 -1.63, 53.43 1.3 M53.43 1.3 C53.43 1.3, 53.43 1.3, 53.43 1.3 M53.43 1.3 C53.43 1.3, 53.43 1.3, 53.43 1.3" stroke="#1e1e1e" stroke-width="1" fill="none"></path></g></g><mask></mask><g stroke-linecap="round" transform="translate(122.31405639648438 873) rotate(0 51.5 19.5)"><path d="M9.75 0 C27.77 2.62, 48.04 -0.3, 93.25 0 M9.75 0 C34.22 -0.27, 57.15 0.86, 93.25 0 M93.25 0 C98.31 -1.68, 103.44 2.91, 103 9.75 M93.25 0 C100.77 -1.74, 101.28 3.83, 103 9.75 M103 9.75 C103.52 15.48, 104.93 16.02, 103 29.25 M103 9.75 C103.93 15.94, 102.69 22.15, 103 29.25 M103 29.25 C104.24 37.35, 100.21 37.07, 93.25 39 M103 29.25 C103.95 38.04, 98.36 40.18, 93.25 39 M93.25 39 C75.18 36.47, 58.71 38.12, 9.75 39 M93.25 39 C65.11 37.96, 39.27 38.39, 9.75 39 M9.75 39 C2.06 39.24, 0.02 36.14, 0 29.25 M9.75 39 C1.91 37.53, 2.14 37.48, 0 29.25 M0 29.25 C-0.19 23.23, -1.59 15.04, 0 9.75 M0 29.25 C0.84 25.25, -0.24 21.65, 0 9.75 M0 9.75 C0.65 1.3, 3.47 -1.7, 9.75 0 M0 9.75 C1.31 5.24, 1.52 -0.1, 9.75 0" stroke="#1e1e1e" stroke-width="1" fill="none"></path></g><g stroke-linecap="round"><g transform="translate(174.31405639648438 873) rotate(0 0 18.5)"><path d="M0.51 -0.03 C0.55 6.18, -0.27 30.78, -0.29 36.94 M0.11 -0.53 C0.37 5.8, 0.78 31.27, 0.8 37.61" stroke="#1e1e1e" stroke-width="1" fill="none"></path></g></g><mask></mask><g transform="translate(125.22996520996094 875) rotate(0 21.084091186523438 17.5)"><text x="21.084091186523438" y="24.528" font-family="Virgil, Segoe UI Emoji" font-size="28px" fill="#1e1e1e" text-anchor="middle" style="white-space: pre;" direction="ltr" dominant-baseline="alphabetic">e01</text></g><g stroke-linecap="round"><g transform="translate(199.63204193115234 890) rotate(0 29.5 0)"><path d="M0.84 -0.08 C10.84 -0.13, 49.85 -0.57, 59.36 -0.39 M-0.17 -1.17 C9.75 -1.04, 48.54 0.89, 58.6 0.94" stroke="#1e1e1e" stroke-width="1" fill="none"></path></g><g transform="translate(199.63204193115234 890) rotate(0 29.5 0)"><path d="M57.43 -0.34 L46.68 8.37 L47.08 -7.61 L59.25 0.56" stroke="none" stroke-width="0" fill="#1e1e1e" fill-rule="evenodd"></path><path d="M58.6 0.94 C55.07 2.95, 51.27 2.55, 44.82 6.87 M58.6 0.94 C53.48 2.95, 48.41 4.77, 44.82 6.87 M44.82 6.87 C45.19 5.26, 45.26 2.24, 45.19 -5.8 M44.82 6.87 C45.47 1.61, 45.77 -2.89, 45.19 -5.8 M45.19 -5.8 C49.89 -3.82, 50.67 -1.82, 58.6 0.94 M45.19 -5.8 C49.78 -2.45, 55.23 -0.91, 58.6 0.94 M58.6 0.94 C58.6 0.94, 58.6 0.94, 58.6 0.94 M58.6 0.94 C58.6 0.94, 58.6 0.94, 58.6 0.94" stroke="#1e1e1e" stroke-width="1" fill="none"></path></g></g><mask></mask><g transform="translate(259.63204193115234 870) rotate(0 25.508102416992188 17.5)"><text x="25.508102416992188" y="24.528" font-family="Virgil, Segoe UI Emoji" font-size="28px" fill="#1e1e1e" text-anchor="middle" style="white-space: pre;" direction="ltr" dominant-baseline="alphabetic">. . .</text></g><g stroke-linecap="round"><g transform="translate(320.34383032657206 891.5660187153676) rotate(0 24.683979034423828 0)"><path d="M-0.52 0.44 C7.61 0.39, 40.64 -0.37, 48.97 -0.46 M0.21 0.19 C8.5 0.21, 41.84 -0.04, 50 0" stroke="#1e1e1e" stroke-width="1" fill="none"></path></g><g transform="translate(320.34383032657206 891.5660187153676) rotate(0 24.683979034423828 0)"><path d="M50.94 -0.9 L36.75 6.18 L37.25 -7.22 L50.6 -1" stroke="none" stroke-width="0" fill="#1e1e1e" fill-rule="evenodd"></path><path d="M50 0 C46.12 1.5, 40.41 4.3, 36.42 6.37 M50 0 C45.89 1.85, 41.99 3.65, 36.42 6.37 M36.42 6.37 C37.01 0.71, 36.35 -3.33, 36.4 -6.31 M36.42 6.37 C36.22 3.33, 36.55 -0.05, 36.4 -6.31 M36.4 -6.31 C41.5 -4.75, 45.54 -2.99, 50 0 M36.4 -6.31 C41.44 -3.89, 47.16 -1.14, 50 0 M50 0 C50 0, 50 0, 50 0 M50 0 C50 0, 50 0, 50 0" stroke="#1e1e1e" stroke-width="1" fill="none"></path></g></g><mask></mask><g stroke-linecap="round" transform="translate(379.63204193115234 870.7219118861715) rotate(0 51.5 19.5)"><path d="M9.75 0 C25.2 1.04, 43.68 1.49, 93.25 0 M9.75 0 C27.56 0.04, 48.16 0.03, 93.25 0 M93.25 0 C101.44 1.93, 101.05 3.14, 103 9.75 M93.25 0 C101.13 -0.85, 104.91 4.29, 103 9.75 M103 9.75 C104.75 15.19, 101.3 20.54, 103 29.25 M103 9.75 C101.93 18.49, 102.06 24.77, 103 29.25 M103 29.25 C101.17 35.07, 99.57 39.58, 93.25 39 M103 29.25 C102.98 35.5, 98.21 36.81, 93.25 39 M93.25 39 C60.36 38.53, 27.4 37.34, 9.75 39 M93.25 39 C74.48 38.72, 54.15 39.44, 9.75 39 M9.75 39 C4.96 37.18, 1.19 33.75, 0 29.25 M9.75 39 C3.99 38.02, 2.14 35.51, 0 29.25 M0 29.25 C-1.95 23.96, -1.7 19.36, 0 9.75 M0 29.25 C-0.59 22.55, -0.24 14.84, 0 9.75 M0 9.75 C1.47 4, 4.9 1.59, 9.75 0 M0 9.75 C-1.79 2.73, 5.24 0.58, 9.75 0" stroke="#1e1e1e" stroke-width="1" fill="none"></path></g><g stroke-linecap="round"><g transform="translate(431.63204193115234 870.7219118861715) rotate(0 0 18.5)"><path d="M0.12 -0.09 C0.23 6.08, 0.33 30.38, 0.24 36.58 M-0.48 -0.62 C-0.39 5.66, -0.26 30.66, -0.06 37.07" stroke="#1e1e1e" stroke-width="1" fill="none"></path></g></g><mask></mask><g transform="translate(379.80393981933594 872.7219118861715) rotate(0 23.828102111816406 17.5)"><text x="23.828102111816406" y="24.528" font-family="Virgil, Segoe UI Emoji" font-size="28px" fill="#1e1e1e" text-anchor="middle" style="white-space: pre;" direction="ltr" dominant-baseline="alphabetic">e0n</text></g><g stroke-linecap="round"><g transform="translate(459.40591558229175 891.0430610185983) rotate(0 30.113063174430295 18.956938981401663)"><path d="M-0.9 0.3 C8.87 0.33, 48.76 -7.24, 59.14 -0.75 C69.52 5.75, 61.05 32.44, 61.4 39.25 M0.83 -0.59 C10.91 -0.86, 51.21 -9.6, 61.28 -2.71 C71.35 4.17, 61.12 33.91, 61.24 40.72" stroke="#1e1e1e" stroke-width="1" fill="none"></path></g><g transform="translate(459.40591558229175 891.0430610185983) rotate(0 30.113063174430295 18.956938981401663)"><path d="M61.89 39.86 L59.1 26.06 L69.38 28.79 L61.89 38.77" stroke="none" stroke-width="0" fill="#1e1e1e" fill-rule="evenodd"></path><path d="M61.24 40.72 C60.35 34.35, 58.97 32.2, 57.24 26.26 M61.24 40.72 C59.09 36.03, 58.97 31.1, 57.24 26.26 M57.24 26.26 C63.23 27.91, 67.85 28.21, 69.74 28.36 M57.24 26.26 C59.41 26.89, 61.71 27.61, 69.74 28.36 M69.74 28.36 C67.32 30.82, 66.43 33.61, 61.24 40.72 M69.74 28.36 C67.93 31.46, 64.3 35.51, 61.24 40.72 M61.24 40.72 C61.24 40.72, 61.24 40.72, 61.24 40.72 M61.24 40.72 C61.24 40.72, 61.24 40.72, 61.24 40.72" stroke="#1e1e1e" stroke-width="1" fill="none"></path></g></g><mask></mask><g transform="translate(50 810) rotate(0 6.902030944824219 17.5)"><text x="0" y="24.528" font-family="Virgil, Segoe UI Emoji" font-size="28px" fill="#1e1e1e" text-anchor="start" style="white-space: pre;" direction="ltr" dominant-baseline="alphabetic">p</text></g><g stroke-linecap="round"><g transform="translate(70 830) rotate(0 160 -30)"><path d="M1.17 0.29 C48.19 -2.9, 228.07 -8.78, 281.01 -18.84 C333.96 -28.9, 312.21 -53.13, 318.83 -60.06 M0.32 -0.6 C47.37 -4.12, 227.13 -10.66, 280.6 -20.36 C334.06 -30.06, 314.32 -52.25, 321.11 -58.78" stroke="#1e1e1e" stroke-width="1" fill="none"></path></g><g transform="translate(70 830) rotate(0 160 -30)"><path d="M320.75 -58.35 L325.65 -46.25 L312.73 -48.19 L322.25 -57.05" stroke="none" stroke-width="0" fill="#1e1e1e" fill-rule="evenodd"></path><path d="M321.11 -58.78 C322.33 -54.52, 324.22 -54.21, 325 -44.3 M321.11 -58.78 C322.97 -54.16, 323.16 -49.53, 325 -44.3 M325 -44.3 C319.24 -44.54, 317.21 -46.62, 312.52 -46.49 M325 -44.3 C320.11 -45.3, 315.67 -45.93, 312.52 -46.49 M312.52 -46.49 C314.82 -51.07, 316.06 -52.19, 321.11 -58.78 M312.52 -46.49 C314.73 -49.4, 316.42 -53.08, 321.11 -58.78 M321.11 -58.78 C321.11 -58.78, 321.11 -58.78, 321.11 -58.78 M321.11 -58.78 C321.11 -58.78, 321.11 -58.78, 321.11 -58.78" stroke="#1e1e1e" stroke-width="1" fill="none"></path></g></g><mask></mask><g stroke-linecap="round" transform="translate(10 710) rotate(0 280 130)"><path d="M32 0 C229.93 -2.5, 426.24 -1.22, 528 0 M32 0 C162.26 -0.53, 293.13 -0.58, 528 0 M528 0 C549.79 -1.93, 560.82 12.65, 560 32 M528 0 C547.95 1.18, 557.76 12.92, 560 32 M560 32 C558.2 74.18, 559.46 116.7, 560 228 M560 32 C559.65 88.12, 558.09 145.39, 560 228 M560 228 C560.02 249.73, 548.17 258.72, 528 260 M560 228 C562.14 251.06, 551.5 257.92, 528 260 M528 260 C362.34 262.2, 197.34 261.98, 32 260 M528 260 C400.31 259.88, 272.89 259.39, 32 260 M32 260 C10.88 258.3, 1.14 251.06, 0 228 M32 260 C8.94 259.9, -1.74 251.29, 0 228 M0 228 C-0.58 178.63, 0.26 124.41, 0 32 M0 228 C-2.02 172.96, -0.72 119.67, 0 32 M0 32 C1.75 11.32, 12.06 -1.55, 32 0 M0 32 C0.88 10.51, 12.69 -0.25, 32 0" stroke="#1e1e1e" stroke-width="1" fill="none"></path></g><g transform="translate(50.009099338717505 1011.6654967614236) rotate(0 81.76035308837892 17.5)"><text x="0" y="24.528" font-family="Virgil, Segoe UI Emoji" font-size="28px" fill="#1e1e1e" text-anchor="start" style="white-space: pre;" direction="ltr" dominant-baseline="alphabetic">p-&gt;next:= l0</text></g><g transform="translate(30 1079) rotate(0 3.6820144653320312 17.5)"><text x="3.6820144653320312" y="24.528" font-family="Virgil, Segoe UI Emoji" font-size="28px" fill="#1e1e1e" text-anchor="middle" style="white-space: pre;" direction="ltr" dominant-baseline="alphabetic">l</text></g><g stroke-linecap="round"><g transform="translate(46.68201446533203 1093) rotate(0 31 0.5)"><path d="M0.18 -0.43 C10.28 -0.23, 50.74 1.27, 60.89 1.34 M-1.19 -1.7 C9.25 -1.9, 52.24 -1.01, 63.02 -0.61" stroke="#1e1e1e" stroke-width="1" fill="none"></path></g><g transform="translate(46.68201446533203 1093) rotate(0 31 0.5)"><path d="M62.08 -2 L49.23 4.91 L49.34 -8.99 L62.33 -1.6" stroke="none" stroke-width="0" fill="#1e1e1e" fill-rule="evenodd"></path><path d="M63.02 -0.61 C58.05 -0.04, 54.57 2.14, 49.26 5.36 M63.02 -0.61 C60.07 1.29, 56.45 1.38, 49.26 5.36 M49.26 5.36 C48.3 2.1, 48.21 -1.56, 49.61 -7.31 M49.26 5.36 C49.09 -0.07, 49.98 -4.91, 49.61 -7.31 M49.61 -7.31 C53.42 -4.08, 59.05 -3.82, 63.02 -0.61 M49.61 -7.31 C53.69 -4.82, 58.95 -2.34, 63.02 -0.61 M63.02 -0.61 C63.02 -0.61, 63.02 -0.61, 63.02 -0.61 M63.02 -0.61 C63.02 -0.61, 63.02 -0.61, 63.02 -0.61" stroke="#1e1e1e" stroke-width="1" fill="none"></path></g></g><mask></mask><g stroke-linecap="round" transform="translate(112.68201446533203 1073) rotate(0 51.5 19.5)"><path d="M9.75 0 C36.61 -0.73, 60.59 -0.37, 93.25 0 M9.75 0 C32.16 -1.42, 55.96 0.07, 93.25 0 M93.25 0 C98.23 -1.5, 102.93 1.47, 103 9.75 M93.25 0 C98.9 1.94, 101.42 1.62, 103 9.75 M103 9.75 C101.17 14.59, 102.59 20.43, 103 29.25 M103 9.75 C102.79 15.7, 102.27 20.73, 103 29.25 M103 29.25 C101.32 36.11, 99.38 39.59, 93.25 39 M103 29.25 C103.32 34.9, 100.75 39.41, 93.25 39 M93.25 39 C75.12 39.66, 53.43 37.33, 9.75 39 M93.25 39 C74.56 38.5, 56.8 38.97, 9.75 39 M9.75 39 C2.99 37.33, -0.69 34.76, 0 29.25 M9.75 39 C5.44 40.74, -0.84 33.91, 0 29.25 M0 29.25 C-0.32 22.24, -0.01 16.76, 0 9.75 M0 29.25 C-0.02 24.49, -0.94 20.52, 0 9.75 M0 9.75 C1.17 1.86, 4.97 0.33, 9.75 0 M0 9.75 C0.91 2.52, 3.17 1.36, 9.75 0" stroke="#1e1e1e" stroke-width="1" fill="none"></path></g><g stroke-linecap="round"><g transform="translate(164.68201446533203 1073) rotate(0 0 18.5)"><path d="M-0.41 -0.48 C-0.38 5.64, -0.38 30.56, -0.31 36.89 M0.38 0.46 C0.63 6.65, 0.88 31.49, 0.76 37.53" stroke="#1e1e1e" stroke-width="1" fill="none"></path></g></g><mask></mask><g transform="translate(125.22996520996094 1075) rotate(0 11.452049255371094 17.5)"><text x="11.452049255371094" y="24.528" font-family="Virgil, Segoe UI Emoji" font-size="28px" fill="#1e1e1e" text-anchor="middle" style="white-space: pre;" direction="ltr" dominant-baseline="alphabetic">e1</text></g><g stroke-linecap="round"><g transform="translate(190 1090) rotate(0 29.5 0)"><path d="M0 1.05 C9.77 0.95, 48.14 -0.82, 57.89 -0.83 M-1.45 0.56 C8.72 0.61, 50.2 0.51, 60.01 0.27" stroke="#1e1e1e" stroke-width="1" fill="none"></path></g><g transform="translate(190 1090) rotate(0 29.5 0)"><path d="M61.92 1.78 L45.76 5.17 L46.16 -4.18 L58.83 0.11" stroke="none" stroke-width="0" fill="#1e1e1e" fill-rule="evenodd"></path><path d="M60.01 0.27 C58.03 0.45, 52.39 2.74, 46.49 6.76 M60.01 0.27 C54.8 1.97, 49.4 5.74, 46.49 6.76 M46.49 6.76 C45.42 4.56, 45.44 1.03, 46.35 -5.92 M46.49 6.76 C46.89 3.59, 46.08 -0.18, 46.35 -5.92 M46.35 -5.92 C49.48 -4.79, 52.5 -3.01, 60.01 0.27 M46.35 -5.92 C49.46 -4.92, 53.42 -2.23, 60.01 0.27 M60.01 0.27 C60.01 0.27, 60.01 0.27, 60.01 0.27 M60.01 0.27 C60.01 0.27, 60.01 0.27, 60.01 0.27" stroke="#1e1e1e" stroke-width="1" fill="none"></path></g></g><mask></mask><g transform="translate(250 1070) rotate(0 25.508102416992188 17.5)"><text x="25.508102416992188" y="24.528" font-family="Virgil, Segoe UI Emoji" font-size="28px" fill="#1e1e1e" text-anchor="middle" style="white-space: pre;" direction="ltr" dominant-baseline="alphabetic">. . .</text></g><g stroke-linecap="round"><g transform="translate(310.7117883954197 1091.5660187153676) rotate(0 29.5 0)"><path d="M-0.55 0.96 C9.32 0.95, 48.17 -0.56, 58.09 -0.9 M1.37 0.42 C11.71 0.61, 50.85 0.28, 60.32 0.16" stroke="#1e1e1e" stroke-width="1" fill="none"></path></g><g transform="translate(310.7117883954197 1091.5660187153676) rotate(0 29.5 0)"><path d="M60.13 1.9 L45.6 6.48 L45.28 -5.88 L59.13 -1.79" stroke="none" stroke-width="0" fill="#1e1e1e" fill-rule="evenodd"></path><path d="M60.32 0.16 C58.68 0.3, 53.54 2.73, 46.79 6.63 M60.32 0.16 C56.93 1.11, 54.13 2.34, 46.79 6.63 M46.79 6.63 C46.7 3, 46.52 -1.38, 46.67 -6.05 M46.79 6.63 C46.21 1.97, 46.21 -2.77, 46.67 -6.05 M46.67 -6.05 C49.98 -3.67, 54.64 -3.59, 60.32 0.16 M46.67 -6.05 C49.95 -5.19, 52.07 -4.02, 60.32 0.16 M60.32 0.16 C60.32 0.16, 60.32 0.16, 60.32 0.16 M60.32 0.16 C60.32 0.16, 60.32 0.16, 60.32 0.16" stroke="#1e1e1e" stroke-width="1" fill="none"></path></g></g><mask></mask><g stroke-linecap="round" transform="translate(370 1070.7219118861713) rotate(0 51.5 19.5)"><path d="M9.75 0 C29.5 0.57, 50.47 -0.11, 93.25 0 M9.75 0 C41.21 -0.3, 74.48 -0.26, 93.25 0 M93.25 0 C99.95 -0.25, 104.43 2.8, 103 9.75 M93.25 0 C101.67 1.74, 102.13 4.53, 103 9.75 M103 9.75 C103.38 13.46, 103.61 18.15, 103 29.25 M103 9.75 C102.42 14.09, 102.89 20.61, 103 29.25 M103 29.25 C103.82 34.62, 98.24 37.36, 93.25 39 M103 29.25 C100.91 36.3, 98.66 37.4, 93.25 39 M93.25 39 C66.68 38.2, 42.46 40.79, 9.75 39 M93.25 39 C61.79 39.2, 29.94 38.26, 9.75 39 M9.75 39 C1.87 39.17, -1.19 33.8, 0 29.25 M9.75 39 C3.72 38.51, 0.04 33.84, 0 29.25 M0 29.25 C-1.19 26.89, 0.49 21.94, 0 9.75 M0 29.25 C-0.28 24.84, -0.74 17.82, 0 9.75 M0 9.75 C1.42 4.53, 5.17 -0.48, 9.75 0 M0 9.75 C1.28 1.42, 3.04 0.08, 9.75 0" stroke="#1e1e1e" stroke-width="1" fill="none"></path></g><g stroke-linecap="round"><g transform="translate(422 1070.7219118861713) rotate(0 0 18.5)"><path d="M-0.02 -0.49 C0.02 5.82, -0.14 31.28, -0.2 37.46 M-0.69 0.45 C-0.71 6.65, -0.98 30.64, -0.74 36.73" stroke="#1e1e1e" stroke-width="1" fill="none"></path></g></g><mask></mask><g transform="translate(379.80393981933594 1072.7219118861713) rotate(0 14.196060180664062 17.5)"><text x="14.196060180664062" y="24.528" font-family="Virgil, Segoe UI Emoji" font-size="28px" fill="#1e1e1e" text-anchor="middle" style="white-space: pre;" direction="ltr" dominant-baseline="alphabetic">en</text></g><g transform="translate(30 1219) rotate(0 13.314056396484375 17.5)"><text x="13.314056396484375" y="24.528" font-family="Virgil, Segoe UI Emoji" font-size="28px" fill="#1e1e1e" text-anchor="middle" style="white-space: pre;" direction="ltr" dominant-baseline="alphabetic">l0</text></g><g stroke-linecap="round"><g transform="translate(65.94609832763672 1233.1315455454064) rotate(0 26.183979034423828 0.428446361531428)"><path d="M0.69 -1.02 C9.56 -0.72, 43.73 0.44, 52.49 0.71 M-0.4 1.06 C8.39 1.64, 42.72 2.05, 51.6 2.17" stroke="#1e1e1e" stroke-width="1" fill="none"></path></g><g transform="translate(65.94609832763672 1233.1315455454064) rotate(0 26.183979034423828 0.428446361531428)"><path d="M49.75 0.48 L39.09 6.94 L39.82 -4.02 L52.4 1.53" stroke="none" stroke-width="0" fill="#1e1e1e" fill-rule="evenodd"></path><path d="M51.6 2.17 C47.02 3.87, 44.85 6.25, 37.92 8.32 M51.6 2.17 C47.58 4.4, 43.38 5.81, 37.92 8.32 M37.92 8.32 C38.31 5.76, 37.51 3.4, 38.1 -4.35 M37.92 8.32 C37.94 4.68, 38.38 -0.09, 38.1 -4.35 M38.1 -4.35 C41.43 -3.48, 43.06 -1.33, 51.6 2.17 M38.1 -4.35 C41.57 -2.8, 46.29 -0.06, 51.6 2.17 M51.6 2.17 C51.6 2.17, 51.6 2.17, 51.6 2.17 M51.6 2.17 C51.6 2.17, 51.6 2.17, 51.6 2.17" stroke="#1e1e1e" stroke-width="1" fill="none"></path></g></g><mask></mask><g stroke-linecap="round" transform="translate(122.31405639648438 1213) rotate(0 51.5 19.5)"><path d="M9.75 0 C39.38 1.34, 69.05 1.58, 93.25 0 M9.75 0 C40.18 -0.31, 71.61 -0.28, 93.25 0 M93.25 0 C99.38 0.59, 103.28 2.51, 103 9.75 M93.25 0 C100.75 0.41, 101.43 1.39, 103 9.75 M103 9.75 C102.02 13.75, 101.52 18.92, 103 29.25 M103 9.75 C102.89 15.85, 102.78 21.57, 103 29.25 M103 29.25 C102.31 34.76, 101.65 40.51, 93.25 39 M103 29.25 C102.16 33.91, 99.53 41, 93.25 39 M93.25 39 C73.32 37.23, 51.11 38.83, 9.75 39 M93.25 39 C69.05 37.46, 47.29 37.61, 9.75 39 M9.75 39 C4.97 39.33, 0.79 35.12, 0 29.25 M9.75 39 C3.17 40.36, -0.68 37.7, 0 29.25 M0 29.25 C1.44 26.77, -0.27 21.64, 0 9.75 M0 29.25 C0.37 24.93, 0.3 21.42, 0 9.75 M0 9.75 C0.36 4.62, 4.75 -0.48, 9.75 0 M0 9.75 C0.05 4.09, 1.91 1.21, 9.75 0" stroke="#1e1e1e" stroke-width="1" fill="none"></path></g><g stroke-linecap="round"><g transform="translate(174.31405639648438 1213) rotate(0 0 18.5)"><path d="M0.39 -0.12 C0.46 6.12, 0.56 31.18, 0.46 37.41 M-0.07 -0.66 C-0.04 5.44, 0.36 30.49, 0.26 36.66" stroke="#1e1e1e" stroke-width="1" fill="none"></path></g></g><mask></mask><g transform="translate(125.22996520996094 1215) rotate(0 21.084091186523438 17.5)"><text x="21.084091186523438" y="24.528" font-family="Virgil, Segoe UI Emoji" font-size="28px" fill="#1e1e1e" text-anchor="middle" style="white-space: pre;" direction="ltr" dominant-baseline="alphabetic">e01</text></g><g stroke-linecap="round"><g transform="translate(199.63204193115234 1230) rotate(0 29.5 0)"><path d="M-0.45 0.67 C9.03 0.55, 48.16 0.26, 57.9 0.19 M1.51 -0.03 C11.26 -0.01, 50.23 1.55, 60.04 1.83" stroke="#1e1e1e" stroke-width="1" fill="none"></path></g><g transform="translate(199.63204193115234 1230) rotate(0 29.5 0)"><path d="M59.97 3.01 L45.65 9.39 L45.13 -6.97 L61.46 3.1" stroke="none" stroke-width="0" fill="#1e1e1e" fill-rule="evenodd"></path><path d="M60.04 1.83 C55.63 2.65, 49.74 5.01, 46.23 7.69 M60.04 1.83 C55.74 3.46, 51.57 5.73, 46.23 7.69 M46.23 7.69 C47.21 5.28, 45.82 0.87, 46.67 -4.98 M46.23 7.69 C46.14 4.49, 46.53 2.02, 46.67 -4.98 M46.67 -4.98 C49.71 -1.55, 55.42 -1.58, 60.04 1.83 M46.67 -4.98 C49.16 -3.65, 52.03 -2.03, 60.04 1.83 M60.04 1.83 C60.04 1.83, 60.04 1.83, 60.04 1.83 M60.04 1.83 C60.04 1.83, 60.04 1.83, 60.04 1.83" stroke="#1e1e1e" stroke-width="1" fill="none"></path></g></g><mask></mask><g transform="translate(259.63204193115234 1210) rotate(0 25.508102416992188 17.5)"><text x="25.508102416992188" y="24.528" font-family="Virgil, Segoe UI Emoji" font-size="28px" fill="#1e1e1e" text-anchor="middle" style="white-space: pre;" direction="ltr" dominant-baseline="alphabetic">. . .</text></g><g stroke-linecap="round"><g transform="translate(320.34383032657206 1231.5660187153676) rotate(0 24.683979034423828 0)"><path d="M-0.46 0.1 C7.83 0.11, 40.95 0.21, 49.27 0.16 M0.3 -0.33 C8.56 -0.49, 40.64 -0.82, 48.78 -0.72" stroke="#1e1e1e" stroke-width="1" fill="none"></path></g><g transform="translate(320.34383032657206 1231.5660187153676) rotate(0 24.683979034423828 0)"><path d="M48.01 -1.72 L35.9 6.27 L36.15 -7.29 L49.34 -1.52" stroke="none" stroke-width="0" fill="#1e1e1e" fill-rule="evenodd"></path><path d="M48.78 -0.72 C46.09 0.41, 43.34 1.98, 35.19 5.63 M48.78 -0.72 C44.96 0.66, 41.57 2.86, 35.19 5.63 M35.19 5.63 C34.71 0.73, 35.37 -3.32, 35.18 -7.05 M35.19 5.63 C35.15 2.44, 35.08 -0.37, 35.18 -7.05 M35.18 -7.05 C39.98 -4.59, 46.61 -2.47, 48.78 -0.72 M35.18 -7.05 C38.91 -5.57, 43.19 -3.43, 48.78 -0.72 M48.78 -0.72 C48.78 -0.72, 48.78 -0.72, 48.78 -0.72 M48.78 -0.72 C48.78 -0.72, 48.78 -0.72, 48.78 -0.72" stroke="#1e1e1e" stroke-width="1" fill="none"></path></g></g><mask></mask><g stroke-linecap="round" transform="translate(379.63204193115234 1210.7219118861713) rotate(0 51.5 19.5)"><path d="M9.75 0 C28.39 0.43, 45.1 1.02, 93.25 0 M9.75 0 C36.09 1.28, 63.23 0.11, 93.25 0 M93.25 0 C98.24 -1.64, 101.19 3.73, 103 9.75 M93.25 0 C98.66 -1.6, 102.96 2.73, 103 9.75 M103 9.75 C101.87 17.2, 104.31 20.22, 103 29.25 M103 9.75 C102.4 13.97, 102.31 18.42, 103 29.25 M103 29.25 C101.81 33.8, 100.15 38.57, 93.25 39 M103 29.25 C103.04 33.84, 97.62 37.06, 93.25 39 M93.25 39 C63.66 40.51, 32.77 39.65, 9.75 39 M93.25 39 C62.48 38.71, 33.96 40.35, 9.75 39 M9.75 39 C5.17 38.52, 1.12 34.16, 0 29.25 M9.75 39 C3.04 39.08, 0.83 35.69, 0 29.25 M0 29.25 C1.18 24.3, -0.62 16.47, 0 9.75 M0 29.25 C0.95 23.02, 0.94 15.56, 0 9.75 M0 9.75 C-0.8 1.75, 1.4 1.21, 9.75 0 M0 9.75 C0.29 3.24, 4.54 -2.26, 9.75 0" stroke="#1e1e1e" stroke-width="1" fill="none"></path></g><g stroke-linecap="round"><g transform="translate(431.63204193115234 1210.7219118861713) rotate(0 0 18.5)"><path d="M0.08 -0.2 C0.13 5.95, 0.31 30.97, 0.24 37.1 M-0.55 -0.78 C-0.53 5.18, -0.29 29.9, -0.07 36.18" stroke="#1e1e1e" stroke-width="1" fill="none"></path></g></g><mask></mask><g transform="translate(379.80393981933594 1212.7219118861713) rotate(0 23.828102111816406 17.5)"><text x="23.828102111816406" y="24.528" font-family="Virgil, Segoe UI Emoji" font-size="28px" fill="#1e1e1e" text-anchor="middle" style="white-space: pre;" direction="ltr" dominant-baseline="alphabetic">e0n</text></g><g stroke-linecap="round"><g transform="translate(459.40591558229175 1231.0430610185986) rotate(0 30.113063174430295 18.956938981401663)"><path d="M-0.82 -0.97 C9.09 -1.06, 49.74 -6.86, 59.99 -0.32 C70.25 6.23, 60.83 31.9, 60.72 38.28 M0.95 1.13 C10.64 0.69, 49.04 -8.41, 58.92 -2.06 C68.8 4.29, 60.19 32.47, 60.22 39.24" stroke="#1e1e1e" stroke-width="1" fill="none"></path></g><g transform="translate(459.40591558229175 1231.0430610185986) rotate(0 30.113063174430295 18.956938981401663)"><path d="M60.04 39.31 L56.65 24.82 L69.04 28.28 L60.57 40.61" stroke="none" stroke-width="0" fill="#1e1e1e" fill-rule="evenodd"></path><path d="M60.22 39.24 C57.5 33.98, 58.15 29.96, 55.92 24.87 M60.22 39.24 C58.6 35.89, 57.88 31.68, 55.92 24.87 M55.92 24.87 C58.6 25, 62.77 27.19, 68.47 26.71 M55.92 24.87 C60.57 26.21, 64.96 26.31, 68.47 26.71 M68.47 26.71 C65.11 29.86, 64.35 32.48, 60.22 39.24 M68.47 26.71 C67 28.84, 65.41 32.21, 60.22 39.24 M60.22 39.24 C60.22 39.24, 60.22 39.24, 60.22 39.24 M60.22 39.24 C60.22 39.24, 60.22 39.24, 60.22 39.24" stroke="#1e1e1e" stroke-width="1" fill="none"></path></g></g><mask></mask><g transform="translate(50 1150) rotate(0 6.902030944824219 17.5)"><text x="0" y="24.528" font-family="Virgil, Segoe UI Emoji" font-size="28px" fill="#1e1e1e" text-anchor="start" style="white-space: pre;" direction="ltr" dominant-baseline="alphabetic">p</text></g><g stroke-linecap="round" transform="translate(10 1050) rotate(0 280 130)"><path d="M32 0 C200.59 0.78, 370.7 1.14, 528 0 M32 0 C146.17 0.12, 260.3 0.26, 528 0 M528 0 C551.24 1.51, 559.27 9.07, 560 32 M528 0 C549.11 2, 558.64 10.49, 560 32 M560 32 C558.22 77.67, 559.74 122.57, 560 228 M560 32 C558.76 73.85, 559.04 117.26, 560 228 M560 228 C560.79 248.7, 549.26 261.19, 528 260 M560 228 C559.32 251.28, 547.56 257.7, 528 260 M528 260 C343.87 262.39, 159.49 261.87, 32 260 M528 260 C377.58 260.26, 226.99 260.22, 32 260 M32 260 C12.17 259.52, 0.04 250.06, 0 228 M32 260 C9.32 261.21, 1.97 250.13, 0 228 M0 228 C-0.37 150.67, 2.34 77.29, 0 32 M0 228 C-0.84 170.13, -1.86 110.05, 0 32 M0 32 C1.54 11.04, 9.62 -1.43, 32 0 M0 32 C0.93 10.57, 8.65 0.04, 32 0" stroke="#1e1e1e" stroke-width="1" fill="none"></path></g><g stroke-linecap="round"><g transform="translate(450 1090) rotate(0 -130 60)"><path d="M1.13 0.82 C7.7 10.66, 86.08 46.29, 39.35 59.36 C-7.38 72.44, -222.73 69.33, -279.25 79.27 C-335.77 89.21, -296.44 112.04, -299.79 119.02 M0.27 0.21 C7.23 10.17, 88.37 47.23, 41.72 60.57 C-4.93 73.9, -222.76 70.36, -279.62 80.2 C-336.48 90.04, -295.96 113.23, -299.44 119.61" stroke="#1e1e1e" stroke-width="1" fill="none"></path></g><g transform="translate(450 1090) rotate(0 -130 60)"><path d="M-299.23 120.82 L-310.51 108.66 L-299 102.72 L-298.49 118.8" stroke="none" stroke-width="0" fill="#1e1e1e" fill-rule="evenodd"></path><path d="M-299.44 119.61 C-301.98 116.19, -307.34 115.23, -311.34 110.49 M-299.44 119.61 C-301.88 118.04, -305.13 115.57, -311.34 110.49 M-311.34 110.49 C-308.34 107.76, -302.76 106.62, -300.1 104.62 M-311.34 110.49 C-309.1 109.43, -306.52 107.18, -300.1 104.62 M-300.1 104.62 C-301.18 111.32, -300.53 116.2, -299.44 119.61 M-300.1 104.62 C-300.53 108.59, -298.92 113.69, -299.44 119.61 M-299.44 119.61 C-299.44 119.61, -299.44 119.61, -299.44 119.61 M-299.44 119.61 C-299.44 119.61, -299.44 119.61, -299.44 119.61" stroke="#1e1e1e" stroke-width="1" fill="none"></path></g></g><mask></mask><g stroke-linecap="round"><g transform="translate(70 1170) rotate(0 160 -30)"><path d="M0.22 -1.14 C13.81 -7.82, 34.03 -33.78, 80.79 -40.08 C127.56 -46.37, 240.94 -35.47, 280.81 -38.91 C320.68 -42.36, 313.59 -57.31, 320 -60.76 M-1.13 0.87 C12.45 -5.61, 33.33 -31.65, 80.26 -38.58 C127.2 -45.5, 240.47 -37.11, 280.47 -40.68 C320.47 -44.26, 313.47 -56.99, 320.25 -60.05" stroke="#1e1e1e" stroke-width="1" fill="none"></path></g><g transform="translate(70 1170) rotate(0 160 -30)"><path d="M320.39 -59.34 L315.65 -47.29 L308.68 -52.69 L322 -61.86" stroke="none" stroke-width="0" fill="#1e1e1e" fill-rule="evenodd"></path><path d="M320.25 -60.05 C317.93 -55.63, 318.37 -52.2, 316.46 -45.54 M320.25 -60.05 C318.34 -54.16, 317.9 -48.91, 316.46 -45.54 M316.46 -45.54 C313.88 -48.36, 309.15 -49.62, 306.69 -53.63 M316.46 -45.54 C314.31 -47.15, 311.32 -49.9, 306.69 -53.63 M306.69 -53.63 C309.29 -56.49, 312.88 -56.09, 320.25 -60.05 M306.69 -53.63 C311.78 -55.46, 315.93 -57.33, 320.25 -60.05 M320.25 -60.05 C320.25 -60.05, 320.25 -60.05, 320.25 -60.05 M320.25 -60.05 C320.25 -60.05, 320.25 -60.05, 320.25 -60.05" stroke="#1e1e1e" stroke-width="1" fill="none"></path></g></g><mask></mask></svg>