<svg version="1.1" xmlns="http://www.w3.org/2000/svg" viewBox="0 0 520 880" width="520" height="880" filter="invert(93%) hue-rotate(180deg)">
  <!-- svg-source:excalidraw -->
  
  <defs>
    <style class="style-fonts">
      @font-face {
        font-family: "Virgil";
        src: url("https://excalidraw.com/Virgil.woff2");
      }
      @font-face {
        font-family: "Cascadia";
        src: url("https://excalidraw.com/Cascadia.woff2");
      }
      @font-face {
        font-family: "Assistant";
        src: url("https://excalidraw.com/Assistant-Regular.woff2");
      }
    </style>
    
  </defs>
  <g transform="translate(30 59) rotate(0 3.6820144653320312 17.5)"><text x="3.6820144653320312" y="24.528" font-family="Virgil, Segoe UI Emoji" font-size="28px" fill="#1e1e1e" text-anchor="middle" style="white-space: pre;" direction="ltr" dominant-baseline="alphabetic">l</text></g><g stroke-linecap="round"><g transform="translate(46.68201446533203 73) rotate(0 31 0.5)"><path d="M-0.42 -1.13 C10.19 -1.28, 52.43 -0.52, 63.02 -0.17 M1.55 0.89 C12.16 0.79, 52.37 0.52, 62.6 0.75" stroke="#1e1e1e" stroke-width="1" fill="none"></path></g><g transform="translate(46.68201446533203 73) rotate(0 31 0.5)"><path d="M60.68 2.28 L49.83 6.45 L48.48 -5.64 L62.87 -0.02" stroke="none" stroke-width="0" fill="#1e1e1e" fill-rule="evenodd"></path><path d="M62.6 0.75 C57.9 3.5, 54.53 5.16, 48.97 7.01 M62.6 0.75 C58.43 2.69, 54.57 4.49, 48.97 7.01 M48.97 7.01 C48.08 2.83, 48.96 -0.9, 49.04 -5.67 M48.97 7.01 C49.56 3.25, 48.82 -1.92, 49.04 -5.67 M49.04 -5.67 C53.42 -3.35, 55.92 -0.49, 62.6 0.75 M49.04 -5.67 C52.8 -4.72, 55.91 -1.81, 62.6 0.75 M62.6 0.75 C62.6 0.75, 62.6 0.75, 62.6 0.75 M62.6 0.75 C62.6 0.75, 62.6 0.75, 62.6 0.75" stroke="#1e1e1e" stroke-width="1" fill="none"></path></g></g><mask></mask><g stroke-linecap="round" transform="translate(112.68201446533203 53) rotate(0 51.5 19.5)"><path d="M9.75 0 C41.8 -0.74, 73.67 -1.14, 93.25 0 M9.75 0 C35.95 -0.55, 62.68 -0.83, 93.25 0 M93.25 0 C98.98 -0.18, 102.15 3.8, 103 9.75 M93.25 0 C97.79 0.36, 104.65 4.66, 103 9.75 M103 9.75 C101.07 13.76, 103.16 19.95, 103 29.25 M103 9.75 C104.1 13.13, 103.82 17.03, 103 29.25 M103 29.25 C104.14 37.73, 98.56 39.2, 93.25 39 M103 29.25 C104.07 37.65, 101.96 38.51, 93.25 39 M93.25 39 C64.04 38.08, 37.96 38.08, 9.75 39 M93.25 39 C67.09 39.36, 39.78 39.66, 9.75 39 M9.75 39 C3.52 38.23, 0.97 34.92, 0 29.25 M9.75 39 C4.57 37.08, -0.95 35.47, 0 29.25 M0 29.25 C-0.63 23.45, 0.21 19.96, 0 9.75 M0 29.25 C0.04 24.26, -0.69 19.74, 0 9.75 M0 9.75 C-0.57 1.29, 4.72 -0.56, 9.75 0 M0 9.75 C-0.87 2.57, 2.57 -0.61, 9.75 0" stroke="#1e1e1e" stroke-width="1" fill="none"></path></g><g stroke-linecap="round"><g transform="translate(164.68201446533203 53) rotate(0 0 18.5)"><path d="M0.01 0.18 C-0.07 6.44, -0.12 31.26, -0.17 37.36 M-0.65 -0.2 C-0.85 5.92, -0.66 30.33, -0.68 36.59" stroke="#1e1e1e" stroke-width="1" fill="none"></path></g></g><mask></mask><g transform="translate(125.22996520996094 55) rotate(0 11.452049255371094 17.5)"><text x="11.452049255371094" y="24.528" font-family="Virgil, Segoe UI Emoji" font-size="28px" fill="#1e1e1e" text-anchor="middle" style="white-space: pre;" direction="ltr" dominant-baseline="alphabetic">e1</text></g><g stroke-linecap="round"><g transform="translate(186.68201446533203 72) rotate(0 42.5 0)"><path d="M-0.19 -0.54 C13.81 -0.76, 70.41 -0.83, 84.76 -0.79 M-1.75 1.79 C12.01 1.66, 69.13 0.48, 83.69 0.33" stroke="#1e1e1e" stroke-width="1" fill="none"></path></g><g transform="translate(186.68201446533203 72) rotate(0 42.5 0)"><path d="M81.98 0.62 L69.88 6.74 L69.9 -5.68 L83.38 0.78" stroke="none" stroke-width="0" fill="#1e1e1e" fill-rule="evenodd"></path><path d="M83.69 0.33 C78.18 2.37, 73 6.19, 70.2 6.89 M83.69 0.33 C80.18 1.86, 76.38 4.38, 70.2 6.89 M70.2 6.89 C70.44 4.83, 70.65 -0.11, 70 -5.79 M70.2 6.89 C69.91 2.19, 70.18 -1.62, 70 -5.79 M70 -5.79 C75.97 -3.76, 77.78 -1.58, 83.69 0.33 M70 -5.79 C73.25 -4.55, 75.88 -2.61, 83.69 0.33 M83.69 0.33 C83.69 0.33, 83.69 0.33, 83.69 0.33 M83.69 0.33 C83.69 0.33, 83.69 0.33, 83.69 0.33" stroke="#1e1e1e" stroke-width="1" fill="none"></path></g></g><mask></mask><g stroke-linecap="round" transform="translate(270.30010600220413 53.59931171603034) rotate(0 51.5 19.5)"><path d="M9.75 0 C28.28 0.3, 46.93 -0.32, 93.25 0 M9.75 0 C26.4 -1.08, 44.79 -0.05, 93.25 0 M93.25 0 C101.33 1.89, 101.85 1.99, 103 9.75 M93.25 0 C97.45 -0.85, 101.97 1.81, 103 9.75 M103 9.75 C104.14 15.79, 103.73 17.51, 103 29.25 M103 9.75 C102.99 13.81, 102.29 18.86, 103 29.25 M103 29.25 C104.83 34.36, 97.87 37.73, 93.25 39 M103 29.25 C103.81 35.4, 101.45 39.84, 93.25 39 M93.25 39 C63.35 40.15, 30.47 37.3, 9.75 39 M93.25 39 C71.68 39.8, 51.9 38.43, 9.75 39 M9.75 39 C4.53 40.64, -0.8 34.42, 0 29.25 M9.75 39 C2.88 39.51, -1.43 34.38, 0 29.25 M0 29.25 C0.86 24.22, 0.8 17.21, 0 9.75 M0 29.25 C0.89 23.62, 0.33 17.96, 0 9.75 M0 9.75 C0.63 3.76, 3.72 1.91, 9.75 0 M0 9.75 C0.5 3.53, 2.16 -1.53, 9.75 0" stroke="#1e1e1e" stroke-width="1" fill="none"></path></g><g stroke-linecap="round"><g transform="translate(322.30010600220413 53.59931171603034) rotate(0 0 18.5)"><path d="M-0.11 0.07 C-0.08 6.15, -0.38 30.3, -0.28 36.48 M-0.83 -0.37 C-0.58 5.75, 0.6 30.54, 0.81 36.91" stroke="#1e1e1e" stroke-width="1" fill="none"></path></g></g><mask></mask><g transform="translate(281.6740302575752 53.59931171603034) rotate(0 17.626075744628906 17.5)"><text x="17.626075744628906" y="24.528" font-family="Virgil, Segoe UI Emoji" font-size="28px" fill="#1e1e1e" text-anchor="middle" style="white-space: pre;" direction="ltr" dominant-baseline="alphabetic">e2</text></g><g stroke-linecap="round"><g transform="translate(344.30010600220413 72.59931171603034) rotate(0 42.49999999999997 0)"><path d="M1.13 0.3 C15.3 0.31, 70.31 -1.03, 84.45 -1.05 M0.26 -0.59 C14.28 -0.36, 68.97 -0.43, 83.21 -0.06" stroke="#1e1e1e" stroke-width="1" fill="none"></path></g><g transform="translate(344.30010600220413 72.59931171603034) rotate(0 42.49999999999997 0)"><path d="M82.89 0.38 L68.31 4.94 L70.36 -7.77 L83.8 0.7" stroke="none" stroke-width="0" fill="#1e1e1e" fill-rule="evenodd"></path><path d="M83.21 -0.06 C80.12 0.93, 75.03 4.38, 69.55 6.13 M83.21 -0.06 C78.52 1.55, 73.9 3.7, 69.55 6.13 M69.55 6.13 C69.38 2.62, 70.47 0.75, 69.69 -6.55 M69.55 6.13 C69.99 1.83, 69.64 -2.95, 69.69 -6.55 M69.69 -6.55 C71.55 -6.67, 74.57 -3.32, 83.21 -0.06 M69.69 -6.55 C74.17 -5.44, 77.47 -2.28, 83.21 -0.06 M83.21 -0.06 C83.21 -0.06, 83.21 -0.06, 83.21 -0.06 M83.21 -0.06 C83.21 -0.06, 83.21 -0.06, 83.21 -0.06" stroke="#1e1e1e" stroke-width="1" fill="none"></path></g></g><mask></mask><g transform="translate(442.17391204833984 50) rotate(0 25.508102416992188 17.5)"><text x="25.508102416992188" y="24.528" font-family="Virgil, Segoe UI Emoji" font-size="28px" fill="#1e1e1e" text-anchor="middle" style="white-space: pre;" direction="ltr" dominant-baseline="alphabetic">. . .</text></g><g stroke-linecap="round" transform="translate(10 10) rotate(0 250 60)"><path d="M30 0 C148.33 -0.9, 266.53 -1.43, 470 0 M30 0 C166.29 -0.52, 302.83 -0.17, 470 0 M470 0 C488.74 -0.03, 498.35 11.52, 500 30 M470 0 C491.36 1.78, 499.18 10.86, 500 30 M500 30 C500.83 45.45, 501.36 62.57, 500 90 M500 30 C499.94 46.55, 500.72 64.26, 500 90 M500 90 C499.79 108.09, 488.19 118.4, 470 120 M500 90 C499.51 109.11, 491.36 120.92, 470 120 M470 120 C314.53 118.19, 158.46 117.65, 30 120 M470 120 C329.32 122.37, 187.87 122.35, 30 120 M30 120 C8.44 118.84, -1.53 109.31, 0 90 M30 120 C11.98 120.86, -0.8 111.43, 0 90 M0 90 C1.23 72.37, 1.69 57.97, 0 30 M0 90 C0.61 74.81, -0.14 57.5, 0 30 M0 30 C1.61 10.6, 9.18 -1.5, 30 0 M0 30 C-2.01 9.65, 8.26 0.5, 30 0" stroke="#1e1e1e" stroke-width="1" fill="none"></path></g><g transform="translate(50 170) rotate(0 192.2208251953125 35)"><text x="0" y="24.528" font-family="Virgil, Segoe UI Emoji" font-size="28px" fill="#1e1e1e" text-anchor="start" style="white-space: pre;" direction="ltr" dominant-baseline="alphabetic">var p: pointer to node of T</text><text x="0" y="59.528" font-family="Virgil, Segoe UI Emoji" font-size="28px" fill="#1e1e1e" text-anchor="start" style="white-space: pre;" direction="ltr" dominant-baseline="alphabetic">p:= l </text></g><g transform="translate(30 279) rotate(0 3.6820144653320312 17.5)"><text x="3.6820144653320312" y="24.528" font-family="Virgil, Segoe UI Emoji" font-size="28px" fill="#1e1e1e" text-anchor="middle" style="white-space: pre;" direction="ltr" dominant-baseline="alphabetic">l</text></g><g stroke-linecap="round"><g transform="translate(46.68201446533203 292.7563672003271) rotate(0 29.658992767333984 -0.10010228533803911)"><path d="M-0.48 -0.2 C9.78 -0.33, 50.36 -0.02, 60.47 -0.04 M1.47 -1.34 C11.76 -1.33, 50.39 1.2, 60.12 1.59" stroke="#1e1e1e" stroke-width="1" fill="none"></path></g><g transform="translate(46.68201446533203 292.7563672003271) rotate(0 29.658992767333984 -0.10010228533803911)"><path d="M58.19 3.14 L44.89 7.54 L48.45 -5.42 L61.09 3.47" stroke="none" stroke-width="0" fill="#1e1e1e" fill-rule="evenodd"></path><path d="M60.12 1.59 C56.98 4.15, 54.49 4.98, 46.21 7.2 M60.12 1.59 C55.52 3.62, 51.99 4.65, 46.21 7.2 M46.21 7.2 C45.51 3, 46.6 -2.98, 46.88 -5.47 M46.21 7.2 C46.67 2.77, 47.07 -2.72, 46.88 -5.47 M46.88 -5.47 C48.41 -4.87, 51.19 -1.93, 60.12 1.59 M46.88 -5.47 C50.01 -4.17, 53.15 -1.46, 60.12 1.59 M60.12 1.59 C60.12 1.59, 60.12 1.59, 60.12 1.59 M60.12 1.59 C60.12 1.59, 60.12 1.59, 60.12 1.59" stroke="#1e1e1e" stroke-width="1" fill="none"></path></g></g><mask></mask><g stroke-linecap="round" transform="translate(110 270.55106394207576) rotate(0 51.5 19.5)"><path d="M9.75 0 C31.73 0.64, 52.99 -0.65, 93.25 0 M9.75 0 C31.08 -0.7, 53.23 -0.3, 93.25 0 M93.25 0 C98.48 -1.45, 103.8 3.12, 103 9.75 M93.25 0 C98.36 1.71, 103.95 5.39, 103 9.75 M103 9.75 C101.79 14.63, 101.66 22.69, 103 29.25 M103 9.75 C103.25 13.65, 102.49 19.31, 103 29.25 M103 29.25 C102.29 34.67, 98.25 40.28, 93.25 39 M103 29.25 C104.6 37.47, 100.25 40.69, 93.25 39 M93.25 39 C71.61 37.66, 53.16 36.73, 9.75 39 M93.25 39 C61.95 39.6, 31.92 38.99, 9.75 39 M9.75 39 C4.81 39.05, 0.97 37.63, 0 29.25 M9.75 39 C4.6 39.42, -0.79 37.49, 0 29.25 M0 29.25 C0.52 25.62, -0.48 22.16, 0 9.75 M0 29.25 C-0.07 21.94, 0.59 14.87, 0 9.75 M0 9.75 C1.74 4.97, 1.83 -1.21, 9.75 0 M0 9.75 C0.18 1.05, 1.6 0.5, 9.75 0" stroke="#1e1e1e" stroke-width="1" fill="none"></path></g><g stroke-linecap="round"><g transform="translate(162 270.55106394207576) rotate(0 0 18.5)"><path d="M0.4 -0.05 C0.32 6.06, 0.18 30.53, 0.04 36.76 M-0.06 -0.55 C-0.26 5.63, -0.49 31.17, -0.37 37.33" stroke="#1e1e1e" stroke-width="1" fill="none"></path></g></g><mask></mask><g transform="translate(122.5479507446289 272.55106394207576) rotate(0 11.452049255371094 17.5)"><text x="11.452049255371094" y="24.528" font-family="Virgil, Segoe UI Emoji" font-size="28px" fill="#1e1e1e" text-anchor="middle" style="white-space: pre;" direction="ltr" dominant-baseline="alphabetic">e1</text></g><g stroke-linecap="round"><g transform="translate(190 290) rotate(0 40.69095423156395 -0.22060107317162192)"><path d="M-0.89 0.74 C12.65 0.72, 67.47 -0.51, 81.33 -0.66 M0.84 0.08 C14.21 0.29, 66.83 0.56, 80.35 0.76" stroke="#1e1e1e" stroke-width="1" fill="none"></path></g><g transform="translate(190 290) rotate(0 40.69095423156395 -0.22060107317162192)"><path d="M81.52 1.13 L66.01 8.48 L64.99 -6.69 L81.39 1.2" stroke="none" stroke-width="0" fill="#1e1e1e" fill-rule="evenodd"></path><path d="M80.35 0.76 C77.04 2.5, 71.65 5.56, 66.69 6.97 M80.35 0.76 C76.21 2.62, 71.06 5.22, 66.69 6.97 M66.69 6.97 C67.25 3.47, 65.81 -2.84, 66.81 -5.7 M66.69 6.97 C66.36 3.61, 67.01 0.97, 66.81 -5.7 M66.81 -5.7 C69.58 -5.1, 74.86 -1.26, 80.35 0.76 M66.81 -5.7 C71.46 -3.87, 76.72 -1.51, 80.35 0.76 M80.35 0.76 C80.35 0.76, 80.35 0.76, 80.35 0.76 M80.35 0.76 C80.35 0.76, 80.35 0.76, 80.35 0.76" stroke="#1e1e1e" stroke-width="1" fill="none"></path></g></g><mask></mask><g stroke-linecap="round" transform="translate(270 270.29296685880513) rotate(0 51.5 19.5)"><path d="M9.75 0 C28.24 1.47, 47.89 -1.23, 93.25 0 M9.75 0 C28.14 0.8, 48.14 0.99, 93.25 0 M93.25 0 C100.58 1, 104.3 1.91, 103 9.75 M93.25 0 C97.66 -1.69, 102.56 1.43, 103 9.75 M103 9.75 C102.05 13.63, 104.75 18.4, 103 29.25 M103 9.75 C103.53 15.28, 103.06 20.06, 103 29.25 M103 29.25 C101.83 34.45, 99.05 37.5, 93.25 39 M103 29.25 C101.8 35.97, 97.47 40.46, 93.25 39 M93.25 39 C75.08 36.88, 54.16 39.76, 9.75 39 M93.25 39 C68.59 39.97, 42.41 40.54, 9.75 39 M9.75 39 C1.43 38.01, 1.04 36.19, 0 29.25 M9.75 39 C3.78 38.31, 1.25 37.8, 0 29.25 M0 29.25 C0.37 24.2, 1.39 18.3, 0 9.75 M0 29.25 C0.22 20.79, -0.56 14.41, 0 9.75 M0 9.75 C0.51 3.66, 3.35 -1.5, 9.75 0 M0 9.75 C1.92 2.48, 3.95 -0.19, 9.75 0" stroke="#1e1e1e" stroke-width="1" fill="none"></path></g><g stroke-linecap="round"><g transform="translate(322 270.29296685880513) rotate(0 0 18.5)"><path d="M0.39 0.12 C0.34 6.24, -0.32 30.46, -0.35 36.6 M-0.07 -0.29 C0.06 5.89, 0.7 30.79, 0.71 37.1" stroke="#1e1e1e" stroke-width="1" fill="none"></path></g></g><mask></mask><g transform="translate(281.3739242553711 270.29296685880513) rotate(0 17.626075744628906 17.5)"><text x="17.626075744628906" y="24.528" font-family="Virgil, Segoe UI Emoji" font-size="28px" fill="#1e1e1e" text-anchor="middle" style="white-space: pre;" direction="ltr" dominant-baseline="alphabetic">e2</text></g><g stroke-linecap="round"><g transform="translate(350.72473005877805 291.16466727657246) rotate(0 34.30844970215111 0)"><path d="M0.48 -0.08 C11.92 0.22, 56.45 0.69, 67.89 0.89 M-0.72 -1.16 C11.17 -1.12, 58.67 -0.85, 70.22 -0.76" stroke="#1e1e1e" stroke-width="1" fill="none"></path></g><g transform="translate(350.72473005877805 291.16466727657246) rotate(0 34.30844970215111 0)"><path d="M70.68 -1.36 L57.67 7.27 L57.15 -5.33 L70.17 -0.2" stroke="none" stroke-width="0" fill="#1e1e1e" fill-rule="evenodd"></path><path d="M70.22 -0.76 C66.85 -0.13, 64.84 2.87, 56.59 5.49 M70.22 -0.76 C65.38 1.26, 58.85 3.67, 56.59 5.49 M56.59 5.49 C55.71 2.41, 56.21 -2.14, 56.67 -7.19 M56.59 5.49 C56.19 0.85, 57.14 -4.12, 56.67 -7.19 M56.67 -7.19 C60.1 -5.56, 64.31 -3.76, 70.22 -0.76 M56.67 -7.19 C60.32 -5.44, 64.28 -2.71, 70.22 -0.76 M70.22 -0.76 C70.22 -0.76, 70.22 -0.76, 70.22 -0.76 M70.22 -0.76 C70.22 -0.76, 70.22 -0.76, 70.22 -0.76" stroke="#1e1e1e" stroke-width="1" fill="none"></path></g></g><mask></mask><g transform="translate(430 270) rotate(0 25.508102416992188 17.5)"><text x="25.508102416992188" y="24.528" font-family="Virgil, Segoe UI Emoji" font-size="28px" fill="#1e1e1e" text-anchor="middle" style="white-space: pre;" direction="ltr" dominant-baseline="alphabetic">. . .</text></g><g transform="translate(30 330) rotate(0 6.902030944824219 17.5)"><text x="6.902030944824219" y="24.528" font-family="Virgil, Segoe UI Emoji" font-size="28px" fill="#1e1e1e" text-anchor="middle" style="white-space: pre;" direction="ltr" dominant-baseline="alphabetic">p</text></g><g stroke-linecap="round"><g transform="translate(53.122047424316435 354.1650389754659) rotate(0 37.40913348860548 -22.806987516695074)"><path d="M-0.71 0.06 C8.9 -0.87, 44.59 2.93, 57.03 -4.61 C69.48 -12.14, 70.99 -38.17, 73.97 -45.15 M1.12 -0.96 C10.65 -1.81, 43.62 4.42, 56.17 -3.3 C68.71 -11.02, 73.24 -40.16, 76.42 -47.26" stroke="#1e1e1e" stroke-width="1" fill="none"></path></g><g transform="translate(53.122047424316435 354.1650389754659) rotate(0 37.40913348860548 -22.806987516695074)"><path d="M78.29 -47.84 L77.31 -32.79 L64.92 -38.08 L77 -47.54" stroke="none" stroke-width="0" fill="#1e1e1e" fill-rule="evenodd"></path><path d="M76.42 -47.26 C77.13 -43.38, 77.02 -40.97, 78.52 -32.4 M76.42 -47.26 C77.62 -41.85, 78.13 -37.49, 78.52 -32.4 M78.52 -32.4 C75.44 -33.84, 72.32 -35.04, 66.39 -36.1 M78.52 -32.4 C75.16 -34.01, 71.1 -35.12, 66.39 -36.1 M66.39 -36.1 C68.77 -37.51, 70.15 -42.46, 76.42 -47.26 M66.39 -36.1 C69.61 -39.23, 72.7 -42.13, 76.42 -47.26 M76.42 -47.26 C76.42 -47.26, 76.42 -47.26, 76.42 -47.26 M76.42 -47.26 C76.42 -47.26, 76.42 -47.26, 76.42 -47.26" stroke="#1e1e1e" stroke-width="1" fill="none"></path></g></g><mask></mask><g stroke-linecap="round" transform="translate(10 250) rotate(0 250 70)"><path d="M32 0 C163.45 0.3, 294.53 -1, 468 0 M32 0 C160.66 1.48, 289.79 1.96, 468 0 M468 0 C488.73 -1.59, 499.04 11.62, 500 32 M468 0 C490.9 -0.37, 501.27 9.93, 500 32 M500 32 C500.37 52.95, 501.08 72.15, 500 108 M500 32 C500 54.64, 500.19 77.88, 500 108 M500 108 C501.83 130.71, 491.01 139.99, 468 140 M500 108 C500.47 128.04, 487.82 141.91, 468 140 M468 140 C368.48 138.69, 269.59 137.29, 32 140 M468 140 C294.01 138.42, 120.83 138.84, 32 140 M32 140 C8.94 140.14, -1.73 129.35, 0 108 M32 140 C12.88 141.48, -2.19 130.64, 0 108 M0 108 C-0.03 78.06, 1.59 45.71, 0 32 M0 108 C0.76 78.03, 0.58 47.25, 0 32 M0 32 C0.12 11.15, 10.15 0.08, 32 0 M0 32 C-0.86 9.27, 11.62 0.05, 32 0" stroke="#1e1e1e" stroke-width="1" fill="none"></path></g><g transform="translate(50 430) rotate(0 68.90829467773438 17.5)"><text x="0" y="24.528" font-family="Virgil, Segoe UI Emoji" font-size="28px" fill="#1e1e1e" text-anchor="start" style="white-space: pre;" direction="ltr" dominant-baseline="alphabetic">l:= l-&gt;next</text></g><g transform="translate(30 519.2414413991432) rotate(0 3.6820144653320312 17.5)"><text x="3.6820144653320312" y="24.528" font-family="Virgil, Segoe UI Emoji" font-size="28px" fill="#1e1e1e" text-anchor="middle" style="white-space: pre;" direction="ltr" dominant-baseline="alphabetic">l</text></g><g stroke-linecap="round"><g transform="translate(46.68201446533203 532.9978085994703) rotate(0 111.65899276733398 -21.49890429973516)"><path d="M-0.87 -0.42 C9.88 -7.44, 26.42 -38.22, 63.78 -41.96 C101.14 -45.7, 196.77 -25.83, 223.28 -22.86 M0.88 -1.68 C11.56 -9.04, 26.14 -40.25, 63.08 -43.54 C100.01 -46.84, 195.86 -24.78, 222.49 -21.47" stroke="#1e1e1e" stroke-width="1" fill="none"></path></g><g transform="translate(46.68201446533203 532.9978085994703) rotate(0 111.65899276733398 -21.49890429973516)"><path d="M223.52 -23.03 L206.84 -17.08 L210.09 -30.57 L222.3 -22.9" stroke="none" stroke-width="0" fill="#1e1e1e" fill-rule="evenodd"></path><path d="M222.49 -21.47 C218.45 -20.04, 216.73 -19.72, 208.01 -17.57 M222.49 -21.47 C218.52 -20.7, 214.15 -18.99, 208.01 -17.57 M208.01 -17.57 C208.13 -21.07, 209.61 -22.99, 210.19 -30.06 M208.01 -17.57 C209.3 -21.93, 209.58 -25.79, 210.19 -30.06 M210.19 -30.06 C212.65 -27.51, 215.64 -24.88, 222.49 -21.47 M210.19 -30.06 C213.26 -27.68, 216.43 -25.67, 222.49 -21.47 M222.49 -21.47 C222.49 -21.47, 222.49 -21.47, 222.49 -21.47 M222.49 -21.47 C222.49 -21.47, 222.49 -21.47, 222.49 -21.47" stroke="#1e1e1e" stroke-width="1" fill="none"></path></g></g><mask></mask><g stroke-linecap="round" transform="translate(110 510.792505341219) rotate(0 51.5 19.5)"><path d="M9.75 0 C30.5 -0.39, 48.03 -1.09, 93.25 0 M9.75 0 C27.61 0.59, 43.03 -0.63, 93.25 0 M93.25 0 C98.58 -0.83, 102.21 3.92, 103 9.75 M93.25 0 C100.82 1.22, 102.37 1.79, 103 9.75 M103 9.75 C104.81 15.71, 102.13 23.27, 103 29.25 M103 9.75 C103.82 14.83, 103.53 20.99, 103 29.25 M103 29.25 C102.39 36.14, 98.9 38.69, 93.25 39 M103 29.25 C102 35.85, 99.33 37.73, 93.25 39 M93.25 39 C63.07 41.03, 35.16 39.29, 9.75 39 M93.25 39 C66.41 38.98, 37.96 40, 9.75 39 M9.75 39 C3.15 38.48, -0.19 34.32, 0 29.25 M9.75 39 C5.16 39.78, -1.24 34.3, 0 29.25 M0 29.25 C-0.38 23.25, 1.89 16.14, 0 9.75 M0 29.25 C0.47 22.41, -0.51 14.42, 0 9.75 M0 9.75 C1.77 3.99, 4.52 -1.58, 9.75 0 M0 9.75 C0.87 1.33, 4.58 -0.29, 9.75 0" stroke="#1e1e1e" stroke-width="1" fill="none"></path></g><g stroke-linecap="round"><g transform="translate(162 510.792505341219) rotate(0 0 18.5)"><path d="M-0.02 0.06 C-0.09 6.06, -0.28 30.35, -0.21 36.47 M-0.69 -0.38 C-0.87 5.9, -0.91 30.62, -0.75 36.89" stroke="#1e1e1e" stroke-width="1" fill="none"></path></g></g><mask></mask><g transform="translate(122.5479507446289 512.792505341219) rotate(0 11.452049255371094 17.5)"><text x="11.452049255371094" y="24.528" font-family="Virgil, Segoe UI Emoji" font-size="28px" fill="#1e1e1e" text-anchor="middle" style="white-space: pre;" direction="ltr" dominant-baseline="alphabetic">e1</text></g><g stroke-linecap="round"><g transform="translate(190 530.2414413991432) rotate(0 40.69095423156395 -0.22060107317162192)"><path d="M0.89 -0.49 C14.71 -0.32, 69.2 0.05, 82.5 -0.14 M-0.11 -1.8 C13.7 -1.9, 68.25 -2.25, 82.14 -2.1" stroke="#1e1e1e" stroke-width="1" fill="none"></path></g><g transform="translate(190 530.2414413991432) rotate(0 40.69095423156395 -0.22060107317162192)"><path d="M83.8 -1.43 L67.46 2.97 L68.76 -8.56 L82.27 -2.5" stroke="none" stroke-width="0" fill="#1e1e1e" fill-rule="evenodd"></path><path d="M82.14 -2.1 C77.9 1.05, 75.33 0.43, 68.54 4.22 M82.14 -2.1 C79.04 -0.63, 76.93 0.81, 68.54 4.22 M68.54 4.22 C68.68 0.76, 69.8 -3.59, 68.55 -8.45 M68.54 4.22 C68.83 0.93, 69.11 -2.46, 68.55 -8.45 M68.55 -8.45 C73.59 -6.84, 77.79 -4.65, 82.14 -2.1 M68.55 -8.45 C73.11 -6.62, 77.31 -4.6, 82.14 -2.1 M82.14 -2.1 C82.14 -2.1, 82.14 -2.1, 82.14 -2.1 M82.14 -2.1 C82.14 -2.1, 82.14 -2.1, 82.14 -2.1" stroke="#1e1e1e" stroke-width="1" fill="none"></path></g></g><mask></mask><g stroke-linecap="round" transform="translate(270 510.53440825794826) rotate(0 51.5 19.5)"><path d="M9.75 0 C41.47 -1.95, 70.24 -1.94, 93.25 0 M9.75 0 C31.8 0.25, 52.64 -0.92, 93.25 0 M93.25 0 C101.27 0.1, 102.98 5.1, 103 9.75 M93.25 0 C98.13 -1.04, 101.63 2.75, 103 9.75 M103 9.75 C102.3 17.19, 103.77 22.18, 103 29.25 M103 9.75 C102.5 16.03, 102.74 21.68, 103 29.25 M103 29.25 C104.17 35.29, 101.07 38.76, 93.25 39 M103 29.25 C104.71 37.81, 99.45 39.63, 93.25 39 M93.25 39 C59.76 38.26, 29.88 39.33, 9.75 39 M93.25 39 C71.18 38.74, 46.91 37.77, 9.75 39 M9.75 39 C3.46 38.89, 0.13 35.35, 0 29.25 M9.75 39 C3.32 41.21, -1.16 37.63, 0 29.25 M0 29.25 C1.17 23.7, 0.08 22.59, 0 9.75 M0 29.25 C0.24 21.86, 0.44 15.97, 0 9.75 M0 9.75 C-0.5 1.39, 4.99 1.43, 9.75 0 M0 9.75 C1.75 3.45, 4.48 -0.33, 9.75 0" stroke="#1e1e1e" stroke-width="1" fill="none"></path></g><g stroke-linecap="round"><g transform="translate(322 510.53440825794826) rotate(0 0 18.5)"><path d="M-0.32 -0.53 C-0.46 5.57, -0.34 30.49, -0.32 36.77 M0.51 0.38 C0.51 6.55, 0.95 31.38, 0.75 37.35" stroke="#1e1e1e" stroke-width="1" fill="none"></path></g></g><mask></mask><g transform="translate(281.3739242553711 510.53440825794826) rotate(0 17.626075744628906 17.5)"><text x="17.626075744628906" y="24.528" font-family="Virgil, Segoe UI Emoji" font-size="28px" fill="#1e1e1e" text-anchor="middle" style="white-space: pre;" direction="ltr" dominant-baseline="alphabetic">e2</text></g><g stroke-linecap="round"><g transform="translate(350.72473005877805 531.4061086757156) rotate(0 34.30844970215111 0)"><path d="M-0.48 0.4 C11.17 0.59, 57.71 0.83, 69.17 0.64 M1.48 -0.43 C13.07 -0.55, 57.54 -1.25, 68.52 -1.15" stroke="#1e1e1e" stroke-width="1" fill="none"></path></g><g transform="translate(350.72473005877805 531.4061086757156) rotate(0 34.30844970215111 0)"><path d="M68.58 0.77 L53.95 6.9 L53.19 -6.95 L69.14 0.1" stroke="none" stroke-width="0" fill="#1e1e1e" fill-rule="evenodd"></path><path d="M68.52 -1.15 C65.72 1.04, 62.74 1.48, 54.96 5.26 M68.52 -1.15 C65.36 1.07, 61.63 1.55, 54.96 5.26 M54.96 5.26 C54.84 3.19, 54.51 -0.24, 54.89 -7.42 M54.96 5.26 C54.71 0.85, 54.68 -3.34, 54.89 -7.42 M54.89 -7.42 C58.35 -4.75, 62.35 -2.86, 68.52 -1.15 M54.89 -7.42 C60.81 -4.33, 65.89 -3.16, 68.52 -1.15 M68.52 -1.15 C68.52 -1.15, 68.52 -1.15, 68.52 -1.15 M68.52 -1.15 C68.52 -1.15, 68.52 -1.15, 68.52 -1.15" stroke="#1e1e1e" stroke-width="1" fill="none"></path></g></g><mask></mask><g transform="translate(430 510.2414413991431) rotate(0 25.508102416992188 17.5)"><text x="25.508102416992188" y="24.528" font-family="Virgil, Segoe UI Emoji" font-size="28px" fill="#1e1e1e" text-anchor="middle" style="white-space: pre;" direction="ltr" dominant-baseline="alphabetic">. . .</text></g><g transform="translate(30 570.2414413991432) rotate(0 6.902030944824219 17.5)"><text x="6.902030944824219" y="24.528" font-family="Virgil, Segoe UI Emoji" font-size="28px" fill="#1e1e1e" text-anchor="middle" style="white-space: pre;" direction="ltr" dominant-baseline="alphabetic">p</text></g><g stroke-linecap="round"><g transform="translate(53.122047424316435 594.4064803746091) rotate(0 37.40913348860548 -22.806987516695074)"><path d="M0.91 0.06 C10.45 -0.32, 44.69 4.65, 56.87 -3.05 C69.04 -10.76, 71.1 -39.02, 73.97 -46.16 M-0.06 -0.96 C9.34 -1.58, 43.17 2.77, 55.92 -4.59 C68.66 -11.96, 73.41 -38.4, 76.42 -45.12" stroke="#1e1e1e" stroke-width="1" fill="none"></path></g><g transform="translate(53.122047424316435 594.4064803746091) rotate(0 37.40913348860548 -22.806987516695074)"><path d="M77.04 -43.87 L76.87 -30.11 L67.97 -33.4 L77.69 -46.71" stroke="none" stroke-width="0" fill="#1e1e1e" fill-rule="evenodd"></path><path d="M76.42 -45.12 C76.9 -41.09, 78.72 -38.08, 78.26 -30.24 M76.42 -45.12 C77.05 -41.4, 77.85 -37.79, 78.26 -30.24 M78.26 -30.24 C74.3 -32.17, 69.67 -33.54, 66.2 -34.15 M78.26 -30.24 C74.96 -31.64, 71.34 -32.76, 66.2 -34.15 M66.2 -34.15 C70.34 -37, 75.11 -41.57, 76.42 -45.12 M66.2 -34.15 C68.49 -36.8, 70.72 -39.58, 76.42 -45.12 M76.42 -45.12 C76.42 -45.12, 76.42 -45.12, 76.42 -45.12 M76.42 -45.12 C76.42 -45.12, 76.42 -45.12, 76.42 -45.12" stroke="#1e1e1e" stroke-width="1" fill="none"></path></g></g><mask></mask><g stroke-linecap="round" transform="translate(10 470) rotate(0 250 80)"><path d="M32 0 C140.33 1.17, 247.42 0.28, 468 0 M32 0 C152.06 -0.74, 271.19 -0.01, 468 0 M468 0 C487.48 0.91, 498.99 10.75, 500 32 M468 0 C487.29 1.31, 500.98 10.28, 500 32 M500 32 C501.8 69.64, 498.72 106.62, 500 128 M500 32 C499.17 54.46, 498.65 75.69, 500 128 M500 128 C501.58 148.02, 488.23 158.26, 468 160 M500 128 C499.98 151.24, 487.26 159.87, 468 160 M468 160 C301.85 162.42, 136.08 161.85, 32 160 M468 160 C377.54 159.33, 286.77 158.87, 32 160 M32 160 C11.36 158.84, -0.61 150.71, 0 128 M32 160 C11.38 158.73, -1.87 147.66, 0 128 M0 128 C1.79 96.31, 0.4 65.28, 0 32 M0 128 C0.51 89.87, 0.34 51.21, 0 32 M0 32 C0.26 9.2, 10.15 -0.09, 32 0 M0 32 C-1.41 8.64, 9.66 -0.62, 32 0" stroke="#1e1e1e" stroke-width="1" fill="none"></path></g><g transform="translate(50 670) rotate(0 45.584197998046875 17.5)"><text x="0" y="24.528" font-family="Virgil, Segoe UI Emoji" font-size="28px" fill="#1e1e1e" text-anchor="start" style="white-space: pre;" direction="ltr" dominant-baseline="alphabetic">free(p)</text></g><g transform="translate(30 739.2414413991432) rotate(0 3.6820144653320312 17.5)"><text x="3.6820144653320312" y="24.528" font-family="Virgil, Segoe UI Emoji" font-size="28px" fill="#1e1e1e" text-anchor="middle" style="white-space: pre;" direction="ltr" dominant-baseline="alphabetic">l</text></g><g stroke-linecap="round"><g transform="translate(46.68201446533203 752.9978085994703) rotate(0 111.65899276733398 -1.498904299735159)"><path d="M-0.59 0.6 C10.08 0.24, 25.61 -1.44, 62.94 -1.84 C100.27 -2.25, 196.73 -1.63, 223.37 -1.84 M1.3 -0.13 C11.87 -0.83, 24.91 -2.79, 61.79 -3.36 C98.68 -3.94, 195.81 -3.79, 222.63 -3.57" stroke="#1e1e1e" stroke-width="1" fill="none"></path></g><g transform="translate(46.68201446533203 752.9978085994703) rotate(0 111.65899276733398 -1.498904299735159)"><path d="M221.7 -3.56 L210.43 4.1 L209.08 -8.37 L221.92 -4.34" stroke="none" stroke-width="0" fill="#1e1e1e" fill-rule="evenodd"></path><path d="M222.63 -3.57 C220.5 -2.77, 218.29 -0.89, 209.01 2.72 M222.63 -3.57 C216.58 -0.77, 211.98 1.65, 209.01 2.72 M209.01 2.72 C208.72 -0.87, 209.35 -3.98, 209.07 -9.96 M209.01 2.72 C209.51 0.08, 209.12 -3.38, 209.07 -9.96 M209.07 -9.96 C214.91 -9.05, 217.84 -6.44, 222.63 -3.57 M209.07 -9.96 C213.65 -7.76, 218.42 -5.31, 222.63 -3.57 M222.63 -3.57 C222.63 -3.57, 222.63 -3.57, 222.63 -3.57 M222.63 -3.57 C222.63 -3.57, 222.63 -3.57, 222.63 -3.57" stroke="#1e1e1e" stroke-width="1" fill="none"></path></g></g><mask></mask><g stroke-linecap="round" transform="translate(270 730.5344082579481) rotate(0 51.5 19.5)"><path d="M9.75 0 C28.52 -0.38, 45.72 -1.13, 93.25 0 M9.75 0 C33.17 -0.95, 54.81 -0.76, 93.25 0 M93.25 0 C101.01 0.63, 102.98 1.91, 103 9.75 M93.25 0 C100.91 -0.15, 103.8 4.92, 103 9.75 M103 9.75 C103.66 15.56, 102.69 17.95, 103 29.25 M103 9.75 C102.56 15, 103.95 21.41, 103 29.25 M103 29.25 C102.22 37.51, 98.58 37.75, 93.25 39 M103 29.25 C103.87 34.1, 97.51 38.36, 93.25 39 M93.25 39 C69.76 40.03, 47.63 38.62, 9.75 39 M93.25 39 C61.34 37.82, 29.83 37.88, 9.75 39 M9.75 39 C2.39 38.05, 1.94 37.39, 0 29.25 M9.75 39 C3.87 41.05, 1.18 35.16, 0 29.25 M0 29.25 C0.5 22.62, 1.25 15.47, 0 9.75 M0 29.25 C-0.83 22.12, -0.38 16.62, 0 9.75 M0 9.75 C-0.23 4.78, 2.88 -1.71, 9.75 0 M0 9.75 C-0.34 3.26, 4.89 -1.02, 9.75 0" stroke="#1e1e1e" stroke-width="1" fill="none"></path></g><g stroke-linecap="round"><g transform="translate(322 730.5344082579481) rotate(0 0 18.5)"><path d="M-0.05 -0.08 C-0.11 6.04, -0.27 30.66, -0.26 36.86 M-0.74 -0.59 C-0.91 5.59, -0.89 31.09, -0.82 37.48" stroke="#1e1e1e" stroke-width="1" fill="none"></path></g></g><mask></mask><g transform="translate(281.3739242553711 730.5344082579481) rotate(0 17.626075744628906 17.5)"><text x="17.626075744628906" y="24.528" font-family="Virgil, Segoe UI Emoji" font-size="28px" fill="#1e1e1e" text-anchor="middle" style="white-space: pre;" direction="ltr" dominant-baseline="alphabetic">e2</text></g><g stroke-linecap="round"><g transform="translate(350.72473005877805 751.4061086757156) rotate(0 34.30844970215111 0)"><path d="M0.1 0.27 C11.74 0.17, 57.98 -0.76, 69.26 -0.92 M-1.31 -0.63 C10.28 -0.58, 56.73 -0.01, 68.65 0.14" stroke="#1e1e1e" stroke-width="1" fill="none"></path></g><g transform="translate(350.72473005877805 751.4061086757156) rotate(0 34.30844970215111 0)"><path d="M69.19 1.93 L56 5.8 L55.42 -7.09 L69.47 0.58" stroke="none" stroke-width="0" fill="#1e1e1e" fill-rule="evenodd"></path><path d="M68.65 0.14 C65.51 2.52, 60.56 2.24, 54.98 6.31 M68.65 0.14 C65.36 1.18, 62.42 3.14, 54.98 6.31 M54.98 6.31 C54.31 1.29, 55.49 -1.12, 55.13 -6.36 M54.98 6.31 C55.12 2.91, 54.78 -1.45, 55.13 -6.36 M55.13 -6.36 C61.77 -4.62, 64.85 -0.61, 68.65 0.14 M55.13 -6.36 C58.02 -4.8, 60.9 -3.35, 68.65 0.14 M68.65 0.14 C68.65 0.14, 68.65 0.14, 68.65 0.14 M68.65 0.14 C68.65 0.14, 68.65 0.14, 68.65 0.14" stroke="#1e1e1e" stroke-width="1" fill="none"></path></g></g><mask></mask><g transform="translate(430 730.2414413991432) rotate(0 25.508102416992188 17.5)"><text x="25.508102416992188" y="24.528" font-family="Virgil, Segoe UI Emoji" font-size="28px" fill="#1e1e1e" text-anchor="middle" style="white-space: pre;" direction="ltr" dominant-baseline="alphabetic">. . .</text></g><g transform="translate(30 790.2414413991432) rotate(0 6.902030944824219 17.5)"><text x="6.902030944824219" y="24.528" font-family="Virgil, Segoe UI Emoji" font-size="28px" fill="#1e1e1e" text-anchor="middle" style="white-space: pre;" direction="ltr" dominant-baseline="alphabetic">p</text></g><g stroke-linecap="round"><g transform="translate(50 822.4879949171777) rotate(0 30 13.756002541411135)"><path d="M0.76 0.38 C10.89 0.36, 50.01 -5.31, 59.99 -0.8 C69.96 3.7, 60.54 22.57, 60.61 27.44 M-0.3 -0.47 C9.75 -0.29, 48.96 -4.55, 59.04 0.31 C69.11 5.17, 59.85 24.38, 60.16 28.71" stroke="#1e1e1e" stroke-width="1" fill="none"></path></g><g transform="translate(50 822.4879949171777) rotate(0 30 13.756002541411135)"><path d="M60.98 29.15 L56.58 16.51 L66.9 18.65 L61.99 28.91" stroke="none" stroke-width="0" fill="#1e1e1e" fill-rule="evenodd"></path><path d="M60.16 28.71 C59.96 25.63, 57.9 23.25, 57.09 15.31 M60.16 28.71 C58.62 24.46, 57.89 21.13, 57.09 15.31 M57.09 15.31 C61.48 16.41, 66.27 16.62, 68.46 17.74 M57.09 15.31 C59.52 16.4, 62.05 16.09, 68.46 17.74 M68.46 17.74 C65.2 21.11, 62.86 24.43, 60.16 28.71 M68.46 17.74 C66.05 21.64, 63.31 24.12, 60.16 28.71 M60.16 28.71 C60.16 28.71, 60.16 28.71, 60.16 28.71 M60.16 28.71 C60.16 28.71, 60.16 28.71, 60.16 28.71" stroke="#1e1e1e" stroke-width="1" fill="none"></path></g></g><mask></mask><g stroke-linecap="round" transform="translate(10 710) rotate(0 250 80)"><path d="M32 0 C189.63 0.53, 348.55 0.37, 468 0 M32 0 C194.21 1.29, 357.47 1.03, 468 0 M468 0 C489.16 0.06, 500.28 11.49, 500 32 M468 0 C488.23 -1.56, 502.17 10.28, 500 32 M500 32 C499.6 57.81, 499.41 80.16, 500 128 M500 32 C499.36 58.15, 500.53 84.99, 500 128 M500 128 C500.01 150.93, 488.62 159.22, 468 160 M500 128 C499.54 147.36, 489.35 158.18, 468 160 M468 160 C356.83 162.41, 244.91 162.66, 32 160 M468 160 C348.67 159.31, 228.81 159.5, 32 160 M32 160 C9.11 160.91, 1.83 149.53, 0 128 M32 160 C9.12 159.09, -0.47 151.35, 0 128 M0 128 C-2.45 100.02, -0.73 74.06, 0 32 M0 128 C-1.43 103.68, -0.1 78.58, 0 32 M0 32 C-0.87 10.17, 10.22 0.12, 32 0 M0 32 C-1.22 10.93, 10.5 0.59, 32 0" stroke="#1e1e1e" stroke-width="1" fill="none"></path></g></svg>