<svg version="1.1" xmlns="http://www.w3.org/2000/svg" viewBox="0 0 720 600" width="720" height="600" filter="invert(93%) hue-rotate(180deg)">
  <!-- svg-source:excalidraw -->
  
  <defs>
    <style class="style-fonts">
      @font-face {
        font-family: "Virgil";
        src: url("https://excalidraw.com/Virgil.woff2");
      }
      @font-face {
        font-family: "Cascadia";
        src: url("https://excalidraw.com/Cascadia.woff2");
      }
      @font-face {
        font-family: "Assistant";
        src: url("https://excalidraw.com/Assistant-Regular.woff2");
      }
    </style>
    
  </defs>
  <g transform="translate(30 30) rotate(0 3.6820144653320312 17.5)"><text x="0" y="24.528" font-family="Virgil, Segoe UI Emoji" font-size="28px" fill="#1e1e1e" text-anchor="start" style="white-space: pre;" direction="ltr" dominant-baseline="alphabetic">l</text></g><g stroke-linecap="round"><g transform="translate(50 50) rotate(0 30 0)"><path d="M0.08 0.35 C9.85 0.15, 49.49 -1.2, 59.62 -1.11 M-1.33 -0.51 C8.16 -0.61, 48.16 -0.08, 58.47 -0.15" stroke="#1e1e1e" stroke-width="2" fill="none"></path></g><g transform="translate(50 50) rotate(0 30 0)"><path d="M34.94 8.3 C44.51 4.42, 51.07 3.2, 58.47 -0.15 M34.94 8.3 C43 5.77, 52.5 2.61, 58.47 -0.15" stroke="#1e1e1e" stroke-width="2" fill="none"></path></g><g transform="translate(50 50) rotate(0 30 0)"><path d="M35.01 -8.8 C44.57 -6.15, 51.09 -0.83, 58.47 -0.15 M35.01 -8.8 C42.89 -4.92, 52.37 -1.67, 58.47 -0.15" stroke="#1e1e1e" stroke-width="2" fill="none"></path></g></g><mask></mask><g stroke-linecap="round" transform="translate(110 30.274316084578174) rotate(0 60 20)"><path d="M10 0 C47.34 1.44, 85.72 1.86, 110 0 M10 0 C36.91 -0.81, 63.17 -0.42, 110 0 M110 0 C118.3 -0.22, 121.27 2.26, 120 10 M110 0 C114.4 2.17, 121.49 2.2, 120 10 M120 10 C120.01 17.21, 121.09 21.92, 120 30 M120 10 C118.98 15.32, 119.2 20.62, 120 30 M120 30 C118.68 37.59, 117.19 41.8, 110 40 M120 30 C120.04 38.81, 118.12 39.74, 110 40 M110 40 C88.7 39.6, 65.73 39.6, 10 40 M110 40 C80.97 40.29, 51.99 40.29, 10 40 M10 40 C4.52 41.8, 0.99 37.28, 0 30 M10 40 C1.69 39.33, -1.53 35.73, 0 30 M0 30 C-0.02 24.39, -0.17 21.19, 0 10 M0 30 C1 25.14, 0.96 21.27, 0 10 M0 10 C0.48 5.06, 2.54 0.5, 10 0 M0 10 C1.59 2.76, 1.51 0.02, 10 0" stroke="#1e1e1e" stroke-width="2" fill="none"></path></g><g stroke-linecap="round"><g transform="translate(170 30.274316084578174) rotate(0 0 20)"><path d="M-0.27 0.13 C-0.28 6.7, 0.4 33.08, 0.44 39.75 M0.59 -0.27 C0.5 6.33, 0.4 33.74, 0.23 40.33" stroke="#1e1e1e" stroke-width="2" fill="none"></path></g></g><mask></mask><g transform="translate(130 30) rotate(0 11.452049255371094 17.5)"><text x="0" y="24.528" font-family="Virgil, Segoe UI Emoji" font-size="28px" fill="#1e1e1e" text-anchor="start" style="white-space: pre;" direction="ltr" dominant-baseline="alphabetic">e1</text></g><g transform="translate(630 30) rotate(0 39.50816345214844 17.5)"><text x="0" y="24.528" font-family="Virgil, Segoe UI Emoji" font-size="28px" fill="#1e1e1e" text-anchor="start" style="white-space: pre;" direction="ltr" dominant-baseline="alphabetic"> . . . </text></g><g stroke-linecap="round"><g transform="translate(210 50) rotate(0 40 0)"><path d="M0.42 0.47 C13.98 0.09, 66.86 -0.82, 80.21 -1.09 M-0.82 -0.33 C12.7 -0.09, 65.9 -0.11, 79.38 -0.13" stroke="#1e1e1e" stroke-width="2" fill="none"></path></g><g transform="translate(210 50) rotate(0 40 0)"><path d="M55.89 8.43 C61.36 6.97, 63.53 5.76, 79.38 -0.13 M55.89 8.43 C60.01 7.54, 65.57 4.58, 79.38 -0.13" stroke="#1e1e1e" stroke-width="2" fill="none"></path></g><g transform="translate(210 50) rotate(0 40 0)"><path d="M55.88 -8.67 C61.52 -6.66, 63.69 -4.39, 79.38 -0.13 M55.88 -8.67 C59.92 -6.1, 65.48 -5.59, 79.38 -0.13" stroke="#1e1e1e" stroke-width="2" fill="none"></path></g></g><mask></mask><g stroke-linecap="round" transform="translate(450 30.62570927952183) rotate(0 60 20)"><path d="M10 0 C44.76 -0.53, 78.04 -0.64, 110 0 M10 0 C31.34 0.52, 52.87 0.4, 110 0 M110 0 C118.25 0.11, 118.04 2.36, 120 10 M110 0 C118.86 -1.99, 121.71 3.6, 120 10 M120 10 C118.49 15.77, 118.47 21.76, 120 30 M120 10 C119.03 15.49, 120.81 23.46, 120 30 M120 30 C121.94 37.17, 117.95 40.08, 110 40 M120 30 C118.72 34.39, 116.38 38.91, 110 40 M110 40 C75.29 41.6, 42.61 40.74, 10 40 M110 40 C83.86 41.08, 55.57 39.89, 10 40 M10 40 C3.74 38.53, 1.83 35.18, 0 30 M10 40 C5.56 38.12, 0.47 35.64, 0 30 M0 30 C0.04 26.8, 1.04 21.84, 0 10 M0 30 C-0.6 22.66, -0.87 17.49, 0 10 M0 10 C0.12 2.01, 1.35 -1.34, 10 0 M0 10 C-1.64 4.98, 1.22 -1.9, 10 0" stroke="#1e1e1e" stroke-width="2" fill="none"></path></g><g stroke-linecap="round"><g transform="translate(510 30.62570927952183) rotate(0 0 20)"><path d="M-0.02 -0.1 C-0.07 6.46, 0.01 32.88, -0.05 39.53 M-0.7 -0.63 C-0.85 5.97, -0.74 33.16, -0.51 39.98" stroke="#1e1e1e" stroke-width="2" fill="none"></path></g></g><mask></mask><g transform="translate(470 30.351393194943654) rotate(0 14.196060180664062 17.5)"><text x="0" y="24.528" font-family="Virgil, Segoe UI Emoji" font-size="28px" fill="#1e1e1e" text-anchor="start" style="white-space: pre;" direction="ltr" dominant-baseline="alphabetic">en</text></g><g stroke-linecap="round"><g transform="translate(550 50.351393194943654) rotate(0 40 0)"><path d="M-0.91 -0.45 C12.44 -0.25, 66.46 0.09, 79.97 0.17 M0.82 -1.73 C14.01 -1.22, 65.9 1.28, 79.01 1.8" stroke="#1e1e1e" stroke-width="2" fill="none"></path></g><g transform="translate(550 50.351393194943654) rotate(0 40 0)"><path d="M55.17 9.3 C61.4 7.26, 69.36 5.41, 79.01 1.8 M55.17 9.3 C61.32 6.53, 70.46 3.89, 79.01 1.8" stroke="#1e1e1e" stroke-width="2" fill="none"></path></g><g transform="translate(550 50.351393194943654) rotate(0 40 0)"><path d="M55.92 -7.78 C61.79 -4.87, 69.52 -1.77, 79.01 1.8 M55.92 -7.78 C61.99 -5.39, 70.89 -2.88, 79.01 1.8" stroke="#1e1e1e" stroke-width="2" fill="none"></path></g></g><mask></mask><g transform="translate(290 30) rotate(0 39.50816345214844 17.5)"><text x="0" y="24.528" font-family="Virgil, Segoe UI Emoji" font-size="28px" fill="#1e1e1e" text-anchor="start" style="white-space: pre;" direction="ltr" dominant-baseline="alphabetic"> . . . </text></g><g stroke-linecap="round"><g transform="translate(371.1666747689246 50.86237828365199) rotate(0 39.41666261553763 -0.4311891418259961)"><path d="M0.97 -0.81 C13.91 -1.05, 65.75 -0.17, 78.77 -0.28 M0.01 1.37 C12.7 1.29, 64.71 -1.79, 77.79 -2.1" stroke="#1e1e1e" stroke-width="2" fill="none"></path></g><g transform="translate(371.1666747689246 50.86237828365199) rotate(0 39.41666261553763 -0.4311891418259961)"><path d="M54.69 7.46 C62.31 3.41, 73.71 0.18, 77.79 -2.1 M54.69 7.46 C61.31 4.24, 65.51 1.86, 77.79 -2.1" stroke="#1e1e1e" stroke-width="2" fill="none"></path></g><g transform="translate(371.1666747689246 50.86237828365199) rotate(0 39.41666261553763 -0.4311891418259961)"><path d="M53.95 -9.63 C62.03 -6.97, 73.72 -3.49, 77.79 -2.1 M53.95 -9.63 C60.74 -8.62, 65.13 -6.77, 77.79 -2.1" stroke="#1e1e1e" stroke-width="2" fill="none"></path></g></g><mask></mask><g transform="translate(50 130) rotate(0 29.610130310058594 17.5)"><text x="0" y="24.528" font-family="Virgil, Segoe UI Emoji" font-size="28px" fill="#1e1e1e" text-anchor="start" style="white-space: pre;" direction="ltr" dominant-baseline="alphabetic">p:= l</text></g><g stroke-linecap="round" transform="translate(10 10) rotate(0 350 40)"><path d="M20 0 C283.19 -2.05, 543.59 -3.27, 680 0 M20 0 C171.1 -3.68, 322.65 -4.45, 680 0 M680 0 C692.23 -0.23, 700.84 4.39, 700 20 M680 0 C693.48 1.34, 696.12 10.88, 700 20 M700 20 C696.8 32.31, 696.62 45.19, 700 60 M700 20 C698.3 30.58, 698.23 38.38, 700 60 M700 60 C698 69.74, 689.55 78.28, 680 80 M700 60 C696.82 71.02, 695.98 82.01, 680 80 M680 80 C536.59 82.89, 390.08 82.97, 20 80 M680 80 C440.03 75.26, 199.19 75.84, 20 80 M20 80 C9.8 82.82, 1.28 72.23, 0 60 M20 80 C9.9 80.05, -1.91 69.99, 0 60 M0 60 C-1.05 46.4, -0.68 40.02, 0 20 M0 60 C0.33 45.39, -0.96 33.57, 0 20 M0 20 C-1.65 4.95, 5.12 2.47, 20 0 M0 20 C1.9 4.18, 6.58 4.41, 20 0" stroke="#1e1e1e" stroke-width="1" fill="none"></path></g><g transform="translate(30 190) rotate(0 3.6820144653320312 17.5)"><text x="0" y="24.528" font-family="Virgil, Segoe UI Emoji" font-size="28px" fill="#1e1e1e" text-anchor="start" style="white-space: pre;" direction="ltr" dominant-baseline="alphabetic">l</text></g><g stroke-linecap="round"><g transform="translate(50 210) rotate(0 30 0)"><path d="M-0.1 -0.31 C10.07 -0.39, 51.19 0.17, 61.14 0.13 M-1.61 -1.52 C8.48 -1.44, 50.75 1.4, 60.79 1.74" stroke="#1e1e1e" stroke-width="2" fill="none"></path></g><g transform="translate(50 210) rotate(0 30 0)"><path d="M36.88 9.05 C43.82 8.68, 52.05 3.85, 60.79 1.74 M36.88 9.05 C43.42 7.79, 49.79 5.56, 60.79 1.74" stroke="#1e1e1e" stroke-width="2" fill="none"></path></g><g transform="translate(50 210) rotate(0 30 0)"><path d="M37.78 -8.03 C44.53 -3.05, 52.48 -2.52, 60.79 1.74 M37.78 -8.03 C44.09 -4.9, 50.24 -2.75, 60.79 1.74" stroke="#1e1e1e" stroke-width="2" fill="none"></path></g></g><mask></mask><g stroke-linecap="round" transform="translate(110 190.27431608457817) rotate(0 60 20)"><path d="M10 0 C39.42 -1.59, 67.52 -0.88, 110 0 M10 0 C41.39 -0.36, 70.58 -1.57, 110 0 M110 0 C115.73 -1.84, 120.49 2.26, 120 10 M110 0 C118.89 -1.47, 119.75 5.54, 120 10 M120 10 C118.43 17.36, 120.71 25.09, 120 30 M120 10 C120.21 17.09, 119.68 22.86, 120 30 M120 30 C119.88 36.13, 117.19 40.4, 110 40 M120 30 C121.41 38.86, 117.48 38.91, 110 40 M110 40 C87.64 41.9, 65.53 40.46, 10 40 M110 40 C82.49 40.11, 56.68 38.87, 10 40 M10 40 C3.84 38.87, -1.87 35.41, 0 30 M10 40 C2.53 40.34, -1.08 35.83, 0 30 M0 30 C-1.15 24.85, -0.79 20.65, 0 10 M0 30 C-0.13 23.84, 0.63 16.84, 0 10 M0 10 C-0.55 4.06, 2.97 -0.51, 10 0 M0 10 C0.34 1.72, 1.93 0.56, 10 0" stroke="#1e1e1e" stroke-width="2" fill="none"></path></g><g stroke-linecap="round"><g transform="translate(170 190.27431608457817) rotate(0 0 20)"><path d="M-0.18 -0.24 C-0.26 6.43, -0.05 33.28, 0.02 40.04 M0.73 0.83 C0.54 7.58, -0.28 34.32, -0.4 40.76" stroke="#1e1e1e" stroke-width="2" fill="none"></path></g></g><mask></mask><g transform="translate(130 190) rotate(0 11.452049255371094 17.5)"><text x="0" y="24.528" font-family="Virgil, Segoe UI Emoji" font-size="28px" fill="#1e1e1e" text-anchor="start" style="white-space: pre;" direction="ltr" dominant-baseline="alphabetic">e1</text></g><g transform="translate(630 190) rotate(0 39.50816345214844 17.5)"><text x="0" y="24.528" font-family="Virgil, Segoe UI Emoji" font-size="28px" fill="#1e1e1e" text-anchor="start" style="white-space: pre;" direction="ltr" dominant-baseline="alphabetic"> . . . </text></g><g stroke-linecap="round"><g transform="translate(210 210) rotate(0 40 0)"><path d="M0.77 0.33 C13.84 0.02, 65.79 -0.89, 78.9 -1.13 M-0.29 -0.54 C13.1 -0.82, 67.93 -0.21, 81.04 -0.18" stroke="#1e1e1e" stroke-width="2" fill="none"></path></g><g transform="translate(210 210) rotate(0 40 0)"><path d="M57.49 8.21 C65.99 3.38, 71.57 1.42, 81.04 -0.18 M57.49 8.21 C63.33 5.95, 67.16 5.8, 81.04 -0.18" stroke="#1e1e1e" stroke-width="2" fill="none"></path></g><g transform="translate(210 210) rotate(0 40 0)"><path d="M57.61 -8.89 C66.18 -7.91, 71.71 -4.06, 81.04 -0.18 M57.61 -8.89 C63.47 -7.6, 67.27 -4.18, 81.04 -0.18" stroke="#1e1e1e" stroke-width="2" fill="none"></path></g></g><mask></mask><g stroke-linecap="round" transform="translate(450 190.62570927952186) rotate(0 60 20)"><path d="M10 0 C44.53 -0.02, 80.98 1.41, 110 0 M10 0 C34.52 1.6, 59.95 1.12, 110 0 M110 0 C115.71 -1.66, 119.97 3.94, 120 10 M110 0 C117.02 0.47, 119.05 1.51, 120 10 M120 10 C120.23 16.47, 119.6 23.69, 120 30 M120 10 C120.48 15.92, 119.44 23.27, 120 30 M120 30 C121.58 37.46, 117.77 41.82, 110 40 M120 30 C119.61 35.92, 117.44 38.56, 110 40 M110 40 C86.64 40.68, 64.18 38.3, 10 40 M110 40 C85.81 39.78, 62.25 39.89, 10 40 M10 40 C2.47 38.8, 0.22 35.83, 0 30 M10 40 C4.93 40.65, 0.43 35.59, 0 30 M0 30 C-0.15 23.63, 0.65 17.99, 0 10 M0 30 C-0.64 24.75, 0.66 19.84, 0 10 M0 10 C1.29 1.97, 4.02 -1.9, 10 0 M0 10 C0.78 1.83, 2.5 1.37, 10 0" stroke="#1e1e1e" stroke-width="2" fill="none"></path></g><g stroke-linecap="round"><g transform="translate(510 190.62570927952186) rotate(0 0 20)"><path d="M-0.26 -0.51 C-0.15 6.2, 0 33.01, 0.14 39.7 M0.61 0.42 C0.7 7.24, -0.2 33.65, -0.23 40.25" stroke="#1e1e1e" stroke-width="2" fill="none"></path></g></g><mask></mask><g transform="translate(470 190.35139319494363) rotate(0 14.196060180664062 17.5)"><text x="0" y="24.528" font-family="Virgil, Segoe UI Emoji" font-size="28px" fill="#1e1e1e" text-anchor="start" style="white-space: pre;" direction="ltr" dominant-baseline="alphabetic">en</text></g><g stroke-linecap="round"><g transform="translate(550 210.35139319494363) rotate(0 40 0)"><path d="M1.16 -0.77 C14.42 -0.47, 66.59 0.93, 79.87 1.15 M0.31 1.44 C13.37 1.49, 65.48 0.12, 78.85 -0.37" stroke="#1e1e1e" stroke-width="2" fill="none"></path></g><g transform="translate(550 210.35139319494363) rotate(0 40 0)"><path d="M55.63 8.89 C61.94 5.44, 72.68 4.05, 78.85 -0.37 M55.63 8.89 C63.73 6.17, 71.98 2.85, 78.85 -0.37" stroke="#1e1e1e" stroke-width="2" fill="none"></path></g><g transform="translate(550 210.35139319494363) rotate(0 40 0)"><path d="M55.11 -8.21 C61.5 -6.11, 72.4 -1.95, 78.85 -0.37 M55.11 -8.21 C63.32 -4.98, 71.75 -2.35, 78.85 -0.37" stroke="#1e1e1e" stroke-width="2" fill="none"></path></g></g><mask></mask><g transform="translate(290 190) rotate(0 39.50816345214844 17.5)"><text x="0" y="24.528" font-family="Virgil, Segoe UI Emoji" font-size="28px" fill="#1e1e1e" text-anchor="start" style="white-space: pre;" direction="ltr" dominant-baseline="alphabetic"> . . . </text></g><g stroke-linecap="round"><g transform="translate(371.1666747689246 210.862378283652) rotate(0 39.41666261553763 -0.4311891418259961)"><path d="M0.83 0.57 C13.9 0.07, 65.26 -1.68, 78.26 -1.86 M-0.19 -0.17 C12.68 -0.04, 63.98 -0.44, 77.01 -0.85" stroke="#1e1e1e" stroke-width="2" fill="none"></path></g><g transform="translate(371.1666747689246 210.862378283652) rotate(0 39.41666261553763 -0.4311891418259961)"><path d="M53.67 8.11 C61.29 4.41, 65.41 2.74, 77.01 -0.85 M53.67 8.11 C60.96 4.31, 69.38 2.83, 77.01 -0.85" stroke="#1e1e1e" stroke-width="2" fill="none"></path></g><g transform="translate(371.1666747689246 210.862378283652) rotate(0 39.41666261553763 -0.4311891418259961)"><path d="M53.37 -8.98 C61.24 -7.75, 65.45 -4.48, 77.01 -0.85 M53.37 -8.98 C60.78 -7.14, 69.3 -2.97, 77.01 -0.85" stroke="#1e1e1e" stroke-width="2" fill="none"></path></g></g><mask></mask><g transform="translate(30 250) rotate(0 6.902030944824219 17.5)"><text x="0" y="24.528" font-family="Virgil, Segoe UI Emoji" font-size="28px" fill="#1e1e1e" text-anchor="start" style="white-space: pre;" direction="ltr" dominant-baseline="alphabetic">p</text></g><g stroke-linecap="round"><g transform="translate(56.440032958984375 270) rotate(0 36.77998352050781 -20)"><path d="M-0.05 0.02 C8.88 -0.11, 41.25 5.39, 53.48 -1.08 C65.7 -7.55, 69.97 -32.46, 73.29 -38.81 M-1.54 -1.02 C7.23 -1.02, 40.16 6.48, 52.48 -0.11 C64.8 -6.69, 68.86 -33.66, 72.38 -40.53" stroke="#1e1e1e" stroke-width="2" fill="none"></path></g><g transform="translate(56.440032958984375 270) rotate(0 36.77998352050781 -20)"><path d="M72.96 -18.17 C72.87 -24.87, 70.88 -31.74, 72.38 -40.53 M72.96 -18.17 C72.87 -27.89, 73.33 -35.39, 72.38 -40.53" stroke="#1e1e1e" stroke-width="2" fill="none"></path></g><g transform="translate(56.440032958984375 270) rotate(0 36.77998352050781 -20)"><path d="M58.46 -23.03 C62.62 -28.3, 64.88 -33.74, 72.38 -40.53 M58.46 -23.03 C64.16 -30.9, 70.4 -36.47, 72.38 -40.53" stroke="#1e1e1e" stroke-width="2" fill="none"></path></g></g><mask></mask><g stroke-linecap="round" transform="translate(10 170) rotate(0 350 70)"><path d="M32 0 C262.68 -0.85, 493.64 -3.35, 668 0 M32 0 C187.72 3.67, 342.29 3.96, 668 0 M668 0 C693.07 -2.08, 699.23 8.77, 700 32 M668 0 C686.08 -4.18, 700.57 12.17, 700 32 M700 32 C703.01 47.41, 697 66.26, 700 108 M700 32 C697.84 55.22, 698.29 79.29, 700 108 M700 108 C700.83 126.74, 687.73 143.11, 668 140 M700 108 C702.17 125.41, 688.03 144.42, 668 140 M668 140 C496.54 137.17, 325.69 137.22, 32 140 M668 140 C432.11 136.51, 196.35 136.92, 32 140 M32 140 C13.92 138.34, -0.45 129.3, 0 108 M32 140 C10.81 137.92, -3.24 129.8, 0 108 M0 108 C-1.93 80.95, -2.32 59.05, 0 32 M0 108 C-1.12 82.52, -1.5 57.66, 0 32 M0 32 C0.4 9.69, 14.37 1.34, 32 0 M0 32 C0.61 10.93, 10.31 -4.11, 32 0" stroke="#1e1e1e" stroke-width="1" fill="none"></path></g><g transform="translate(50 350) rotate(0 121.94052124023438 52.5)"><text x="0" y="24.528" font-family="Virgil, Segoe UI Emoji" font-size="28px" fill="#1e1e1e" text-anchor="start" style="white-space: pre;" direction="ltr" dominant-baseline="alphabetic">for i:= 1 to n-1 do</text><text x="0" y="59.528" font-family="Virgil, Segoe UI Emoji" font-size="28px" fill="#1e1e1e" text-anchor="start" style="white-space: pre;" direction="ltr" dominant-baseline="alphabetic">    p:= p-&gt;next</text><text x="0" y="94.52799999999999" font-family="Virgil, Segoe UI Emoji" font-size="28px" fill="#1e1e1e" text-anchor="start" style="white-space: pre;" direction="ltr" dominant-baseline="alphabetic">od</text></g><g transform="translate(30 470) rotate(0 3.6820144653320312 17.5)"><text x="0" y="24.528" font-family="Virgil, Segoe UI Emoji" font-size="28px" fill="#1e1e1e" text-anchor="start" style="white-space: pre;" direction="ltr" dominant-baseline="alphabetic">l</text></g><g stroke-linecap="round"><g transform="translate(50 490) rotate(0 30 0)"><path d="M0.37 0.22 C10.42 0.22, 50.83 0.48, 60.73 0.59 M-0.9 -0.71 C9.02 -1.11, 50.2 -1.17, 60.17 -1.22" stroke="#1e1e1e" stroke-width="2" fill="none"></path></g><g transform="translate(50 490) rotate(0 30 0)"><path d="M36.71 7.41 C44.93 5.66, 53.45 1.2, 60.17 -1.22 M36.71 7.41 C45.99 4.97, 53.73 1.2, 60.17 -1.22" stroke="#1e1e1e" stroke-width="2" fill="none"></path></g><g transform="translate(50 490) rotate(0 30 0)"><path d="M36.65 -9.69 C44.98 -5.68, 53.51 -4.39, 60.17 -1.22 M36.65 -9.69 C46.12 -5.72, 53.89 -3.07, 60.17 -1.22" stroke="#1e1e1e" stroke-width="2" fill="none"></path></g></g><mask></mask><g stroke-linecap="round" transform="translate(110 470.27431608457823) rotate(0 60 20)"><path d="M10 0 C44.04 -0.94, 77.6 1.37, 110 0 M10 0 C32.8 -0.53, 56.83 -1.43, 110 0 M110 0 C116 0.86, 120.27 3.97, 120 10 M110 0 C117.78 0.99, 117.71 4.15, 120 10 M120 10 C120.49 16.14, 120.97 24.2, 120 30 M120 10 C119.39 13.44, 120.83 19.59, 120 30 M120 30 C119.65 37.71, 117.97 41.22, 110 40 M120 30 C118.64 37.02, 117.94 37.93, 110 40 M110 40 C80.05 41.95, 50.07 41.17, 10 40 M110 40 C83.26 41.25, 56.41 40.83, 10 40 M10 40 C5.02 39.33, 0.51 35.64, 0 30 M10 40 C4.19 41.82, 1.86 38.64, 0 30 M0 30 C1.1 23.06, -0.21 18.16, 0 10 M0 30 C-0.8 26.01, 0.35 21.01, 0 10 M0 10 C-0.48 4.83, 5.1 -1.13, 10 0 M0 10 C-1.8 1.98, 4.52 0.67, 10 0" stroke="#1e1e1e" stroke-width="2" fill="none"></path></g><g stroke-linecap="round"><g transform="translate(170 470.27431608457823) rotate(0 0 20)"><path d="M-0.09 0.41 C-0.06 6.97, 0.48 32.98, 0.54 39.63 M-0.8 0.15 C-0.82 6.75, 0.24 33.59, 0.39 40.14" stroke="#1e1e1e" stroke-width="2" fill="none"></path></g></g><mask></mask><g transform="translate(130 470) rotate(0 11.452049255371094 17.5)"><text x="0" y="24.528" font-family="Virgil, Segoe UI Emoji" font-size="28px" fill="#1e1e1e" text-anchor="start" style="white-space: pre;" direction="ltr" dominant-baseline="alphabetic">e1</text></g><g transform="translate(630 470) rotate(0 39.50816345214844 17.5)"><text x="0" y="24.528" font-family="Virgil, Segoe UI Emoji" font-size="28px" fill="#1e1e1e" text-anchor="start" style="white-space: pre;" direction="ltr" dominant-baseline="alphabetic"> . . . </text></g><g stroke-linecap="round"><g transform="translate(210 490) rotate(0 40 0)"><path d="M-0.59 0.12 C12.68 -0.16, 66.93 -1.02, 80.29 -0.96 M1.29 -0.86 C14.37 -1.09, 66.61 0.19, 79.5 0.08" stroke="#1e1e1e" stroke-width="2" fill="none"></path></g><g transform="translate(210 490) rotate(0 40 0)"><path d="M55.92 8.4 C64.47 6.04, 71.06 1.92, 79.5 0.08 M55.92 8.4 C64.48 5.9, 71.08 2.97, 79.5 0.08" stroke="#1e1e1e" stroke-width="2" fill="none"></path></g><g transform="translate(210 490) rotate(0 40 0)"><path d="M56.09 -8.7 C64.68 -4.97, 71.22 -3, 79.5 0.08 M56.09 -8.7 C64.61 -5.34, 71.16 -2.4, 79.5 0.08" stroke="#1e1e1e" stroke-width="2" fill="none"></path></g></g><mask></mask><g stroke-linecap="round" transform="translate(450 470.62570927952186) rotate(0 60 20)"><path d="M10 0 C33.45 -0.91, 60.96 0.03, 110 0 M10 0 C42.19 -0.07, 76.83 0.29, 110 0 M110 0 C114.86 0.35, 119.22 4.16, 120 10 M110 0 C117.07 -1.96, 118.7 1.34, 120 10 M120 10 C121.81 14.65, 120.87 21.3, 120 30 M120 10 C120.44 16.32, 119.89 23.84, 120 30 M120 30 C120.34 36.84, 118.45 40.31, 110 40 M120 30 C121.15 35.93, 118.51 41.73, 110 40 M110 40 C79.59 41.69, 48.21 40.51, 10 40 M110 40 C85.94 41.65, 59.9 40.79, 10 40 M10 40 C4.2 41.1, -1.64 36.46, 0 30 M10 40 C1.9 38.7, 2.24 35.76, 0 30 M0 30 C1.32 24.72, 1.32 22.18, 0 10 M0 30 C0.67 25.42, 0.18 19.98, 0 10 M0 10 C-1.11 4.18, 3.23 -1.83, 10 0 M0 10 C-1.9 2.09, 3.88 -1.54, 10 0" stroke="#1e1e1e" stroke-width="2" fill="none"></path></g><g stroke-linecap="round"><g transform="translate(510 470.62570927952186) rotate(0 0 20)"><path d="M-0.18 0.24 C-0.19 7.01, 0 33.51, 0.08 40.18 M0.72 -0.12 C0.64 6.52, -0.21 32.73, -0.32 39.3" stroke="#1e1e1e" stroke-width="2" fill="none"></path></g></g><mask></mask><g transform="translate(470 470.3513931949436) rotate(0 14.196060180664062 17.5)"><text x="0" y="24.528" font-family="Virgil, Segoe UI Emoji" font-size="28px" fill="#1e1e1e" text-anchor="start" style="white-space: pre;" direction="ltr" dominant-baseline="alphabetic">en</text></g><g stroke-linecap="round"><g transform="translate(550 490.3513931949436) rotate(0 40 0)"><path d="M0.58 0.52 C13.69 0.52, 65.47 0.37, 78.8 0.43 M-0.58 -0.26 C12.86 -0.65, 67.44 -1.35, 80.89 -1.47" stroke="#1e1e1e" stroke-width="2" fill="none"></path></g><g transform="translate(550 490.3513931949436) rotate(0 40 0)"><path d="M57.49 7.35 C65.66 2.47, 72.85 2.62, 80.89 -1.47 M57.49 7.35 C65.88 4.44, 75.14 -0.1, 80.89 -1.47" stroke="#1e1e1e" stroke-width="2" fill="none"></path></g><g transform="translate(550 490.3513931949436) rotate(0 40 0)"><path d="M57.3 -9.75 C65.58 -9.26, 72.83 -3.75, 80.89 -1.47 M57.3 -9.75 C65.6 -6.3, 74.94 -4.49, 80.89 -1.47" stroke="#1e1e1e" stroke-width="2" fill="none"></path></g></g><mask></mask><g transform="translate(290 470) rotate(0 39.50816345214844 17.5)"><text x="0" y="24.528" font-family="Virgil, Segoe UI Emoji" font-size="28px" fill="#1e1e1e" text-anchor="start" style="white-space: pre;" direction="ltr" dominant-baseline="alphabetic"> . . . </text></g><g stroke-linecap="round"><g transform="translate(371.1666747689246 490.862378283652) rotate(0 39.41666261553763 -0.4311891418259961)"><path d="M0.55 0.86 C13.71 0.68, 64.78 -0.45, 77.75 -0.65 M-0.61 0.27 C13 -0.34, 66.9 -2.21, 79.89 -2.66" stroke="#1e1e1e" stroke-width="2" fill="none"></path></g><g transform="translate(371.1666747689246 490.862378283652) rotate(0 39.41666261553763 -0.4311891418259961)"><path d="M56.71 6.7 C62.75 2.91, 66.31 2.06, 79.89 -2.66 M56.71 6.7 C64.04 2.83, 72.02 -0.35, 79.89 -2.66" stroke="#1e1e1e" stroke-width="2" fill="none"></path></g><g transform="translate(371.1666747689246 490.862378283652) rotate(0 39.41666261553763 -0.4311891418259961)"><path d="M56.11 -10.39 C62.34 -10.76, 66.01 -8.19, 79.89 -2.66 M56.11 -10.39 C63.68 -8.42, 71.86 -5.77, 79.89 -2.66" stroke="#1e1e1e" stroke-width="2" fill="none"></path></g></g><mask></mask><g transform="translate(30 530) rotate(0 6.902030944824219 17.5)"><text x="0" y="24.528" font-family="Virgil, Segoe UI Emoji" font-size="28px" fill="#1e1e1e" text-anchor="start" style="white-space: pre;" direction="ltr" dominant-baseline="alphabetic">p</text></g><g stroke-linecap="round"><g transform="translate(56.440032958984375 550) rotate(0 216.7799835205078 -20)"><path d="M-0.47 0.5 C62.01 0.29, 301.55 5.9, 373.77 -1.02 C446 -7.94, 423.02 -34.37, 432.88 -41.04 M1.49 -0.29 C63.92 -0.4, 301.22 6.64, 372.93 -0.02 C444.64 -6.68, 421.77 -33.53, 431.76 -40.27" stroke="#1e1e1e" stroke-width="2" fill="none"></path></g><g transform="translate(56.440032958984375 550) rotate(0 216.7799835205078 -20)"><path d="M432.25 -15.28 C432.93 -20.17, 430.3 -26.88, 431.76 -40.27 M432.25 -15.28 C433.21 -19.62, 431.99 -25.41, 431.76 -40.27" stroke="#1e1e1e" stroke-width="2" fill="none"></path></g><g transform="translate(56.440032958984375 550) rotate(0 216.7799835205078 -20)"><path d="M416.07 -20.81 C420.15 -24.48, 420.91 -30.04, 431.76 -40.27 M416.07 -20.81 C420.46 -23.83, 422.68 -28.45, 431.76 -40.27" stroke="#1e1e1e" stroke-width="2" fill="none"></path></g></g><mask></mask><g stroke-linecap="round" transform="translate(10 450) rotate(0 350 70)"><path d="M32 0 C196.59 -1.8, 362.52 -1.69, 668 0 M32 0 C168.07 -4.62, 304.94 -4.55, 668 0 M668 0 C686.97 0.62, 702.22 7.07, 700 32 M668 0 C689.39 -2.71, 700.78 11.06, 700 32 M700 32 C698.95 64.76, 703.25 91.35, 700 108 M700 32 C701.69 57.93, 700.51 84.18, 700 108 M700 108 C701.49 132.5, 692.57 143.43, 668 140 M700 108 C698.38 129.31, 691.32 142.53, 668 140 M668 140 C528.53 138.38, 390.25 135.86, 32 140 M668 140 C421.15 144.41, 175.4 143.36, 32 140 M32 140 C7.53 137.64, 2.07 130.5, 0 108 M32 140 C10.79 138.77, -2.55 131.29, 0 108 M0 108 C-0.77 86.55, -1.29 66.06, 0 32 M0 108 C1.67 87.32, 1.44 70.84, 0 32 M0 32 C3.04 9.15, 12.27 -1.59, 32 0 M0 32 C3.58 12.6, 14.1 0.46, 32 0" stroke="#1e1e1e" stroke-width="1" fill="none"></path></g></svg>