<svg version="1.1" xmlns="http://www.w3.org/2000/svg" viewBox="0 0 780 1540" width="780" height="1540" filter="invert(93%) hue-rotate(180deg)">
  <!-- svg-source:excalidraw -->
  
  <defs>
    <style class="style-fonts">
      @font-face {
        font-family: "Virgil";
        src: url("https://excalidraw.com/Virgil.woff2");
      }
      @font-face {
        font-family: "Cascadia";
        src: url("https://excalidraw.com/Cascadia.woff2");
      }
      @font-face {
        font-family: "Assistant";
        src: url("https://excalidraw.com/Assistant-Regular.woff2");
      }
    </style>
    
  </defs>
  <g transform="translate(30 59) rotate(0 3.6820144653320312 17.5)"><text x="3.6820144653320312" y="24.528" font-family="Virgil, Segoe UI Emoji" font-size="28px" fill="#1e1e1e" text-anchor="middle" style="white-space: pre;" direction="ltr" dominant-baseline="alphabetic">l</text></g><g stroke-linecap="round"><g transform="translate(46.68201446533203 73) rotate(0 31 0.5)"><path d="M-0.42 -1.13 C10.19 -1.28, 52.43 -0.52, 63.02 -0.17 M1.55 0.89 C12.16 0.79, 52.37 0.52, 62.6 0.75" stroke="#1e1e1e" stroke-width="1" fill="none"></path></g><g transform="translate(46.68201446533203 73) rotate(0 31 0.5)"><path d="M60.68 2.28 L49.83 6.45 L48.48 -5.64 L62.87 -0.02" stroke="none" stroke-width="0" fill="#1e1e1e" fill-rule="evenodd"></path><path d="M62.6 0.75 C57.9 3.5, 54.53 5.16, 48.97 7.01 M62.6 0.75 C58.43 2.69, 54.57 4.49, 48.97 7.01 M48.97 7.01 C48.08 2.83, 48.96 -0.9, 49.04 -5.67 M48.97 7.01 C49.56 3.25, 48.82 -1.92, 49.04 -5.67 M49.04 -5.67 C53.42 -3.35, 55.92 -0.49, 62.6 0.75 M49.04 -5.67 C52.8 -4.72, 55.91 -1.81, 62.6 0.75 M62.6 0.75 C62.6 0.75, 62.6 0.75, 62.6 0.75 M62.6 0.75 C62.6 0.75, 62.6 0.75, 62.6 0.75" stroke="#1e1e1e" stroke-width="1" fill="none"></path></g></g><mask></mask><g stroke-linecap="round" transform="translate(112.68201446533203 53) rotate(0 51.5 19.5)"><path d="M9.75 0 C41.8 -0.74, 73.67 -1.14, 93.25 0 M9.75 0 C35.95 -0.55, 62.68 -0.83, 93.25 0 M93.25 0 C98.98 -0.18, 102.15 3.8, 103 9.75 M93.25 0 C97.79 0.36, 104.65 4.66, 103 9.75 M103 9.75 C101.07 13.76, 103.16 19.95, 103 29.25 M103 9.75 C104.1 13.13, 103.82 17.03, 103 29.25 M103 29.25 C104.14 37.73, 98.56 39.2, 93.25 39 M103 29.25 C104.07 37.65, 101.96 38.51, 93.25 39 M93.25 39 C64.04 38.08, 37.96 38.08, 9.75 39 M93.25 39 C67.09 39.36, 39.78 39.66, 9.75 39 M9.75 39 C3.52 38.23, 0.97 34.92, 0 29.25 M9.75 39 C4.57 37.08, -0.95 35.47, 0 29.25 M0 29.25 C-0.63 23.45, 0.21 19.96, 0 9.75 M0 29.25 C0.04 24.26, -0.69 19.74, 0 9.75 M0 9.75 C-0.57 1.29, 4.72 -0.56, 9.75 0 M0 9.75 C-0.87 2.57, 2.57 -0.61, 9.75 0" stroke="#1e1e1e" stroke-width="1" fill="none"></path></g><g stroke-linecap="round"><g transform="translate(164.68201446533203 53) rotate(0 0 18.5)"><path d="M0.01 0.18 C-0.07 6.44, -0.12 31.26, -0.17 37.36 M-0.65 -0.2 C-0.85 5.92, -0.66 30.33, -0.68 36.59" stroke="#1e1e1e" stroke-width="1" fill="none"></path></g></g><mask></mask><g transform="translate(125.22996520996094 55) rotate(0 11.452049255371094 17.5)"><text x="11.452049255371094" y="24.528" font-family="Virgil, Segoe UI Emoji" font-size="28px" fill="#1e1e1e" text-anchor="middle" style="white-space: pre;" direction="ltr" dominant-baseline="alphabetic">e1</text></g><g stroke-linecap="round"><g transform="translate(186.68201446533203 72) rotate(0 42.5 0)"><path d="M-0.19 -0.54 C13.81 -0.76, 70.41 -0.83, 84.76 -0.79 M-1.75 1.79 C12.01 1.66, 69.13 0.48, 83.69 0.33" stroke="#1e1e1e" stroke-width="1" fill="none"></path></g><g transform="translate(186.68201446533203 72) rotate(0 42.5 0)"><path d="M81.98 0.62 L69.88 6.74 L69.9 -5.68 L83.38 0.78" stroke="none" stroke-width="0" fill="#1e1e1e" fill-rule="evenodd"></path><path d="M83.69 0.33 C78.18 2.37, 73 6.19, 70.2 6.89 M83.69 0.33 C80.18 1.86, 76.38 4.38, 70.2 6.89 M70.2 6.89 C70.44 4.83, 70.65 -0.11, 70 -5.79 M70.2 6.89 C69.91 2.19, 70.18 -1.62, 70 -5.79 M70 -5.79 C75.97 -3.76, 77.78 -1.58, 83.69 0.33 M70 -5.79 C73.25 -4.55, 75.88 -2.61, 83.69 0.33 M83.69 0.33 C83.69 0.33, 83.69 0.33, 83.69 0.33 M83.69 0.33 C83.69 0.33, 83.69 0.33, 83.69 0.33" stroke="#1e1e1e" stroke-width="1" fill="none"></path></g></g><mask></mask><g stroke-linecap="round" transform="translate(270.30010600220413 53.59931171603034) rotate(0 51.5 19.5)"><path d="M9.75 0 C28.28 0.3, 46.93 -0.32, 93.25 0 M9.75 0 C26.4 -1.08, 44.79 -0.05, 93.25 0 M93.25 0 C101.33 1.89, 101.85 1.99, 103 9.75 M93.25 0 C97.45 -0.85, 101.97 1.81, 103 9.75 M103 9.75 C104.14 15.79, 103.73 17.51, 103 29.25 M103 9.75 C102.99 13.81, 102.29 18.86, 103 29.25 M103 29.25 C104.83 34.36, 97.87 37.73, 93.25 39 M103 29.25 C103.81 35.4, 101.45 39.84, 93.25 39 M93.25 39 C63.35 40.15, 30.47 37.3, 9.75 39 M93.25 39 C71.68 39.8, 51.9 38.43, 9.75 39 M9.75 39 C4.53 40.64, -0.8 34.42, 0 29.25 M9.75 39 C2.88 39.51, -1.43 34.38, 0 29.25 M0 29.25 C0.86 24.22, 0.8 17.21, 0 9.75 M0 29.25 C0.89 23.62, 0.33 17.96, 0 9.75 M0 9.75 C0.63 3.76, 3.72 1.91, 9.75 0 M0 9.75 C0.5 3.53, 2.16 -1.53, 9.75 0" stroke="#1e1e1e" stroke-width="1" fill="none"></path></g><g stroke-linecap="round"><g transform="translate(322.30010600220413 53.59931171603034) rotate(0 0 18.5)"><path d="M-0.11 0.07 C-0.08 6.15, -0.38 30.3, -0.28 36.48 M-0.83 -0.37 C-0.58 5.75, 0.6 30.54, 0.81 36.91" stroke="#1e1e1e" stroke-width="1" fill="none"></path></g></g><mask></mask><g transform="translate(281.6740302575752 53.59931171603034) rotate(0 17.626075744628906 17.5)"><text x="17.626075744628906" y="24.528" font-family="Virgil, Segoe UI Emoji" font-size="28px" fill="#1e1e1e" text-anchor="middle" style="white-space: pre;" direction="ltr" dominant-baseline="alphabetic">e2</text></g><g stroke-linecap="round"><g transform="translate(344.30010600220413 72.59931171603034) rotate(0 42.49999999999997 0)"><path d="M1.13 0.3 C15.3 0.31, 70.31 -1.03, 84.45 -1.05 M0.26 -0.59 C14.28 -0.36, 68.97 -0.43, 83.21 -0.06" stroke="#1e1e1e" stroke-width="1" fill="none"></path></g><g transform="translate(344.30010600220413 72.59931171603034) rotate(0 42.49999999999997 0)"><path d="M82.89 0.38 L68.31 4.94 L70.36 -7.77 L83.8 0.7" stroke="none" stroke-width="0" fill="#1e1e1e" fill-rule="evenodd"></path><path d="M83.21 -0.06 C80.12 0.93, 75.03 4.38, 69.55 6.13 M83.21 -0.06 C78.52 1.55, 73.9 3.7, 69.55 6.13 M69.55 6.13 C69.38 2.62, 70.47 0.75, 69.69 -6.55 M69.55 6.13 C69.99 1.83, 69.64 -2.95, 69.69 -6.55 M69.69 -6.55 C71.55 -6.67, 74.57 -3.32, 83.21 -0.06 M69.69 -6.55 C74.17 -5.44, 77.47 -2.28, 83.21 -0.06 M83.21 -0.06 C83.21 -0.06, 83.21 -0.06, 83.21 -0.06 M83.21 -0.06 C83.21 -0.06, 83.21 -0.06, 83.21 -0.06" stroke="#1e1e1e" stroke-width="1" fill="none"></path></g></g><mask></mask><g transform="translate(442.17391204833984 50) rotate(0 25.508102416992188 17.5)"><text x="25.508102416992188" y="24.528" font-family="Virgil, Segoe UI Emoji" font-size="28px" fill="#1e1e1e" text-anchor="middle" style="white-space: pre;" direction="ltr" dominant-baseline="alphabetic">. . .</text></g><g stroke-linecap="round" transform="translate(10 10) rotate(0 250 60)"><path d="M30 0 C148.33 -0.9, 266.53 -1.43, 470 0 M30 0 C166.29 -0.52, 302.83 -0.17, 470 0 M470 0 C488.74 -0.03, 498.35 11.52, 500 30 M470 0 C491.36 1.78, 499.18 10.86, 500 30 M500 30 C500.83 45.45, 501.36 62.57, 500 90 M500 30 C499.94 46.55, 500.72 64.26, 500 90 M500 90 C499.79 108.09, 488.19 118.4, 470 120 M500 90 C499.51 109.11, 491.36 120.92, 470 120 M470 120 C314.53 118.19, 158.46 117.65, 30 120 M470 120 C329.32 122.37, 187.87 122.35, 30 120 M30 120 C8.44 118.84, -1.53 109.31, 0 90 M30 120 C11.98 120.86, -0.8 111.43, 0 90 M0 90 C1.23 72.37, 1.69 57.97, 0 30 M0 90 C0.61 74.81, -0.14 57.5, 0 30 M0 30 C1.61 10.6, 9.18 -1.5, 30 0 M0 30 C-2.01 9.65, 8.26 0.5, 30 0" stroke="#1e1e1e" stroke-width="1" fill="none"></path></g><g transform="translate(50 170) rotate(0 90.30038452148438 70)"><text x="0" y="24.528" font-family="Virgil, Segoe UI Emoji" font-size="28px" fill="#1e1e1e" text-anchor="start" style="white-space: pre;" direction="ltr" dominant-baseline="alphabetic">alloc(p)</text><text x="0" y="59.528" font-family="Virgil, Segoe UI Emoji" font-size="28px" fill="#1e1e1e" text-anchor="start" style="white-space: pre;" direction="ltr" dominant-baseline="alphabetic">p-&gt;elem:= e</text><text x="0" y="94.52799999999999" font-family="Virgil, Segoe UI Emoji" font-size="28px" fill="#1e1e1e" text-anchor="start" style="white-space: pre;" direction="ltr" dominant-baseline="alphabetic">p-&gt;next:= null</text><text x="0" y="129.528" font-family="Virgil, Segoe UI Emoji" font-size="28px" fill="#1e1e1e" text-anchor="start" style="white-space: pre;" direction="ltr" dominant-baseline="alphabetic">q:= l</text></g><g transform="translate(30 419) rotate(0 3.6820144653320312 17.5)"><text x="3.6820144653320312" y="24.528" font-family="Virgil, Segoe UI Emoji" font-size="28px" fill="#1e1e1e" text-anchor="middle" style="white-space: pre;" direction="ltr" dominant-baseline="alphabetic">l</text></g><g stroke-linecap="round"><g transform="translate(46.68201446533203 433) rotate(0 31 0.5)"><path d="M-0.67 -0.81 C9.62 -0.79, 51.29 -0.65, 61.64 -0.18 M1.18 1.37 C11.28 1.52, 50.64 0.94, 60.5 0.74" stroke="#1e1e1e" stroke-width="1" fill="none"></path></g><g transform="translate(46.68201446533203 433) rotate(0 31 0.5)"><path d="M60.91 2.51 L48.6 6.53 L46.18 -7.28 L60.99 1.59" stroke="none" stroke-width="0" fill="#1e1e1e" fill-rule="evenodd"></path><path d="M60.5 0.74 C55.5 2.14, 51.08 3.75, 47.01 7.31 M60.5 0.74 C55.01 4.06, 49.85 5.49, 47.01 7.31 M47.01 7.31 C47.02 2.96, 45.64 -0.51, 46.8 -5.37 M47.01 7.31 C47.49 4.05, 46.7 1.41, 46.8 -5.37 M46.8 -5.37 C49.82 -5.05, 55.98 -1.52, 60.5 0.74 M46.8 -5.37 C51.21 -3.08, 54.65 -1.21, 60.5 0.74 M60.5 0.74 C60.5 0.74, 60.5 0.74, 60.5 0.74 M60.5 0.74 C60.5 0.74, 60.5 0.74, 60.5 0.74" stroke="#1e1e1e" stroke-width="1" fill="none"></path></g></g><mask></mask><g stroke-linecap="round" transform="translate(112.68201446533203 413) rotate(0 51.5 19.5)"><path d="M9.75 0 C28.18 -0.78, 52.24 -0.79, 93.25 0 M9.75 0 C39.55 -1.31, 70.36 -0.88, 93.25 0 M93.25 0 C99.94 0.12, 102.98 1.3, 103 9.75 M93.25 0 C101.28 -1.77, 101.68 2.19, 103 9.75 M103 9.75 C102.14 16.77, 101.2 24.29, 103 29.25 M103 9.75 C103.03 14.49, 102.23 18.51, 103 29.25 M103 29.25 C103.84 36.68, 98.71 39.98, 93.25 39 M103 29.25 C104.42 37.48, 99.88 36.85, 93.25 39 M93.25 39 C69.38 38.55, 48.4 37.11, 9.75 39 M93.25 39 C76.5 39.82, 60.13 38.55, 9.75 39 M9.75 39 C2.63 37.09, 0.49 36.59, 0 29.25 M9.75 39 C1.19 37.58, -0.98 33.61, 0 29.25 M0 29.25 C0.4 22.07, -1.4 17.5, 0 9.75 M0 29.25 C0.73 24.84, -0.89 20.07, 0 9.75 M0 9.75 C1.18 2.68, 4.91 1.28, 9.75 0 M0 9.75 C-1.74 2.45, 1.81 1.25, 9.75 0" stroke="#1e1e1e" stroke-width="1" fill="none"></path></g><g stroke-linecap="round"><g transform="translate(164.68201446533203 413) rotate(0 0 18.5)"><path d="M-0.28 0.47 C-0.3 6.78, -0.3 31.16, -0.29 37.33 M0.57 0.23 C0.75 6.44, 1 30.46, 0.8 36.54" stroke="#1e1e1e" stroke-width="1" fill="none"></path></g></g><mask></mask><g transform="translate(125.22996520996094 415) rotate(0 11.452049255371094 17.5)"><text x="11.452049255371094" y="24.528" font-family="Virgil, Segoe UI Emoji" font-size="28px" fill="#1e1e1e" text-anchor="middle" style="white-space: pre;" direction="ltr" dominant-baseline="alphabetic">e1</text></g><g stroke-linecap="round"><g transform="translate(186.68201446533203 432) rotate(0 42.5 0)"><path d="M-0.41 1.12 C13.8 0.9, 70.33 -0.42, 84.65 -0.63 M1.57 0.67 C15.65 0.53, 69.61 0.5, 83.51 0.58" stroke="#1e1e1e" stroke-width="1" fill="none"></path></g><g transform="translate(186.68201446533203 432) rotate(0 42.5 0)"><path d="M81.72 -0.66 L69.05 5.03 L70 -5.37 L82.26 1.02" stroke="none" stroke-width="0" fill="#1e1e1e" fill-rule="evenodd"></path><path d="M83.51 0.58 C81.58 1.65, 76.02 4.28, 69.9 6.89 M83.51 0.58 C79.56 1.69, 76.12 3.67, 69.9 6.89 M69.9 6.89 C69.12 3.25, 69.5 0.59, 69.93 -5.79 M69.9 6.89 C69.3 4.75, 70.06 1.47, 69.93 -5.79 M69.93 -5.79 C73.85 -5.09, 77.16 -1.86, 83.51 0.58 M69.93 -5.79 C74.75 -2.65, 79.54 -1.58, 83.51 0.58 M83.51 0.58 C83.51 0.58, 83.51 0.58, 83.51 0.58 M83.51 0.58 C83.51 0.58, 83.51 0.58, 83.51 0.58" stroke="#1e1e1e" stroke-width="1" fill="none"></path></g></g><mask></mask><g stroke-linecap="round" transform="translate(270.30010600220413 413.59931171603034) rotate(0 51.5 19.5)"><path d="M9.75 0 C30.89 1.07, 53.94 0.44, 93.25 0 M9.75 0 C35.94 0.05, 60.24 0.35, 93.25 0 M93.25 0 C101.19 -1.34, 102.11 2.5, 103 9.75 M93.25 0 C99.47 -1.97, 103.03 1.92, 103 9.75 M103 9.75 C103.22 12.57, 101.82 18.52, 103 29.25 M103 9.75 C103.5 17.24, 102.95 22.35, 103 29.25 M103 29.25 C102.28 37.41, 98.2 37.16, 93.25 39 M103 29.25 C103.23 34.84, 98.32 36.77, 93.25 39 M93.25 39 C74.84 40.76, 52.12 38.55, 9.75 39 M93.25 39 C75.27 38.73, 58.66 38.42, 9.75 39 M9.75 39 C3.32 39.42, -1.25 36.2, 0 29.25 M9.75 39 C1.76 37.39, 0.11 34.62, 0 29.25 M0 29.25 C0.8 21.26, 1.02 17.81, 0 9.75 M0 29.25 C-0.9 23.61, -0.77 19.18, 0 9.75 M0 9.75 C0.65 2.72, 1.52 0.71, 9.75 0 M0 9.75 C0.51 1.76, 2.7 -1, 9.75 0" stroke="#1e1e1e" stroke-width="1" fill="none"></path></g><g stroke-linecap="round"><g transform="translate(322.30010600220413 413.59931171603034) rotate(0 0 18.5)"><path d="M0.23 -0.05 C0.26 6.17, 0.09 30.95, 0.05 37.03 M-0.32 -0.56 C-0.34 5.78, -0.35 31.52, -0.35 37.75" stroke="#1e1e1e" stroke-width="1" fill="none"></path></g></g><mask></mask><g transform="translate(281.6740302575752 413.59931171603034) rotate(0 17.626075744628906 17.5)"><text x="17.626075744628906" y="24.528" font-family="Virgil, Segoe UI Emoji" font-size="28px" fill="#1e1e1e" text-anchor="middle" style="white-space: pre;" direction="ltr" dominant-baseline="alphabetic">e2</text></g><g stroke-linecap="round"><g transform="translate(344.30010600220413 432.59931171603034) rotate(0 42.49999999999997 0)"><path d="M-0.01 -1.17 C14.27 -1.33, 71.74 -1.02, 85.8 -0.92 M-1.48 0.83 C12.7 0.78, 71.16 0.19, 85.27 0.13" stroke="#1e1e1e" stroke-width="1" fill="none"></path></g><g transform="translate(344.30010600220413 432.59931171603034) rotate(0 42.49999999999997 0)"><path d="M83.97 -1.27 L71.81 5.59 L72.08 -4.35 L86.85 1.13" stroke="none" stroke-width="0" fill="#1e1e1e" fill-rule="evenodd"></path><path d="M85.27 0.13 C79.62 3.12, 75.73 3.25, 71.72 6.57 M85.27 0.13 C81.54 1.4, 78.34 2.67, 71.72 6.57 M71.72 6.57 C72.91 3.04, 71.76 -1.81, 71.62 -6.1 M71.72 6.57 C71.31 3.97, 72.01 1.21, 71.62 -6.1 M71.62 -6.1 C76.98 -5.31, 78.52 -2.09, 85.27 0.13 M71.62 -6.1 C74.7 -4.4, 78.84 -2.06, 85.27 0.13 M85.27 0.13 C85.27 0.13, 85.27 0.13, 85.27 0.13 M85.27 0.13 C85.27 0.13, 85.27 0.13, 85.27 0.13" stroke="#1e1e1e" stroke-width="1" fill="none"></path></g></g><mask></mask><g transform="translate(442.17391204833984 410) rotate(0 25.508102416992188 17.5)"><text x="25.508102416992188" y="24.528" font-family="Virgil, Segoe UI Emoji" font-size="28px" fill="#1e1e1e" text-anchor="middle" style="white-space: pre;" direction="ltr" dominant-baseline="alphabetic">. . .</text></g><g transform="translate(26.779983520507812 496.23859764640224) rotate(0 6.902030944824219 17.5)"><text x="6.902030944824219" y="24.528" font-family="Virgil, Segoe UI Emoji" font-size="28px" fill="#1e1e1e" text-anchor="middle" style="white-space: pre;" direction="ltr" dominant-baseline="alphabetic">p</text></g><g stroke-linecap="round"><g transform="translate(49.902030944824276 510.2817636275272) rotate(0 29.389991760253935 0.4764139464325581)"><path d="M-0.87 -1.1 C8.81 -0.89, 48.53 0.81, 58.54 1.06 M0.87 0.93 C10.33 1.37, 47.83 2.57, 57.46 2.66" stroke="#1e1e1e" stroke-width="1" fill="none"></path></g><g transform="translate(49.902030944824276 510.2817636275272) rotate(0 29.389991760253935 0.4764139464325581)"><path d="M55.93 1.68 L45.42 6.92 L44.13 -4.07 L57.91 1.84" stroke="none" stroke-width="0" fill="#1e1e1e" fill-rule="evenodd"></path><path d="M57.46 2.66 C51.45 4.29, 48.35 7.14, 43.73 8.69 M57.46 2.66 C53.73 3.76, 50.63 5.06, 43.73 8.69 M43.73 8.69 C43.52 4.92, 43.67 0.18, 44.01 -3.98 M43.73 8.69 C43.26 4.93, 43.95 2.2, 44.01 -3.98 M44.01 -3.98 C47.04 -2.75, 50.57 -0.69, 57.46 2.66 M44.01 -3.98 C47.04 -1.76, 49.86 -0.23, 57.46 2.66 M57.46 2.66 C57.46 2.66, 57.46 2.66, 57.46 2.66 M57.46 2.66 C57.46 2.66, 57.46 2.66, 57.46 2.66" stroke="#1e1e1e" stroke-width="1" fill="none"></path></g></g><mask></mask><g stroke-linecap="round" transform="translate(112.68201446533203 490.23859764640224) rotate(0 51.5 19.5)"><path d="M9.75 0 C28.91 0.86, 46.82 -1.09, 93.25 0 M9.75 0 C37.73 -0.44, 65.12 -0.41, 93.25 0 M93.25 0 C99.25 -0.66, 103.23 2.69, 103 9.75 M93.25 0 C98.52 -0.69, 102.95 3.01, 103 9.75 M103 9.75 C103.96 12.31, 101.54 18.43, 103 29.25 M103 9.75 C103.25 15.21, 103.2 22.05, 103 29.25 M103 29.25 C102.34 37.47, 97.95 40.54, 93.25 39 M103 29.25 C102.93 33.91, 99.99 39.43, 93.25 39 M93.25 39 C66.66 38.02, 41.64 37.67, 9.75 39 M93.25 39 C67.12 37.89, 43.38 37.49, 9.75 39 M9.75 39 C3.36 38.92, 0.45 34.93, 0 29.25 M9.75 39 C3.55 39.67, 0.91 33.9, 0 29.25 M0 29.25 C-0.09 20.7, 2.04 14.5, 0 9.75 M0 29.25 C-0.92 22.89, 0.17 17.12, 0 9.75 M0 9.75 C-1.5 4.98, 4.56 1.05, 9.75 0 M0 9.75 C-0.8 2.2, 2.82 1.13, 9.75 0" stroke="#1e1e1e" stroke-width="1" fill="none"></path></g><g stroke-linecap="round"><g transform="translate(164.68201446533203 490.23859764640224) rotate(0 0 18.5)"><path d="M0.19 -0.24 C0.15 5.95, -0.29 31.02, -0.35 37.17 M-0.38 0.83 C-0.23 6.84, 0.74 30.25, 0.71 36.29" stroke="#1e1e1e" stroke-width="1" fill="none"></path></g></g><mask></mask><g transform="translate(129.02397918701172 492.23859764640224) rotate(0 7.6580352783203125 17.5)"><text x="7.6580352783203125" y="24.528" font-family="Virgil, Segoe UI Emoji" font-size="28px" fill="#1e1e1e" text-anchor="middle" style="white-space: pre;" direction="ltr" dominant-baseline="alphabetic">e</text></g><g transform="translate(50 630) rotate(0 156.81222534179688 52.5)"><text x="0" y="24.528" font-family="Virgil, Segoe UI Emoji" font-size="28px" fill="#1e1e1e" text-anchor="start" style="white-space: pre;" direction="ltr" dominant-baseline="alphabetic">while(q-&gt;next ≠ null) do</text><text x="0" y="59.528" font-family="Virgil, Segoe UI Emoji" font-size="28px" fill="#1e1e1e" text-anchor="start" style="white-space: pre;" direction="ltr" dominant-baseline="alphabetic">    q:= q-&gt;next</text><text x="0" y="94.52799999999999" font-family="Virgil, Segoe UI Emoji" font-size="28px" fill="#1e1e1e" text-anchor="start" style="white-space: pre;" direction="ltr" dominant-baseline="alphabetic">od</text></g><g transform="translate(29.25799560546875 350) rotate(0 7.644035339355469 17.5)"><text x="7.644035339355469" y="24.528" font-family="Virgil, Segoe UI Emoji" font-size="28px" fill="#1e1e1e" text-anchor="middle" style="white-space: pre;" direction="ltr" dominant-baseline="alphabetic">q</text></g><g stroke-linecap="round"><g transform="translate(50 370) rotate(0 30.426627314411334 20.853254628822754)"><path d="M0.33 0.13 C6.91 0.2, 29.75 -6.03, 39.86 0.9 C49.97 7.83, 57.48 35.09, 61 41.71 M-0.96 -0.85 C5.41 -1.14, 28.63 -8.06, 38.84 -0.75 C49.05 6.57, 56.57 36.04, 60.31 43.03" stroke="#1e1e1e" stroke-width="1" fill="none"></path></g><g transform="translate(50 370) rotate(0 30.426627314411334 20.853254628822754)"><path d="M61.57 43.87 L49.93 34.39 L62.45 27.54 L60.79 41.03" stroke="none" stroke-width="0" fill="#1e1e1e" fill-rule="evenodd"></path><path d="M60.31 43.03 C56.81 39.43, 54.17 36.34, 49.45 32.67 M60.31 43.03 C57.38 39.72, 53.65 37.39, 49.45 32.67 M49.45 32.67 C52.13 31.19, 56.88 30.78, 61.26 28.06 M49.45 32.67 C52.4 31.83, 54.66 29.88, 61.26 28.06 M61.26 28.06 C61.15 31.76, 60.23 35.2, 60.31 43.03 M61.26 28.06 C61.53 34.24, 61.08 38.85, 60.31 43.03 M60.31 43.03 C60.31 43.03, 60.31 43.03, 60.31 43.03 M60.31 43.03 C60.31 43.03, 60.31 43.03, 60.31 43.03" stroke="#1e1e1e" stroke-width="1" fill="none"></path></g></g><mask></mask><g stroke-linecap="round" transform="translate(10 350) rotate(0 250 120)"><path d="M32 0 C163.01 1.66, 296.28 2.8, 468 0 M32 0 C142.28 1.62, 253.26 1.94, 468 0 M468 0 C487.86 -1.66, 501.08 10.24, 500 32 M468 0 C489.46 2.18, 499.68 11.76, 500 32 M500 32 C500.22 69.27, 497.74 109.8, 500 208 M500 32 C499.6 88.95, 501.46 145.74, 500 208 M500 208 C501.98 231.06, 491.17 241.87, 468 240 M500 208 C500.1 231.13, 489.41 238.87, 468 240 M468 240 C328.3 240.43, 186.41 240.09, 32 240 M468 240 C343.54 238.1, 219.6 238.91, 32 240 M32 240 C8.76 239.7, 0.19 228.32, 0 208 M32 240 C10.19 239.87, -0.98 229.18, 0 208 M0 208 C-2.85 155.63, -1.3 103.4, 0 32 M0 208 C-1.65 146.65, -1.98 85.06, 0 32 M0 32 C-0.83 9.14, 9.18 0.59, 32 0 M0 32 C0.57 10.16, 12.77 -1.41, 32 0" stroke="#1e1e1e" stroke-width="1" fill="none"></path></g><g transform="translate(50 1250) rotate(0 76.09033203125 17.5)"><text x="0" y="24.528" font-family="Virgil, Segoe UI Emoji" font-size="28px" fill="#1e1e1e" text-anchor="start" style="white-space: pre;" direction="ltr" dominant-baseline="alphabetic">q-&gt;next:= p</text></g><g transform="translate(30 819) rotate(0 3.6820144653320312 17.5)"><text x="3.6820144653320312" y="24.528" font-family="Virgil, Segoe UI Emoji" font-size="28px" fill="#1e1e1e" text-anchor="middle" style="white-space: pre;" direction="ltr" dominant-baseline="alphabetic">l</text></g><g stroke-linecap="round"><g transform="translate(46.68201446533203 833) rotate(0 31 0.5)"><path d="M-0.18 -0.78 C9.99 -0.86, 51.08 0.06, 61.28 0.19 M-1.74 1.43 C8.8 1.42, 52.76 1.4, 63.62 1.3" stroke="#1e1e1e" stroke-width="1" fill="none"></path></g><g transform="translate(46.68201446533203 833) rotate(0 31 0.5)"><path d="M62.54 0.35 L50.26 5.75 L51.36 -5.04 L63.28 2.37" stroke="none" stroke-width="0" fill="#1e1e1e" fill-rule="evenodd"></path><path d="M63.62 1.3 C58.3 2.45, 53.88 4.21, 50.05 7.7 M63.62 1.3 C61.41 1.87, 58.45 4.25, 50.05 7.7 M50.05 7.7 C50.76 5.38, 51.35 2.43, 50 -4.98 M50.05 7.7 C50.44 4.15, 50.32 0.95, 50 -4.98 M50 -4.98 C53.87 -4.47, 58.31 -1.71, 63.62 1.3 M50 -4.98 C53.25 -3.53, 57.58 -1.24, 63.62 1.3 M63.62 1.3 C63.62 1.3, 63.62 1.3, 63.62 1.3 M63.62 1.3 C63.62 1.3, 63.62 1.3, 63.62 1.3" stroke="#1e1e1e" stroke-width="1" fill="none"></path></g></g><mask></mask><g stroke-linecap="round" transform="translate(112.68201446533203 813) rotate(0 51.5 19.5)"><path d="M9.75 0 C32.19 -1.1, 55.69 1.52, 93.25 0 M9.75 0 C30.21 1.16, 47.82 0.26, 93.25 0 M93.25 0 C100.64 1.03, 103.47 5.22, 103 9.75 M93.25 0 C99.69 -1.1, 105.29 1.35, 103 9.75 M103 9.75 C101.8 16.55, 102.62 25.45, 103 29.25 M103 9.75 C102.86 15.76, 102.75 21.78, 103 29.25 M103 29.25 C101.58 34.8, 99.77 39.5, 93.25 39 M103 29.25 C104.68 37.31, 98.37 39.32, 93.25 39 M93.25 39 C61 39.32, 32.59 38.33, 9.75 39 M93.25 39 C65.33 38.13, 38.6 37.64, 9.75 39 M9.75 39 C4.61 38.94, -0.34 36.82, 0 29.25 M9.75 39 C4.47 37.26, -1.18 35.86, 0 29.25 M0 29.25 C0.89 25.51, -1.9 18.74, 0 9.75 M0 29.25 C-0.08 22.59, -0.1 13.65, 0 9.75 M0 9.75 C-1.77 3.47, 3.71 1.66, 9.75 0 M0 9.75 C1.51 2.6, 1.02 1.58, 9.75 0" stroke="#1e1e1e" stroke-width="1" fill="none"></path></g><g stroke-linecap="round"><g transform="translate(164.68201446533203 813) rotate(0 0 18.5)"><path d="M-0.44 -0.45 C-0.34 5.72, 0.12 30.48, 0.28 36.63 M0.33 0.51 C0.42 6.77, -0.03 31.1, -0.01 37.15" stroke="#1e1e1e" stroke-width="1" fill="none"></path></g></g><mask></mask><g transform="translate(125.22996520996094 815) rotate(0 11.452049255371094 17.5)"><text x="11.452049255371094" y="24.528" font-family="Virgil, Segoe UI Emoji" font-size="28px" fill="#1e1e1e" text-anchor="middle" style="white-space: pre;" direction="ltr" dominant-baseline="alphabetic">e1</text></g><g stroke-linecap="round"><g transform="translate(186.68201446533203 832) rotate(0 42.5 0)"><path d="M1.15 -1.19 C15.41 -0.99, 72.36 0.32, 86.15 0.4 M0.3 0.8 C14.44 0.7, 71.49 -1.42, 85.8 -1.51" stroke="#1e1e1e" stroke-width="1" fill="none"></path></g><g transform="translate(186.68201446533203 832) rotate(0 42.5 0)"><path d="M86.86 -3.02 L71.33 5.25 L71.19 -6.66 L84.13 -0.51" stroke="none" stroke-width="0" fill="#1e1e1e" fill-rule="evenodd"></path><path d="M85.8 -1.51 C79.56 2.39, 76.83 1.89, 72.36 5.15 M85.8 -1.51 C82.74 0.92, 79.27 1.44, 72.36 5.15 M72.36 5.15 C71.65 0.93, 71.51 -5.43, 72.06 -7.53 M72.36 5.15 C71.76 2, 72.14 -2.24, 72.06 -7.53 M72.06 -7.53 C75.29 -5.67, 80.35 -2.85, 85.8 -1.51 M72.06 -7.53 C77.55 -5.74, 82.24 -3.83, 85.8 -1.51 M85.8 -1.51 C85.8 -1.51, 85.8 -1.51, 85.8 -1.51 M85.8 -1.51 C85.8 -1.51, 85.8 -1.51, 85.8 -1.51" stroke="#1e1e1e" stroke-width="1" fill="none"></path></g></g><mask></mask><g stroke-linecap="round" transform="translate(270.30010600220413 813.5993117160303) rotate(0 51.5 19.5)"><path d="M9.75 0 C43.49 -2.67, 74.75 0.09, 93.25 0 M9.75 0 C39.08 -1.3, 69.45 -1.65, 93.25 0 M93.25 0 C101.44 -1.09, 104.34 2.13, 103 9.75 M93.25 0 C98.93 -0.32, 103.84 3.69, 103 9.75 M103 9.75 C102.72 13.95, 102.32 17.19, 103 29.25 M103 9.75 C103.72 15.33, 102.42 19.73, 103 29.25 M103 29.25 C104.27 34.67, 100.03 37.12, 93.25 39 M103 29.25 C103.24 35.84, 98.84 39.64, 93.25 39 M93.25 39 C67.02 38.76, 40.74 39.91, 9.75 39 M93.25 39 C68.99 38.69, 43.16 39.5, 9.75 39 M9.75 39 C2.38 39.87, -1.67 36.75, 0 29.25 M9.75 39 C4.75 36.86, -0.59 37.53, 0 29.25 M0 29.25 C1.36 23.29, -1.78 16.07, 0 9.75 M0 29.25 C0.6 22.9, -0.99 17.78, 0 9.75 M0 9.75 C1.19 3.7, 2.5 -1.07, 9.75 0 M0 9.75 C1.84 1.62, 2.45 0.98, 9.75 0" stroke="#1e1e1e" stroke-width="1" fill="none"></path></g><g stroke-linecap="round"><g transform="translate(322.30010600220413 813.5993117160303) rotate(0 0 18.5)"><path d="M-0.51 -0.31 C-0.56 5.87, 0.14 30.97, 0.24 37.28 M0.22 0.72 C0.08 6.72, 0 30.46, -0.06 36.46" stroke="#1e1e1e" stroke-width="1" fill="none"></path></g></g><mask></mask><g transform="translate(281.6740302575752 813.5993117160303) rotate(0 17.626075744628906 17.5)"><text x="17.626075744628906" y="24.528" font-family="Virgil, Segoe UI Emoji" font-size="28px" fill="#1e1e1e" text-anchor="middle" style="white-space: pre;" direction="ltr" dominant-baseline="alphabetic">e2</text></g><g stroke-linecap="round"><g transform="translate(344.30010600220413 832.5993117160303) rotate(0 42.49999999999997 0)"><path d="M0.28 1.18 C14.36 0.98, 70.65 -0.21, 84.97 -0.57 M-1.03 0.76 C12.84 0.66, 69.49 0.82, 84.01 0.66" stroke="#1e1e1e" stroke-width="1" fill="none"></path></g><g transform="translate(344.30010600220413 832.5993117160303) rotate(0 42.49999999999997 0)"><path d="M85.31 -1.2 L69.92 8.59 L70.27 -5.34 L83.81 2.09" stroke="none" stroke-width="0" fill="#1e1e1e" fill-rule="evenodd"></path><path d="M84.01 0.66 C80.84 2.86, 73.97 6.59, 70.43 7.05 M84.01 0.66 C81.61 1.55, 77.89 3.26, 70.43 7.05 M70.43 7.05 C71.34 2.78, 70.1 -1.63, 70.39 -5.63 M70.43 7.05 C70.52 3.94, 70.97 0.95, 70.39 -5.63 M70.39 -5.63 C72.86 -4, 75.53 -2.54, 84.01 0.66 M70.39 -5.63 C74.52 -4.11, 78.23 -2.2, 84.01 0.66 M84.01 0.66 C84.01 0.66, 84.01 0.66, 84.01 0.66 M84.01 0.66 C84.01 0.66, 84.01 0.66, 84.01 0.66" stroke="#1e1e1e" stroke-width="1" fill="none"></path></g></g><mask></mask><g transform="translate(442.17391204833984 810) rotate(0 25.508102416992188 17.5)"><text x="25.508102416992188" y="24.528" font-family="Virgil, Segoe UI Emoji" font-size="28px" fill="#1e1e1e" text-anchor="middle" style="white-space: pre;" direction="ltr" dominant-baseline="alphabetic">. . .</text></g><g transform="translate(29.25799560546875 750) rotate(0 7.644035339355469 17.5)"><text x="7.644035339355469" y="24.528" font-family="Virgil, Segoe UI Emoji" font-size="28px" fill="#1e1e1e" text-anchor="middle" style="white-space: pre;" direction="ltr" dominant-baseline="alphabetic">q</text></g><g stroke-linecap="round"><g transform="translate(50 770) rotate(0 111.18324590127077 21.621445488110112)"><path d="M0 -0.26 C30.13 -0.5, 142.95 -7.67, 179.87 -0.51 C216.79 6.64, 214.43 35.33, 221.51 42.67 M-1.45 -1.44 C28.58 -1.6, 141.28 -6.76, 178.85 0.76 C216.42 8.28, 216.66 36.35, 223.96 43.69" stroke="#1e1e1e" stroke-width="1" fill="none"></path></g><g transform="translate(50 770) rotate(0 111.18324590127077 21.621445488110112)"><path d="M222.02 45.06 L213.2 35.08 L222.46 27.64 L225.56 42.28" stroke="none" stroke-width="0" fill="#1e1e1e" fill-rule="evenodd"></path><path d="M223.96 43.69 C220.86 41.48, 217.84 38.52, 212 34.63 M223.96 43.69 C221.49 41.94, 217.47 39.25, 212 34.63 M212 34.63 C214.92 32.59, 220.24 29.81, 223.21 28.71 M212 34.63 C215.34 32.44, 219.42 30.18, 223.21 28.71 M223.21 28.71 C224.29 35.02, 222.62 38.97, 223.96 43.69 M223.21 28.71 C222.75 33.65, 224.09 37.14, 223.96 43.69 M223.96 43.69 C223.96 43.69, 223.96 43.69, 223.96 43.69 M223.96 43.69 C223.96 43.69, 223.96 43.69, 223.96 43.69" stroke="#1e1e1e" stroke-width="1" fill="none"></path></g></g><mask></mask><g stroke-linecap="round" transform="translate(10 750) rotate(0 270 120)"><path d="M32 0 C174.54 -0.4, 317.41 0.24, 508 0 M32 0 C186.44 -1.36, 341.68 -1.66, 508 0 M508 0 C529.61 -1.88, 540.2 10.74, 540 32 M508 0 C528.42 0.64, 540.06 9.6, 540 32 M540 32 C537.21 76.68, 539.1 118.3, 540 208 M540 32 C540.42 94.27, 540.5 156.87, 540 208 M540 208 C538.33 230.33, 530.63 238.14, 508 240 M540 208 C539.41 231.11, 529.19 240.33, 508 240 M508 240 C369.12 238.97, 231.92 239.95, 32 240 M508 240 C325.17 239.71, 143.45 239.5, 32 240 M32 240 C9.91 238.93, 1.6 227.92, 0 208 M32 240 C9.86 240.98, -0.15 230.54, 0 208 M0 208 C0.48 154.44, -0.14 99.9, 0 32 M0 208 C0.15 160.5, -1.04 112.88, 0 32 M0 32 C1.79 9.84, 9.62 -0.89, 32 0 M0 32 C1.17 10.88, 8.76 -1.57, 32 0" stroke="#1e1e1e" stroke-width="1" fill="none"></path></g><g stroke-linecap="round"><g transform="translate(150 770) rotate(0 140 20)"><path d="M-0.45 0.54 C39.66 0.65, 193.84 -5.94, 240.76 0.7 C287.68 7.33, 274.36 33.73, 281.05 40.36 M1.52 -0.22 C41.52 -0.46, 193.66 -7.46, 240.21 -1.06 C286.77 5.34, 273.93 31.07, 280.84 38.21" stroke="#868e96" stroke-width="1" fill="none"></path></g><g transform="translate(150 770) rotate(0 140 20)"><path d="M279.18 40.15 L269.34 28.82 L283.25 25.03 L281.07 36.3" stroke="none" stroke-width="0" fill="#868e96" fill-rule="evenodd"></path><path d="M280.84 38.21 C278.42 35.59, 275.53 32.42, 270.96 26.92 M280.84 38.21 C277.12 34.45, 274.35 31.26, 270.96 26.92 M270.96 26.92 C274 25, 278.82 24.88, 283.14 23.39 M270.96 26.92 C274.91 25.2, 279.76 24.9, 283.14 23.39 M283.14 23.39 C282.12 27.04, 281.82 33.47, 280.84 38.21 M283.14 23.39 C282.69 29.74, 280.88 34.26, 280.84 38.21 M280.84 38.21 C280.84 38.21, 280.84 38.21, 280.84 38.21 M280.84 38.21 C280.84 38.21, 280.84 38.21, 280.84 38.21" stroke="#868e96" stroke-width="1" fill="none"></path></g></g><mask></mask><g transform="translate(450 770) rotate(0 45.760093688964844 20)"><text x="0" y="14.016" font-family="Virgil, Segoe UI Emoji" font-size="16px" fill="#868e96" text-anchor="start" style="white-space: pre;" direction="ltr" dominant-baseline="alphabetic">hasta que</text><text x="0" y="34.016" font-family="Virgil, Segoe UI Emoji" font-size="16px" fill="#868e96" text-anchor="start" style="white-space: pre;" direction="ltr" dominant-baseline="alphabetic">l-&gt;next:=null</text></g><g transform="translate(30 1079) rotate(0 3.6820144653320312 17.5)"><text x="3.6820144653320312" y="24.528" font-family="Virgil, Segoe UI Emoji" font-size="28px" fill="#1e1e1e" text-anchor="middle" style="white-space: pre;" direction="ltr" dominant-baseline="alphabetic">l</text></g><g stroke-linecap="round"><g transform="translate(46.68201446533203 1093) rotate(0 31 0.5)"><path d="M-0.06 -0.09 C10.03 -0.02, 51.18 0.43, 61.4 0.59 M-1.55 -1.19 C8.86 -0.97, 52.91 1.36, 63.79 1.91" stroke="#1e1e1e" stroke-width="1" fill="none"></path></g><g transform="translate(46.68201446533203 1093) rotate(0 31 0.5)"><path d="M64.41 3.38 L50.91 9.07 L51.84 -5.71 L62.69 0.34" stroke="none" stroke-width="0" fill="#1e1e1e" fill-rule="evenodd"></path><path d="M63.79 1.91 C58.49 3.26, 52.91 5.19, 49.89 7.55 M63.79 1.91 C59.54 4.25, 55.6 4.46, 49.89 7.55 M49.89 7.55 C50.44 5.35, 51.43 1.13, 50.54 -5.12 M49.89 7.55 C50.32 2.9, 50.35 -2.62, 50.54 -5.12 M50.54 -5.12 C54.9 -1.62, 60.15 1.04, 63.79 1.91 M50.54 -5.12 C54.7 -2.82, 60.18 -0.31, 63.79 1.91 M63.79 1.91 C63.79 1.91, 63.79 1.91, 63.79 1.91 M63.79 1.91 C63.79 1.91, 63.79 1.91, 63.79 1.91" stroke="#1e1e1e" stroke-width="1" fill="none"></path></g></g><mask></mask><g stroke-linecap="round" transform="translate(112.68201446533203 1073) rotate(0 51.5 19.5)"><path d="M9.75 0 C33.7 -0.81, 58.82 0.89, 93.25 0 M9.75 0 C32.58 -1.74, 55.28 -1.41, 93.25 0 M93.25 0 C99.56 0.49, 104.56 5.05, 103 9.75 M93.25 0 C99.66 1.85, 102.38 2.35, 103 9.75 M103 9.75 C101.4 17.61, 101.32 20.62, 103 29.25 M103 9.75 C103.55 15.27, 103.03 19.44, 103 29.25 M103 29.25 C101.85 35.21, 100.97 38.67, 93.25 39 M103 29.25 C104.57 37.63, 99.18 41.04, 93.25 39 M93.25 39 C76.25 37.43, 54.33 37.23, 9.75 39 M93.25 39 C75.37 39.79, 57.38 39.81, 9.75 39 M9.75 39 C4.55 38.41, -1.1 34.18, 0 29.25 M9.75 39 C2.36 39.29, 0.54 37.04, 0 29.25 M0 29.25 C0.98 23.54, -1.22 16.36, 0 9.75 M0 29.25 C-0.75 24.03, 0.19 17.97, 0 9.75 M0 9.75 C-1.56 4.61, 4.12 0.62, 9.75 0 M0 9.75 C-2.03 4.51, 2.1 -0.57, 9.75 0" stroke="#1e1e1e" stroke-width="1" fill="none"></path></g><g stroke-linecap="round"><g transform="translate(164.68201446533203 1073) rotate(0 0 18.5)"><path d="M-0.34 -0.05 C-0.27 6.12, 0.1 30.6, 0.13 36.87 M0.49 -0.56 C0.52 5.72, -0.05 31.28, -0.23 37.5" stroke="#1e1e1e" stroke-width="1" fill="none"></path></g></g><mask></mask><g transform="translate(125.22996520996094 1075) rotate(0 11.452049255371094 17.5)"><text x="11.452049255371094" y="24.528" font-family="Virgil, Segoe UI Emoji" font-size="28px" fill="#1e1e1e" text-anchor="middle" style="white-space: pre;" direction="ltr" dominant-baseline="alphabetic">e1</text></g><g stroke-linecap="round"><g transform="translate(186.68201446533203 1092) rotate(0 42.5 0)"><path d="M-0.37 1.18 C13.71 1.04, 70.65 -0.79, 84.78 -1.1 M1.64 0.75 C15.52 0.75, 70.1 -0.06, 83.72 -0.14" stroke="#1e1e1e" stroke-width="1" fill="none"></path></g><g transform="translate(186.68201446533203 1092) rotate(0 42.5 0)"><path d="M82.94 0.11 L70.67 7.46 L70.49 -8.33 L85.05 0.66" stroke="none" stroke-width="0" fill="#1e1e1e" fill-rule="evenodd"></path><path d="M83.72 -0.14 C80.8 1.64, 73.57 3.28, 70.2 6.34 M83.72 -0.14 C81.04 2.13, 77.17 3.62, 70.2 6.34 M70.2 6.34 C70.55 2.75, 69.1 0.42, 70.06 -6.33 M70.2 6.34 C70.58 3.5, 70.55 1.28, 70.06 -6.33 M70.06 -6.33 C73.63 -3.52, 77.8 -1.6, 83.72 -0.14 M70.06 -6.33 C74.7 -4.39, 80.01 -1.02, 83.72 -0.14 M83.72 -0.14 C83.72 -0.14, 83.72 -0.14, 83.72 -0.14 M83.72 -0.14 C83.72 -0.14, 83.72 -0.14, 83.72 -0.14" stroke="#1e1e1e" stroke-width="1" fill="none"></path></g></g><mask></mask><g stroke-linecap="round" transform="translate(270.30010600220413 1073.5993117160303) rotate(0 51.5 19.5)"><path d="M9.75 0 C30.4 -0.82, 53.54 -0.04, 93.25 0 M9.75 0 C36.81 0.05, 63.68 -1.14, 93.25 0 M93.25 0 C100.23 0.54, 102.79 1.56, 103 9.75 M93.25 0 C101.57 -2.04, 100.93 2.33, 103 9.75 M103 9.75 C103.86 16.4, 102.06 22.18, 103 29.25 M103 9.75 C103.79 15.87, 102.88 21.26, 103 29.25 M103 29.25 C101.52 34.95, 98.54 40.88, 93.25 39 M103 29.25 C101.78 34.42, 98.3 37.11, 93.25 39 M93.25 39 C70.36 40.28, 46.05 40.56, 9.75 39 M93.25 39 C70.29 38.47, 48.33 38.9, 9.75 39 M9.75 39 C3.69 37, 1.33 36.55, 0 29.25 M9.75 39 C3.91 37.34, -0.4 35.27, 0 29.25 M0 29.25 C0.28 24.66, -0.95 18.21, 0 9.75 M0 29.25 C-0.95 22.61, -0.57 14.66, 0 9.75 M0 9.75 C-1.82 4.65, 3.4 -0.71, 9.75 0 M0 9.75 C-0.65 4.29, 2.72 -0.8, 9.75 0" stroke="#1e1e1e" stroke-width="1" fill="none"></path></g><g stroke-linecap="round"><g transform="translate(322.30010600220413 1073.5993117160303) rotate(0 0 18.5)"><path d="M-0.27 -0.32 C-0.26 5.95, -0.17 30.83, -0.05 37.13 M0.6 0.7 C0.54 6.84, -0.46 30.24, -0.51 36.24" stroke="#1e1e1e" stroke-width="1" fill="none"></path></g></g><mask></mask><g transform="translate(281.6740302575752 1073.5993117160303) rotate(0 17.626075744628906 17.5)"><text x="17.626075744628906" y="24.528" font-family="Virgil, Segoe UI Emoji" font-size="28px" fill="#1e1e1e" text-anchor="middle" style="white-space: pre;" direction="ltr" dominant-baseline="alphabetic">e2</text></g><g stroke-linecap="round"><g transform="translate(344.30010600220413 1092.5993117160303) rotate(0 42.49999999999997 0)"><path d="M0.94 1.08 C15.11 1.19, 71 1.22, 84.95 0.97 M-0.03 0.6 C13.99 0.36, 70.02 -0.65, 83.98 -0.65" stroke="#1e1e1e" stroke-width="1" fill="none"></path></g><g transform="translate(344.30010600220413 1092.5993117160303) rotate(0 42.49999999999997 0)"><path d="M84.56 -2.1 L70.11 5.41 L69.2 -5.13 L82.22 -0.19" stroke="none" stroke-width="0" fill="#1e1e1e" fill-rule="evenodd"></path><path d="M83.98 -0.65 C81.41 1.28, 77.34 2.82, 70.45 5.83 M83.98 -0.65 C80.39 0.44, 77.53 2.1, 70.45 5.83 M70.45 5.83 C70.15 3.76, 71.04 0.42, 70.32 -6.85 M70.45 5.83 C70.88 2.5, 70.89 -0.11, 70.32 -6.85 M70.32 -6.85 C73.54 -5.95, 79.31 -4.13, 83.98 -0.65 M70.32 -6.85 C73.53 -5.19, 77.13 -3.18, 83.98 -0.65 M83.98 -0.65 C83.98 -0.65, 83.98 -0.65, 83.98 -0.65 M83.98 -0.65 C83.98 -0.65, 83.98 -0.65, 83.98 -0.65" stroke="#1e1e1e" stroke-width="1" fill="none"></path></g></g><mask></mask><g transform="translate(442.17391204833984 1070) rotate(0 25.508102416992188 17.5)"><text x="25.508102416992188" y="24.528" font-family="Virgil, Segoe UI Emoji" font-size="28px" fill="#1e1e1e" text-anchor="middle" style="white-space: pre;" direction="ltr" dominant-baseline="alphabetic">. . .</text></g><g transform="translate(30 1010) rotate(0 7.644035339355469 17.5)"><text x="7.644035339355469" y="24.528" font-family="Virgil, Segoe UI Emoji" font-size="28px" fill="#1e1e1e" text-anchor="middle" style="white-space: pre;" direction="ltr" dominant-baseline="alphabetic">q</text></g><g stroke-linecap="round"><g transform="translate(70 1030) rotate(0 260 20)"><path d="M0.56 0.56 C70.46 0.52, 333.46 -7.07, 419.92 -0.55 C506.38 5.97, 502.51 32.95, 519.31 39.68 M-0.6 -0.19 C69.08 -0.05, 332.47 -6.13, 418.93 0.71 C505.39 7.54, 501.11 34.14, 518.18 40.82" stroke="#1e1e1e" stroke-width="1" fill="none"></path></g><g transform="translate(70 1030) rotate(0 260 20)"><path d="M517.18 40.33 L501.82 38.52 L511.82 26.6 L517.62 41.73" stroke="none" stroke-width="0" fill="#1e1e1e" fill-rule="evenodd"></path><path d="M518.18 40.82 C513.84 39.51, 507.4 37.46, 503.64 37.13 M518.18 40.82 C514.7 40.4, 510.03 39.45, 503.64 37.13 M503.64 37.13 C506.69 34.29, 506.58 31.94, 511.67 27.31 M503.64 37.13 C505.6 35.45, 507.47 33.33, 511.67 27.31 M511.67 27.31 C512.82 31.7, 516.57 37.57, 518.18 40.82 M511.67 27.31 C514.51 32.49, 516.55 36.46, 518.18 40.82 M518.18 40.82 C518.18 40.82, 518.18 40.82, 518.18 40.82 M518.18 40.82 C518.18 40.82, 518.18 40.82, 518.18 40.82" stroke="#1e1e1e" stroke-width="1" fill="none"></path></g></g><mask></mask><g stroke-linecap="round" transform="translate(10 1010) rotate(0 380 100)"><path d="M32 0 C273.11 -0.28, 514.74 0.67, 728 0 M32 0 C229.07 -1.91, 426.04 -2.43, 728 0 M728 0 C748.12 1.88, 758.94 9.51, 760 32 M728 0 C747.88 -1.89, 759.81 10.81, 760 32 M760 32 C762.52 78.33, 760.41 120.96, 760 168 M760 32 C759.71 62.65, 759.69 91.19, 760 168 M760 168 C761.33 190.14, 749.91 198.55, 728 200 M760 168 C759.6 188.85, 748.05 201.97, 728 200 M728 200 C580.32 199.62, 433.82 200.59, 32 200 M728 200 C497.46 201.42, 266.95 201.8, 32 200 M32 200 C10.82 199.29, -0.56 190.23, 0 168 M32 200 C10.13 199.2, 2.01 190.65, 0 168 M0 168 C0.04 129.31, 0.38 88.55, 0 32 M0 168 C0.01 123.05, -1.08 79.35, 0 32 M0 32 C-0.7 8.75, 12.25 1.15, 32 0 M0 32 C2.19 9.37, 9.34 -0.69, 32 0" stroke="#1e1e1e" stroke-width="1" fill="none"></path></g><g stroke-linecap="round" transform="translate(590 1070.4119627118575) rotate(0 51.5 19.5)"><path d="M9.75 0 C26.6 0.32, 42.63 0.21, 93.25 0 M9.75 0 C38.73 -1.29, 68.87 -0.27, 93.25 0 M93.25 0 C97.95 -0.78, 101.02 4.41, 103 9.75 M93.25 0 C98.38 -0.69, 103.52 4.05, 103 9.75 M103 9.75 C103.19 17.86, 102.29 25.03, 103 29.25 M103 9.75 C102.7 17.59, 103.18 23.55, 103 29.25 M103 29.25 C104.08 36.55, 99.12 37.84, 93.25 39 M103 29.25 C104.8 36.81, 98.24 38.33, 93.25 39 M93.25 39 C71.02 36.42, 51.28 36.88, 9.75 39 M93.25 39 C71.38 37.62, 48.21 39, 9.75 39 M9.75 39 C1.6 40.74, 1.64 36.37, 0 29.25 M9.75 39 C1.01 37.37, 0.09 36.1, 0 29.25 M0 29.25 C1.07 24.23, -0.41 19.63, 0 9.75 M0 29.25 C0.34 23.59, -0.69 20.39, 0 9.75 M0 9.75 C1.91 1.92, 2.48 1.15, 9.75 0 M0 9.75 C0.74 3.94, 3.73 -1.5, 9.75 0" stroke="#1e1e1e" stroke-width="1" fill="none"></path></g><g stroke-linecap="round"><g transform="translate(642 1070.4119627118575) rotate(0 0 18.5)"><path d="M-0.02 -0.41 C0.01 5.82, 0.02 31.01, -0.05 37.31 M-0.7 0.57 C-0.72 6.65, -0.73 30.51, -0.51 36.51" stroke="#1e1e1e" stroke-width="1" fill="none"></path></g></g><mask></mask><g transform="translate(604.8039398193359 1070.4119627118575) rotate(0 14.196060180664062 17.5)"><text x="14.196060180664062" y="24.528" font-family="Virgil, Segoe UI Emoji" font-size="28px" fill="#1e1e1e" text-anchor="middle" style="white-space: pre;" direction="ltr" dominant-baseline="alphabetic">en</text></g><g stroke-linecap="round"><g transform="translate(511.48632208781316 1091.4529423671531) rotate(0 40.97184673807584 -0.7170981547612882)"><path d="M-0.02 1.16 C13.56 0.84, 68.18 -0.54, 81.73 -0.99 M-1.49 0.73 C11.89 -0.05, 67.05 -2.71, 80.67 -2.89" stroke="#1e1e1e" stroke-width="1" fill="none"></path></g><g transform="translate(511.48632208781316 1091.4529423671531) rotate(0 40.97184673807584 -0.7170981547612882)"><path d="M81.09 -3.77 L65.72 2.51 L68.62 -8.79 L80.95 -4.66" stroke="none" stroke-width="0" fill="#1e1e1e" fill-rule="evenodd"></path><path d="M80.67 -2.89 C77.87 -0.97, 72.66 0.66, 67.29 3.91 M80.67 -2.89 C77.5 -1.48, 73.15 1.57, 67.29 3.91 M67.29 3.91 C66.08 0.66, 68.06 -4.86, 66.87 -8.76 M67.29 3.91 C67.85 1.44, 67.26 -2.5, 66.87 -8.76 M66.87 -8.76 C70.74 -6.1, 77.6 -5.31, 80.67 -2.89 M66.87 -8.76 C71.95 -7.17, 75.75 -4.73, 80.67 -2.89 M80.67 -2.89 C80.67 -2.89, 80.67 -2.89, 80.67 -2.89 M80.67 -2.89 C80.67 -2.89, 80.67 -2.89, 80.67 -2.89" stroke="#1e1e1e" stroke-width="1" fill="none"></path></g></g><mask></mask><g stroke-linecap="round"><g transform="translate(671.7403220806643 1091.980785400898) rotate(0 29.129838959667836 18.019214599102042)"><path d="M-0.18 -1.13 C9.27 -1.7, 48.09 -9.11, 57.78 -2.59 C67.47 3.92, 57.85 31.05, 57.96 37.97 M-1.74 0.89 C7.43 0.4, 46.79 -7.77, 56.58 -1.37 C66.38 5.02, 56.67 32.89, 57.04 39.26" stroke="#1e1e1e" stroke-width="1" fill="none"></path></g><g transform="translate(671.7403220806643 1091.980785400898) rotate(0 29.129838959667836 18.019214599102042)"><path d="M55.48 38.34 L54.46 23.03 L65.43 27.78 L58.75 40.4" stroke="none" stroke-width="0" fill="#1e1e1e" fill-rule="evenodd"></path><path d="M57.04 39.26 C53.9 33.09, 52.92 27.75, 52.83 24.86 M57.04 39.26 C55.04 34.94, 54.53 30.41, 52.83 24.86 M52.83 24.86 C55.85 26.12, 60.84 25.21, 65.36 26.78 M52.83 24.86 C57.31 25.48, 61.46 25.7, 65.36 26.78 M65.36 26.78 C62.89 29.51, 60.3 34.53, 57.04 39.26 M65.36 26.78 C63.56 29.17, 61.11 31.91, 57.04 39.26 M57.04 39.26 C57.04 39.26, 57.04 39.26, 57.04 39.26 M57.04 39.26 C57.04 39.26, 57.04 39.26, 57.04 39.26" stroke="#1e1e1e" stroke-width="1" fill="none"></path></g></g><mask></mask><g transform="translate(30 1359) rotate(0 3.6820144653320312 17.5)"><text x="3.6820144653320312" y="24.528" font-family="Virgil, Segoe UI Emoji" font-size="28px" fill="#1e1e1e" text-anchor="middle" style="white-space: pre;" direction="ltr" dominant-baseline="alphabetic">l</text></g><g stroke-linecap="round"><g transform="translate(46.68201446533203 1373) rotate(0 31 0.5)"><path d="M0.13 0.78 C10.53 0.97, 50.97 1.87, 61.39 1.73 M-1.27 0.14 C9.62 -0.06, 53.2 -0.09, 63.78 0" stroke="#1e1e1e" stroke-width="1" fill="none"></path></g><g transform="translate(46.68201446533203 1373) rotate(0 31 0.5)"><path d="M64.96 -0.35 L50.28 6.64 L48.63 -4.83 L64.81 0.63" stroke="none" stroke-width="0" fill="#1e1e1e" fill-rule="evenodd"></path><path d="M63.78 0 C61.85 0.6, 58.87 3.5, 50.17 6.3 M63.78 0 C60.76 1.43, 58.24 2.37, 50.17 6.3 M50.17 6.3 C49.85 2.4, 50.02 -1.84, 50.2 -6.38 M50.17 6.3 C50.56 1.42, 49.78 -2.81, 50.2 -6.38 M50.2 -6.38 C52.85 -3.77, 55.34 -2.73, 63.78 0 M50.2 -6.38 C55.38 -4.24, 60.7 -1.26, 63.78 0 M63.78 0 C63.78 0, 63.78 0, 63.78 0 M63.78 0 C63.78 0, 63.78 0, 63.78 0" stroke="#1e1e1e" stroke-width="1" fill="none"></path></g></g><mask></mask><g stroke-linecap="round" transform="translate(112.68201446533203 1353) rotate(0 51.5 19.5)"><path d="M9.75 0 C36.91 1.46, 59.84 -0.22, 93.25 0 M9.75 0 C40.71 -0.52, 71.06 -0.56, 93.25 0 M93.25 0 C98.65 -0.62, 102.87 2.87, 103 9.75 M93.25 0 C98.8 1.56, 104.1 5.04, 103 9.75 M103 9.75 C103.6 15.32, 104.23 25.3, 103 29.25 M103 9.75 C103.8 15.8, 103.31 21.26, 103 29.25 M103 29.25 C103.54 35.49, 101.21 40.47, 93.25 39 M103 29.25 C100.89 37.07, 101.74 40.78, 93.25 39 M93.25 39 C62.27 38.27, 33.33 41.07, 9.75 39 M93.25 39 C71.84 39.52, 49.3 39.87, 9.75 39 M9.75 39 C1.68 40.55, 1.03 36.38, 0 29.25 M9.75 39 C3.94 40.5, -0.2 33.95, 0 29.25 M0 29.25 C0.16 22.01, 1.67 17.7, 0 9.75 M0 29.25 C0.43 21.72, -0.11 15.22, 0 9.75 M0 9.75 C-1.88 2.91, 4.21 0.1, 9.75 0 M0 9.75 C-0.87 3.7, 5.5 -0.23, 9.75 0" stroke="#1e1e1e" stroke-width="1" fill="none"></path></g><g stroke-linecap="round"><g transform="translate(164.68201446533203 1353) rotate(0 0 18.5)"><path d="M0.28 -0.49 C0.3 5.68, -0.11 31.12, -0.18 37.37 M-0.23 0.45 C-0.28 6.44, -0.66 30.4, -0.7 36.59" stroke="#1e1e1e" stroke-width="1" fill="none"></path></g></g><mask></mask><g transform="translate(125.22996520996094 1355) rotate(0 11.452049255371094 17.5)"><text x="11.452049255371094" y="24.528" font-family="Virgil, Segoe UI Emoji" font-size="28px" fill="#1e1e1e" text-anchor="middle" style="white-space: pre;" direction="ltr" dominant-baseline="alphabetic">e1</text></g><g stroke-linecap="round"><g transform="translate(186.68201446533203 1372) rotate(0 42.5 0)"><path d="M-0.2 0.02 C14.09 -0.22, 71.18 -0.5, 85.38 -0.61 M-1.76 -1.02 C12.44 -1.17, 70.29 0.38, 84.63 0.61" stroke="#1e1e1e" stroke-width="1" fill="none"></path></g><g transform="translate(186.68201446533203 1372) rotate(0 42.5 0)"><path d="M85.23 1.91 L70.73 5.08 L70.75 -5.15 L85.71 0.85" stroke="none" stroke-width="0" fill="#1e1e1e" fill-rule="evenodd"></path><path d="M84.63 0.61 C81.02 2.67, 76.55 3.83, 70.9 6.65 M84.63 0.61 C81.18 1.91, 77.55 4.04, 70.9 6.65 M70.9 6.65 C70.47 1.54, 71.42 -3.22, 71.17 -6.02 M70.9 6.65 C71.48 1.67, 71.43 -2.22, 71.17 -6.02 M71.17 -6.02 C75.25 -2.88, 80.77 -3.27, 84.63 0.61 M71.17 -6.02 C76.54 -4.32, 81.02 -1.53, 84.63 0.61 M84.63 0.61 C84.63 0.61, 84.63 0.61, 84.63 0.61 M84.63 0.61 C84.63 0.61, 84.63 0.61, 84.63 0.61" stroke="#1e1e1e" stroke-width="1" fill="none"></path></g></g><mask></mask><g stroke-linecap="round" transform="translate(270.30010600220413 1353.5993117160306) rotate(0 51.5 19.5)"><path d="M9.75 0 C32.4 -0.25, 55.99 -1.36, 93.25 0 M9.75 0 C31.79 0.83, 55.12 0.94, 93.25 0 M93.25 0 C101.13 -0.67, 101.89 3.93, 103 9.75 M93.25 0 C97.83 1.53, 104.37 2.73, 103 9.75 M103 9.75 C104.18 17.58, 104.26 25.39, 103 29.25 M103 9.75 C102.25 15.91, 103.99 21.7, 103 29.25 M103 29.25 C104.33 34.24, 100.2 38.63, 93.25 39 M103 29.25 C101.94 37.23, 101.91 38.16, 93.25 39 M93.25 39 C66.24 39.61, 40.27 37.93, 9.75 39 M93.25 39 C62.04 39.91, 30.15 38.48, 9.75 39 M9.75 39 C2.83 39.87, 1.09 36, 0 29.25 M9.75 39 C1.13 41.07, -0.8 37.09, 0 29.25 M0 29.25 C-1.02 23.17, -0.04 15.68, 0 9.75 M0 29.25 C-0.46 23.92, 0.86 18.11, 0 9.75 M0 9.75 C-1.65 1.78, 1.35 0.49, 9.75 0 M0 9.75 C1.7 1.11, 2.8 -0.83, 9.75 0" stroke="#1e1e1e" stroke-width="1" fill="none"></path></g><g stroke-linecap="round"><g transform="translate(322.30010600220413 1353.5993117160306) rotate(0 0 18.5)"><path d="M0 -0.3 C-0.08 5.88, -0.3 30.63, -0.3 36.83 M-0.66 0.73 C-0.57 7.02, 0.73 31.32, 0.78 37.44" stroke="#1e1e1e" stroke-width="1" fill="none"></path></g></g><mask></mask><g transform="translate(281.6740302575752 1353.5993117160306) rotate(0 17.626075744628906 17.5)"><text x="17.626075744628906" y="24.528" font-family="Virgil, Segoe UI Emoji" font-size="28px" fill="#1e1e1e" text-anchor="middle" style="white-space: pre;" direction="ltr" dominant-baseline="alphabetic">e2</text></g><g stroke-linecap="round"><g transform="translate(344.30010600220413 1372.5993117160306) rotate(0 42.49999999999997 0)"><path d="M-0.08 -0.23 C14.12 -0.03, 70.23 0.62, 84.51 0.81 M-1.58 -1.39 C12.47 -1.49, 68.85 -0.96, 83.3 -0.88" stroke="#1e1e1e" stroke-width="1" fill="none"></path></g><g transform="translate(344.30010600220413 1372.5993117160306) rotate(0 42.49999999999997 0)"><path d="M81.45 0.91 L68.96 6.52 L69.77 -8.1 L84.18 -2.01" stroke="none" stroke-width="0" fill="#1e1e1e" fill-rule="evenodd"></path><path d="M83.3 -0.88 C79.66 0.02, 77.61 2.88, 69.66 5.35 M83.3 -0.88 C77.77 1.69, 72.4 4.29, 69.66 5.35 M69.66 5.35 C69.06 1.62, 70.59 -3.58, 69.75 -7.32 M69.66 5.35 C70.12 1.13, 69.11 -3.66, 69.75 -7.32 M69.75 -7.32 C73.91 -4.58, 80 -3.12, 83.3 -0.88 M69.75 -7.32 C74.89 -4.3, 80.13 -2.71, 83.3 -0.88 M83.3 -0.88 C83.3 -0.88, 83.3 -0.88, 83.3 -0.88 M83.3 -0.88 C83.3 -0.88, 83.3 -0.88, 83.3 -0.88" stroke="#1e1e1e" stroke-width="1" fill="none"></path></g></g><mask></mask><g transform="translate(442.17391204833984 1350) rotate(0 25.508102416992188 17.5)"><text x="25.508102416992188" y="24.528" font-family="Virgil, Segoe UI Emoji" font-size="28px" fill="#1e1e1e" text-anchor="middle" style="white-space: pre;" direction="ltr" dominant-baseline="alphabetic">. . .</text></g><g transform="translate(30 1290) rotate(0 7.644035339355469 17.5)"><text x="7.644035339355469" y="24.528" font-family="Virgil, Segoe UI Emoji" font-size="28px" fill="#1e1e1e" text-anchor="middle" style="white-space: pre;" direction="ltr" dominant-baseline="alphabetic">q</text></g><g stroke-linecap="round"><g transform="translate(50 1310) rotate(0 270.00841600625444 20.003366402501797)"><path d="M0.78 0.79 C73.96 1.04, 350.24 -5.67, 440.17 0.84 C530.1 7.35, 523.55 33.18, 540.34 39.85 M-0.28 0.16 C72.68 0.13, 349.3 -7.66, 439.31 -0.84 C529.31 5.98, 522.7 34.48, 539.74 41.08" stroke="#1e1e1e" stroke-width="1" fill="none"></path></g><g transform="translate(50 1310) rotate(0 270.00841600625444 20.003366402501797)"><path d="M541.7 40.88 L523.69 35.43 L531.79 27.85 L541.23 39.22" stroke="none" stroke-width="0" fill="#1e1e1e" fill-rule="evenodd"></path><path d="M539.74 41.08 C535.17 39.77, 529.65 38.34, 525.34 36.9 M539.74 41.08 C534.89 40.42, 532.1 39.37, 525.34 36.9 M525.34 36.9 C528.23 32.8, 532.35 31.08, 533.69 27.36 M525.34 36.9 C527.9 34.21, 529.76 31.91, 533.69 27.36 M533.69 27.36 C535.61 30.82, 537.45 33.28, 539.74 41.08 M533.69 27.36 C535.41 30.47, 535.65 34.09, 539.74 41.08 M539.74 41.08 C539.74 41.08, 539.74 41.08, 539.74 41.08 M539.74 41.08 C539.74 41.08, 539.74 41.08, 539.74 41.08" stroke="#1e1e1e" stroke-width="1" fill="none"></path></g></g><mask></mask><g stroke-linecap="round" transform="translate(10 1290) rotate(0 380 120)"><path d="M32 0 C286.38 -0.17, 539.54 0.19, 728 0 M32 0 C292.33 -1.29, 552.23 -1.9, 728 0 M728 0 C749.79 -0.37, 759.08 11.95, 760 32 M728 0 C751.5 -0.84, 760.44 12.58, 760 32 M760 32 C760.04 93.65, 761.24 159.47, 760 208 M760 32 C760.44 89.55, 760.32 149.11, 760 208 M760 208 C761.09 229.58, 747.49 241.8, 728 240 M760 208 C759.2 230.67, 749.36 239.11, 728 240 M728 240 C488.42 238.95, 248.8 240.09, 32 240 M728 240 C516.05 240.5, 302.98 240.25, 32 240 M32 240 C8.76 240.49, 1.48 227.47, 0 208 M32 240 C10.21 239.17, 0.65 229.2, 0 208 M0 208 C-0.01 139.1, 2.56 73.65, 0 32 M0 208 C-0.51 160.73, 0.61 113.85, 0 32 M0 32 C1.74 12.66, 11.83 -0.9, 32 0 M0 32 C-2 11.79, 11.18 -1.13, 32 0" stroke="#1e1e1e" stroke-width="1" fill="none"></path></g><g stroke-linecap="round" transform="translate(590 1350.4119627118575) rotate(0 51.5 19.5)"><path d="M9.75 0 C35.71 1.23, 63.66 -2.06, 93.25 0 M9.75 0 C40.26 -1.4, 69.68 -0.83, 93.25 0 M93.25 0 C98.83 1.29, 104.88 2.52, 103 9.75 M93.25 0 C100.19 1.91, 104.36 2.85, 103 9.75 M103 9.75 C104.54 16.71, 103.65 22.25, 103 29.25 M103 9.75 C102.78 17.29, 103.51 24.11, 103 29.25 M103 29.25 C101.15 37.55, 99.06 40.17, 93.25 39 M103 29.25 C103.02 34.86, 100.77 37.71, 93.25 39 M93.25 39 C68.75 39.18, 45.03 37.46, 9.75 39 M93.25 39 C65.76 38.18, 38.96 39.16, 9.75 39 M9.75 39 C4.73 37.14, -0.39 35.03, 0 29.25 M9.75 39 C3.9 38.86, 1.87 34.46, 0 29.25 M0 29.25 C1.63 23.79, -0.55 18.9, 0 9.75 M0 29.25 C0.86 23.84, 0.91 19.99, 0 9.75 M0 9.75 C1.16 2.35, 1.51 0.98, 9.75 0 M0 9.75 C0.51 2.12, 1.36 -1.74, 9.75 0" stroke="#1e1e1e" stroke-width="1" fill="none"></path></g><g stroke-linecap="round"><g transform="translate(642 1350.4119627118575) rotate(0 0 18.5)"><path d="M0.4 0.4 C0.29 6.64, -0.52 31.15, -0.5 37.32 M-0.06 0.14 C-0.02 6.22, 0.4 30.44, 0.47 36.51" stroke="#1e1e1e" stroke-width="1" fill="none"></path></g></g><mask></mask><g transform="translate(604.8039398193359 1350.4119627118575) rotate(0 14.196060180664062 17.5)"><text x="14.196060180664062" y="24.528" font-family="Virgil, Segoe UI Emoji" font-size="28px" fill="#1e1e1e" text-anchor="middle" style="white-space: pre;" direction="ltr" dominant-baseline="alphabetic">en</text></g><g stroke-linecap="round"><g transform="translate(511.48632208781316 1371.452942367153) rotate(0 40.97184673807584 -0.7170981547612882)"><path d="M1.04 0.93 C15.01 0.43, 69.21 -1.91, 82.74 -2.34 M0.13 0.37 C14.11 -0.07, 68.64 -1.14, 82.21 -1.28" stroke="#1e1e1e" stroke-width="1" fill="none"></path></g><g transform="translate(511.48632208781316 1371.452942367153) rotate(0 40.97184673807584 -0.7170981547612882)"><path d="M82.78 -1.4 L70.35 4.15 L67.95 -8.4 L80.4 0.29" stroke="none" stroke-width="0" fill="#1e1e1e" fill-rule="evenodd"></path><path d="M82.21 -1.28 C80.6 1.2, 75.49 1.91, 68.72 5.28 M82.21 -1.28 C79.09 0.38, 74.74 3.12, 68.72 5.28 M68.72 5.28 C68.89 -0.27, 69.58 -3.18, 68.52 -7.4 M68.72 5.28 C68.56 0.58, 68.42 -2.85, 68.52 -7.4 M68.52 -7.4 C74.73 -5.63, 79.11 -2.92, 82.21 -1.28 M68.52 -7.4 C72.04 -5.77, 75 -4.25, 82.21 -1.28 M82.21 -1.28 C82.21 -1.28, 82.21 -1.28, 82.21 -1.28 M82.21 -1.28 C82.21 -1.28, 82.21 -1.28, 82.21 -1.28" stroke="#1e1e1e" stroke-width="1" fill="none"></path></g></g><mask></mask><g stroke-linecap="round"><g transform="translate(673.3457237844914 1370.9066256787628) rotate(0 -31.67286189224569 29.546687160618603)"><path d="M0.8 -0.91 C-6.55 5.42, -32.29 28.74, -43.07 38.87 C-53.86 49, -60.71 56.57, -63.9 59.87 M-0.24 1.23 C-7.82 7.66, -33.09 30.84, -43.88 40.29 C-54.66 49.74, -61.42 54.72, -64.95 57.93" stroke="#1e1e1e" stroke-width="1" fill="none"></path></g><g transform="translate(673.3457237844914 1370.9066256787628) rotate(0 -31.67286189224569 29.546687160618603)"><path d="M-63.33 56.8 L-59.59 44.09 L-53.12 55.79 L-65.12 57.26" stroke="none" stroke-width="0" fill="#1e1e1e" fill-rule="evenodd"></path><path d="M-64.95 57.93 C-63.83 53.25, -60.73 47.31, -59.02 45.09 M-64.95 57.93 C-62.77 53.86, -60.33 48.47, -59.02 45.09 M-59.02 45.09 C-55.72 48.56, -53.91 51.09, -51.3 54.22 M-59.02 45.09 C-56.34 48.74, -53.07 51.89, -51.3 54.22 M-51.3 54.22 C-53.28 54.96, -57.49 56.34, -64.95 57.93 M-51.3 54.22 C-55.3 55, -57.63 56.06, -64.95 57.93 M-64.95 57.93 C-64.95 57.93, -64.95 57.93, -64.95 57.93 M-64.95 57.93 C-64.95 57.93, -64.95 57.93, -64.95 57.93" stroke="#1e1e1e" stroke-width="1" fill="none"></path></g></g><mask></mask><g stroke-linecap="round"><g transform="translate(190.76294935084877 511.54597904909406) rotate(0 39.618525324575614 18.454020950905942)"><path d="M-0.76 -0.33 C8.78 -0.68, 44.93 -8.86, 58.41 -2.44 C71.89 3.98, 76.76 31.17, 80.13 38.18 M1.04 -1.55 C10.86 -1.74, 47.55 -8.19, 60.68 -1.37 C73.81 5.45, 76.86 32.85, 79.83 39.36" stroke="#1e1e1e" stroke-width="1" fill="none"></path></g><g transform="translate(190.76294935084877 511.54597904909406) rotate(0 39.618525324575614 18.454020950905942)"><path d="M80.83 37.92 L70.41 26.2 L81.89 26.26 L80.55 39.88" stroke="none" stroke-width="0" fill="#1e1e1e" fill-rule="evenodd"></path><path d="M79.83 39.36 C75.55 33.77, 70.95 31.42, 70 28.03 M79.83 39.36 C77.27 35.71, 74.88 33.8, 70 28.03 M70 28.03 C73.93 25.76, 79.41 25.43, 82.19 24.55 M70 28.03 C74.05 27.52, 77.29 26.51, 82.19 24.55 M82.19 24.55 C80.04 28.41, 81.76 33.09, 79.83 39.36 M82.19 24.55 C81.22 30.47, 79.9 35.15, 79.83 39.36 M79.83 39.36 C79.83 39.36, 79.83 39.36, 79.83 39.36 M79.83 39.36 C79.83 39.36, 79.83 39.36, 79.83 39.36" stroke="#1e1e1e" stroke-width="1" fill="none"></path></g></g><mask></mask><g transform="translate(30 896.4667764760088) rotate(0 6.902030944824219 17.5)"><text x="6.902030944824219" y="24.528" font-family="Virgil, Segoe UI Emoji" font-size="28px" fill="#1e1e1e" text-anchor="middle" style="white-space: pre;" direction="ltr" dominant-baseline="alphabetic">p</text></g><g stroke-linecap="round"><g transform="translate(53.12204742431646 910.509942457134) rotate(0 29.389991760253935 0.4764139464325581)"><path d="M-0.88 1.12 C8.86 1.13, 49.41 0.53, 59.18 0.33 M0.86 0.66 C10.42 0.8, 48.58 1.54, 58.44 1.55" stroke="#1e1e1e" stroke-width="1" fill="none"></path></g><g transform="translate(53.12204742431646 910.509942457134) rotate(0 29.389991760253935 0.4764139464325581)"><path d="M58.37 1.86 L46.53 7.28 L45.53 -5.38 L58.25 2.11" stroke="none" stroke-width="0" fill="#1e1e1e" fill-rule="evenodd"></path><path d="M58.44 1.55 C54.92 4.18, 47.81 4.58, 44.77 7.73 M58.44 1.55 C55.71 2.79, 52.54 4.11, 44.77 7.73 M44.77 7.73 C45.48 4.9, 45.5 2.15, 44.92 -4.95 M44.77 7.73 C44.33 2.82, 44.72 -0.75, 44.92 -4.95 M44.92 -4.95 C49.62 -1.42, 55.51 -0.76, 58.44 1.55 M44.92 -4.95 C49.66 -2.81, 52.92 -0.57, 58.44 1.55 M58.44 1.55 C58.44 1.55, 58.44 1.55, 58.44 1.55 M58.44 1.55 C58.44 1.55, 58.44 1.55, 58.44 1.55" stroke="#1e1e1e" stroke-width="1" fill="none"></path></g></g><mask></mask><g stroke-linecap="round" transform="translate(115.90203094482422 890.4667764760088) rotate(0 51.5 19.5)"><path d="M9.75 0 C27.67 -2.06, 45.95 -1.98, 93.25 0 M9.75 0 C30.97 -0.03, 51.19 0.51, 93.25 0 M93.25 0 C101.68 1.16, 102.72 4.4, 103 9.75 M93.25 0 C99.24 1.35, 104.47 3.05, 103 9.75 M103 9.75 C104.8 15.16, 102.57 17.85, 103 29.25 M103 9.75 C102.93 15.87, 103.33 22.48, 103 29.25 M103 29.25 C104.13 36.26, 98.11 39.96, 93.25 39 M103 29.25 C103.28 35.59, 100.72 38.15, 93.25 39 M93.25 39 C68.11 40.14, 42.17 38.21, 9.75 39 M93.25 39 C61.58 39.26, 30.86 38.88, 9.75 39 M9.75 39 C3.86 38.56, -0.19 36.32, 0 29.25 M9.75 39 C3.74 36.9, 1.68 33.7, 0 29.25 M0 29.25 C-1.15 27.26, -0.34 21.28, 0 9.75 M0 29.25 C-0.51 25.29, 0.27 19.56, 0 9.75 M0 9.75 C-1.24 3.92, 3.35 -1.34, 9.75 0 M0 9.75 C1.56 3.91, 2.26 -1.88, 9.75 0" stroke="#1e1e1e" stroke-width="1" fill="none"></path></g><g stroke-linecap="round"><g transform="translate(167.90203094482422 890.4667764760088) rotate(0 0 18.5)"><path d="M-0.49 -0.47 C-0.6 5.7, -0.58 30.5, -0.47 36.74 M0.26 0.48 C0.3 6.75, 0.58 31.13, 0.53 37.31" stroke="#1e1e1e" stroke-width="1" fill="none"></path></g></g><mask></mask><g transform="translate(132.2439956665039 892.4667764760088) rotate(0 7.6580352783203125 17.5)"><text x="7.6580352783203125" y="24.528" font-family="Virgil, Segoe UI Emoji" font-size="28px" fill="#1e1e1e" text-anchor="middle" style="white-space: pre;" direction="ltr" dominant-baseline="alphabetic">e</text></g><g stroke-linecap="round"><g transform="translate(193.98296583034096 911.7741578787009) rotate(0 39.618525324575614 18.454020950905942)"><path d="M0.43 -0.03 C10.48 -0.21, 46.34 -8.12, 59.3 -1.61 C72.25 4.9, 74.63 32.25, 78.15 39.04 M-0.81 -1.09 C9.18 -1.02, 44.83 -6.45, 58.38 -0.1 C71.93 6.25, 77.27 30.83, 80.47 37.01" stroke="#1e1e1e" stroke-width="1" fill="none"></path></g><g transform="translate(193.98296583034096 911.7741578787009) rotate(0 39.618525324575614 18.454020950905942)"><path d="M80.9 35.18 L71.18 24.77 L79.61 23.62 L82.05 35.99" stroke="none" stroke-width="0" fill="#1e1e1e" fill-rule="evenodd"></path><path d="M80.47 37.01 C78.17 34.87, 75.82 31.18, 69.72 26.55 M80.47 37.01 C76.51 33.85, 72.7 30.21, 69.72 26.55 M69.72 26.55 C73.31 24.83, 79.59 23.9, 81.57 22.05 M69.72 26.55 C73.62 25.82, 76.32 24.1, 81.57 22.05 M81.57 22.05 C81.74 25.58, 81.72 31.75, 80.47 37.01 M81.57 22.05 C81.42 26.92, 80.59 31.22, 80.47 37.01 M80.47 37.01 C80.47 37.01, 80.47 37.01, 80.47 37.01 M80.47 37.01 C80.47 37.01, 80.47 37.01, 80.47 37.01" stroke="#1e1e1e" stroke-width="1" fill="none"></path></g></g><mask></mask><g transform="translate(30 1136.0905174020584) rotate(0 6.902030944824219 17.5)"><text x="6.902030944824219" y="24.528" font-family="Virgil, Segoe UI Emoji" font-size="28px" fill="#1e1e1e" text-anchor="middle" style="white-space: pre;" direction="ltr" dominant-baseline="alphabetic">p</text></g><g stroke-linecap="round"><g transform="translate(53.12204742431646 1150.1336833831836) rotate(0 29.389991760253935 0.4764139464325581)"><path d="M0.75 0.09 C10.56 0.48, 49.72 1.32, 59.31 1.55 M-0.31 -0.9 C9.34 -0.8, 49.05 -0.31, 58.64 -0.25" stroke="#1e1e1e" stroke-width="1" fill="none"></path></g><g transform="translate(53.12204742431646 1150.1336833831836) rotate(0 29.389991760253935 0.4764139464325581)"><path d="M60.34 0.93 L44.14 7.67 L45.6 -8.48 L60.54 -0.15" stroke="none" stroke-width="0" fill="#1e1e1e" fill-rule="evenodd"></path><path d="M58.64 -0.25 C54.08 2.6, 50.08 3.41, 44.98 5.95 M58.64 -0.25 C54.01 1.45, 48.92 4.28, 44.98 5.95 M44.98 5.95 C44.13 3.37, 44.96 -0.51, 45.11 -6.72 M44.98 5.95 C44.82 0.35, 45.55 -4.05, 45.11 -6.72 M45.11 -6.72 C50.29 -4.92, 54.48 -3.03, 58.64 -0.25 M45.11 -6.72 C50.89 -3.98, 55.37 -1.8, 58.64 -0.25 M58.64 -0.25 C58.64 -0.25, 58.64 -0.25, 58.64 -0.25 M58.64 -0.25 C58.64 -0.25, 58.64 -0.25, 58.64 -0.25" stroke="#1e1e1e" stroke-width="1" fill="none"></path></g></g><mask></mask><g stroke-linecap="round" transform="translate(115.90203094482422 1130.0905174020584) rotate(0 51.5 19.5)"><path d="M9.75 0 C41.04 -1.21, 71.25 -0.31, 93.25 0 M9.75 0 C35.47 0.8, 61.78 0.94, 93.25 0 M93.25 0 C101.2 -1.31, 104.67 3.18, 103 9.75 M93.25 0 C101.24 2.21, 104.18 3.69, 103 9.75 M103 9.75 C102.96 15.84, 104.71 19, 103 29.25 M103 9.75 C102.44 17.03, 103.85 22.44, 103 29.25 M103 29.25 C104.93 36.5, 100.29 39.18, 93.25 39 M103 29.25 C101.6 34.78, 99.27 39.98, 93.25 39 M93.25 39 C66.83 40.24, 41.96 38.66, 9.75 39 M93.25 39 C64.88 40.4, 34.39 40.66, 9.75 39 M9.75 39 C3.75 37.25, 1.91 35.85, 0 29.25 M9.75 39 C4.78 39.03, -1.56 36.88, 0 29.25 M0 29.25 C-0.26 23.16, -0.01 12.41, 0 9.75 M0 29.25 C0.91 21.4, -0.7 14.18, 0 9.75 M0 9.75 C0.19 2.17, 1.68 -0.25, 9.75 0 M0 9.75 C-1.37 1.36, 1.9 -0.25, 9.75 0" stroke="#1e1e1e" stroke-width="1" fill="none"></path></g><g stroke-linecap="round"><g transform="translate(167.90203094482422 1130.0905174020584) rotate(0 0 18.5)"><path d="M-0.23 0.25 C-0.27 6.39, -0.03 31, 0.02 37.07 M0.65 -0.09 C0.52 6.12, -0.26 31.61, -0.41 37.8" stroke="#1e1e1e" stroke-width="1" fill="none"></path></g></g><mask></mask><g transform="translate(132.2439956665039 1132.0905174020584) rotate(0 7.6580352783203125 17.5)"><text x="7.6580352783203125" y="24.528" font-family="Virgil, Segoe UI Emoji" font-size="28px" fill="#1e1e1e" text-anchor="middle" style="white-space: pre;" direction="ltr" dominant-baseline="alphabetic">e</text></g><g stroke-linecap="round"><g transform="translate(193.98296583034096 1151.3978988047504) rotate(0 39.618525324575614 18.454020950905942)"><path d="M0.16 -0.74 C9.95 -0.97, 45.66 -7.82, 58.81 -1.2 C71.97 5.41, 75.54 32.48, 79.08 38.96 M-1.22 1.48 C8.38 0.87, 44.4 -9.05, 57.64 -3.15 C70.89 2.75, 74.38 29.97, 78.24 36.89" stroke="#1e1e1e" stroke-width="1" fill="none"></path></g><g transform="translate(193.98296583034096 1151.3978988047504) rotate(0 39.618525324575614 18.454020950905942)"><path d="M79.57 36.91 L66.46 27.08 L81.65 22.93 L77.47 36.71" stroke="none" stroke-width="0" fill="#1e1e1e" fill-rule="evenodd"></path><path d="M78.24 36.89 C74.14 33.1, 72.33 30.17, 67.82 26.1 M78.24 36.89 C75.22 33.1, 71.51 30.16, 67.82 26.1 M67.82 26.1 C70.86 25.74, 76.32 23.68, 79.8 21.97 M67.82 26.1 C72.4 24.51, 77.03 23.22, 79.8 21.97 M79.8 21.97 C79.67 28.26, 78.63 32.81, 78.24 36.89 M79.8 21.97 C79.35 26.03, 79.39 29.09, 78.24 36.89 M78.24 36.89 C78.24 36.89, 78.24 36.89, 78.24 36.89 M78.24 36.89 C78.24 36.89, 78.24 36.89, 78.24 36.89" stroke="#1e1e1e" stroke-width="1" fill="none"></path></g></g><mask></mask><g transform="translate(490 1436.2457328021992) rotate(0 6.902030944824219 17.5)"><text x="6.902030944824219" y="24.528" font-family="Virgil, Segoe UI Emoji" font-size="28px" fill="#1e1e1e" text-anchor="middle" style="white-space: pre;" direction="ltr" dominant-baseline="alphabetic">p</text></g><g stroke-linecap="round"><g transform="translate(513.1220474243164 1450.2888987833244) rotate(0 29.389991760253906 0.4764139464325581)"><path d="M0.15 -0.59 C9.65 -0.35, 47.8 1.84, 57.77 2.01 M-1.23 1.71 C8.57 1.59, 49.77 0.48, 59.95 0.44" stroke="#1e1e1e" stroke-width="1" fill="none"></path></g><g transform="translate(513.1220474243164 1450.2888987833244) rotate(0 29.389991760253906 0.4764139464325581)"><path d="M60.02 -1.26 L47.71 7.48 L46.12 -5.12 L58.84 0.14" stroke="none" stroke-width="0" fill="#1e1e1e" fill-rule="evenodd"></path><path d="M59.95 0.44 C54.35 1.58, 51.52 6.72, 46.47 7.01 M59.95 0.44 C56.28 1.63, 52.3 4.23, 46.47 7.01 M46.47 7.01 C45.26 2.67, 47.48 -0.46, 46.25 -5.66 M46.47 7.01 C47.03 2.55, 46.42 -0.82, 46.25 -5.66 M46.25 -5.66 C49.25 -4.87, 53.78 -1.66, 59.95 0.44 M46.25 -5.66 C50.71 -3.97, 56.15 -1.35, 59.95 0.44 M59.95 0.44 C59.95 0.44, 59.95 0.44, 59.95 0.44 M59.95 0.44 C59.95 0.44, 59.95 0.44, 59.95 0.44" stroke="#1e1e1e" stroke-width="1" fill="none"></path></g></g><mask></mask><g stroke-linecap="round" transform="translate(575.9020309448242 1430.2457328021992) rotate(0 51.5 19.5)"><path d="M9.75 0 C37.6 2.7, 61.05 -1, 93.25 0 M9.75 0 C29.13 1.13, 50.06 0.83, 93.25 0 M93.25 0 C100.04 -1.74, 101.51 5.11, 103 9.75 M93.25 0 C98.51 0.58, 101.44 3.66, 103 9.75 M103 9.75 C104.16 17.26, 101.21 24.29, 103 29.25 M103 9.75 C103.07 14.82, 101.89 18.86, 103 29.25 M103 29.25 C101.94 34.48, 100.09 38.87, 93.25 39 M103 29.25 C104.86 35.69, 98.9 37.24, 93.25 39 M93.25 39 C69.85 37.1, 44.41 37.64, 9.75 39 M93.25 39 C70.12 38.91, 47.54 39.99, 9.75 39 M9.75 39 C3.12 39.55, -1.11 35.45, 0 29.25 M9.75 39 C3.83 36.92, -1.24 35.3, 0 29.25 M0 29.25 C1.09 23.01, -1.27 18.91, 0 9.75 M0 29.25 C-0.16 22.04, -0.19 17.39, 0 9.75 M0 9.75 C1.29 5.17, 4.39 -0.71, 9.75 0 M0 9.75 C-1.41 3.86, 1.48 2.26, 9.75 0" stroke="#1e1e1e" stroke-width="1" fill="none"></path></g><g stroke-linecap="round"><g transform="translate(627.9020309448242 1430.2457328021992) rotate(0 0 18.5)"><path d="M0.55 -0.25 C0.55 5.79, -0.36 30.53, -0.47 36.69 M0.17 0.82 C0.37 7.15, 0.64 31.17, 0.53 37.23" stroke="#1e1e1e" stroke-width="1" fill="none"></path></g></g><mask></mask><g transform="translate(592.2439956665039 1432.2457328021992) rotate(0 7.6580352783203125 17.5)"><text x="7.6580352783203125" y="24.528" font-family="Virgil, Segoe UI Emoji" font-size="28px" fill="#1e1e1e" text-anchor="middle" style="white-space: pre;" direction="ltr" dominant-baseline="alphabetic">e</text></g><g stroke-linecap="round"><g transform="translate(653.982965830341 1451.5531142048912) rotate(0 39.618525324575614 18.454020950905942)"><path d="M-0.28 -0.65 C9.58 -0.66, 44.92 -7.32, 58.11 -0.73 C71.3 5.86, 75.3 32.55, 78.85 38.91 M1.78 1.62 C12.08 1.34, 47.54 -8.29, 60.23 -2.43 C72.91 3.44, 74.63 30.07, 77.88 36.8" stroke="#1e1e1e" stroke-width="1" fill="none"></path></g><g transform="translate(653.982965830341 1451.5531142048912) rotate(0 39.618525324575614 18.454020950905942)"><path d="M78.39 34.99 L67.07 24.99 L79.58 23.05 L75.98 38.02" stroke="none" stroke-width="0" fill="#1e1e1e" fill-rule="evenodd"></path><path d="M77.88 36.8 C75.04 32.91, 74.78 31.39, 68.16 25.38 M77.88 36.8 C74.02 33.56, 70.89 29.19, 68.16 25.38 M68.16 25.38 C70.31 24.5, 74.64 23.69, 80.38 22.01 M68.16 25.38 C70.32 24.49, 73.52 24.4, 80.38 22.01 M80.38 22.01 C78.94 25.22, 79.3 29.13, 77.88 36.8 M80.38 22.01 C79.46 25.79, 78.09 30.9, 77.88 36.8 M77.88 36.8 C77.88 36.8, 77.88 36.8, 77.88 36.8 M77.88 36.8 C77.88 36.8, 77.88 36.8, 77.88 36.8" stroke="#1e1e1e" stroke-width="1" fill="none"></path></g></g><mask></mask></svg>