<svg version="1.1" xmlns="http://www.w3.org/2000/svg" viewBox="0 0 520 1100" width="520" height="1100" filter="invert(93%) hue-rotate(180deg)">
  <!-- svg-source:excalidraw -->
  
  <defs>
    <style class="style-fonts">
      @font-face {
        font-family: "Virgil";
        src: url("https://excalidraw.com/Virgil.woff2");
      }
      @font-face {
        font-family: "Cascadia";
        src: url("https://excalidraw.com/Cascadia.woff2");
      }
      @font-face {
        font-family: "Assistant";
        src: url("https://excalidraw.com/Assistant-Regular.woff2");
      }
    </style>
    
  </defs>
  <g transform="translate(30 59) rotate(0 3.6820144653320312 17.5)"><text x="3.6820144653320312" y="24.528" font-family="Virgil, Segoe UI Emoji" font-size="28px" fill="#1e1e1e" text-anchor="middle" style="white-space: pre;" direction="ltr" dominant-baseline="alphabetic">l</text></g><g stroke-linecap="round"><g transform="translate(46.68201446533203 73) rotate(0 31 0.5)"><path d="M-0.42 -1.13 C10.19 -1.28, 52.43 -0.52, 63.02 -0.17 M1.55 0.89 C12.16 0.79, 52.37 0.52, 62.6 0.75" stroke="#1e1e1e" stroke-width="1" fill="none"></path></g><g transform="translate(46.68201446533203 73) rotate(0 31 0.5)"><path d="M60.68 2.28 L49.83 6.45 L48.48 -5.64 L62.87 -0.02" stroke="none" stroke-width="0" fill="#1e1e1e" fill-rule="evenodd"></path><path d="M62.6 0.75 C57.9 3.5, 54.53 5.16, 48.97 7.01 M62.6 0.75 C58.43 2.69, 54.57 4.49, 48.97 7.01 M48.97 7.01 C48.08 2.83, 48.96 -0.9, 49.04 -5.67 M48.97 7.01 C49.56 3.25, 48.82 -1.92, 49.04 -5.67 M49.04 -5.67 C53.42 -3.35, 55.92 -0.49, 62.6 0.75 M49.04 -5.67 C52.8 -4.72, 55.91 -1.81, 62.6 0.75 M62.6 0.75 C62.6 0.75, 62.6 0.75, 62.6 0.75 M62.6 0.75 C62.6 0.75, 62.6 0.75, 62.6 0.75" stroke="#1e1e1e" stroke-width="1" fill="none"></path></g></g><mask></mask><g stroke-linecap="round" transform="translate(112.68201446533203 53) rotate(0 51.5 19.5)"><path d="M9.75 0 C41.8 -0.74, 73.67 -1.14, 93.25 0 M9.75 0 C35.95 -0.55, 62.68 -0.83, 93.25 0 M93.25 0 C98.98 -0.18, 102.15 3.8, 103 9.75 M93.25 0 C97.79 0.36, 104.65 4.66, 103 9.75 M103 9.75 C101.07 13.76, 103.16 19.95, 103 29.25 M103 9.75 C104.1 13.13, 103.82 17.03, 103 29.25 M103 29.25 C104.14 37.73, 98.56 39.2, 93.25 39 M103 29.25 C104.07 37.65, 101.96 38.51, 93.25 39 M93.25 39 C64.04 38.08, 37.96 38.08, 9.75 39 M93.25 39 C67.09 39.36, 39.78 39.66, 9.75 39 M9.75 39 C3.52 38.23, 0.97 34.92, 0 29.25 M9.75 39 C4.57 37.08, -0.95 35.47, 0 29.25 M0 29.25 C-0.63 23.45, 0.21 19.96, 0 9.75 M0 29.25 C0.04 24.26, -0.69 19.74, 0 9.75 M0 9.75 C-0.57 1.29, 4.72 -0.56, 9.75 0 M0 9.75 C-0.87 2.57, 2.57 -0.61, 9.75 0" stroke="#1e1e1e" stroke-width="1" fill="none"></path></g><g stroke-linecap="round"><g transform="translate(164.68201446533203 53) rotate(0 0 18.5)"><path d="M0.01 0.18 C-0.07 6.44, -0.12 31.26, -0.17 37.36 M-0.65 -0.2 C-0.85 5.92, -0.66 30.33, -0.68 36.59" stroke="#1e1e1e" stroke-width="1" fill="none"></path></g></g><mask></mask><g transform="translate(125.22996520996094 55) rotate(0 11.452049255371094 17.5)"><text x="11.452049255371094" y="24.528" font-family="Virgil, Segoe UI Emoji" font-size="28px" fill="#1e1e1e" text-anchor="middle" style="white-space: pre;" direction="ltr" dominant-baseline="alphabetic">e1</text></g><g stroke-linecap="round"><g transform="translate(186.68201446533203 72) rotate(0 42.5 0)"><path d="M-0.19 -0.54 C13.81 -0.76, 70.41 -0.83, 84.76 -0.79 M-1.75 1.79 C12.01 1.66, 69.13 0.48, 83.69 0.33" stroke="#1e1e1e" stroke-width="1" fill="none"></path></g><g transform="translate(186.68201446533203 72) rotate(0 42.5 0)"><path d="M81.98 0.62 L69.88 6.74 L69.9 -5.68 L83.38 0.78" stroke="none" stroke-width="0" fill="#1e1e1e" fill-rule="evenodd"></path><path d="M83.69 0.33 C78.18 2.37, 73 6.19, 70.2 6.89 M83.69 0.33 C80.18 1.86, 76.38 4.38, 70.2 6.89 M70.2 6.89 C70.44 4.83, 70.65 -0.11, 70 -5.79 M70.2 6.89 C69.91 2.19, 70.18 -1.62, 70 -5.79 M70 -5.79 C75.97 -3.76, 77.78 -1.58, 83.69 0.33 M70 -5.79 C73.25 -4.55, 75.88 -2.61, 83.69 0.33 M83.69 0.33 C83.69 0.33, 83.69 0.33, 83.69 0.33 M83.69 0.33 C83.69 0.33, 83.69 0.33, 83.69 0.33" stroke="#1e1e1e" stroke-width="1" fill="none"></path></g></g><mask></mask><g stroke-linecap="round" transform="translate(270.30010600220413 53.59931171603034) rotate(0 51.5 19.5)"><path d="M9.75 0 C28.28 0.3, 46.93 -0.32, 93.25 0 M9.75 0 C26.4 -1.08, 44.79 -0.05, 93.25 0 M93.25 0 C101.33 1.89, 101.85 1.99, 103 9.75 M93.25 0 C97.45 -0.85, 101.97 1.81, 103 9.75 M103 9.75 C104.14 15.79, 103.73 17.51, 103 29.25 M103 9.75 C102.99 13.81, 102.29 18.86, 103 29.25 M103 29.25 C104.83 34.36, 97.87 37.73, 93.25 39 M103 29.25 C103.81 35.4, 101.45 39.84, 93.25 39 M93.25 39 C63.35 40.15, 30.47 37.3, 9.75 39 M93.25 39 C71.68 39.8, 51.9 38.43, 9.75 39 M9.75 39 C4.53 40.64, -0.8 34.42, 0 29.25 M9.75 39 C2.88 39.51, -1.43 34.38, 0 29.25 M0 29.25 C0.86 24.22, 0.8 17.21, 0 9.75 M0 29.25 C0.89 23.62, 0.33 17.96, 0 9.75 M0 9.75 C0.63 3.76, 3.72 1.91, 9.75 0 M0 9.75 C0.5 3.53, 2.16 -1.53, 9.75 0" stroke="#1e1e1e" stroke-width="1" fill="none"></path></g><g stroke-linecap="round"><g transform="translate(322.30010600220413 53.59931171603034) rotate(0 0 18.5)"><path d="M-0.11 0.07 C-0.08 6.15, -0.38 30.3, -0.28 36.48 M-0.83 -0.37 C-0.58 5.75, 0.6 30.54, 0.81 36.91" stroke="#1e1e1e" stroke-width="1" fill="none"></path></g></g><mask></mask><g transform="translate(281.6740302575752 53.59931171603034) rotate(0 17.626075744628906 17.5)"><text x="17.626075744628906" y="24.528" font-family="Virgil, Segoe UI Emoji" font-size="28px" fill="#1e1e1e" text-anchor="middle" style="white-space: pre;" direction="ltr" dominant-baseline="alphabetic">e2</text></g><g stroke-linecap="round"><g transform="translate(344.30010600220413 72.59931171603034) rotate(0 42.49999999999997 0)"><path d="M1.13 0.3 C15.3 0.31, 70.31 -1.03, 84.45 -1.05 M0.26 -0.59 C14.28 -0.36, 68.97 -0.43, 83.21 -0.06" stroke="#1e1e1e" stroke-width="1" fill="none"></path></g><g transform="translate(344.30010600220413 72.59931171603034) rotate(0 42.49999999999997 0)"><path d="M82.89 0.38 L68.31 4.94 L70.36 -7.77 L83.8 0.7" stroke="none" stroke-width="0" fill="#1e1e1e" fill-rule="evenodd"></path><path d="M83.21 -0.06 C80.12 0.93, 75.03 4.38, 69.55 6.13 M83.21 -0.06 C78.52 1.55, 73.9 3.7, 69.55 6.13 M69.55 6.13 C69.38 2.62, 70.47 0.75, 69.69 -6.55 M69.55 6.13 C69.99 1.83, 69.64 -2.95, 69.69 -6.55 M69.69 -6.55 C71.55 -6.67, 74.57 -3.32, 83.21 -0.06 M69.69 -6.55 C74.17 -5.44, 77.47 -2.28, 83.21 -0.06 M83.21 -0.06 C83.21 -0.06, 83.21 -0.06, 83.21 -0.06 M83.21 -0.06 C83.21 -0.06, 83.21 -0.06, 83.21 -0.06" stroke="#1e1e1e" stroke-width="1" fill="none"></path></g></g><mask></mask><g transform="translate(442.17391204833984 50) rotate(0 25.508102416992188 17.5)"><text x="25.508102416992188" y="24.528" font-family="Virgil, Segoe UI Emoji" font-size="28px" fill="#1e1e1e" text-anchor="middle" style="white-space: pre;" direction="ltr" dominant-baseline="alphabetic">. . .</text></g><g transform="translate(50 210) rotate(0 200.85885620117188 52.5)"><text x="0" y="24.528" font-family="Virgil, Segoe UI Emoji" font-size="28px" fill="#1e1e1e" text-anchor="start" style="white-space: pre;" direction="ltr" dominant-baseline="alphabetic">var p:= pointer to node of T</text><text x="0" y="59.528" font-family="Virgil, Segoe UI Emoji" font-size="28px" fill="#1e1e1e" text-anchor="start" style="white-space: pre;" direction="ltr" dominant-baseline="alphabetic">alloc(p)</text><text x="0" y="94.52799999999999" font-family="Virgil, Segoe UI Emoji" font-size="28px" fill="#1e1e1e" text-anchor="start" style="white-space: pre;" direction="ltr" dominant-baseline="alphabetic">p-&gt;elem:= e</text></g><g transform="translate(30 359) rotate(0 3.6820144653320312 17.5)"><text x="3.6820144653320312" y="24.528" font-family="Virgil, Segoe UI Emoji" font-size="28px" fill="#1e1e1e" text-anchor="middle" style="white-space: pre;" direction="ltr" dominant-baseline="alphabetic">l</text></g><g stroke-linecap="round"><g transform="translate(46.68201446533203 373.00000000000045) rotate(0 31 0.4999999999997726)"><path d="M0.38 -0.08 C10.8 0.01, 51.75 0.02, 62.13 0.02 M-0.88 -1.16 C9.42 -0.92, 50.73 0.74, 61.25 1.04" stroke="#1e1e1e" stroke-width="1" fill="none"></path></g><g transform="translate(46.68201446533203 373.00000000000045) rotate(0 31 0.4999999999997726)"><path d="M61.58 1.77 L48.1 8.15 L46.08 -7.17 L61.07 1.01" stroke="none" stroke-width="0" fill="#1e1e1e" fill-rule="evenodd"></path><path d="M61.25 1.04 C57.41 2.82, 52.57 5.04, 47.44 6.9 M61.25 1.04 C58.87 2.06, 56.14 2.91, 47.44 6.9 M47.44 6.9 C48.41 3.52, 48.3 -2.94, 47.88 -5.77 M47.44 6.9 C48.17 1.75, 47.62 -2.7, 47.88 -5.77 M47.88 -5.77 C51.06 -2.64, 57.31 -1.35, 61.25 1.04 M47.88 -5.77 C52.97 -3.68, 57.62 -0.1, 61.25 1.04 M61.25 1.04 C61.25 1.04, 61.25 1.04, 61.25 1.04 M61.25 1.04 C61.25 1.04, 61.25 1.04, 61.25 1.04" stroke="#1e1e1e" stroke-width="1" fill="none"></path></g></g><mask></mask><g stroke-linecap="round" transform="translate(112.68201446533203 353) rotate(0 51.5 19.5)"><path d="M9.75 0 C35.81 0.98, 63.3 1.65, 93.25 0 M9.75 0 C33.56 -0.53, 56.36 0.24, 93.25 0 M93.25 0 C100.78 1.3, 104.85 4.12, 103 9.75 M93.25 0 C98.43 1.68, 101.32 5.25, 103 9.75 M103 9.75 C102.43 17.99, 103.27 22.87, 103 29.25 M103 9.75 C102.81 14.53, 102.31 17.2, 103 29.25 M103 29.25 C102.85 34.12, 98.14 39.86, 93.25 39 M103 29.25 C100.79 36.04, 98.82 39.26, 93.25 39 M93.25 39 C70.54 38.78, 49.29 39.29, 9.75 39 M93.25 39 C67.35 40.05, 41.45 40.31, 9.75 39 M9.75 39 C1.45 37.6, -0.18 35.72, 0 29.25 M9.75 39 C1.8 37.32, -0.79 37.68, 0 29.25 M0 29.25 C1.03 22.75, 0.72 19.56, 0 9.75 M0 29.25 C0.84 24.82, 0.3 20.81, 0 9.75 M0 9.75 C-0.57 3.11, 4.9 -1.55, 9.75 0 M0 9.75 C-0.1 1.55, 2.11 -0.21, 9.75 0" stroke="#1e1e1e" stroke-width="1" fill="none"></path></g><g stroke-linecap="round"><g transform="translate(164.68201446533203 353) rotate(0 0 18.5)"><path d="M0.29 -0.5 C0.36 5.72, 0.47 30.64, 0.48 36.87 M-0.22 0.43 C-0.19 6.77, 0.23 31.33, 0.29 37.5" stroke="#1e1e1e" stroke-width="1" fill="none"></path></g></g><mask></mask><g transform="translate(125.22996520996094 355) rotate(0 11.452049255371094 17.5)"><text x="11.452049255371094" y="24.528" font-family="Virgil, Segoe UI Emoji" font-size="28px" fill="#1e1e1e" text-anchor="middle" style="white-space: pre;" direction="ltr" dominant-baseline="alphabetic">e1</text></g><g transform="translate(30.11992261539848 429.677428963676) rotate(0 6.902030944824219 17.5)"><text x="6.902030944824219" y="24.528" font-family="Virgil, Segoe UI Emoji" font-size="28px" fill="#1e1e1e" text-anchor="middle" style="white-space: pre;" direction="ltr" dominant-baseline="alphabetic">p</text></g><g stroke-linecap="round"><g transform="translate(51.935797641553734 450.44081324040553) rotate(0 28.592062486922373 0.4611632130942098)"><path d="M-0.23 0.19 C9.39 0.18, 47.79 -0.21, 57.41 -0.04 M-1.82 -0.76 C7.7 -0.64, 46.8 0.42, 56.58 0.98" stroke="#1e1e1e" stroke-width="1" fill="none"></path></g><g transform="translate(51.935797641553734 450.44081324040553) rotate(0 28.592062486922373 0.4611632130942098)"><path d="M54.89 0.68 L40.75 7.17 L43.79 -5.91 L58.2 0.41" stroke="none" stroke-width="0" fill="#1e1e1e" fill-rule="evenodd"></path><path d="M56.58 0.98 C53.05 2.82, 47.85 4.52, 42.75 6.77 M56.58 0.98 C52.41 3.54, 48.2 4.82, 42.75 6.77 M42.75 6.77 C42.59 3.94, 44.04 2.42, 43.25 -5.89 M42.75 6.77 C43.36 1.77, 43.27 -2.74, 43.25 -5.89 M43.25 -5.89 C49.17 -2, 52.67 0.48, 56.58 0.98 M43.25 -5.89 C47 -3.57, 51.93 -1.5, 56.58 0.98 M56.58 0.98 C56.58 0.98, 56.58 0.98, 56.58 0.98 M56.58 0.98 C56.58 0.98, 56.58 0.98, 56.58 0.98" stroke="#1e1e1e" stroke-width="1" fill="none"></path></g></g><mask></mask><g stroke-linecap="round" transform="translate(110.11992261539848 429.677428963676) rotate(0 51.5 19.5)"><path d="M9.75 0 C36.76 -0.96, 62.84 -0.1, 93.25 0 M9.75 0 C42.69 1.04, 75.61 1.26, 93.25 0 M93.25 0 C98.26 -0.69, 104.29 2.92, 103 9.75 M93.25 0 C100.4 0.5, 105.06 1.64, 103 9.75 M103 9.75 C101.94 14.11, 104.47 17.67, 103 29.25 M103 9.75 C102.58 16.86, 102.62 22.22, 103 29.25 M103 29.25 C101.41 35.59, 100.03 38.31, 93.25 39 M103 29.25 C101.39 37.87, 101.01 40.06, 93.25 39 M93.25 39 C77.22 39.31, 58.93 40.74, 9.75 39 M93.25 39 C65.96 38.05, 39.15 37.87, 9.75 39 M9.75 39 C2.85 38.28, -1.74 36.49, 0 29.25 M9.75 39 C5.54 37.66, -1 33.71, 0 29.25 M0 29.25 C-1.72 23.11, 1.1 15.51, 0 9.75 M0 29.25 C0.64 23.08, -0.21 16.7, 0 9.75 M0 9.75 C-0.45 4.39, 4.59 1.37, 9.75 0 M0 9.75 C1.08 1.26, 2.77 0.45, 9.75 0" stroke="#1e1e1e" stroke-width="1" fill="none"></path></g><g stroke-linecap="round"><g transform="translate(162.11992261539848 429.677428963676) rotate(0 0 18.5)"><path d="M-0.24 0.5 C-0.25 6.69, -0.03 31.53, -0.01 37.53 M0.63 0.28 C0.55 6.3, -0.26 30.74, -0.44 36.83" stroke="#1e1e1e" stroke-width="1" fill="none"></path></g></g><mask></mask><g transform="translate(130.11992261539848 429.677428963676) rotate(0 7.6580352783203125 17.5)"><text x="7.6580352783203125" y="24.528" font-family="Virgil, Segoe UI Emoji" font-size="28px" fill="#1e1e1e" text-anchor="middle" style="white-space: pre;" direction="ltr" dominant-baseline="alphabetic">e</text></g><g stroke-linecap="round"><g transform="translate(190 450) rotate(0 30 20)"><path d="M0.34 -1.15 C10.08 -1.12, 48.95 -7.34, 59.04 -0.49 C69.13 6.37, 60.68 33.35, 60.9 39.96 M-0.95 0.86 C9.12 1.12, 50.99 -5.94, 61.25 0.8 C71.51 7.53, 60.69 34.76, 60.6 41.26" stroke="#1e1e1e" stroke-width="1" fill="none"></path></g><g transform="translate(190 450) rotate(0 30 20)"><path d="M60.13 41.88 L56.36 26.89 L71.04 28.26 L59.87 40.56" stroke="none" stroke-width="0" fill="#1e1e1e" fill-rule="evenodd"></path><path d="M60.6 41.26 C58.03 34.99, 57.66 32.23, 57.12 26.67 M60.6 41.26 C59.57 36.41, 58.05 32.54, 57.12 26.67 M57.12 26.67 C60.32 26.46, 63.53 27.89, 69.54 29.21 M57.12 26.67 C58.97 27.37, 62.16 27.35, 69.54 29.21 M69.54 29.21 C66.63 31.33, 66.04 34.45, 60.6 41.26 M69.54 29.21 C65.83 34.39, 62.27 38.39, 60.6 41.26 M60.6 41.26 C60.6 41.26, 60.6 41.26, 60.6 41.26 M60.6 41.26 C60.6 41.26, 60.6 41.26, 60.6 41.26" stroke="#1e1e1e" stroke-width="1" fill="none"></path></g></g><mask></mask><g transform="translate(50 570) rotate(0 72.12831115722656 17.5)"><text x="72.12831115722656" y="24.528" font-family="Virgil, Segoe UI Emoji" font-size="28px" fill="#1e1e1e" text-anchor="middle" style="white-space: pre;" direction="ltr" dominant-baseline="alphabetic">p-&gt;next:= l</text></g><g transform="translate(30 639) rotate(0 3.6820144653320312 17.5)"><text x="3.6820144653320312" y="24.528" font-family="Virgil, Segoe UI Emoji" font-size="28px" fill="#1e1e1e" text-anchor="middle" style="white-space: pre;" direction="ltr" dominant-baseline="alphabetic">l</text></g><g stroke-linecap="round"><g transform="translate(46.68201446533203 652.7001499796093) rotate(0 29.658992767333984 -0.2215121254952237)"><path d="M1.11 -0.54 C10.98 -0.79, 48.74 -1.42, 58.56 -1.27 M0.23 1.79 C10.55 1.65, 50.98 0.39, 60.87 -0.16" stroke="#1e1e1e" stroke-width="1" fill="none"></path></g><g transform="translate(46.68201446533203 652.7001499796093) rotate(0 29.658992767333984 -0.2215121254952237)"><path d="M58.99 -1.55 L45.58 8.58 L46.86 -7.5 L60.69 1.59" stroke="none" stroke-width="0" fill="#1e1e1e" fill-rule="evenodd"></path><path d="M60.87 -0.16 C56.97 0.69, 53.38 4.17, 47.55 6.73 M60.87 -0.16 C56.42 3.05, 51.46 4.88, 47.55 6.73 M47.55 6.73 C46.33 5.02, 47.35 0.64, 47.03 -5.94 M47.55 6.73 C47.09 2.1, 47.48 -1.81, 47.03 -5.94 M47.03 -5.94 C49.39 -4.1, 53.06 -4.36, 60.87 -0.16 M47.03 -5.94 C51.68 -4.32, 57.15 -1.98, 60.87 -0.16 M60.87 -0.16 C60.87 -0.16, 60.87 -0.16, 60.87 -0.16 M60.87 -0.16 C60.87 -0.16, 60.87 -0.16, 60.87 -0.16" stroke="#1e1e1e" stroke-width="1" fill="none"></path></g></g><mask></mask><g stroke-linecap="round" transform="translate(110 630) rotate(0 51.5 19.5)"><path d="M9.75 0 C41.16 1.67, 76.69 -0.87, 93.25 0 M9.75 0 C40.5 -0.82, 69.19 -0.26, 93.25 0 M93.25 0 C97.91 -1.67, 104.74 3.38, 103 9.75 M93.25 0 C98.89 0.61, 103.41 1.67, 103 9.75 M103 9.75 C102.03 13.81, 102.08 21.39, 103 29.25 M103 9.75 C102.28 14.9, 103.28 18.68, 103 29.25 M103 29.25 C101.56 34.34, 99.09 38.06, 93.25 39 M103 29.25 C102.04 36.21, 100.79 37.02, 93.25 39 M93.25 39 C66.24 41.25, 36.12 38.78, 9.75 39 M93.25 39 C71.19 38.25, 50.03 39.87, 9.75 39 M9.75 39 C3.08 37.44, -0.18 37.5, 0 29.25 M9.75 39 C2.02 41.08, 1.84 35.21, 0 29.25 M0 29.25 C1.14 21.28, 0.8 15.94, 0 9.75 M0 29.25 C-0.76 23.47, 0.18 17.11, 0 9.75 M0 9.75 C-0.03 4.66, 4.48 1.18, 9.75 0 M0 9.75 C-2.13 4.11, 2.08 1.1, 9.75 0" stroke="#1e1e1e" stroke-width="1" fill="none"></path></g><g stroke-linecap="round"><g transform="translate(164.68201446533203 633) rotate(0 0 18.5)"><path d="M0.31 0.38 C0.31 6.67, -0.39 31.16, -0.38 37.33 M-0.19 0.1 C0.01 6.26, 0.58 30.46, 0.65 36.54" stroke="#1e1e1e" stroke-width="1" fill="none"></path></g></g><mask></mask><g transform="translate(130 630) rotate(0 11.452049255371094 17.5)"><text x="11.452049255371094" y="24.528" font-family="Virgil, Segoe UI Emoji" font-size="28px" fill="#1e1e1e" text-anchor="middle" style="white-space: pre;" direction="ltr" dominant-baseline="alphabetic">e1</text></g><g stroke-linecap="round"><g transform="translate(186.68201446533203 652) rotate(0 42.5 0)"><path d="M0.83 0.93 C15.26 0.77, 71.89 -0.13, 85.77 -0.21 M-0.19 0.37 C14.22 0.34, 70.78 1.55, 85.22 1.22" stroke="#1e1e1e" stroke-width="1" fill="none"></path></g><g transform="translate(186.68201446533203 652) rotate(0 42.5 0)"><path d="M84.15 3.02 L73.21 7.06 L72.17 -6.27 L84.77 2.27" stroke="none" stroke-width="0" fill="#1e1e1e" fill-rule="evenodd"></path><path d="M85.22 1.22 C83.29 3.72, 78.73 3.04, 71.61 7.53 M85.22 1.22 C81.21 3.29, 75.67 5.57, 71.61 7.53 M71.61 7.53 C70.73 4.08, 71.19 -1.15, 71.64 -5.15 M71.61 7.53 C71.73 3.85, 71.01 1.4, 71.64 -5.15 M71.64 -5.15 C74.96 -3.49, 79.7 -1.57, 85.22 1.22 M71.64 -5.15 C76.32 -3.24, 80.84 -0.42, 85.22 1.22 M85.22 1.22 C85.22 1.22, 85.22 1.22, 85.22 1.22 M85.22 1.22 C85.22 1.22, 85.22 1.22, 85.22 1.22" stroke="#1e1e1e" stroke-width="1" fill="none"></path></g></g><mask></mask><g stroke-linecap="round" transform="translate(270.30010600220413 633.5993117160306) rotate(0 51.5 19.5)"><path d="M9.75 0 C40.23 -2.1, 72.17 -2.37, 93.25 0 M9.75 0 C27.44 0.21, 46.05 -0.74, 93.25 0 M93.25 0 C98.89 -1.54, 103.92 2.41, 103 9.75 M93.25 0 C98.62 -0.91, 104.9 1.57, 103 9.75 M103 9.75 C104.32 16.69, 103.02 21.34, 103 29.25 M103 9.75 C102.53 14.42, 103.38 17.86, 103 29.25 M103 29.25 C103.81 35.09, 101.04 40.43, 93.25 39 M103 29.25 C104.97 35.46, 98.88 37.92, 93.25 39 M93.25 39 C68.27 36.24, 47.91 38.04, 9.75 39 M93.25 39 C74.17 40.63, 56.96 39.49, 9.75 39 M9.75 39 C3.78 37.87, -0.46 36.81, 0 29.25 M9.75 39 C1.36 39.82, -0.67 35.87, 0 29.25 M0 29.25 C0.23 23.2, -0.59 16.13, 0 9.75 M0 29.25 C-1.02 22.39, -0.62 15.26, 0 9.75 M0 9.75 C1.24 3.02, 3.7 0.45, 9.75 0 M0 9.75 C1.14 5.3, 4.3 -2.08, 9.75 0" stroke="#1e1e1e" stroke-width="1" fill="none"></path></g><g stroke-linecap="round"><g transform="translate(322.30010600220413 633.5993117160306) rotate(0 0 18.5)"><path d="M-0.43 0.21 C-0.57 6.32, -0.66 30.4, -0.51 36.54 M0.35 -0.16 C0.34 6.01, 0.46 30.7, 0.47 37" stroke="#1e1e1e" stroke-width="1" fill="none"></path></g></g><mask></mask><g transform="translate(281.6740302575752 633.5993117160306) rotate(0 17.626075744628906 17.5)"><text x="17.626075744628906" y="24.528" font-family="Virgil, Segoe UI Emoji" font-size="28px" fill="#1e1e1e" text-anchor="middle" style="white-space: pre;" direction="ltr" dominant-baseline="alphabetic">e2</text></g><g stroke-linecap="round"><g transform="translate(344.30010600220413 652.5993117160306) rotate(0 42.49999999999997 0)"><path d="M1.05 0.08 C15.32 0.3, 70.52 0.47, 84.55 0.32 M0.13 -0.93 C14.31 -1, 69.3 -1.8, 83.37 -1.64" stroke="#1e1e1e" stroke-width="1" fill="none"></path></g><g transform="translate(344.30010600220413 652.5993117160306) rotate(0 42.49999999999997 0)"><path d="M81.72 -0.93 L69.21 4.85 L70.46 -6.63 L81.94 -1.28" stroke="none" stroke-width="0" fill="#1e1e1e" fill-rule="evenodd"></path><path d="M83.37 -1.64 C80.59 -0.76, 78.06 1.4, 69.79 4.74 M83.37 -1.64 C80.54 -0.58, 76.69 0.91, 69.79 4.74 M69.79 4.74 C69.11 -1.13, 70.79 -4.67, 69.75 -7.94 M69.79 4.74 C69.66 0.55, 69.59 -2.92, 69.75 -7.94 M69.75 -7.94 C73.9 -4.85, 80.17 -2.36, 83.37 -1.64 M69.75 -7.94 C73.51 -6.11, 76.84 -4.77, 83.37 -1.64 M83.37 -1.64 C83.37 -1.64, 83.37 -1.64, 83.37 -1.64 M83.37 -1.64 C83.37 -1.64, 83.37 -1.64, 83.37 -1.64" stroke="#1e1e1e" stroke-width="1" fill="none"></path></g></g><mask></mask><g transform="translate(442.17391204833984 630) rotate(0 25.508102416992188 17.5)"><text x="25.508102416992188" y="24.528" font-family="Virgil, Segoe UI Emoji" font-size="28px" fill="#1e1e1e" text-anchor="middle" style="white-space: pre;" direction="ltr" dominant-baseline="alphabetic">. . .</text></g><g transform="translate(30 750.3879696026911) rotate(0 6.902030944824219 17.5)"><text x="6.902030944824219" y="24.528" font-family="Virgil, Segoe UI Emoji" font-size="28px" fill="#1e1e1e" text-anchor="middle" style="white-space: pre;" direction="ltr" dominant-baseline="alphabetic">p</text></g><g stroke-linecap="round"><g transform="translate(51.815875026155254 771.1513538794206) rotate(0 28.592062486922373 0.4611632130942098)"><path d="M-0.96 0.89 C8.54 1.18, 47.91 1.14, 57.45 1.01 M0.73 0.31 C10.07 0.87, 46.98 2.48, 56.65 2.59" stroke="#1e1e1e" stroke-width="1" fill="none"></path></g><g transform="translate(51.815875026155254 771.1513538794206) rotate(0 28.592062486922373 0.4611632130942098)"><path d="M55.63 3.54 L44.11 8.29 L43.7 -3.7 L57.64 4.37" stroke="none" stroke-width="0" fill="#1e1e1e" fill-rule="evenodd"></path><path d="M56.65 2.59 C53.13 4.79, 47.54 5.35, 42.87 8.52 M56.65 2.59 C53.15 4.03, 50.65 4.6, 42.87 8.52 M42.87 8.52 C43.95 5.29, 43.01 -0.59, 43.25 -4.15 M42.87 8.52 C42.39 4.88, 42.46 2.7, 43.25 -4.15 M43.25 -4.15 C48.41 -2.98, 52.37 0.99, 56.65 2.59 M43.25 -4.15 C46.8 -1.82, 50.06 -0.08, 56.65 2.59 M56.65 2.59 C56.65 2.59, 56.65 2.59, 56.65 2.59 M56.65 2.59 C56.65 2.59, 56.65 2.59, 56.65 2.59" stroke="#1e1e1e" stroke-width="1" fill="none"></path></g></g><mask></mask><g stroke-linecap="round" transform="translate(110 750.3879696026911) rotate(0 51.5 19.5)"><path d="M9.75 0 C28.23 -1.63, 45.02 -0.85, 93.25 0 M9.75 0 C31.32 -1.03, 52.38 -0.5, 93.25 0 M93.25 0 C101.04 1.43, 104.71 3, 103 9.75 M93.25 0 C98.88 -1.08, 102.6 3.1, 103 9.75 M103 9.75 C104.67 13.6, 101.35 17.59, 103 29.25 M103 9.75 C103.68 17.07, 103.16 24.31, 103 29.25 M103 29.25 C102.54 36.81, 98.11 39.71, 93.25 39 M103 29.25 C102.33 35.87, 100.57 40.5, 93.25 39 M93.25 39 C73.68 39.18, 56.46 40.44, 9.75 39 M93.25 39 C62.76 39.79, 33.92 39.19, 9.75 39 M9.75 39 C3.7 39.45, 0.99 37.53, 0 29.25 M9.75 39 C4.3 36.92, -1.47 38.04, 0 29.25 M0 29.25 C1.54 24.04, -1 22.36, 0 9.75 M0 29.25 C-0.5 22.3, -0.46 15.45, 0 9.75 M0 9.75 C-0.23 5.12, 3.71 -0.36, 9.75 0 M0 9.75 C-1.06 0.97, 4.4 -2.03, 9.75 0" stroke="#1e1e1e" stroke-width="1" fill="none"></path></g><g stroke-linecap="round"><g transform="translate(162 750.3879696026911) rotate(0 0 18.5)"><path d="M-0.4 -0.39 C-0.45 5.73, -0.21 30.49, -0.18 36.74 M0.4 0.6 C0.25 6.79, -0.52 31.11, -0.7 37.31" stroke="#1e1e1e" stroke-width="1" fill="none"></path></g></g><mask></mask><g transform="translate(130 750.3879696026911) rotate(0 7.6580352783203125 17.5)"><text x="7.6580352783203125" y="24.528" font-family="Virgil, Segoe UI Emoji" font-size="28px" fill="#1e1e1e" text-anchor="middle" style="white-space: pre;" direction="ltr" dominant-baseline="alphabetic">e</text></g><g stroke-linecap="round"><g transform="translate(190.94563329648224 771.6430166578189) rotate(0 -30.47281664824112 -50.82150832890943)"><path d="M-0.5 0.24 C-7.17 -10.11, -30.41 -45.63, -40.4 -62.68 C-50.4 -79.72, -57.16 -95.69, -60.46 -102.04 M1.43 -0.68 C-5.31 -10.87, -30.67 -44.98, -41.07 -61.68 C-51.47 -78.39, -57.89 -94.06, -60.97 -100.93" stroke="#1e1e1e" stroke-width="1" fill="none"></path></g><g transform="translate(190.94563329648224 771.6430166578189) rotate(0 -30.47281664824112 -50.82150832890943)"><path d="M-60.06 -102.74 L-50.95 -89.06 L-63.04 -86.36 L-61.61 -99.4" stroke="none" stroke-width="0" fill="#1e1e1e" fill-rule="evenodd"></path><path d="M-60.97 -100.93 C-57.7 -97.57, -56.28 -95, -49.68 -91.06 M-60.97 -100.93 C-57.25 -98.47, -55.16 -96.09, -49.68 -91.06 M-49.68 -91.06 C-53.84 -90.97, -55.06 -88.38, -61.27 -85.93 M-49.68 -91.06 C-52.59 -89.25, -54.32 -88.83, -61.27 -85.93 M-61.27 -85.93 C-60.3 -92.06, -60.45 -96.17, -60.97 -100.93 M-61.27 -85.93 C-61.77 -90.38, -60.95 -95.27, -60.97 -100.93 M-60.97 -100.93 C-60.97 -100.93, -60.97 -100.93, -60.97 -100.93 M-60.97 -100.93 C-60.97 -100.93, -60.97 -100.93, -60.97 -100.93" stroke="#1e1e1e" stroke-width="1" fill="none"></path></g></g><mask></mask><g transform="translate(50 850) rotate(0 29.610130310058594 17.5)"><text x="29.610130310058594" y="24.528" font-family="Virgil, Segoe UI Emoji" font-size="28px" fill="#1e1e1e" text-anchor="middle" style="white-space: pre;" direction="ltr" dominant-baseline="alphabetic">l:= p</text></g><g transform="translate(30 919) rotate(0 3.6820144653320312 17.5)"><text x="3.6820144653320312" y="24.528" font-family="Virgil, Segoe UI Emoji" font-size="28px" fill="#1e1e1e" text-anchor="middle" style="white-space: pre;" direction="ltr" dominant-baseline="alphabetic">l</text></g><g stroke-linecap="round"><g transform="translate(46.68201446533203 932.7001499796093) rotate(0 31.48113456793328 48.37661283861485)"><path d="M-0.33 -0.5 C9.98 15.57, 52.48 80.81, 62.99 96.84 M1.69 -1.81 C11.75 14.43, 52.03 82.05, 62.05 98.42" stroke="#1e1e1e" stroke-width="1" fill="none"></path></g><g transform="translate(46.68201446533203 932.7001499796093) rotate(0 31.48113456793328 48.37661283861485)"><path d="M63.01 99.77 L48.86 90.14 L61.91 83.61 L61.94 97.58" stroke="none" stroke-width="0" fill="#1e1e1e" fill-rule="evenodd"></path><path d="M62.05 98.42 C56.49 95.12, 52.32 91.48, 49.6 90.05 M62.05 98.42 C58.88 97.28, 57.28 94.91, 49.6 90.05 M49.6 90.05 C53.49 87.77, 57.6 85.47, 60.46 83.5 M49.6 90.05 C52.32 88.22, 54.47 87.47, 60.46 83.5 M60.46 83.5 C60.38 89.76, 62.75 95.68, 62.05 98.42 M60.46 83.5 C61.56 88.61, 61.44 93.41, 62.05 98.42 M62.05 98.42 C62.05 98.42, 62.05 98.42, 62.05 98.42 M62.05 98.42 C62.05 98.42, 62.05 98.42, 62.05 98.42" stroke="#1e1e1e" stroke-width="1" fill="none"></path></g></g><mask></mask><g stroke-linecap="round" transform="translate(110 910) rotate(0 51.5 19.5)"><path d="M9.75 0 C32.63 -0.44, 53.42 -1.57, 93.25 0 M9.75 0 C42.69 -0.72, 75.2 -0.58, 93.25 0 M93.25 0 C101.04 -0.03, 103.23 3.53, 103 9.75 M93.25 0 C100.13 -1.73, 103.08 4.86, 103 9.75 M103 9.75 C104.26 17.61, 102.53 22.93, 103 29.25 M103 9.75 C104.06 15.09, 103.29 20.12, 103 29.25 M103 29.25 C104.45 36.23, 99.49 39.13, 93.25 39 M103 29.25 C102.97 36.24, 99.79 40.77, 93.25 39 M93.25 39 C67.55 40.25, 47.4 38.78, 9.75 39 M93.25 39 C64.42 39.27, 34.26 38.64, 9.75 39 M9.75 39 C4.7 39.11, -0.12 34.92, 0 29.25 M9.75 39 C1.08 36.9, -0.32 37.3, 0 29.25 M0 29.25 C0.78 22.69, -0.42 17.94, 0 9.75 M0 29.25 C-0.51 21.07, -0.65 12.91, 0 9.75 M0 9.75 C1.62 4.17, 5.03 -0.76, 9.75 0 M0 9.75 C0.06 4.3, 1.05 -1.29, 9.75 0" stroke="#1e1e1e" stroke-width="1" fill="none"></path></g><g stroke-linecap="round"><g transform="translate(164.68201446533203 913) rotate(0 0 18.5)"><path d="M-0.12 -0.5 C-0.19 5.74, -0.37 31.17, -0.43 37.49 M0.83 0.44 C0.92 6.53, 0.62 30.76, 0.59 36.77" stroke="#1e1e1e" stroke-width="1" fill="none"></path></g></g><mask></mask><g transform="translate(130 910) rotate(0 11.452049255371094 17.5)"><text x="11.452049255371094" y="24.528" font-family="Virgil, Segoe UI Emoji" font-size="28px" fill="#1e1e1e" text-anchor="middle" style="white-space: pre;" direction="ltr" dominant-baseline="alphabetic">e1</text></g><g stroke-linecap="round"><g transform="translate(186.68201446533203 932) rotate(0 42.5 0)"><path d="M-1 0.81 C13.43 0.61, 71.16 -0.04, 85.62 -0.18 M0.68 0.19 C15.08 0.69, 70.88 1.08, 84.99 1.26" stroke="#1e1e1e" stroke-width="1" fill="none"></path></g><g transform="translate(186.68201446533203 932) rotate(0 42.5 0)"><path d="M83.1 -0.56 L71.06 8.81 L70.62 -6.84 L83.53 1.9" stroke="none" stroke-width="0" fill="#1e1e1e" fill-rule="evenodd"></path><path d="M84.99 1.26 C83.02 3.3, 78.74 4.81, 71.34 7.47 M84.99 1.26 C81.04 3.22, 77 4.4, 71.34 7.47 M71.34 7.47 C70.73 3.6, 72.2 0.53, 71.46 -5.21 M71.34 7.47 C71.76 4.41, 72.03 0.56, 71.46 -5.21 M71.46 -5.21 C76.14 -3.45, 80.16 -1.22, 84.99 1.26 M71.46 -5.21 C75.7 -3.6, 79.97 -1.86, 84.99 1.26 M84.99 1.26 C84.99 1.26, 84.99 1.26, 84.99 1.26 M84.99 1.26 C84.99 1.26, 84.99 1.26, 84.99 1.26" stroke="#1e1e1e" stroke-width="1" fill="none"></path></g></g><mask></mask><g stroke-linecap="round" transform="translate(270.30010600220413 913.5993117160306) rotate(0 51.5 19.5)"><path d="M9.75 0 C27.58 0.78, 45.97 0.86, 93.25 0 M9.75 0 C34.83 -0.87, 59.61 0.58, 93.25 0 M93.25 0 C100.62 -0.87, 102.97 4.63, 103 9.75 M93.25 0 C101.12 -0.46, 102.75 2.29, 103 9.75 M103 9.75 C103.75 17.1, 103.73 25.19, 103 29.25 M103 9.75 C102.96 16.28, 102.99 23.14, 103 29.25 M103 29.25 C102.7 34.78, 99.25 37.11, 93.25 39 M103 29.25 C104.68 37.79, 99.74 40.17, 93.25 39 M93.25 39 C75.22 38.65, 54.58 40.85, 9.75 39 M93.25 39 C66.81 37.74, 42.13 39.32, 9.75 39 M9.75 39 C2.41 37.37, -1.46 36.39, 0 29.25 M9.75 39 C1.45 38.32, -1.47 38.02, 0 29.25 M0 29.25 C-1.01 21.04, -1.78 16.48, 0 9.75 M0 29.25 C-0.15 22.94, -1.11 15.2, 0 9.75 M0 9.75 C-0.72 2.9, 2.91 1.5, 9.75 0 M0 9.75 C0.74 1.64, 3.11 -0.85, 9.75 0" stroke="#1e1e1e" stroke-width="1" fill="none"></path></g><g stroke-linecap="round"><g transform="translate(322.30010600220413 913.5993117160306) rotate(0 0 18.5)"><path d="M0.33 -0.01 C0.34 6.17, 0.4 30.81, 0.35 36.99 M-0.16 -0.49 C-0.22 5.79, 0.12 31.32, 0.1 37.69" stroke="#1e1e1e" stroke-width="1" fill="none"></path></g></g><mask></mask><g transform="translate(281.6740302575752 913.5993117160306) rotate(0 17.626075744628906 17.5)"><text x="17.626075744628906" y="24.528" font-family="Virgil, Segoe UI Emoji" font-size="28px" fill="#1e1e1e" text-anchor="middle" style="white-space: pre;" direction="ltr" dominant-baseline="alphabetic">e2</text></g><g stroke-linecap="round"><g transform="translate(344.30010600220413 932.5993117160306) rotate(0 42.49999999999997 0)"><path d="M0.14 0.17 C14.21 0.02, 71.05 -1.01, 85.2 -0.9 M-1.25 -0.79 C12.61 -0.81, 70.1 0.21, 84.36 0.16" stroke="#1e1e1e" stroke-width="1" fill="none"></path></g><g transform="translate(344.30010600220413 932.5993117160306) rotate(0 42.49999999999997 0)"><path d="M82.8 -0.43 L69.43 8.36 L72.18 -4.4 L83.58 -0.68" stroke="none" stroke-width="0" fill="#1e1e1e" fill-rule="evenodd"></path><path d="M84.36 0.16 C79.59 2.69, 73.28 4.76, 70.71 6.38 M84.36 0.16 C79.32 2.92, 74.73 4.56, 70.71 6.38 M70.71 6.38 C71.79 3.94, 71.21 -0.72, 70.82 -6.29 M70.71 6.38 C70.57 2.24, 70.68 -1.84, 70.82 -6.29 M70.82 -6.29 C74.23 -4.7, 77.62 -1.29, 84.36 0.16 M70.82 -6.29 C75.57 -4.22, 81.7 -0.84, 84.36 0.16 M84.36 0.16 C84.36 0.16, 84.36 0.16, 84.36 0.16 M84.36 0.16 C84.36 0.16, 84.36 0.16, 84.36 0.16" stroke="#1e1e1e" stroke-width="1" fill="none"></path></g></g><mask></mask><g transform="translate(442.17391204833984 910) rotate(0 25.508102416992188 17.5)"><text x="25.508102416992188" y="24.528" font-family="Virgil, Segoe UI Emoji" font-size="28px" fill="#1e1e1e" text-anchor="middle" style="white-space: pre;" direction="ltr" dominant-baseline="alphabetic">. . .</text></g><g transform="translate(30 1030.387969602691) rotate(0 6.902030944824219 17.5)"><text x="6.902030944824219" y="24.528" font-family="Virgil, Segoe UI Emoji" font-size="28px" fill="#1e1e1e" text-anchor="middle" style="white-space: pre;" direction="ltr" dominant-baseline="alphabetic">p</text></g><g stroke-linecap="round"><g transform="translate(51.815875026155254 1051.1513538794206) rotate(0 28.592062486922373 0.4611632130942098)"><path d="M1.16 0.37 C10.6 0.42, 47.91 1.14, 57.39 1.28 M0.31 -0.48 C9.55 -0.88, 46.98 -1.19, 56.55 -0.66" stroke="#1e1e1e" stroke-width="1" fill="none"></path></g><g transform="translate(51.815875026155254 1051.1513538794206) rotate(0 28.592062486922373 0.4611632130942098)"><path d="M54.64 -1.78 L42.13 5.08 L42.74 -5.75 L57.19 -2.06" stroke="none" stroke-width="0" fill="#1e1e1e" fill-rule="evenodd"></path><path d="M56.55 -0.66 C52.13 1.92, 47.19 4.94, 42.84 5.43 M56.55 -0.66 C52.09 1.48, 47.67 3.87, 42.84 5.43 M42.84 5.43 C41.77 2.74, 44.16 -1.81, 43.08 -7.25 M42.84 5.43 C43.32 1.41, 42.86 -3.44, 43.08 -7.25 M43.08 -7.25 C47.48 -6.2, 51.76 -2.54, 56.55 -0.66 M43.08 -7.25 C47.45 -4.48, 52.36 -2.52, 56.55 -0.66 M56.55 -0.66 C56.55 -0.66, 56.55 -0.66, 56.55 -0.66 M56.55 -0.66 C56.55 -0.66, 56.55 -0.66, 56.55 -0.66" stroke="#1e1e1e" stroke-width="1" fill="none"></path></g></g><mask></mask><g stroke-linecap="round" transform="translate(110 1030.387969602691) rotate(0 51.5 19.5)"><path d="M9.75 0 C43.45 1.31, 76.45 -0.41, 93.25 0 M9.75 0 C35.34 0.59, 60.75 -0.66, 93.25 0 M93.25 0 C99.25 -1.89, 104.46 5.02, 103 9.75 M93.25 0 C99.74 1.17, 101.44 2.13, 103 9.75 M103 9.75 C103.22 17.95, 103.24 23.21, 103 29.25 M103 9.75 C102.68 15.44, 102.41 19.03, 103 29.25 M103 29.25 C101.54 36.39, 98.19 38.41, 93.25 39 M103 29.25 C101.53 38.02, 101.31 41.18, 93.25 39 M93.25 39 C69.79 40.18, 50.52 40.33, 9.75 39 M93.25 39 C70.4 38.82, 49.1 39.21, 9.75 39 M9.75 39 C2.91 40.5, 0.64 34.35, 0 29.25 M9.75 39 C3.11 38.15, 0.08 33.57, 0 29.25 M0 29.25 C-0.39 25.42, 0.52 19.86, 0 9.75 M0 29.25 C-0.5 25.17, -0.58 20.74, 0 9.75 M0 9.75 C-0.04 1.73, 4.2 1.92, 9.75 0 M0 9.75 C-0.51 3.01, 2.68 0.51, 9.75 0" stroke="#1e1e1e" stroke-width="1" fill="none"></path></g><g stroke-linecap="round"><g transform="translate(162 1030.387969602691) rotate(0 0 18.5)"><path d="M0.4 0.13 C0.37 6.28, 0 30.87, -0.07 37.03 M-0.06 -0.28 C-0.17 5.95, -0.49 31.41, -0.54 37.75" stroke="#1e1e1e" stroke-width="1" fill="none"></path></g></g><mask></mask><g transform="translate(130 1030.387969602691) rotate(0 7.6580352783203125 17.5)"><text x="7.6580352783203125" y="24.528" font-family="Virgil, Segoe UI Emoji" font-size="28px" fill="#1e1e1e" text-anchor="middle" style="white-space: pre;" direction="ltr" dominant-baseline="alphabetic">e</text></g><g stroke-linecap="round"><g transform="translate(190.94563329648224 1051.6430166578189) rotate(0 -30.472816648241093 -50.82150832890943)"><path d="M-0.02 0.26 C-6.81 -9.87, -30.74 -43.64, -40.93 -60.72 C-51.11 -77.8, -57.74 -95.21, -61.12 -102.22 M-1.48 -0.65 C-8.42 -11.12, -31.78 -45.6, -41.86 -62.36 C-51.95 -79.12, -58.77 -94.56, -61.98 -101.21" stroke="#1e1e1e" stroke-width="1" fill="none"></path></g><g transform="translate(190.94563329648224 1051.6430166578189) rotate(0 -30.472816648241093 -50.82150832890943)"><path d="M-62.1 -101.94 L-50.37 -93.52 L-62.16 -87.98 L-63.89 -101.78" stroke="none" stroke-width="0" fill="#1e1e1e" fill-rule="evenodd"></path><path d="M-61.98 -101.21 C-58.34 -98.44, -54.2 -95.93, -50.44 -91.63 M-61.98 -101.21 C-58.55 -98.02, -56.2 -95.89, -50.44 -91.63 M-50.44 -91.63 C-52.27 -90.79, -55.73 -88.14, -61.9 -86.21 M-50.44 -91.63 C-54.54 -90.6, -57.53 -87.94, -61.9 -86.21 M-61.9 -86.21 C-61.32 -91.25, -62.27 -94.91, -61.98 -101.21 M-61.9 -86.21 C-62.33 -92.5, -62.47 -98.78, -61.98 -101.21 M-61.98 -101.21 C-61.98 -101.21, -61.98 -101.21, -61.98 -101.21 M-61.98 -101.21 C-61.98 -101.21, -61.98 -101.21, -61.98 -101.21" stroke="#1e1e1e" stroke-width="1" fill="none"></path></g></g><mask></mask><g stroke-linecap="round" transform="translate(10 10) rotate(0 250 70)"><path d="M32 0 C123.24 -0.34, 215.22 -1.29, 468 0 M32 0 C194.67 -0.66, 357.73 -1.02, 468 0 M468 0 C489.86 0.53, 500.26 11.77, 500 32 M468 0 C490.09 1.56, 501.51 11.05, 500 32 M500 32 C498.14 56.34, 499.31 82.15, 500 108 M500 32 C498.49 47.56, 499.15 63.49, 500 108 M500 108 C501.96 128.49, 487.71 140.02, 468 140 M500 108 C501.77 127.59, 490.51 141.62, 468 140 M468 140 C293.75 138.81, 119.42 137.11, 32 140 M468 140 C364.38 142.02, 260.24 141.07, 32 140 M32 140 C10.73 140.11, -0.84 129.65, 0 108 M32 140 C8.74 141.61, 1.62 127.85, 0 108 M0 108 C1.52 91.4, 0.66 71.37, 0 32 M0 108 C-0.54 79.6, -1.55 51.03, 0 32 M0 32 C-1.51 11.55, 11.75 -1.81, 32 0 M0 32 C2 9.01, 11.72 0.63, 32 0" stroke="#1e1e1e" stroke-width="1" fill="none"></path></g><g stroke-linecap="round"><g transform="translate(190.4171996112354 372) rotate(0 42.5 0)"><path d="M0.68 -0.18 C14.7 -0.32, 70.89 -1.07, 84.87 -1.14 M-0.42 -1.32 C13.36 -1.34, 69.86 -0.48, 83.85 -0.2" stroke="#1e1e1e" stroke-width="1" fill="none"></path></g><g transform="translate(190.4171996112354 372) rotate(0 42.5 0)"><path d="M83.61 -1.33 L71.6 7.82 L69.25 -7.89 L84.35 -0.99" stroke="none" stroke-width="0" fill="#1e1e1e" fill-rule="evenodd"></path><path d="M83.85 -0.2 C78.61 1.94, 72.41 3.77, 70.15 5.91 M83.85 -0.2 C79.85 1.26, 77.18 3.56, 70.15 5.91 M70.15 5.91 C71.23 2.79, 69.88 -1.56, 70.37 -6.77 M70.15 5.91 C70.25 3.97, 70.27 1.08, 70.37 -6.77 M70.37 -6.77 C74.02 -3.51, 79.01 -3.95, 83.85 -0.2 M70.37 -6.77 C75.3 -4.05, 80.75 -1.57, 83.85 -0.2 M83.85 -0.2 C83.85 -0.2, 83.85 -0.2, 83.85 -0.2 M83.85 -0.2 C83.85 -0.2, 83.85 -0.2, 83.85 -0.2" stroke="#1e1e1e" stroke-width="1" fill="none"></path></g></g><mask></mask><g stroke-linecap="round" transform="translate(274.03529114810743 353.59931171603057) rotate(0 51.5 19.5)"><path d="M9.75 0 C37.65 -0.66, 68.31 -1.35, 93.25 0 M9.75 0 C34.33 1.04, 58.08 0.52, 93.25 0 M93.25 0 C101.52 1.71, 103.27 2.74, 103 9.75 M93.25 0 C98.12 -2.25, 104.48 5.29, 103 9.75 M103 9.75 C104.12 16.49, 101.57 22.46, 103 29.25 M103 9.75 C102.22 15.34, 104.07 20.43, 103 29.25 M103 29.25 C102.99 36.93, 101.28 40.45, 93.25 39 M103 29.25 C101.13 35.48, 99.75 39.5, 93.25 39 M93.25 39 C74.02 37.89, 55.67 39.94, 9.75 39 M93.25 39 C72.71 38.77, 53.12 40.28, 9.75 39 M9.75 39 C2.13 37.88, 0.5 34.96, 0 29.25 M9.75 39 C1.48 37.79, 1.71 36.81, 0 29.25 M0 29.25 C0.06 22.84, -1.22 12.94, 0 9.75 M0 29.25 C0.69 22.6, -0.36 16.07, 0 9.75 M0 9.75 C0.86 1.31, 5.11 -1.68, 9.75 0 M0 9.75 C1.44 2.01, 2.4 2.25, 9.75 0" stroke="#1e1e1e" stroke-width="1" fill="none"></path></g><g stroke-linecap="round"><g transform="translate(326.03529114810743 353.59931171603057) rotate(0 0 18.5)"><path d="M-0.21 -0.29 C-0.26 5.96, -0.36 30.75, -0.4 36.96 M0.69 0.75 C0.81 7.13, 0.63 31.5, 0.63 37.63" stroke="#1e1e1e" stroke-width="1" fill="none"></path></g></g><mask></mask><g transform="translate(285.4092154034785 353.59931171603057) rotate(0 17.626075744628906 17.5)"><text x="17.626075744628906" y="24.528" font-family="Virgil, Segoe UI Emoji" font-size="28px" fill="#1e1e1e" text-anchor="middle" style="white-space: pre;" direction="ltr" dominant-baseline="alphabetic">e2</text></g><g stroke-linecap="round"><g transform="translate(348.03529114810743 372.59931171603057) rotate(0 42.50000000000003 0)"><path d="M-0.91 -0.07 C13.44 0.15, 71.02 1.09, 85.25 1.19 M0.81 -1.15 C15.11 -1.22, 70.66 -0.25, 84.44 -0.3" stroke="#1e1e1e" stroke-width="1" fill="none"></path></g><g transform="translate(348.03529114810743 372.59931171603057) rotate(0 42.50000000000003 0)"><path d="M82.9 -1.36 L72.28 6.85 L72.51 -5.76 L83.51 -0.14" stroke="none" stroke-width="0" fill="#1e1e1e" fill-rule="evenodd"></path><path d="M84.44 -0.3 C81.24 1.33, 79.71 1.82, 70.79 5.93 M84.44 -0.3 C79.85 1.79, 74.48 3.41, 70.79 5.93 M70.79 5.93 C71.96 1.53, 71.36 -3, 70.9 -6.75 M70.79 5.93 C71.29 3.16, 70.22 0.82, 70.9 -6.75 M70.9 -6.75 C77.17 -3.06, 82.7 -2.89, 84.44 -0.3 M70.9 -6.75 C74.17 -5.42, 78.12 -3.51, 84.44 -0.3 M84.44 -0.3 C84.44 -0.3, 84.44 -0.3, 84.44 -0.3 M84.44 -0.3 C84.44 -0.3, 84.44 -0.3, 84.44 -0.3" stroke="#1e1e1e" stroke-width="1" fill="none"></path></g></g><mask></mask><g transform="translate(445.90909719424326 350) rotate(0 25.508102416992188 17.5)"><text x="25.508102416992188" y="24.528" font-family="Virgil, Segoe UI Emoji" font-size="28px" fill="#1e1e1e" text-anchor="middle" style="white-space: pre;" direction="ltr" dominant-baseline="alphabetic">. . .</text></g><g stroke-linecap="round" transform="translate(10 330) rotate(0 250 90)"><path d="M32 0 C202.63 -2.17, 373.86 -2, 468 0 M32 0 C136.5 -0.67, 240.7 -0.92, 468 0 M468 0 C490.06 -1.93, 501.33 11.87, 500 32 M468 0 C488.95 -0.17, 500.29 8.79, 500 32 M500 32 C498.41 66.53, 500.98 99.41, 500 148 M500 32 C501.52 72.97, 501.49 114.91, 500 148 M500 148 C499.79 169.11, 489.97 181.54, 468 180 M500 148 C497.95 171.23, 487.79 178.32, 468 180 M468 180 C331.85 179.82, 194.96 180.61, 32 180 M468 180 C318.4 179.7, 169.81 179.39, 32 180 M32 180 C9.25 181.13, 0.17 167.92, 0 148 M32 180 C11.57 182.12, -1.32 169.02, 0 148 M0 148 C0.16 117.62, 0.2 88.27, 0 32 M0 148 C0.37 103.92, 0.63 61.83, 0 32 M0 32 C-0.99 9.98, 10.51 -0.51, 32 0 M0 32 C0.97 9.47, 12.32 -0.82, 32 0" stroke="#1e1e1e" stroke-width="1" fill="none"></path></g><g stroke-linecap="round" transform="translate(10 610) rotate(0 250 110)"><path d="M32 0 C202.17 0.17, 370.65 0.7, 468 0 M32 0 C202.79 1.05, 373.95 0.95, 468 0 M468 0 C488.63 -1.34, 499.58 12.37, 500 32 M468 0 C489.26 -1.14, 498.74 9.92, 500 32 M500 32 C500.66 73.68, 498.33 114.04, 500 188 M500 32 C500.27 93.18, 499.84 153.38, 500 188 M500 188 C500.78 210.21, 490.82 218.06, 468 220 M500 188 C497.89 208.37, 490.71 221.05, 468 220 M468 220 C375.84 219.56, 285.26 218.09, 32 220 M468 220 C296.65 221.97, 125.34 221.97, 32 220 M32 220 C11.93 220.37, -0.51 208.15, 0 188 M32 220 C12.33 221.83, 1.93 207.06, 0 188 M0 188 C2.42 148.61, 0.66 110.64, 0 32 M0 188 C0.95 136.31, 0.79 85.23, 0 32 M0 32 C0.95 9.82, 10.15 -0.17, 32 0 M0 32 C-1.36 12.41, 10.64 1.01, 32 0" stroke="#1e1e1e" stroke-width="1" fill="none"></path></g><g stroke-linecap="round" transform="translate(10 890) rotate(0 250 100)"><path d="M32 0 C128.78 -0.64, 226.22 -0.59, 468 0 M32 0 C189.66 -0.84, 346.52 -0.4, 468 0 M468 0 C488.06 -1.94, 498.39 8.97, 500 32 M468 0 C487.9 1.37, 500.02 11.99, 500 32 M500 32 C499.44 73.01, 501.99 112.8, 500 168 M500 32 C497.96 86.17, 499.24 139.17, 500 168 M500 168 C499.41 190.29, 487.92 201.01, 468 200 M500 168 C502.13 189.4, 487.23 201.76, 468 200 M468 200 C380.36 200.45, 290.74 199.45, 32 200 M468 200 C339.01 199.67, 210.38 200.36, 32 200 M32 200 C12.13 199.28, 0.94 188.55, 0 168 M32 200 C12.47 198.57, -0.29 187.73, 0 168 M0 168 C-0.81 131.58, -0.43 93.75, 0 32 M0 168 C-0.15 127.79, -0.36 88.47, 0 32 M0 32 C0.69 9.37, 12.08 0.44, 32 0 M0 32 C1.81 10.74, 12.61 2.15, 32 0" stroke="#1e1e1e" stroke-width="1" fill="none"></path></g></svg>