<svg version="1.1" xmlns="http://www.w3.org/2000/svg" viewBox="0 0 520 480.63750592462054" width="520" height="480.63750592462054" filter="invert(93%) hue-rotate(180deg)">
  <!-- svg-source:excalidraw -->
  
  <defs>
    <style class="style-fonts">
      @font-face {
        font-family: "Virgil";
        src: url("https://excalidraw.com/Virgil.woff2");
      }
      @font-face {
        font-family: "Cascadia";
        src: url("https://excalidraw.com/Cascadia.woff2");
      }
      @font-face {
        font-family: "Assistant";
        src: url("https://excalidraw.com/Assistant-Regular.woff2");
      }
    </style>
    
  </defs>
  <rect x="0" y="0" width="520" height="480.63750592462054" fill="#f8f9fa"></rect><g stroke-linecap="round" transform="translate(230 70.63750592462056) rotate(0 30 30)"><path d="M37.73 0.84 C43.66 2.18, 50.59 7.95, 54.25 13.3 C57.91 18.64, 60.21 26.37, 59.68 32.92 C59.15 39.47, 55.57 47.95, 51.07 52.6 C46.56 57.25, 39.25 60.43, 32.64 60.81 C26.04 61.18, 16.74 58.98, 11.46 54.85 C6.17 50.71, 2.47 42.56, 0.94 36.01 C-0.6 29.45, -0.52 21.16, 2.27 15.53 C5.05 9.89, 10.86 4.29, 17.63 2.18 C24.4 0.06, 38.14 2.13, 42.87 2.84 C47.59 3.55, 46.31 5.8, 45.98 6.44 M20.29 2.61 C26 0.31, 34.86 -1.13, 40.93 1.13 C46.99 3.39, 53.75 10.06, 56.66 16.17 C59.58 22.29, 59.74 31.6, 58.4 37.82 C57.07 44.05, 53.54 49.65, 48.63 53.52 C43.72 57.4, 35.61 61.5, 28.95 61.06 C22.29 60.62, 13.58 55.39, 8.67 50.87 C3.76 46.35, 0.21 40.32, -0.54 33.95 C-1.28 27.58, 0.8 18.26, 4.2 12.64 C7.59 7.01, 17.19 2.2, 19.82 0.2 C22.45 -1.81, 19.71 -0.04, 19.98 0.61" stroke="#2f9e44" stroke-width="1" fill="none"></path></g><g transform="translate(257.076797479931 87.92430248902413) rotate(0 2.7099990844726562 12.5)"><text x="2.7099990844726562" y="17.52" font-family="Virgil, Segoe UI Emoji" font-size="20px" fill="#2f9e44" text-anchor="middle" style="white-space: pre;" direction="ltr" dominant-baseline="alphabetic">1</text></g><g stroke-linecap="round" transform="translate(150 190.63750592462054) rotate(0 30 30)"><path d="M30.85 0.55 C36.96 0.45, 44.91 3.91, 49.64 8.04 C54.37 12.16, 58.19 19.1, 59.23 25.29 C60.27 31.49, 59.06 39.71, 55.88 45.2 C52.71 50.69, 46.2 56.07, 40.19 58.25 C34.18 60.43, 25.9 60.56, 19.83 58.27 C13.77 55.98, 6.84 50.08, 3.8 44.51 C0.75 38.94, 0.29 31.24, 1.55 24.85 C2.81 18.46, 5.41 10.32, 11.36 6.16 C17.31 2, 32.21 0.33, 37.25 -0.11 C42.29 -0.55, 41.9 2.92, 41.62 3.53 M41.02 0.98 C47.09 2.93, 54.18 10.52, 57.43 16.26 C60.68 22, 62.13 28.98, 60.53 35.42 C58.93 41.85, 53.13 50.85, 47.84 54.85 C42.54 58.86, 35.19 59.77, 28.75 59.44 C22.32 59.11, 13.78 57, 9.22 52.87 C4.67 48.75, 2.37 41.32, 1.44 34.68 C0.5 28.04, 0.38 18.75, 3.6 13.04 C6.83 7.34, 14.59 2.16, 20.78 0.44 C26.97 -1.27, 37.24 2.33, 40.75 2.74 C44.27 3.15, 41.99 2.75, 41.87 2.92" stroke="#2f9e44" stroke-width="1" fill="none"></path></g><g transform="translate(172.66680144721613 207.92430248902411) rotate(0 7.1199951171875 12.5)"><text x="7.1199951171875" y="17.52" font-family="Virgil, Segoe UI Emoji" font-size="20px" fill="#2f9e44" text-anchor="middle" style="white-space: pre;" direction="ltr" dominant-baseline="alphabetic">2</text></g><g stroke-linecap="round" transform="translate(310 190.63750592462054) rotate(0 30 30)"><path d="M32.08 -0.56 C38.03 -0.12, 45.96 4.93, 50.46 9.65 C54.96 14.36, 58.56 21.4, 59.09 27.73 C59.61 34.07, 57.19 42.52, 53.62 47.64 C50.05 52.77, 43.78 57, 37.66 58.49 C31.54 59.98, 22.73 59.38, 16.9 56.56 C11.07 53.74, 5.35 47.33, 2.68 41.56 C0.01 35.79, -0.68 27.97, 0.89 21.91 C2.46 15.86, 5.57 8.67, 12.09 5.22 C18.61 1.76, 34.15 1.03, 40.01 1.17 C45.87 1.32, 47.21 5.52, 47.25 6.08 M40.32 1.22 C46.24 3.1, 52.57 10.67, 55.53 16.52 C58.49 22.38, 59 30.39, 58.06 36.33 C57.13 42.26, 54.61 48.3, 49.95 52.13 C45.29 55.97, 36.84 59.03, 30.11 59.36 C23.39 59.69, 14.48 58.4, 9.61 54.14 C4.74 49.88, 1.8 40.29, 0.89 33.78 C-0.02 27.27, 1.02 20.31, 4.16 15.09 C7.29 9.88, 13.84 4.42, 19.7 2.48 C25.55 0.54, 35.98 3.38, 39.27 3.45 C42.56 3.52, 39.59 2.69, 39.43 2.89" stroke="#2f9e44" stroke-width="1" fill="none"></path></g><g transform="translate(332.9768066352044 207.92430248902411) rotate(0 6.809989929199219 12.5)"><text x="6.809989929199219" y="17.52" font-family="Virgil, Segoe UI Emoji" font-size="20px" fill="#2f9e44" text-anchor="middle" style="white-space: pre;" direction="ltr" dominant-baseline="alphabetic">3</text></g><g stroke-linecap="round" transform="translate(230 410.63750592462054) rotate(0 30 30)"><path d="M37.05 0.96 C43.07 1.89, 49.02 6.39, 52.9 11.31 C56.78 16.24, 60.32 24.25, 60.33 30.53 C60.35 36.8, 57.14 44.23, 52.97 48.97 C48.8 53.71, 41.74 58.02, 35.33 58.96 C28.92 59.9, 20.14 57.83, 14.49 54.62 C8.83 51.42, 3.51 45.76, 1.42 39.72 C-0.67 33.69, -0.35 24.47, 1.95 18.44 C4.25 12.4, 9.36 6.26, 15.23 3.51 C21.09 0.76, 33.17 2.23, 37.15 1.95 C41.13 1.66, 39.06 1.34, 39.11 1.82 M41.28 1.75 C46.75 3.71, 52.26 10.1, 55.17 15.88 C58.08 21.66, 59.52 30.41, 58.73 36.44 C57.93 42.47, 55.42 48.18, 50.4 52.06 C45.39 55.94, 35.35 59.65, 28.63 59.71 C21.91 59.78, 14.7 56.59, 10.08 52.47 C5.47 48.35, 1.92 41.25, 0.94 34.98 C-0.04 28.7, 1.02 20.55, 4.21 14.82 C7.41 9.08, 14.09 2.65, 20.12 0.56 C26.16 -1.52, 36.83 1.91, 40.43 2.32 C44.04 2.73, 41.93 2.43, 41.76 3.01" stroke="#2f9e44" stroke-width="1" fill="none"></path></g><g transform="translate(253.38680266791926 427.9243024890241) rotate(0 6.399993896484375 12.5)"><text x="6.399993896484375" y="17.52" font-family="Virgil, Segoe UI Emoji" font-size="20px" fill="#2f9e44" text-anchor="middle" style="white-space: pre;" direction="ltr" dominant-baseline="alphabetic">4</text></g><g stroke-linecap="round" transform="translate(10 310.63750592462054) rotate(0 30 30)"><path d="M30.73 -0.11 C36.71 -0.67, 44.17 2.34, 48.99 6.37 C53.81 10.4, 58.34 17.75, 59.66 24.07 C60.98 30.39, 59.98 38.7, 56.93 44.29 C53.88 49.88, 47.37 55.38, 41.37 57.59 C35.36 59.8, 26.95 59.66, 20.9 57.56 C14.86 55.46, 8.52 50.37, 5.08 45 C1.64 39.63, -0.53 31.66, 0.26 25.32 C1.05 18.98, 4.39 11.1, 9.82 6.96 C15.24 2.83, 28.25 1.39, 32.78 0.5 C37.31 -0.4, 37.07 1.26, 37 1.59 M34.08 1.25 C39.79 2.05, 46.77 6.62, 51.27 11.39 C55.78 16.16, 60.67 23.85, 61.1 29.89 C61.53 35.93, 58.26 42.51, 53.86 47.64 C49.45 52.76, 41.14 59.28, 34.69 60.65 C28.24 62.03, 20.54 59.31, 15.15 55.9 C9.77 52.5, 4.48 46, 2.39 40.21 C0.31 34.41, 0.67 27.3, 2.63 21.12 C4.59 14.95, 8.74 6.54, 14.16 3.14 C19.58 -0.25, 31.64 1.05, 35.15 0.74 C38.66 0.42, 35.66 0.68, 35.23 1.26" stroke="#2f9e44" stroke-width="1" fill="none"></path></g><g transform="translate(33.60680388862238 327.9243024890241) rotate(0 6.17999267578125 12.5)"><text x="6.17999267578125" y="17.52" font-family="Virgil, Segoe UI Emoji" font-size="20px" fill="#2f9e44" text-anchor="middle" style="white-space: pre;" direction="ltr" dominant-baseline="alphabetic">5</text></g><g stroke-linecap="round" transform="translate(450 310.63750592462054) rotate(0 30 30)"><path d="M22.36 0.83 C28.2 -1.08, 36.33 0.17, 41.99 2.75 C47.64 5.33, 53.27 10.7, 56.28 16.31 C59.3 21.91, 61.35 30.17, 60.06 36.37 C58.78 42.56, 54.04 49.54, 48.56 53.48 C43.09 57.42, 33.9 60.33, 27.23 60.01 C20.56 59.69, 12.91 55.9, 8.54 51.55 C4.17 47.21, 1.7 40.35, 1.01 33.92 C0.32 27.49, 0.84 18.63, 4.38 12.96 C7.93 7.29, 18.96 1.9, 22.27 -0.08 C25.58 -2.05, 24.08 0.53, 24.24 1.11 M34.48 0.03 C40.71 0.22, 47.74 3.35, 51.75 8.25 C55.75 13.15, 57.99 23.04, 58.5 29.41 C59 35.78, 58.53 41.65, 54.75 46.46 C50.98 51.27, 42.03 56.7, 35.86 58.29 C29.69 59.87, 23.27 58.64, 17.75 55.98 C12.22 53.31, 5.42 48.1, 2.71 42.29 C0.01 36.48, -0.5 27.29, 1.51 21.11 C3.51 14.92, 9.63 8.43, 14.74 5.18 C19.85 1.93, 28.88 2.19, 32.15 1.59 C35.42 0.99, 34.36 1.48, 34.33 1.58" stroke="#2f9e44" stroke-width="1" fill="none"></path></g><g transform="translate(473.38680266791926 327.9243024890241) rotate(0 6.399993896484375 12.5)"><text x="6.399993896484375" y="17.52" font-family="Virgil, Segoe UI Emoji" font-size="20px" fill="#2f9e44" text-anchor="middle" style="white-space: pre;" direction="ltr" dominant-baseline="alphabetic">6</text></g><g stroke-linecap="round" transform="translate(450 70.63750592462056) rotate(0 30 30)"><path d="M24.86 1.25 C30.82 0.06, 40.97 1.89, 46.46 4.99 C51.95 8.1, 55.73 14.01, 57.79 19.87 C59.85 25.73, 61.21 34.01, 58.81 40.17 C56.42 46.33, 49.4 53.66, 43.43 56.83 C37.46 60, 29.06 60.71, 23.02 59.21 C16.97 57.71, 10.85 52.98, 7.15 47.81 C3.45 42.64, 0.63 34.5, 0.84 28.19 C1.04 21.88, 3.4 14.74, 8.38 9.95 C13.37 5.17, 26.26 0.92, 30.77 -0.52 C35.28 -1.97, 35.34 0.68, 35.43 1.29 M41.09 2.4 C46.82 4.21, 53.66 11.06, 56.7 16.61 C59.74 22.17, 60.53 29.8, 59.33 35.72 C58.13 41.64, 54.25 47.84, 49.51 52.11 C44.78 56.39, 37.5 61.11, 30.92 61.38 C24.34 61.64, 15.2 57.95, 10.01 53.7 C4.82 49.45, 0.53 42.44, -0.24 35.87 C-1 29.29, 1.84 19.83, 5.44 14.24 C9.04 8.66, 15.65 4.56, 21.35 2.36 C27.06 0.16, 36.55 0.88, 39.66 1.04 C42.78 1.19, 39.98 2.44, 40.05 3.26" stroke="#2f9e44" stroke-width="1" fill="none"></path></g><g transform="translate(474.40679931098566 87.92430248902413) rotate(0 5.379997253417969 12.5)"><text x="5.379997253417969" y="17.52" font-family="Virgil, Segoe UI Emoji" font-size="20px" fill="#2f9e44" text-anchor="middle" style="white-space: pre;" direction="ltr" dominant-baseline="alphabetic">7</text></g><g stroke-linecap="round" transform="translate(110 90.63750592462056) rotate(0 30 30)"><path d="M28.02 0.94 C34.2 0.26, 43.74 2.33, 49.02 6.18 C54.31 10.04, 58.54 17.66, 59.74 24.07 C60.93 30.47, 59.26 39.12, 56.19 44.61 C53.13 50.1, 47.42 54.81, 41.37 57.01 C35.31 59.21, 26.11 59.72, 19.87 57.81 C13.63 55.91, 7.21 50.75, 3.94 45.57 C0.67 40.4, -0.71 32.91, 0.25 26.75 C1.21 20.59, 4.48 12.98, 9.68 8.61 C14.88 4.23, 27.79 1.93, 31.46 0.51 C35.13 -0.92, 31.93 -0.26, 31.7 0.07 M31.83 -1.31 C37.7 -0.78, 46.79 4.33, 51.25 9.37 C55.72 14.42, 58.01 22.44, 58.59 28.96 C59.18 35.49, 58.53 43.34, 54.76 48.5 C50.99 53.65, 42.42 58.61, 35.98 59.9 C29.53 61.2, 21.86 59.2, 16.09 56.28 C10.31 53.37, 3.94 48.25, 1.33 42.4 C-1.28 36.55, -1.35 27.5, 0.43 21.17 C2.2 14.83, 6.6 7.71, 11.99 4.39 C17.38 1.07, 29.38 1.61, 32.74 1.24 C36.1 0.88, 31.98 1.87, 32.17 2.2" stroke="#2f9e44" stroke-width="1" fill="none"></path></g><g transform="translate(132.13680266791926 107.92430248902413) rotate(0 7.649993896484375 12.5)"><text x="7.649993896484375" y="17.52" font-family="Virgil, Segoe UI Emoji" font-size="20px" fill="#2f9e44" text-anchor="middle" style="white-space: pre;" direction="ltr" dominant-baseline="alphabetic">8</text></g><g stroke-linecap="round"><g transform="translate(250 130.63750592462054) rotate(0 -30 30)"><path d="M0.52 1.19 C-6.12 4.65, -29.72 10.37, -40 20.05 C-50.29 29.72, -57.84 52.75, -61.18 59.26 M-0.66 0.76 C-7.45 4.5, -31.25 11.7, -40.95 21.61 C-50.66 31.51, -55.76 53.83, -58.9 60.19" stroke="#ced4da" stroke-width="1" fill="none"></path></g></g><mask></mask><g stroke-linecap="round"><g transform="translate(270 130.63750592462054) rotate(0 30 30)"><path d="M0.43 -0.38 C7.13 2.99, 30.28 9.07, 40.28 19.11 C50.28 29.14, 57.14 53.14, 60.43 59.85 M-0.81 -1.63 C5.76 1.97, 29.36 9.72, 39.47 20.17 C49.59 30.63, 56.42 54.43, 59.89 61.09" stroke="#2f9e44" stroke-width="1" fill="none"></path></g></g><mask></mask><g stroke-linecap="round"><g transform="translate(210 230.63750592462054) rotate(0 50 0)"><path d="M0.5 -0.65 C10.27 -0.55, 43.01 0.42, 59.73 0.42 C76.46 0.42, 94.18 -0.57, 100.85 -0.67 M-0.7 1.62 C8.79 1.36, 41.77 -1.26, 58.64 -1.48 C75.51 -1.7, 93.66 -0.09, 100.53 0.29" stroke="#2f9e44" stroke-width="1" fill="none"></path></g></g><mask></mask><g stroke-linecap="round"><g transform="translate(290 110.63750592462056) rotate(0 80 0.04666235374723726)"><path d="M-0.92 1.13 C15.79 1.14, 72.95 0.21, 99.86 0.04 C126.76 -0.13, 150.58 0.26, 160.49 0.12 M0.79 0.68 C17.9 0.89, 75.48 1.41, 102.01 1.55 C128.54 1.68, 150.45 1.77, 159.99 1.5" stroke="#ced4da" stroke-width="1" fill="none"></path></g></g><mask></mask><g stroke-linecap="round"><g transform="translate(290 110.63750592462054) rotate(0 100 100)"><path d="M0.16 -1.09 C20.37 11.99, 87.05 45.67, 120.37 79.21 C153.7 112.75, 186.78 180.2, 200.11 200.15 M-1.22 0.96 C18.95 14.1, 86.18 46.9, 119.62 80.33 C153.06 113.76, 185.87 181.69, 199.41 201.55" stroke="#2f9e44" stroke-width="1" fill="none"></path></g></g><mask></mask><g stroke-linecap="round"><g transform="translate(489.92443316952756 310.6124226397472) rotate(0 0.03778341523621975 -89.97561482883896)"><path d="M-0.07 -1.1 C-0.2 -17.9, -0.13 -71.23, -0.19 -100.98 C-0.25 -130.74, -0.5 -166.27, -0.43 -179.62 M-1.57 0.94 C-1.93 -15.73, -1.3 -70.13, -1.28 -99.97 C-1.25 -129.82, -1.73 -164.69, -1.43 -178.13" stroke="#ced4da" stroke-width="1" fill="none"></path></g></g><mask></mask><g stroke-linecap="round"><g transform="translate(70 350.63750592462054) rotate(0 190 0)"><path d="M0.13 0.39 C63.32 0.22, 316.73 0.01, 380.07 0 M-1.25 -0.46 C61.69 -0.5, 315.7 1.16, 379.16 1.54" stroke="#ced4da" stroke-width="4" fill="none"></path></g></g><mask></mask><g stroke-linecap="round"><g transform="translate(290 450.63750592462054) rotate(0 90 -40)"><path d="M0.06 -0.68 C19.97 -4.06, 89.25 -6.77, 119.04 -19.96 C148.84 -33.15, 168.85 -69.74, 178.83 -79.82 M-1.37 1.57 C18.95 -1.62, 90.84 -5.07, 121.25 -18.4 C151.66 -31.73, 171.56 -68.22, 181.1 -78.41" stroke="#ced4da" stroke-width="1" fill="none"></path></g></g><mask></mask><g stroke-linecap="round"><g transform="translate(230 450.63750592462054) rotate(0 -90 -40)"><path d="M0.14 -0.54 C-19.63 -3.76, -89.62 -6.96, -119.71 -20.2 C-149.8 -33.44, -170.35 -70.15, -180.39 -80 M-1.24 1.79 C-21.06 -1.16, -90.48 -5.36, -120.5 -18.77 C-150.52 -32.18, -171.5 -68.23, -181.37 -78.68" stroke="#ced4da" stroke-width="1" fill="none"></path></g></g><mask></mask><g stroke-linecap="round"><g transform="translate(118.48224689551932 143.81047080472626) rotate(0 -37.58591167063372 82.68900567649385)"><path d="M-0.81 -0.66 C-13.13 27.06, -62.05 137.73, -74.64 165.52 M0.97 1.61 C-11.4 29.61, -62.8 140.04, -75.3 167.13" stroke="#2f9e44" stroke-width="1" fill="none"></path></g></g><mask></mask><g stroke-linecap="round"><g transform="translate(139.83642863061436 89.01515236883478) rotate(0 165.08178568469282 -39.18882322210712)"><path d="M-0.85 0.76 C17.28 -12.21, 54.15 -74.05, 109.14 -77.33 C164.12 -80.6, 292.17 -28.63, 329.06 -18.9 M0.9 0.12 C19.37 -13.22, 56.23 -75.9, 111.31 -78.89 C166.39 -81.89, 294.77 -27.99, 331.37 -17.85" stroke="#2f9e44" stroke-width="1" fill="none"></path></g></g><mask></mask><g stroke-linecap="round"><g transform="translate(170 130.63750592462054) rotate(0 70 40)"><path d="M0.65 -0.71 C10.76 5.71, 36.79 25.64, 60.21 39.18 C83.64 52.72, 127.83 73.9, 141.19 80.53 M-0.47 1.53 C9.54 8.02, 35.79 27.47, 59.38 40.29 C82.96 53.11, 127.47 71.93, 141.04 78.47" stroke="#ced4da" stroke-width="4" fill="none"></path></g></g><mask></mask><g stroke-linecap="round"><g transform="translate(190 250.63750592462054) rotate(0 30 80)"><path d="M0.65 -0.96 C10.69 25.78, 50.59 134.19, 60.43 161.16 M-0.47 1.15 C9.43 27.52, 49.83 133.34, 59.7 159.65" stroke="#2f9e44" stroke-width="1" fill="none"></path></g></g><mask></mask><g stroke-linecap="round"><g transform="translate(150 230.63750592462048) rotate(0 -40 50.00000000000006)"><path d="M-0.86 0 C-14.11 16.34, -66.62 82.03, -80 98.89 M0.89 -1.05 C-12.48 15.32, -67.66 83.11, -80.95 99.85" stroke="#2f9e44" stroke-width="1" fill="none"></path></g></g><mask></mask><g stroke-linecap="round"><g transform="translate(330 250.63750592462054) rotate(0 -30 80)"><path d="M-0.93 -0.55 C-10.86 26.02, -49.5 133.46, -59.15 160.15 M0.78 1.77 C-9.27 28.5, -49.69 135.28, -59.65 161.77" stroke="#ced4da" stroke-width="1" fill="none"></path></g></g><mask></mask><g stroke-linecap="round"><g transform="translate(370 230.63750592462048) rotate(0 40 50.00000000000006)"><path d="M0.34 0.74 C13.78 17.42, 67.43 83.28, 80.84 99.89 M-0.93 0.09 C12.39 16.97, 66.76 85, 80.33 101.36" stroke="#ced4da" stroke-width="1" fill="none"></path></g></g><mask></mask><g transform="translate(150 50.637505924620555) rotate(0 5.4480133056640625 10)"><text x="0" y="14.016" font-family="Virgil, Segoe UI Emoji" font-size="16px" fill="#1971c2" text-anchor="start" style="white-space: pre;" direction="ltr" dominant-baseline="alphabetic">3</text></g><g transform="translate(350 90.63750592462056) rotate(0 4.944007873535156 10)"><text x="0" y="14.016" font-family="Virgil, Segoe UI Emoji" font-size="16px" fill="#ced4da" text-anchor="start" style="white-space: pre;" direction="ltr" dominant-baseline="alphabetic">5</text></g><g transform="translate(390 150.63750592462054) rotate(0 6.809989929199219 12.5)"><text x="0" y="17.52" font-family="Virgil, Segoe UI Emoji" font-size="20px" fill="#1971c2" text-anchor="start" style="white-space: pre;" direction="ltr" dominant-baseline="alphabetic">3</text></g><g transform="translate(410 250.63750592462054) rotate(0 6.399993896484375 12.5)"><text x="0" y="17.52" font-family="Virgil, Segoe UI Emoji" font-size="20px" fill="#ced4da" text-anchor="start" style="white-space: pre;" direction="ltr" dominant-baseline="alphabetic">4</text></g><g transform="translate(390 410.63750592462054) rotate(0 7.649993896484375 12.5)"><text x="0" y="17.52" font-family="Virgil, Segoe UI Emoji" font-size="20px" fill="#ced4da" text-anchor="start" style="white-space: pre;" direction="ltr" dominant-baseline="alphabetic">8</text></g><g transform="translate(110 410.63750592462054) rotate(0 6.809989929199219 12.5)"><text x="0" y="17.52" font-family="Virgil, Segoe UI Emoji" font-size="20px" fill="#ced4da" text-anchor="start" style="white-space: pre;" direction="ltr" dominant-baseline="alphabetic">3</text></g><g transform="translate(130 330.63750592462054) rotate(0 6.399993896484375 12.5)"><text x="0" y="17.52" font-family="Virgil, Segoe UI Emoji" font-size="20px" fill="#ced4da" text-anchor="start" style="white-space: pre;" direction="ltr" dominant-baseline="alphabetic">6</text></g><g transform="translate(210 270.63750592462054) rotate(0 7.1199951171875 12.5)"><text x="0" y="17.52" font-family="Virgil, Segoe UI Emoji" font-size="20px" fill="#1971c2" text-anchor="start" style="white-space: pre;" direction="ltr" dominant-baseline="alphabetic">2</text></g><g transform="translate(330 270.63750592462054) rotate(0 6.17999267578125 12.5)"><text x="0" y="17.52" font-family="Virgil, Segoe UI Emoji" font-size="20px" fill="#ced4da" text-anchor="start" style="white-space: pre;" direction="ltr" dominant-baseline="alphabetic">5</text></g><g transform="translate(110 230.63750592462054) rotate(0 2.7099990844726562 12.5)"><text x="0" y="17.52" font-family="Virgil, Segoe UI Emoji" font-size="20px" fill="#1971c2" text-anchor="start" style="white-space: pre;" direction="ltr" dominant-baseline="alphabetic">1</text></g><g transform="translate(70 190.63750592462054) rotate(0 7.1199951171875 12.5)"><text x="0" y="17.52" font-family="Virgil, Segoe UI Emoji" font-size="20px" fill="#1971c2" text-anchor="start" style="white-space: pre;" direction="ltr" dominant-baseline="alphabetic">2</text></g><g transform="translate(250 210.63750592462054) rotate(0 6.399993896484375 12.5)"><text x="0" y="17.52" font-family="Virgil, Segoe UI Emoji" font-size="20px" fill="#1971c2" text-anchor="start" style="white-space: pre;" direction="ltr" dominant-baseline="alphabetic">4</text></g><g transform="translate(270 170.63750592462054) rotate(0 6.399993896484375 12.5)"><text x="0" y="17.52" font-family="Virgil, Segoe UI Emoji" font-size="20px" fill="#ced4da" text-anchor="start" style="white-space: pre;" direction="ltr" dominant-baseline="alphabetic">6</text></g><g transform="translate(290 150.63750592462054) rotate(0 6.809989929199219 12.5)"><text x="0" y="17.52" font-family="Virgil, Segoe UI Emoji" font-size="20px" fill="#1971c2" text-anchor="start" style="white-space: pre;" direction="ltr" dominant-baseline="alphabetic">3</text></g><g transform="translate(210 170.63750592462054) rotate(0 5.379997253417969 12.5)"><text x="0" y="17.52" font-family="Virgil, Segoe UI Emoji" font-size="20px" fill="#ced4da" text-anchor="start" style="white-space: pre;" direction="ltr" dominant-baseline="alphabetic">7</text></g><g transform="translate(470 190.63750592462054) rotate(0 6.17999267578125 12.5)"><text x="0" y="17.52" font-family="Virgil, Segoe UI Emoji" font-size="20px" fill="#ced4da" text-anchor="start" style="white-space: pre;" direction="ltr" dominant-baseline="alphabetic">5</text></g></svg>