<svg version="1.1" xmlns="http://www.w3.org/2000/svg" viewBox="0 0 520 441.4532540637925" width="520" height="441.4532540637925" filter="invert(93%) hue-rotate(180deg)">
  <!-- svg-source:excalidraw -->
  
  <defs>
    <style class="style-fonts">
      @font-face {
        font-family: "Virgil";
        src: url("https://excalidraw.com/Virgil.woff2");
      }
      @font-face {
        font-family: "Cascadia";
        src: url("https://excalidraw.com/Cascadia.woff2");
      }
      @font-face {
        font-family: "Assistant";
        src: url("https://excalidraw.com/Assistant-Regular.woff2");
      }
    </style>
    
  </defs>
  <rect x="0" y="0" width="520" height="441.4532540637925" fill="#f8f9fa"></rect><g stroke-linecap="round" transform="translate(450 271.4532540637925) rotate(0 30 30)"><path d="M37.73 0.84 C43.66 2.18, 50.59 7.95, 54.25 13.3 C57.91 18.64, 60.21 26.37, 59.68 32.92 C59.15 39.47, 55.57 47.95, 51.07 52.6 C46.56 57.25, 39.25 60.43, 32.64 60.81 C26.04 61.18, 16.74 58.98, 11.46 54.85 C6.17 50.71, 2.47 42.56, 0.94 36.01 C-0.6 29.45, -0.52 21.16, 2.27 15.53 C5.05 9.89, 10.86 4.29, 17.63 2.18 C24.4 0.06, 38.14 2.13, 42.87 2.84 C47.59 3.55, 46.31 5.8, 45.98 6.44 M20.29 2.61 C26 0.31, 34.86 -1.13, 40.93 1.13 C46.99 3.39, 53.75 10.06, 56.66 16.17 C59.58 22.29, 59.74 31.6, 58.4 37.82 C57.07 44.05, 53.54 49.65, 48.63 53.52 C43.72 57.4, 35.61 61.5, 28.95 61.06 C22.29 60.62, 13.58 55.39, 8.67 50.87 C3.76 46.35, 0.21 40.32, -0.54 33.95 C-1.28 27.58, 0.8 18.26, 4.2 12.64 C7.59 7.01, 17.19 2.2, 19.82 0.2 C22.45 -1.81, 19.71 -0.04, 19.98 0.61" stroke="#2f9e44" stroke-width="1" fill="none"></path></g><g transform="translate(472.9768066352044 288.74005062819606) rotate(0 6.809989929199219 12.5)"><text x="6.809989929199219" y="17.52" font-family="Virgil, Segoe UI Emoji" font-size="20px" fill="#2f9e44" text-anchor="middle" style="white-space: pre;" direction="ltr" dominant-baseline="alphabetic">3</text></g><g stroke-linecap="round" transform="translate(10 71.45325406379249) rotate(0 30 24.5)"><path d="M30.85 0.54 C36.96 0.49, 44.91 3.31, 49.64 6.66 C54.37 10, 58.19 15.58, 59.23 20.61 C60.27 25.64, 59.06 32.34, 55.88 36.83 C52.71 41.32, 46.2 45.73, 40.19 47.54 C34.18 49.34, 25.9 49.51, 19.83 47.65 C13.77 45.79, 6.84 40.91, 3.8 36.38 C0.75 31.84, 0.29 25.68, 1.55 20.44 C2.81 15.21, 5.41 8.41, 11.36 4.96 C17.31 1.51, 32.21 0.09, 37.25 -0.25 C42.29 -0.58, 41.9 2.42, 41.62 2.94 M41.02 0.59 C47.09 2.21, 54.18 8.68, 57.43 13.38 C60.68 18.09, 62.13 23.55, 60.53 28.83 C58.93 34.1, 53.13 41.78, 47.84 45.05 C42.54 48.32, 35.19 48.74, 28.75 48.44 C22.32 48.14, 13.78 46.6, 9.22 43.25 C4.67 39.9, 2.37 33.83, 1.44 28.36 C0.5 22.89, 0.38 15.11, 3.6 10.41 C6.83 5.71, 14.59 1.5, 20.78 0.16 C26.97 -1.18, 37.24 1.98, 40.75 2.36 C44.27 2.74, 41.99 2.35, 41.87 2.43" stroke="#1e1e1e" stroke-width="1" fill="none"></path></g><g transform="translate(32.136802667919255 83.62913792472207) rotate(0 7.649993896484375 12.5)"><text x="7.649993896484375" y="17.52" font-family="Virgil, Segoe UI Emoji" font-size="20px" fill="#1e1e1e" text-anchor="middle" style="white-space: pre;" direction="ltr" dominant-baseline="alphabetic">8</text></g><g stroke-linecap="round" transform="translate(230 51.453254063792485) rotate(0 30 30)"><path d="M32.08 -0.56 C38.03 -0.12, 45.96 4.93, 50.46 9.65 C54.96 14.36, 58.56 21.4, 59.09 27.73 C59.61 34.07, 57.19 42.52, 53.62 47.64 C50.05 52.77, 43.78 57, 37.66 58.49 C31.54 59.98, 22.73 59.38, 16.9 56.56 C11.07 53.74, 5.35 47.33, 2.68 41.56 C0.01 35.79, -0.68 27.97, 0.89 21.91 C2.46 15.86, 5.57 8.67, 12.09 5.22 C18.61 1.76, 34.15 1.03, 40.01 1.17 C45.87 1.32, 47.21 5.52, 47.25 6.08 M40.32 1.22 C46.24 3.1, 52.57 10.67, 55.53 16.52 C58.49 22.38, 59 30.39, 58.06 36.33 C57.13 42.26, 54.61 48.3, 49.95 52.13 C45.29 55.97, 36.84 59.03, 30.11 59.36 C23.39 59.69, 14.48 58.4, 9.61 54.14 C4.74 49.88, 1.8 40.29, 0.89 33.78 C-0.02 27.27, 1.02 20.31, 4.16 15.09 C7.29 9.88, 13.84 4.42, 19.7 2.48 C25.55 0.54, 35.98 3.38, 39.27 3.45 C42.56 3.52, 39.59 2.69, 39.43 2.89" stroke="#2f9e44" stroke-width="1" fill="none"></path></g><g transform="translate(257.076797479931 68.74005062819606) rotate(0 2.7099990844726562 12.5)"><text x="2.7099990844726562" y="17.52" font-family="Virgil, Segoe UI Emoji" font-size="20px" fill="#2f9e44" text-anchor="middle" style="white-space: pre;" direction="ltr" dominant-baseline="alphabetic">1</text></g><g stroke-linecap="round" transform="translate(350 151.45325406379249) rotate(0 30 30)"><path d="M37.05 0.96 C43.07 1.89, 49.02 6.39, 52.9 11.31 C56.78 16.24, 60.32 24.25, 60.33 30.53 C60.35 36.8, 57.14 44.23, 52.97 48.97 C48.8 53.71, 41.74 58.02, 35.33 58.96 C28.92 59.9, 20.14 57.83, 14.49 54.62 C8.83 51.42, 3.51 45.76, 1.42 39.72 C-0.67 33.69, -0.35 24.47, 1.95 18.44 C4.25 12.4, 9.36 6.26, 15.23 3.51 C21.09 0.76, 33.17 2.23, 37.15 1.95 C41.13 1.66, 39.06 1.34, 39.11 1.82 M41.28 1.75 C46.75 3.71, 52.26 10.1, 55.17 15.88 C58.08 21.66, 59.52 30.41, 58.73 36.44 C57.93 42.47, 55.42 48.18, 50.4 52.06 C45.39 55.94, 35.35 59.65, 28.63 59.71 C21.91 59.78, 14.7 56.59, 10.08 52.47 C5.47 48.35, 1.92 41.25, 0.94 34.98 C-0.04 28.7, 1.02 20.55, 4.21 14.82 C7.41 9.08, 14.09 2.65, 20.12 0.56 C26.16 -1.52, 36.83 1.91, 40.43 2.32 C44.04 2.73, 41.93 2.43, 41.76 3.01" stroke="#2f9e44" stroke-width="1" fill="none"></path></g><g transform="translate(372.9768066352044 168.74005062819606) rotate(0 6.809989929199219 12.5)"><text x="6.809989929199219" y="17.52" font-family="Virgil, Segoe UI Emoji" font-size="20px" fill="#2f9e44" text-anchor="middle" style="white-space: pre;" direction="ltr" dominant-baseline="alphabetic">3</text></g><g stroke-linecap="round" transform="translate(10 271.4532540637925) rotate(0 30 30)"><path d="M30.73 -0.11 C36.71 -0.67, 44.17 2.34, 48.99 6.37 C53.81 10.4, 58.34 17.75, 59.66 24.07 C60.98 30.39, 59.98 38.7, 56.93 44.29 C53.88 49.88, 47.37 55.38, 41.37 57.59 C35.36 59.8, 26.95 59.66, 20.9 57.56 C14.86 55.46, 8.52 50.37, 5.08 45 C1.64 39.63, -0.53 31.66, 0.26 25.32 C1.05 18.98, 4.39 11.1, 9.82 6.96 C15.24 2.83, 28.25 1.39, 32.78 0.5 C37.31 -0.4, 37.07 1.26, 37 1.59 M34.08 1.25 C39.79 2.05, 46.77 6.62, 51.27 11.39 C55.78 16.16, 60.67 23.85, 61.1 29.89 C61.53 35.93, 58.26 42.51, 53.86 47.64 C49.45 52.76, 41.14 59.28, 34.69 60.65 C28.24 62.03, 20.54 59.31, 15.15 55.9 C9.77 52.5, 4.48 46, 2.39 40.21 C0.31 34.41, 0.67 27.3, 2.63 21.12 C4.59 14.95, 8.74 6.54, 14.16 3.14 C19.58 -0.25, 31.64 1.05, 35.15 0.74 C38.66 0.42, 35.66 0.68, 35.23 1.26" stroke="#1e1e1e" stroke-width="1" fill="none"></path></g><g transform="translate(33.696800226513005 288.74005062819606) rotate(0 6.089996337890625 12.5)"><text x="6.089996337890625" y="17.52" font-family="Virgil, Segoe UI Emoji" font-size="20px" fill="#1e1e1e" text-anchor="middle" style="white-space: pre;" direction="ltr" dominant-baseline="alphabetic">9</text></g><g stroke-linecap="round" transform="translate(110 151.45325406379249) rotate(0 30 30)"><path d="M22.36 0.83 C28.2 -1.08, 36.33 0.17, 41.99 2.75 C47.64 5.33, 53.27 10.7, 56.28 16.31 C59.3 21.91, 61.35 30.17, 60.06 36.37 C58.78 42.56, 54.04 49.54, 48.56 53.48 C43.09 57.42, 33.9 60.33, 27.23 60.01 C20.56 59.69, 12.91 55.9, 8.54 51.55 C4.17 47.21, 1.7 40.35, 1.01 33.92 C0.32 27.49, 0.84 18.63, 4.38 12.96 C7.93 7.29, 18.96 1.9, 22.27 -0.08 C25.58 -2.05, 24.08 0.53, 24.24 1.11 M34.48 0.03 C40.71 0.22, 47.74 3.35, 51.75 8.25 C55.75 13.15, 57.99 23.04, 58.5 29.41 C59 35.78, 58.53 41.65, 54.75 46.46 C50.98 51.27, 42.03 56.7, 35.86 58.29 C29.69 59.87, 23.27 58.64, 17.75 55.98 C12.22 53.31, 5.42 48.1, 2.71 42.29 C0.01 36.48, -0.5 27.29, 1.51 21.11 C3.51 14.92, 9.63 8.43, 14.74 5.18 C19.85 1.93, 28.88 2.19, 32.15 1.59 C35.42 0.99, 34.36 1.48, 34.33 1.58" stroke="#1e1e1e" stroke-width="1" fill="none"></path></g><g transform="translate(134.40679931098566 168.74005062819606) rotate(0 5.379997253417969 12.5)"><text x="5.379997253417969" y="17.52" font-family="Virgil, Segoe UI Emoji" font-size="20px" fill="#1e1e1e" text-anchor="middle" style="white-space: pre;" direction="ltr" dominant-baseline="alphabetic">7</text></g><g stroke-linecap="round" transform="translate(230 371.4532540637925) rotate(0 30 30)"><path d="M24.86 1.25 C30.82 0.06, 40.97 1.89, 46.46 4.99 C51.95 8.1, 55.73 14.01, 57.79 19.87 C59.85 25.73, 61.21 34.01, 58.81 40.17 C56.42 46.33, 49.4 53.66, 43.43 56.83 C37.46 60, 29.06 60.71, 23.02 59.21 C16.97 57.71, 10.85 52.98, 7.15 47.81 C3.45 42.64, 0.63 34.5, 0.84 28.19 C1.04 21.88, 3.4 14.74, 8.38 9.95 C13.37 5.17, 26.26 0.92, 30.77 -0.52 C35.28 -1.97, 35.34 0.68, 35.43 1.29 M41.09 2.4 C46.82 4.21, 53.66 11.06, 56.7 16.61 C59.74 22.17, 60.53 29.8, 59.33 35.72 C58.13 41.64, 54.25 47.84, 49.51 52.11 C44.78 56.39, 37.5 61.11, 30.92 61.38 C24.34 61.64, 15.2 57.95, 10.01 53.7 C4.82 49.45, 0.53 42.44, -0.24 35.87 C-1 29.29, 1.84 19.83, 5.44 14.24 C9.04 8.66, 15.65 4.56, 21.35 2.36 C27.06 0.16, 36.55 0.88, 39.66 1.04 C42.78 1.19, 39.98 2.44, 40.05 3.26" stroke="#1e1e1e" stroke-width="1" fill="none"></path></g><g transform="translate(252.13680266791926 388.74005062819606) rotate(0 7.649993896484375 12.5)"><text x="7.649993896484375" y="17.52" font-family="Virgil, Segoe UI Emoji" font-size="20px" fill="#1e1e1e" text-anchor="middle" style="white-space: pre;" direction="ltr" dominant-baseline="alphabetic">8</text></g><g stroke-linecap="round" transform="translate(450 51.453254063792485) rotate(0 30 30)"><path d="M28.02 0.94 C34.2 0.26, 43.74 2.33, 49.02 6.18 C54.31 10.04, 58.54 17.66, 59.74 24.07 C60.93 30.47, 59.26 39.12, 56.19 44.61 C53.13 50.1, 47.42 54.81, 41.37 57.01 C35.31 59.21, 26.11 59.72, 19.87 57.81 C13.63 55.91, 7.21 50.75, 3.94 45.57 C0.67 40.4, -0.71 32.91, 0.25 26.75 C1.21 20.59, 4.48 12.98, 9.68 8.61 C14.88 4.23, 27.79 1.93, 31.46 0.51 C35.13 -0.92, 31.93 -0.26, 31.7 0.07 M31.83 -1.31 C37.7 -0.78, 46.79 4.33, 51.25 9.37 C55.72 14.42, 58.01 22.44, 58.59 28.96 C59.18 35.49, 58.53 43.34, 54.76 48.5 C50.99 53.65, 42.42 58.61, 35.98 59.9 C29.53 61.2, 21.86 59.2, 16.09 56.28 C10.31 53.37, 3.94 48.25, 1.33 42.4 C-1.28 36.55, -1.35 27.5, 0.43 21.17 C2.2 14.83, 6.6 7.71, 11.99 4.39 C17.38 1.07, 29.38 1.61, 32.74 1.24 C36.1 0.88, 31.98 1.87, 32.17 2.2" stroke="#2f9e44" stroke-width="1" fill="none"></path></g><g transform="translate(473.6068038886224 68.74005062819606) rotate(0 6.17999267578125 12.5)"><text x="6.17999267578125" y="17.52" font-family="Virgil, Segoe UI Emoji" font-size="20px" fill="#2f9e44" text-anchor="middle" style="white-space: pre;" direction="ltr" dominant-baseline="alphabetic">5</text></g><g stroke-linecap="round"><g transform="translate(230 91.45325406379249) rotate(0 -40 30)"><path d="M0.25 0.37 C-6.62 3.75, -27.22 10.91, -40.4 20.94 C-53.58 30.96, -72.34 54.04, -78.83 60.52 M-1.08 -0.48 C-8.22 2.52, -28.58 9.49, -41.56 19.31 C-54.55 29.13, -72.78 51.52, -78.97 58.45" stroke="#1e1e1e" stroke-width="1" fill="none"></path></g></g><mask></mask><g stroke-linecap="round"><g transform="translate(290 91.45325406379249) rotate(0 40 30)"><path d="M-0.43 0.72 C6.49 4.11, 27.06 10.63, 40.64 20.58 C54.23 30.53, 74.54 54.04, 81.09 60.43 M1.55 0.06 C8.45 3.06, 26.81 9.06, 40.04 18.77 C53.26 28.47, 74.21 51.52, 80.9 58.31" stroke="#2f9e44" stroke-width="1" fill="none"></path></g></g><mask></mask><g stroke-linecap="round"><g transform="translate(170 191.45325406379249) rotate(0 90 0)"><path d="M-1.13 1.19 C29.05 1.2, 150.69 1.23, 180.78 0.84 M0.47 0.77 C30.59 0.38, 150.59 -0.65, 180.24 -0.84" stroke="#1e1e1e" stroke-width="1" fill="none"></path></g></g><mask></mask><g stroke-linecap="round"><g transform="translate(350.17505202669236 170.94266519401484) rotate(0 -140.42471983037973 -32.60743391576125)"><path d="M-0.32 -0.86 C-46.88 -11.8, -233.86 -53.94, -280.41 -64.77 M1.72 1.3 C-44.87 -10.09, -234.21 -55.63, -281.13 -66.66" stroke="#1e1e1e" stroke-width="1" fill="none"></path></g></g><mask></mask><g stroke-linecap="round"><g transform="translate(153.60441175119922 210.00005740328794) rotate(0 46.395588248800664 81.45319666050455)"><path d="M-0.59 0.62 C14.67 27.7, 76.09 135.19, 91.61 162.23 M1.3 -0.1 C16.9 27.15, 78.65 136.03, 93.7 163.41" stroke="#1e1e1e" stroke-width="1" fill="none"></path></g></g><mask></mask><g stroke-linecap="round"><g transform="translate(366.3955882488008 210.00005740328794) rotate(0 -46.395588248800664 81.45319666050455)"><path d="M-0.09 0.96 C-15.3 28.1, -76.31 136, -91.7 162.98 M-1.6 0.42 C-16.83 27.75, -76.84 137.28, -92.08 164.56" stroke="#1e1e1e" stroke-width="1" fill="none"></path></g></g><mask></mask><g stroke-linecap="round"><g transform="translate(70 311.4532540637925) rotate(0 190 0)"><path d="M-0.23 -0.1 C63.19 -0.01, 317.52 -0.12, 381.02 -0.03 M-1.81 -1.2 C61.5 -0.86, 316.91 1.58, 380.61 1.49" stroke="#1e1e1e" stroke-width="1" fill="none"></path></g></g><mask></mask><g stroke-linecap="round"><g transform="translate(230 411.4532540637925) rotate(0 -90 -40)"><path d="M0.6 0.84 C-19.42 -2.66, -90.45 -7.49, -120.44 -20.86 C-150.43 -34.23, -169.38 -69.52, -179.33 -79.38 M-0.54 0.24 C-20.73 -3.14, -91.75 -6.16, -121.62 -19.77 C-151.48 -33.38, -170.03 -71.55, -179.75 -81.4" stroke="#1e1e1e" stroke-width="1" fill="none"></path></g></g><mask></mask><g stroke-linecap="round"><g transform="translate(290 411.4532540637925) rotate(0 90 -40)"><path d="M-0.76 0.9 C16.21 -2.51, 70.69 -7.85, 100.95 -21.2 C131.21 -34.55, 167.56 -69.44, 180.8 -79.2 M1.05 0.32 C18.01 -2.92, 70.6 -6.72, 100.5 -20.29 C130.4 -33.86, 167.07 -71.41, 180.45 -81.12" stroke="#1e1e1e" stroke-width="1" fill="none"></path></g></g><mask></mask><g stroke-linecap="round"><g transform="translate(489.99999996795395 271.4532540531105) rotate(0 1.349303602182772e-8 -79.9999999938157)"><path d="M-0.05 -0.26 C-0.12 -26.61, -0.88 -132.25, -0.79 -159.02 M-1.54 -1.44 C-1.19 -28.04, 1.25 -134.2, 1.5 -160.63" stroke="#1e1e1e" stroke-width="1" fill="none"></path></g></g><mask></mask><g stroke-linecap="round"><g transform="translate(467.1694992368525 272.55034330783445) rotate(0 -88.58474961842626 -100.54854462202098)"><path d="M-0.7 -0.03 C-10.06 -27.01, -27.34 -128.63, -56.71 -162.15 C-86.07 -195.68, -156.83 -194.76, -176.9 -201.19 M1.13 -1.08 C-8.3 -27.94, -27.64 -128.03, -57.41 -161.17 C-87.19 -194.31, -157.62 -193.55, -177.52 -199.92" stroke="#2f9e44" stroke-width="1" fill="none"></path></g></g><mask></mask><g stroke-linecap="round"><g transform="translate(69.36997344232623 86.27002808152426) rotate(0 200.3150132788369 -37.40838700886589)"><path d="M-0.53 0.83 C19.68 -11.73, 53.52 -69.82, 120.57 -75.69 C187.61 -81.56, 355.12 -41.21, 401.75 -34.4 M1.4 0.22 C21.5 -12.18, 52.89 -68.48, 119.59 -74.61 C186.28 -80.73, 354.76 -43.34, 401.57 -36.53" stroke="#1e1e1e" stroke-width="1" fill="none"></path></g></g><mask></mask><g stroke-linecap="round"><g transform="translate(30.000110775931716 120.09010570849611) rotate(0 0.0012035609051963547 75.68115458672482)"><path d="M0.45 1.15 C0.51 26.24, 1.03 126.01, 0.99 150.93 M-0.77 0.71 C-0.85 25.93, 0.51 127.09, 0.56 152.25" stroke="#1e1e1e" stroke-width="1" fill="none"></path></g></g><mask></mask><g stroke-linecap="round"><g transform="translate(124.63717117275951 209.09350533661757) rotate(0 -26.65363642905902 44.03293051277131)"><path d="M-0.35 -1 C-9.11 13.45, -43.84 72.83, -52.73 87.58 M1.66 1.1 C-7.19 15.62, -43.99 74.29, -53.38 88.87" stroke="#1e1e1e" stroke-width="1" fill="none"></path></g></g><mask></mask><g stroke-linecap="round"><g transform="translate(448.67010168535853 297.1593663621601) rotate(0 -26.65363642896773 -44.03293051282199)"><path d="M-1.02 0.66 C-9.97 -14.03, -44.95 -73.18, -53.62 -87.85 M0.64 -0.04 C-8.49 -15.14, -45.68 -74.98, -54.73 -89.85" stroke="#1e1e1e" stroke-width="1" fill="none"></path></g></g><mask></mask><g stroke-linecap="round"><g transform="translate(290 71.45325406379249) rotate(0 80 0)"><path d="M-0.96 -0.91 C25.8 -0.94, 134.08 0.21, 160.89 0.5 M0.73 1.23 C27.38 0.78, 134.01 -0.97, 160.42 -1.36" stroke="#2f9e44" stroke-width="1" fill="none"></path></g></g><mask></mask><g transform="translate(190 91.45325406379249) rotate(0 4.304008483886719 10)"><text x="0" y="14.016" font-family="Virgil, Segoe UI Emoji" font-size="16px" fill="#e03131" text-anchor="start" style="white-space: pre;" direction="ltr" dominant-baseline="alphabetic">7</text></g><g transform="translate(310 111.45325406379249) rotate(0 5.4480133056640625 10)"><text x="0" y="14.016" font-family="Virgil, Segoe UI Emoji" font-size="16px" fill="#1971c2" text-anchor="start" style="white-space: pre;" direction="ltr" dominant-baseline="alphabetic">3</text></g><g transform="translate(370 51.453254063792485) rotate(0 4.944007873535156 10)"><text x="0" y="14.016" font-family="Virgil, Segoe UI Emoji" font-size="16px" fill="#1971c2" text-anchor="start" style="white-space: pre;" direction="ltr" dominant-baseline="alphabetic">5</text></g><g transform="translate(410 131.45325406379249) rotate(0 5.4480133056640625 10)"><text x="0" y="14.016" font-family="Virgil, Segoe UI Emoji" font-size="16px" fill="#1971c2" text-anchor="start" style="white-space: pre;" direction="ltr" dominant-baseline="alphabetic">3</text></g><g transform="translate(230 171.45325406379249) rotate(0 5.1200103759765625 10)"><text x="0" y="14.016" font-family="Virgil, Segoe UI Emoji" font-size="16px" fill="#e03131" text-anchor="start" style="white-space: pre;" direction="ltr" dominant-baseline="alphabetic">4</text></g><g transform="translate(190 251.45325406379249) rotate(0 5.696014404296875 10)"><text x="0" y="14.016" font-family="Virgil, Segoe UI Emoji" font-size="16px" fill="#e03131" text-anchor="start" style="white-space: pre;" direction="ltr" dominant-baseline="alphabetic">2</text></g><g transform="translate(90 231.45325406379249) rotate(0 2.1680068969726562 10)"><text x="0" y="14.016" font-family="Virgil, Segoe UI Emoji" font-size="16px" fill="#e03131" text-anchor="start" style="white-space: pre;" direction="ltr" dominant-baseline="alphabetic">1</text></g><g transform="translate(70 371.4532540637925) rotate(0 5.4480133056640625 10)"><text x="0" y="14.016" font-family="Virgil, Segoe UI Emoji" font-size="16px" fill="#e03131" text-anchor="start" style="white-space: pre;" direction="ltr" dominant-baseline="alphabetic">3</text></g><g transform="translate(330 231.45325406379249) rotate(0 4.944007873535156 10)"><text x="0" y="14.016" font-family="Virgil, Segoe UI Emoji" font-size="16px" fill="#e03131" text-anchor="start" style="white-space: pre;" direction="ltr" dominant-baseline="alphabetic">5</text></g><g transform="translate(430 371.4532540637925) rotate(0 6.1200103759765625 10)"><text x="0" y="14.016" font-family="Virgil, Segoe UI Emoji" font-size="16px" fill="#e03131" text-anchor="start" style="white-space: pre;" direction="ltr" dominant-baseline="alphabetic">8</text></g><g transform="translate(136.18615520851745 293.2112363240884) rotate(0 5.1200103759765625 10)"><text x="0" y="14.016" font-family="Virgil, Segoe UI Emoji" font-size="16px" fill="#e03131" text-anchor="start" style="white-space: pre;" direction="ltr" dominant-baseline="alphabetic">6</text></g><g transform="translate(10 171.45325406379249) rotate(0 5.696014404296875 10)"><text x="0" y="14.016" font-family="Virgil, Segoe UI Emoji" font-size="16px" fill="#e03131" text-anchor="start" style="white-space: pre;" direction="ltr" dominant-baseline="alphabetic">2</text></g><g transform="translate(100.42960219849408 23.66183671006698) rotate(0 5.4480133056640625 10)"><text x="0" y="14.016" font-family="Virgil, Segoe UI Emoji" font-size="16px" fill="#e03131" text-anchor="start" style="white-space: pre;" direction="ltr" dominant-baseline="alphabetic">3</text></g><g transform="translate(470 171.45325406379249) rotate(0 4.944007873535156 10)"><text x="0" y="14.016" font-family="Virgil, Segoe UI Emoji" font-size="16px" fill="#e03131" text-anchor="start" style="white-space: pre;" direction="ltr" dominant-baseline="alphabetic">5</text></g><g transform="translate(110 91.45325406379249) rotate(0 5.1200103759765625 10)"><text x="0" y="14.016" font-family="Virgil, Segoe UI Emoji" font-size="16px" fill="#e03131" text-anchor="start" style="white-space: pre;" direction="ltr" dominant-baseline="alphabetic">6</text></g><g transform="translate(410 271.4532540637925) rotate(0 5.1200103759765625 10)"><text x="0" y="14.016" font-family="Virgil, Segoe UI Emoji" font-size="16px" fill="#e03131" text-anchor="start" style="white-space: pre;" direction="ltr" dominant-baseline="alphabetic">4</text></g></svg>